<svg xmlns="http://www.w3.org/2000/svg" xmlns:xlink="http://www.w3.org/1999/xlink" width="448" height="253" viewBox="0 0 448 253">
    <defs>
        <radialGradient id="a" cx="51.025%" cy="53.985%" r="91.943%" fx="51.025%" fy="53.985%" gradientTransform="matrix(.55914 0 0 .66986 .225 .178)">
            <stop offset="0%" stop-color="#0F247C"/>
            <stop offset="82.942%" stop-color="#0B0833"/>
            <stop offset="100%" stop-color="#0A082F" stop-opacity="0"/>
        </radialGradient>
        <linearGradient id="b" x1="45.498%" x2="99.214%" y1="50%" y2="50%">
            <stop offset=".005%" stop-color="#0D134F" stop-opacity=".136"/>
            <stop offset="100%" stop-color="#181D6A"/>
        </linearGradient>
        <linearGradient id="c" x1="45.922%" x2="92.783%" y1="50%" y2="50%">
            <stop offset="0%" stop-color="#0D1C61" stop-opacity=".171"/>
            <stop offset="100%" stop-color="#111F5C"/>
        </linearGradient>
        <linearGradient id="d" x1="70.652%" x2="70.652%" y1="85.461%" y2="12.049%">
            <stop offset="0%" stop-color="#0B0833"/>
            <stop offset="49.662%" stop-color="#13104E"/>
            <stop offset="100%" stop-color="#211D6E"/>
        </linearGradient>
        <linearGradient id="h" x1="38.977%" x2="50%" y1="39.22%" y2="68%">
            <stop offset="0%" stop-color="#210F66"/>
            <stop offset="100%" stop-color="#251B81"/>
        </linearGradient>
        <linearGradient id="g" x1="36.987%" x2="99.142%" y1="50%" y2="50%">
            <stop offset="0%" stop-color="#201269"/>
            <stop offset="100%" stop-color="#231B81"/>
        </linearGradient>
        <ellipse id="f" cx="212.621" cy="45.929" rx="28.497" ry="17.098"/>
        <filter id="e" width="106.7%" height="114.2%" x="-3.4%" y="-5.6%" filterUnits="objectBoundingBox">
            <feMorphology in="SourceAlpha" operator="dilate" radius="1.422" result="shadowSpreadOuter1"/>
            <feOffset dy="1" in="shadowSpreadOuter1" result="shadowOffsetOuter1"/>
            <feComposite in="shadowOffsetOuter1" in2="SourceAlpha" operator="out" result="shadowOffsetOuter1"/>
            <feColorMatrix in="shadowOffsetOuter1" values="0 0 0 0 0.0936427913 0 0 0 0 0.0453741813 0 0 0 0 0.267946105 0 0 0 1 0"/>
        </filter>
        <linearGradient id="l" x1="50%" x2="50%" y1="0%" y2="100%">
            <stop offset="0%" stop-color="#1C0E51"/>
            <stop offset="100%" stop-color="#4B1A7E"/>
        </linearGradient>
        <linearGradient id="k" x1="32.032%" x2="80.15%" y1="56.235%" y2="11.262%">
            <stop offset="0%" stop-color="#321E74"/>
            <stop offset="100%" stop-color="#4B1A7E"/>
        </linearGradient>
        <ellipse id="j" cx="117.314" cy="96.19" rx="13.136" ry="10.972"/>
        <filter id="i" width="114.6%" height="122.1%" x="-7.3%" y="-8.8%" filterUnits="objectBoundingBox">
            <feMorphology in="SourceAlpha" operator="dilate" radius="1.422" result="shadowSpreadOuter1"/>
            <feOffset dy="1" in="shadowSpreadOuter1" result="shadowOffsetOuter1"/>
            <feComposite in="shadowOffsetOuter1" in2="SourceAlpha" operator="out" result="shadowOffsetOuter1"/>
            <feColorMatrix in="shadowOffsetOuter1" values="0 0 0 0 0.0473018418 0 0 0 0 0.0215953159 0 0 0 0 0.141559103 0 0 0 1 0"/>
        </filter>
        <linearGradient id="p" x1="50%" x2="50%" y1="0%" y2="100%">
            <stop offset="0%" stop-color="#201264"/>
            <stop offset="100%" stop-color="#1F166D"/>
        </linearGradient>
        <linearGradient id="o" x1="36.987%" x2="99.142%" y1="50%" y2="50%">
            <stop offset="0%" stop-color="#1C1362"/>
            <stop offset="100%" stop-color="#1F166B"/>
        </linearGradient>
        <ellipse id="n" cx="56.702" cy="57.394" rx="21.032" ry="10.515"/>
        <filter id="m" width="109.1%" height="123%" x="-4.6%" y="-9.1%" filterUnits="objectBoundingBox">
            <feMorphology in="SourceAlpha" operator="dilate" radius="1.422" result="shadowSpreadOuter1"/>
            <feOffset dy="1" in="shadowSpreadOuter1" result="shadowOffsetOuter1"/>
            <feComposite in="shadowOffsetOuter1" in2="SourceAlpha" operator="out" result="shadowOffsetOuter1"/>
            <feColorMatrix in="shadowOffsetOuter1" values="0 0 0 0 0.0941176471 0 0 0 0 0.0588235294 0 0 0 0 0.298039216 0 0 0 1 0"/>
        </filter>
        <path id="r" d="M15.65.187h11.997v32.518H13.629V2.208c0-1.116.904-2.021 2.02-2.021z"/>
        <filter id="q" width="292.6%" height="183%" x="-96.3%" y="-41.5%" filterUnits="objectBoundingBox">
            <feOffset in="SourceAlpha" result="shadowOffsetOuter1"/>
            <feGaussianBlur in="shadowOffsetOuter1" result="shadowBlurOuter1" stdDeviation="4.5"/>
            <feColorMatrix in="shadowBlurOuter1" values="0 0 0 0 0.207843137 0 0 0 0 1 0 0 0 0 0.768627451 0 0 0 1 0"/>
        </filter>
        <path id="t" d="M2.021 6.342h11.997v31.29a2.021 2.021 0 0 1-2.021 2.02H0V8.363c0-1.115.905-2.02 2.021-2.02z"/>
        <filter id="s" width="292.6%" height="181.1%" x="-96.3%" y="-40.5%" filterUnits="objectBoundingBox">
            <feOffset in="SourceAlpha" result="shadowOffsetOuter1"/>
            <feGaussianBlur in="shadowOffsetOuter1" result="shadowBlurOuter1" stdDeviation="4.5"/>
            <feColorMatrix in="shadowBlurOuter1" values="0 0 0 0 0.207843137 0 0 0 0 1 0 0 0 0 0.768627451 0 0 0 1 0"/>
        </filter>
        <linearGradient id="u" x1="50%" x2="50%" y1="0%" y2="100%">
            <stop offset="0%" stop-color="#917CFF"/>
            <stop offset="100%" stop-color="#AC9AFF"/>
        </linearGradient>
        <path id="v" d="M57.634 54.9l-.783-.917h23.752v33.683a2.021 2.021 0 0 1-2.02 2.021H69.4a2.021 2.021 0 0 1-2.02-1.96l-.676-22.2-.59-.69-7.707 7.346v15.483a2.021 2.021 0 0 1-2.02 2.021H47.19a2.021 2.021 0 0 1-2.021-2.02v-17.24c0-.476.168-.937.476-1.302l11.99-14.224z"/>
        <filter id="w" width="106.6%" height="111.2%" x="-1.2%" y="-5.6%" filterUnits="objectBoundingBox">
            <feOffset dx="4" in="SourceAlpha" result="shadowOffsetInner1"/>
            <feComposite in="shadowOffsetInner1" in2="SourceAlpha" k2="-1" k3="1" operator="arithmetic" result="shadowInnerInner1"/>
            <feColorMatrix in="shadowInnerInner1" values="0 0 0 0 0.555979869 0 0 0 0 0.477372109 0 0 0 0 0.962890625 0 0 0 1 0"/>
        </filter>
        <linearGradient id="x" x1="50%" x2="50%" y1="0%" y2="100%">
            <stop offset="0%" stop-color="#13EBA8"/>
            <stop offset="100%" stop-color="#3CBCED"/>
        </linearGradient>
        <linearGradient id="y" x1="50%" x2="50%" y1="0%" y2="100%">
            <stop offset="0%" stop-color="#B238D2"/>
            <stop offset="100%" stop-color="#C174D5"/>
        </linearGradient>
        <linearGradient id="z" x1="50%" x2="50%" y1="0%" y2="100%">
            <stop offset="0%" stop-color="#AC9BFF"/>
            <stop offset="100%" stop-color="#C8BDFF"/>
        </linearGradient>
        <path id="A" d="M98.027 44.39h.099v16.03-5.993h-9.602a3.63 3.63 0 0 0-1.301.24v-8.703l-6.62-12.879 9.715-4.907 7.127 13.866c.386.752.574 1.555.582 2.347zm-9.34 20.066a1.617 1.617 0 0 1-1.464-1.61v-8.18l1.464 9.79z"/>
        <filter id="B" width="117.1%" height="108.2%" x="-8.6%" y="-4.1%" filterUnits="objectBoundingBox">
            <feOffset dx="3" in="SourceAlpha" result="shadowOffsetInner1"/>
            <feComposite in="shadowOffsetInner1" in2="SourceAlpha" k2="-1" k3="1" operator="arithmetic" result="shadowInnerInner1"/>
            <feColorMatrix in="shadowInnerInner1" values="0 0 0 0 0.62394569 0 0 0 0 0.552115091 0 0 0 0 1 0 0 0 1 0"/>
        </filter>
        <linearGradient id="C" x1="50%" x2="50%" y1="0%" y2="100%">
            <stop offset="0%" stop-color="#A795FF"/>
            <stop offset="100%" stop-color="#C1B4FF"/>
        </linearGradient>
        <linearGradient id="D" x1="40.831%" x2="87.554%" y1="24.98%" y2="73.079%">
            <stop offset="0%" stop-color="#A997FF"/>
            <stop offset="100%" stop-color="#C8BDFF"/>
        </linearGradient>
        <path id="E" d="M23.363 39.372h8.567v14.282h-8.567z"/>
        <filter id="F" width="111.7%" height="107%" x="-5.8%" y="-3.5%" filterUnits="objectBoundingBox">
            <feOffset dx="1" in="SourceAlpha" result="shadowOffsetInner1"/>
            <feComposite in="shadowOffsetInner1" in2="SourceAlpha" k2="-1" k3="1" operator="arithmetic" result="shadowInnerInner1"/>
            <feColorMatrix in="shadowInnerInner1" values="0 0 0 0 0.784313725 0 0 0 0 0.741176471 0 0 0 0 1 0 0 0 1 0"/>
        </filter>
        <linearGradient id="G" x1="81.414%" x2="81.414%" y1="36.397%" y2="100%">
            <stop offset="0%" stop-color="#AB99FF"/>
            <stop offset="100%" stop-color="#B3A3FF"/>
        </linearGradient>
        <linearGradient id="H" x1="81.414%" x2="81.414%" y1="36.397%" y2="100%">
            <stop offset="0%" stop-color="#A997FF"/>
            <stop offset="100%" stop-color="#B3A3FF"/>
        </linearGradient>
        <path id="I" d="M80.214 95.536c0-3.304-2.702-5.983-6.036-5.983-3.333 0-6.035 2.679-6.035 5.983"/>
        <filter id="J" width="133.1%" height="83.4%" x="-16.6%" y="-16.7%" filterUnits="objectBoundingBox">
            <feOffset dx="4" in="SourceAlpha" result="shadowOffsetInner1"/>
            <feComposite in="shadowOffsetInner1" in2="SourceAlpha" k2="-1" k3="1" operator="arithmetic" result="shadowInnerInner1"/>
            <feColorMatrix in="shadowInnerInner1" values="0 0 0 0 0.279187771 0 0 0 0 0.258019126 0 0 0 0 0.821105072 0 0 0 1 0"/>
        </filter>
        <linearGradient id="L" x1="50%" x2="50%" y1="0%" y2="98.155%">
            <stop offset="0%" stop-color="#1375C8"/>
            <stop offset="100%" stop-color="#070534"/>
        </linearGradient>
        <ellipse id="K" cx="17.095" cy="16.942" rx="16.354" ry="16.212"/>
        <filter id="M" width="127.5%" height="127.8%" x="-13.8%" y="-13.9%" filterUnits="objectBoundingBox">
            <feOffset dx="9" in="SourceAlpha" result="shadowOffsetInner1"/>
            <feComposite in="shadowOffsetInner1" in2="SourceAlpha" k2="-1" k3="1" operator="arithmetic" result="shadowInnerInner1"/>
            <feColorMatrix in="shadowInnerInner1" values="0 0 0 0 0 0 0 0 0 0 0 0 0 0 0 0 0 0 0.186543925 0"/>
        </filter>
        <linearGradient id="O" x1="65.723%" x2="35.544%" y1="80.062%" y2="68.466%">
            <stop offset="0%" stop-color="#C8BDFF"/>
            <stop offset="100%" stop-color="#C8BDFF"/>
        </linearGradient>
        <linearGradient id="P" x1="81.414%" x2="81.414%" y1="36.397%" y2="100%">
            <stop offset="0%" stop-color="#AE9DFF"/>
            <stop offset="100%" stop-color="#B3A3FF"/>
        </linearGradient>
        <path id="Q" d="M52.178 38.6h25.7v11.966h-25.7z"/>
        <filter id="R" width="111.7%" height="125.1%" x="-5.8%" y="-12.5%" filterUnits="objectBoundingBox">
            <feOffset dx="1" dy="-3" in="SourceAlpha" result="shadowOffsetInner1"/>
            <feComposite in="shadowOffsetInner1" in2="SourceAlpha" k2="-1" k3="1" operator="arithmetic" result="shadowInnerInner1"/>
            <feColorMatrix in="shadowInnerInner1" values="0 0 0 0 0.704593914 0 0 0 0 0.640967988 0 0 0 0 1 0 0 0 1 0"/>
        </filter>
        <path id="S" d="M45.508 89.553h12.121v5.79H39.718a5.79 5.79 0 0 1 5.79-5.79z"/>
        <filter id="T" width="122.3%" height="169.1%" x="-11.2%" y="-34.5%" filterUnits="objectBoundingBox">
            <feOffset dx="4" in="SourceAlpha" result="shadowOffsetInner1"/>
            <feComposite in="shadowOffsetInner1" in2="SourceAlpha" k2="-1" k3="1" operator="arithmetic" result="shadowInnerInner1"/>
            <feColorMatrix in="shadowInnerInner1" values="0 0 0 0 0.279187771 0 0 0 0 0.258019126 0 0 0 0 0.821105072 0 0 0 1 0"/>
        </filter>
        <linearGradient id="U" x1="50%" x2="50%" y1="0%" y2="100%">
            <stop offset="0%" stop-color="#13EBA8"/>
            <stop offset="100%" stop-color="#3CBCED"/>
        </linearGradient>
        <linearGradient id="V" x1="50%" x2="50%" y1="107.258%" y2="3.339%">
            <stop offset="0%" stop-color="#A53FB1"/>
            <stop offset="100%" stop-color="#2B0A3D" stop-opacity="0"/>
        </linearGradient>
        <linearGradient id="W" x1="50%" x2="50%" y1="107.258%" y2="5.841%">
            <stop offset="0%" stop-color="#A53FB1"/>
            <stop offset="100%" stop-color="#340D40" stop-opacity="0"/>
        </linearGradient>
        <linearGradient id="X" x1="50%" x2="50%" y1="107.258%" y2="5.428%">
            <stop offset="0%" stop-color="#A53FB1"/>
            <stop offset="100%" stop-color="#330D40" stop-opacity="0"/>
        </linearGradient>
        <ellipse id="Z" cx="24.6" cy="160.725" rx="13.405" ry="13.307"/>
        <filter id="Y" width="159.7%" height="160.1%" x="-29.8%" y="-26.3%" filterUnits="objectBoundingBox">
            <feOffset dy="1" in="SourceAlpha" result="shadowOffsetOuter1"/>
            <feGaussianBlur in="shadowOffsetOuter1" result="shadowBlurOuter1" stdDeviation="2.5"/>
            <feColorMatrix in="shadowBlurOuter1" values="0 0 0 0 0.647058824 0 0 0 0 0.247058824 0 0 0 0 0.694117647 0 0 0 1 0"/>
        </filter>
        <ellipse id="aa" cx="24.6" cy="160.725" rx="13.405" ry="13.307"/>
        <filter id="ab" width="118.7%" height="118.8%" x="-9.3%" y="-9.4%" filterUnits="objectBoundingBox">
            <feOffset dx="5" dy="-3" in="SourceAlpha" result="shadowOffsetInner1"/>
            <feComposite in="shadowOffsetInner1" in2="SourceAlpha" k2="-1" k3="1" operator="arithmetic" result="shadowInnerInner1"/>
            <feColorMatrix in="shadowInnerInner1" values="0 0 0 0 0.399739583 0 0 0 0 0.117860402 0 0 0 0 0.372334663 0 0 0 1 0"/>
        </filter>
        <ellipse id="ac" cx="27.09" cy="155.212" rx="3.064" ry="3.042"/>
        <filter id="ad" width="116.3%" height="116.4%" x="-8.2%" y="-8.2%" filterUnits="objectBoundingBox">
            <feOffset dy="1" in="SourceAlpha" result="shadowOffsetInner1"/>
            <feComposite in="shadowOffsetInner1" in2="SourceAlpha" k2="-1" k3="1" operator="arithmetic" result="shadowInnerInner1"/>
            <feColorMatrix in="shadowInnerInner1" values="0 0 0 0 0.449926404 0 0 0 0 0.0816949067 0 0 0 0 0.414856738 0 0 0 1 0"/>
        </filter>
        <ellipse id="ae" cx="24.409" cy="166.238" rx="1.915" ry="1.901"/>
        <filter id="af" width="126.1%" height="126.3%" x="-13.1%" y="-13.2%" filterUnits="objectBoundingBox">
            <feOffset dy="1" in="SourceAlpha" result="shadowOffsetInner1"/>
            <feComposite in="shadowOffsetInner1" in2="SourceAlpha" k2="-1" k3="1" operator="arithmetic" result="shadowInnerInner1"/>
            <feColorMatrix in="shadowInnerInner1" values="0 0 0 0 0.449926404 0 0 0 0 0.0816949067 0 0 0 0 0.414856738 0 0 0 1 0"/>
        </filter>
        <ellipse id="ag" cx="31.59" cy="161.201" rx="1.436" ry="1.426"/>
        <filter id="ah" width="134.8%" height="135.1%" x="-17.4%" y="-17.5%" filterUnits="objectBoundingBox">
            <feOffset dy="1" in="SourceAlpha" result="shadowOffsetInner1"/>
            <feComposite in="shadowOffsetInner1" in2="SourceAlpha" k2="-1" k3="1" operator="arithmetic" result="shadowInnerInner1"/>
            <feColorMatrix in="shadowInnerInner1" values="0 0 0 0 0.449926404 0 0 0 0 0.0816949067 0 0 0 0 0.414856738 0 0 0 1 0"/>
        </filter>
        <ellipse id="ai" cx="18.664" cy="154.072" rx="1.915" ry="1.901"/>
        <filter id="aj" width="126.1%" height="126.3%" x="-13.1%" y="-13.2%" filterUnits="objectBoundingBox">
            <feOffset dy="1" in="SourceAlpha" result="shadowOffsetInner1"/>
            <feComposite in="shadowOffsetInner1" in2="SourceAlpha" k2="-1" k3="1" operator="arithmetic" result="shadowInnerInner1"/>
            <feColorMatrix in="shadowInnerInner1" values="0 0 0 0 0.449926404 0 0 0 0 0.0816949067 0 0 0 0 0.414856738 0 0 0 1 0"/>
        </filter>
        <ellipse id="ak" cx="17.036" cy="162.722" rx="2.011" ry="1.996"/>
        <filter id="al" width="124.9%" height="125%" x="-12.4%" y="-12.5%" filterUnits="objectBoundingBox">
            <feOffset dy="1" in="SourceAlpha" result="shadowOffsetInner1"/>
            <feComposite in="shadowOffsetInner1" in2="SourceAlpha" k2="-1" k3="1" operator="arithmetic" result="shadowInnerInner1"/>
            <feColorMatrix in="shadowInnerInner1" values="0 0 0 0 0.449926404 0 0 0 0 0.0816949067 0 0 0 0 0.414856738 0 0 0 1 0"/>
        </filter>
        <linearGradient id="am" x1="50%" x2="50%" y1="107.258%" y2="3.339%">
            <stop offset="0%" stop-color="#396EEF"/>
            <stop offset="100%" stop-color="#2B0A3D" stop-opacity="0"/>
        </linearGradient>
        <linearGradient id="an" x1="50%" x2="50%" y1="107.258%" y2="5.841%">
            <stop offset="0%" stop-color="#396EEF"/>
            <stop offset="100%" stop-color="#340D40" stop-opacity="0"/>
        </linearGradient>
        <linearGradient id="ao" x1="50%" x2="50%" y1="107.258%" y2="5.428%">
            <stop offset="0%" stop-color="#396EEF"/>
            <stop offset="100%" stop-color="#330D40" stop-opacity="0"/>
        </linearGradient>
        <ellipse id="aq" cx="13.759" cy="90.104" rx="7.498" ry="7.46"/>
        <filter id="ap" width="166.7%" height="167%" x="-33.3%" y="-26.8%" filterUnits="objectBoundingBox">
            <feOffset dy="1" in="SourceAlpha" result="shadowOffsetOuter1"/>
            <feGaussianBlur in="shadowOffsetOuter1" result="shadowBlurOuter1" stdDeviation="1.5"/>
            <feColorMatrix in="shadowBlurOuter1" values="0 0 0 0 0.223529412 0 0 0 0 0.431372549 0 0 0 0 0.937254902 0 0 0 1 0"/>
        </filter>
        <ellipse id="ar" cx="13.759" cy="90.104" rx="7.498" ry="7.46"/>
        <filter id="as" height="120.1%" y="-10.1%" filterUnits="objectBoundingBox">
            <feOffset dy="-3" in="SourceAlpha" result="shadowOffsetInner1"/>
            <feComposite in="shadowOffsetInner1" in2="SourceAlpha" k2="-1" k3="1" operator="arithmetic" result="shadowInnerInner1"/>
            <feColorMatrix in="shadowInnerInner1" values="0 0 0 0 0.130374961 0 0 0 0 0.289663675 0 0 0 0 0.677366395 0 0 0 1 0"/>
        </filter>
        <ellipse id="at" cx="15.152" cy="87.013" rx="1.714" ry="1.705"/>
        <filter id="au" width="129.2%" height="129.3%" x="-14.6%" y="-14.7%" filterUnits="objectBoundingBox">
            <feOffset dy="1" in="SourceAlpha" result="shadowOffsetInner1"/>
            <feComposite in="shadowOffsetInner1" in2="SourceAlpha" k2="-1" k3="1" operator="arithmetic" result="shadowInnerInner1"/>
            <feColorMatrix in="shadowInnerInner1" values="0 0 0 0 0.320276608 0 0 0 0 0.26713635 0 0 0 0 0.991394928 0 0 0 1 0"/>
        </filter>
        <ellipse id="av" cx="13.652" cy="93.194" rx="1.071" ry="1.066"/>
        <filter id="aw" width="146.7%" height="146.9%" x="-23.3%" y="-23.5%" filterUnits="objectBoundingBox">
            <feOffset dy="1" in="SourceAlpha" result="shadowOffsetInner1"/>
            <feComposite in="shadowOffsetInner1" in2="SourceAlpha" k2="-1" k3="1" operator="arithmetic" result="shadowInnerInner1"/>
            <feColorMatrix in="shadowInnerInner1" values="0 0 0 0 0.320276608 0 0 0 0 0.26713635 0 0 0 0 0.991394928 0 0 0 1 0"/>
        </filter>
        <ellipse id="ax" cx="17.669" cy="90.37" rx="1" ry="1"/>
        <filter id="ay" width="162.2%" height="162.6%" x="-31.1%" y="-31.3%" filterUnits="objectBoundingBox">
            <feOffset dy="1" in="SourceAlpha" result="shadowOffsetInner1"/>
            <feComposite in="shadowOffsetInner1" in2="SourceAlpha" k2="-1" k3="1" operator="arithmetic" result="shadowInnerInner1"/>
            <feColorMatrix in="shadowInnerInner1" values="0 0 0 0 0.320276608 0 0 0 0 0.26713635 0 0 0 0 0.991394928 0 0 0 1 0"/>
        </filter>
        <ellipse id="az" cx="10.439" cy="86.374" rx="1.071" ry="1.066"/>
        <filter id="aA" width="146.7%" height="146.9%" x="-23.3%" y="-23.5%" filterUnits="objectBoundingBox">
            <feOffset dy="1" in="SourceAlpha" result="shadowOffsetInner1"/>
            <feComposite in="shadowOffsetInner1" in2="SourceAlpha" k2="-1" k3="1" operator="arithmetic" result="shadowInnerInner1"/>
            <feColorMatrix in="shadowInnerInner1" values="0 0 0 0 0.320276608 0 0 0 0 0.26713635 0 0 0 0 0.991394928 0 0 0 1 0"/>
        </filter>
        <ellipse id="aB" cx="9.529" cy="91.223" rx="1.125" ry="1.119"/>
        <filter id="aC" width="144.5%" height="144.7%" x="-22.2%" y="-22.3%" filterUnits="objectBoundingBox">
            <feOffset dy="1" in="SourceAlpha" result="shadowOffsetInner1"/>
            <feComposite in="shadowOffsetInner1" in2="SourceAlpha" k2="-1" k3="1" operator="arithmetic" result="shadowInnerInner1"/>
            <feColorMatrix in="shadowInnerInner1" values="0 0 0 0 0.320276608 0 0 0 0 0.26713635 0 0 0 0 0.991394928 0 0 0 1 0"/>
        </filter>
        <linearGradient id="aD" x1="23.34%" x2="90.614%" y1="100%" y2="22.332%">
            <stop offset="0%" stop-color="#250040"/>
            <stop offset="100%" stop-color="#631450"/>
        </linearGradient>
        <ellipse id="aE" cx="21.876" cy="21.817" rx="11.8" ry="11.883"/>
        <filter id="aF" width="138.1%" height="137.9%" x="-19.1%" y="-18.9%" filterUnits="objectBoundingBox">
            <feOffset dx="4" dy="-9" in="SourceAlpha" result="shadowOffsetInner1"/>
            <feComposite in="shadowOffsetInner1" in2="SourceAlpha" k2="-1" k3="1" operator="arithmetic" result="shadowInnerInner1"/>
            <feColorMatrix in="shadowInnerInner1" values="0 0 0 0 0 0 0 0 0 0 0 0 0 0 0 0 0 0 0.198918269 0"/>
        </filter>
        <linearGradient id="aJ" x1="50%" x2="50%" y1="0%" y2="100%">
            <stop offset="0%" stop-color="#420A3C"/>
            <stop offset="97.107%" stop-color="#580B55"/>
        </linearGradient>
        <linearGradient id="aI" x1="82.562%" x2="0%" y1="54.016%" y2="50%">
            <stop offset="0%" stop-color="#6A1B64"/>
            <stop offset="100%" stop-color="#5C1550"/>
        </linearGradient>
        <ellipse id="aH" cx="27.743" cy="14.91" rx="2.496" ry="1.499"/>
        <filter id="aG" width="144%" height="206.7%" x="-22%" y="-36.7%" filterUnits="objectBoundingBox">
            <feMorphology in="SourceAlpha" operator="dilate" radius=".599" result="shadowSpreadOuter1"/>
            <feOffset dy="1" in="shadowSpreadOuter1" result="shadowOffsetOuter1"/>
            <feComposite in="shadowOffsetOuter1" in2="SourceAlpha" operator="out" result="shadowOffsetOuter1"/>
            <feColorMatrix in="shadowOffsetOuter1" values="0 0 0 0 0.225685009 0 0 0 0 0.0282708317 0 0 0 0 0.216573585 0 0 0 1 0"/>
        </filter>
        <linearGradient id="aN" x1="50%" x2="50%" y1="0%" y2="97.107%">
            <stop offset="0%" stop-color="#420A3C"/>
            <stop offset="100%" stop-color="#580B55"/>
        </linearGradient>
        <linearGradient id="aM" x1="36.987%" x2="98.74%" y1="50%" y2="50%">
            <stop offset="0%" stop-color="#6A1B64"/>
            <stop offset="100%" stop-color="#5C1550"/>
        </linearGradient>
        <ellipse id="aL" cx="29.243" cy="26.74" rx="2.144" ry="1.282"/>
        <filter id="aK" width="151.3%" height="224.7%" x="-25.6%" y="-42.9%" filterUnits="objectBoundingBox">
            <feMorphology in="SourceAlpha" operator="dilate" radius=".599" result="shadowSpreadOuter1"/>
            <feOffset dy="1" in="shadowSpreadOuter1" result="shadowOffsetOuter1"/>
            <feComposite in="shadowOffsetOuter1" in2="SourceAlpha" operator="out" result="shadowOffsetOuter1"/>
            <feColorMatrix in="shadowOffsetOuter1" values="0 0 0 0 0.225685009 0 0 0 0 0.0282708317 0 0 0 0 0.216573585 0 0 0 1 0"/>
        </filter>
        <linearGradient id="aR" x1="50%" x2="50%" y1="97.107%" y2="0%">
            <stop offset="0%" stop-color="#390333"/>
            <stop offset="100%" stop-color="#570755"/>
        </linearGradient>
        <linearGradient id="aQ" x1="36.987%" x2="98.74%" y1="50%" y2="50%">
            <stop offset="0%" stop-color="#500F4B"/>
            <stop offset="100%" stop-color="#580E59"/>
        </linearGradient>
        <ellipse id="aP" cx="21.579" cy="20.723" rx="1.071" ry="1"/>
        <filter id="aO" width="202.6%" height="261.5%" x="-51.3%" y="-106%" filterUnits="objectBoundingBox">
            <feMorphology in="SourceAlpha" operator="dilate" radius=".599" result="shadowSpreadOuter1"/>
            <feOffset dy="-1" in="shadowSpreadOuter1" result="shadowOffsetOuter1"/>
            <feComposite in="shadowOffsetOuter1" in2="SourceAlpha" operator="out" result="shadowOffsetOuter1"/>
            <feColorMatrix in="shadowOffsetOuter1" values="0 0 0 0 0.225685009 0 0 0 0 0.0282708317 0 0 0 0 0.216573585 0 0 0 1 0"/>
        </filter>
        <linearGradient id="aV" x1="50%" x2="50%" y1="0%" y2="97.107%">
            <stop offset="0%" stop-color="#270623"/>
            <stop offset="98.435%" stop-color="#4C084A"/>
        </linearGradient>
        <linearGradient id="aU" x1="36.987%" x2="98.74%" y1="50%" y2="50%">
            <stop offset="0%" stop-color="#520A4D"/>
            <stop offset="100%" stop-color="#3F0E37"/>
        </linearGradient>
        <ellipse id="aT" cx="17.247" cy="27.901" rx="2.144" ry="1.282"/>
        <filter id="aS" width="151.3%" height="224.7%" x="-25.6%" y="-42.9%" filterUnits="objectBoundingBox">
            <feMorphology in="SourceAlpha" operator="dilate" radius=".599" result="shadowSpreadOuter1"/>
            <feOffset dy="1" in="shadowSpreadOuter1" result="shadowOffsetOuter1"/>
            <feComposite in="shadowOffsetOuter1" in2="SourceAlpha" operator="out" result="shadowOffsetOuter1"/>
            <feColorMatrix in="shadowOffsetOuter1" values="0 0 0 0 0.225685009 0 0 0 0 0.0282708317 0 0 0 0 0.216573585 0 0 0 1 0"/>
        </filter>
        <linearGradient id="aZ" x1="98.554%" x2="1.446%" y1="48.554%" y2="48.554%">
            <stop offset="0%" stop-color="#3B0835"/>
            <stop offset="100%" stop-color="#540952"/>
        </linearGradient>
        <linearGradient id="aY" x1="36.987%" x2="98.74%" y1="50%" y2="50%">
            <stop offset="0%" stop-color="#451052"/>
            <stop offset="100%" stop-color="#56114A"/>
        </linearGradient>
        <ellipse id="aX" cx="13.744" cy="14.322" rx="1.712" ry="1"/>
        <filter id="aW" width="164.2%" height="286.7%" x="-32.1%" y="-64.2%" filterUnits="objectBoundingBox">
            <feMorphology in="SourceAlpha" operator="dilate" radius=".599" result="shadowSpreadOuter1"/>
            <feOffset dy="1" in="shadowSpreadOuter1" result="shadowOffsetOuter1"/>
            <feComposite in="shadowOffsetOuter1" in2="SourceAlpha" operator="out" result="shadowOffsetOuter1"/>
            <feColorMatrix in="shadowOffsetOuter1" values="0 0 0 0 0.225685009 0 0 0 0 0.0282708317 0 0 0 0 0.216573585 0 0 0 1 0"/>
        </filter>
        <linearGradient id="ba" x1="50%" x2="50%" y1="15.809%" y2="100%">
            <stop offset="0%" stop-color="#110B37" stop-opacity="0"/>
            <stop offset="100%" stop-color="#561A74"/>
        </linearGradient>
    </defs>
    <g fill="none" fill-rule="evenodd">
        <path fill="url(#a)" d="M18.294 0H460v246.975H18.294z" transform="translate(-12)"/>
        <g transform="translate(-12 30.009)">
            <path stroke="url(#b)" stroke-width="7.11" d="M72.665 136.86c75.194-6.732 129.412-26.176 129.368-49.212-.047-25.12-64.597-46.204-150.448-51.27a677.014 677.014 0 0 0-38.583-1.158" transform="scale(-1 1) rotate(-25 -28.992 707.805)"/>
            <path stroke="url(#c)" stroke-width="3.11" d="M68.93 136.86c86.874-8.9 144.669-24.868 144.612-43.148-.066-21.042-76.771-39.191-186.181-47.094" transform="scale(-1 1) rotate(-25 -28.992 771.845)"/>
            <path fill="url(#d)" d="M293.307 129.52l-5.486-33.33C268.906 37.9 213.643 0 148.721 0 97.261 0 52.024 26.493 26.057 66.51 8.745 93.186.06 115.98 0 134.886" transform="matrix(-1 0 0 1 380.787 87.446)"/>
            <g opacity=".598" transform="scale(-1 1) rotate(42 -91.675 -406.34)">
                <use fill="#000" filter="url(#e)" xlink:href="#f"/>
                <ellipse cx="212.621" cy="45.929" fill="url(#h)" stroke="url(#g)" stroke-width="1.422" rx="29.208" ry="17.809"/>
            </g>
            <g opacity=".172" transform="scale(1 -1) rotate(54 464.988 99.703)">
                <use fill="#000" filter="url(#i)" xlink:href="#j"/>
                <ellipse cx="117.314" cy="96.19" fill="url(#l)" stroke="url(#k)" stroke-width="1.422" rx="13.847" ry="11.683"/>
            </g>
            <g transform="scale(-1 1) rotate(-44 -25.473 572.357)">
                <use fill="#000" filter="url(#m)" xlink:href="#n"/>
                <ellipse cx="56.702" cy="57.394" fill="url(#p)" stroke="url(#o)" stroke-width="1.422" rx="21.743" ry="11.226"/>
            </g>
            <ellipse cx="263.084" cy="111.178" fill="#180C44" rx="33.257" ry="5.274"/>
            <g transform="translate(204.077 13.614)">
                <g transform="translate(0 3.516)">
                    <use fill="#000" filter="url(#q)" xlink:href="#r"/>
                    <use fill="#1CE9AD" xlink:href="#r"/>
                </g>
                <g transform="translate(0 3.516)">
                    <use fill="#000" filter="url(#s)" xlink:href="#t"/>
                    <use fill="#35FFC4" xlink:href="#t"/>
                </g>
                <use fill="url(#u)" xlink:href="#v"/>
                <use fill="#000" filter="url(#w)" xlink:href="#v"/>
                <path fill="#13EBA8" fill-opacity=".7" d="M67.151 72.183h13.453v3.86H67.151z"/>
                <path fill="#13EBA8" fill-opacity=".701" d="M45.169 71.797h13.239v3.86H45.169z"/>
                <ellipse cx="73.984" cy="74.113" fill="url(#x)" rx="3.894" ry="3.86"/>
                <path fill="url(#y)" d="M76.32 19.686h8.344a6.063 6.063 0 0 1 6.063 6.063v18.755a6.063 6.063 0 0 1-6.063 6.063H76.32v-30.88z"/>
                <use fill="url(#z)" xlink:href="#A"/>
                <use fill="#000" filter="url(#B)" xlink:href="#A"/>
                <path fill="url(#C)" d="M82.94 38.986V51.12a4.85 4.85 0 0 1-4.85 4.85H58.585a4.85 4.85 0 0 1-4.85-4.85V38.986h-8.178v-7.043a6.467 6.467 0 0 1 6.468-6.467h33.013a6.467 6.467 0 0 1 6.467 6.467v7.043H82.94z"/>
                <path fill="url(#D)" d="M40.185 41.273l6.27-12.743 9.8 4.738-9.356 19.015a2.021 2.021 0 0 1-2.632.956H26.478V41.273h13.707z"/>
                <rect width="1.558" height="98.431" x="27.257" fill="#504CA7" rx=".779"/>
                <use fill="#CBC0FF" xlink:href="#E"/>
                <use fill="#000" filter="url(#F)" xlink:href="#E"/>
                <path fill="url(#G)" d="M76.295 25.862h2.976a6.37 6.37 0 1 1 0 12.738h-2.976V25.862z"/>
                <path fill="url(#H)" d="M50.62 25.862h2.784a6.562 6.562 0 0 1 0 13.124H50.62V25.862z" transform="matrix(-1 0 0 1 110.586 0)"/>
                <use fill="#645FE4" xlink:href="#I"/>
                <use fill="#000" filter="url(#J)" xlink:href="#I"/>
                <g transform="translate(51.437 1.586)">
                    <mask id="N" fill="#fff">
                        <use xlink:href="#K"/>
                    </mask>
                    <use fill="url(#L)" xlink:href="#K"/>
                    <use fill="#000" filter="url(#M)" xlink:href="#K"/>
                    <ellipse cx="26.114" cy="12.69" fill="#FFF" mask="url(#N)" rx="3.165" ry="3.172"/>
                    <ellipse cx="26.905" cy="19.035" fill="#FFF" mask="url(#N)" rx="1.583" ry="1.586"/>
                    <ellipse cx="17.014" cy="-9.914" fill="url(#O)" mask="url(#N)" rx="21.762" ry="15.466"/>
                </g>
                <path fill="url(#P)" d="M67.948 27.792a8.372 8.372 0 0 1 8.372 8.372v4.752H59.576v-4.752a8.372 8.372 0 0 1 8.372-8.372z"/>
                <use fill="#C3B6FF" xlink:href="#Q"/>
                <use fill="#000" filter="url(#R)" xlink:href="#Q"/>
                <ellipse cx="58.955" cy="42.432" fill="#1CE9AD" rx="1.187" ry="1.19"/>
                <ellipse cx="65.285" cy="42.432" fill="#FF8686" rx="1.187" ry="1.19"/>
                <g>
                    <use fill="#645FE4" xlink:href="#S"/>
                    <use fill="#000" filter="url(#T)" xlink:href="#S"/>
                </g>
                <path fill="#383495" d="M39.328 94.957h18.301v3.474H39.328zM67.753 94.571h12.85v3.86h-12.85z"/>
                <path fill="url(#U)" d="M45.169 70.253h1.007a3.86 3.86 0 0 1 0 7.72H45.17v-7.72z"/>
            </g>
            <g opacity=".398">
                <g opacity=".411">
                    <path fill="url(#V)" d="M11.123 0h26.81c-11.805 54-12.269 107.59 0 160.719h-26.81C-3.81 119.465-3.605 65.723 11.123 0z" transform="rotate(-32 102.68 27.034)"/>
                    <path fill="url(#W)" d="M14.57 15.733h13.404c-16.783 51.047-14.262 101.664 0 152.02H14.57C2.66 117.19 1.026 66.532 14.57 15.733z" transform="rotate(-32 102.68 27.034)"/>
                    <path fill="url(#X)" d="M30.847 15.923h3.83c-13.096 49.147-12.038 99.944 0 152.02h-3.83c-13.994-52.158-13.63-102.793 0-152.02z" transform="rotate(-32 102.68 27.034)"/>
                </g>
                <g transform="rotate(-32 102.47 27.593)">
                    <use fill="#000" filter="url(#Y)" xlink:href="#Z"/>
                    <use fill="#71296A" xlink:href="#Z"/>
                </g>
                <g transform="rotate(-32 102.47 27.593)">
                    <use fill="#A53FB1" xlink:href="#aa"/>
                    <use fill="#000" filter="url(#ab)" xlink:href="#aa"/>
                </g>
                <g opacity=".483" transform="rotate(-32 102.47 27.593)">
                    <use fill="#80128B" xlink:href="#ac"/>
                    <use fill="#000" filter="url(#ad)" xlink:href="#ac"/>
                </g>
                <g opacity=".483" transform="rotate(-32 102.47 27.593)">
                    <use fill="#80128B" xlink:href="#ae"/>
                    <use fill="#000" filter="url(#af)" xlink:href="#ae"/>
                </g>
                <g opacity=".483" transform="rotate(-32 102.47 27.593)">
                    <use fill="#80128B" xlink:href="#ag"/>
                    <use fill="#000" filter="url(#ah)" xlink:href="#ag"/>
                </g>
                <g opacity=".483" transform="rotate(-32 102.47 27.593)">
                    <use fill="#80128B" xlink:href="#ai"/>
                    <use fill="#000" filter="url(#aj)" xlink:href="#ai"/>
                </g>
                <g opacity=".483" transform="rotate(-32 102.47 27.593)">
                    <use fill="#80128B" xlink:href="#ak"/>
                    <use fill="#000" filter="url(#al)" xlink:href="#ak"/>
                </g>
            </g>
            <g opacity=".704">
                <path fill="url(#am)" d="M6.369.11h14.995c-6.602 30.273-6.861 60.316 0 90.1H6.37c-8.352-23.127-8.238-53.255 0-90.1z" opacity=".411" transform="rotate(63 94.433 188.575)"/>
                <path fill="url(#an)" d="M8.297 8.93h7.498c-9.388 28.618-7.978 56.994 0 85.223H8.297c-6.66-28.345-7.575-56.745 0-85.223z" opacity=".411" transform="rotate(63 94.433 188.575)"/>
                <path fill="url(#ao)" d="M17.401 9.037h2.142c-7.325 27.552-6.733 56.029 0 85.223h-2.142c-7.827-29.24-7.623-57.626 0-85.223z" opacity=".411" transform="rotate(63 94.433 188.575)"/>
                <g transform="rotate(63 94.433 188.575)">
                    <use fill="#000" filter="url(#ap)" xlink:href="#aq"/>
                    <use fill="#71296A" xlink:href="#aq"/>
                </g>
                <g transform="rotate(63 94.433 188.575)">
                    <use fill="#396EEF" xlink:href="#ar"/>
                    <use fill="#000" filter="url(#as)" xlink:href="#ar"/>
                </g>
                <g transform="rotate(63 94.433 188.575)">
                    <use fill="#2055FF" xlink:href="#at"/>
                    <use fill="#000" filter="url(#au)" xlink:href="#at"/>
                </g>
                <g transform="rotate(63 94.433 188.575)">
                    <use fill="#2055FF" xlink:href="#av"/>
                    <use fill="#000" filter="url(#aw)" xlink:href="#av"/>
                </g>
                <g transform="rotate(63 94.433 188.575)">
                    <use fill="#2055FF" xlink:href="#ax"/>
                    <use fill="#000" filter="url(#ay)" xlink:href="#ax"/>
                </g>
                <g transform="rotate(63 94.433 188.575)">
                    <use fill="#2055FF" xlink:href="#az"/>
                    <use fill="#000" filter="url(#aA)" xlink:href="#az"/>
                </g>
                <g transform="rotate(63 94.433 188.575)">
                    <use fill="#2055FF" xlink:href="#aB"/>
                    <use fill="#000" filter="url(#aC)" xlink:href="#aB"/>
                </g>
            </g>
            <g opacity=".498" transform="translate(337.859 13.332)">
                <use fill="url(#aD)" xlink:href="#aE"/>
                <use fill="#000" filter="url(#aF)" xlink:href="#aE"/>
                <path stroke="#AF2CD8" stroke-linecap="round" stroke-width=".5" d="M33.709 12.056a15.326 15.326 0 0 0-8.934-5.404A15.384 15.384 0 0 0 12.043 9.79M6.52 19.344a15.352 15.352 0 0 0 3.237 12.108m10.84 5.663a15.364 15.364 0 0 0 10.826-3.395" opacity=".305"/>
                <g transform="rotate(42 27.743 14.91)">
                    <use fill="#000" filter="url(#aG)" xlink:href="#aH"/>
                    <ellipse cx="27.743" cy="14.91" fill="url(#aJ)" stroke="url(#aI)" stroke-width=".599" rx="2.795" ry="1.798"/>
                </g>
                <g opacity=".705" transform="rotate(120 29.243 26.74)">
                    <use fill="#000" filter="url(#aK)" xlink:href="#aL"/>
                    <ellipse cx="29.243" cy="26.74" fill="url(#aN)" stroke="url(#aM)" stroke-width=".599" rx="2.443" ry="1.581"/>
                </g>
                <g opacity=".759" transform="rotate(-126 21.579 20.723)">
                    <use fill="#000" filter="url(#aO)" xlink:href="#aP"/>
                    <ellipse cx="21.579" cy="20.723" fill="url(#aR)" stroke="url(#aQ)" stroke-width=".599" rx="1.371" ry="1.289"/>
                </g>
                <g opacity=".303" transform="rotate(-121 17.247 27.9)">
                    <use fill="#000" filter="url(#aS)" xlink:href="#aT"/>
                    <ellipse cx="17.247" cy="27.901" fill="url(#aV)" stroke="url(#aU)" stroke-width=".599" rx="2.443" ry="1.581"/>
                </g>
                <g transform="rotate(-44 13.744 14.322)">
                    <use fill="#000" filter="url(#aW)" xlink:href="#aX"/>
                    <ellipse cx="13.744" cy="14.322" fill="url(#aZ)" stroke="url(#aY)" stroke-width=".599" rx="2.011" ry="1.156"/>
                </g>
                <ellipse cx="21.912" cy="21.119" stroke="url(#ba)" stroke-width="2.994" rx="20.257" ry="5.696" transform="rotate(21 21.912 21.12)"/>
            </g>
        </g>
    </g>
</svg>
