<svg xmlns="http://www.w3.org/2000/svg" xmlns:xlink="http://www.w3.org/1999/xlink" width="376" height="213" viewBox="0 0 376 213">
    <defs>
        <radialGradient id="a" cx="51.091%" r="86.537%" fx="51.091%" fy="50%" gradientTransform="matrix(-.45591 0 0 -.66986 .744 .835)">
            <stop offset="0%" stop-color="#0F247C"/>
            <stop offset="75.544%" stop-color="#0B0742"/>
            <stop offset="100%" stop-color="#0B0743" stop-opacity="0"/>
        </radialGradient>
        <linearGradient id="b" x1="50%" x2="50%" y1="-50.839%" y2="93.591%">
            <stop offset="0%" stop-color="#0056C2"/>
            <stop offset="100%" stop-color="#007AC2" stop-opacity="0"/>
        </linearGradient>
        <linearGradient id="c" x1="55.022%" x2="50%" y1="-92.699%" y2="78.016%">
            <stop offset="0%" stop-color="#0056C2"/>
            <stop offset="100%" stop-color="#007AC2" stop-opacity="0"/>
        </linearGradient>
        <linearGradient id="e" x1="50%" x2="50%" y1="0%" y2="100%">
            <stop offset="0%" stop-color="#2B9BE2"/>
            <stop offset="100%" stop-color="#4665E6" stop-opacity="0"/>
        </linearGradient>
        <path id="d" d="M17.22 0l29.477 13.664 19.68 64.075H0z"/>
        <path id="g" d="M2.15 53.06h20.577v4.319H2.15z"/>
        <filter id="h" width="109.7%" height="146.3%" x="-4.9%" y="-23.2%" filterUnits="objectBoundingBox">
            <feOffset dy="2" in="SourceAlpha" result="shadowOffsetInner1"/>
            <feComposite in="shadowOffsetInner1" in2="SourceAlpha" k2="-1" k3="1" operator="arithmetic" result="shadowInnerInner1"/>
            <feColorMatrix in="shadowInnerInner1" values="0 0 0 0 0.00442181476 0 0 0 0 0.20548092 0 0 0 0 0.456804801 0 0 0 1 0"/>
        </filter>
        <path id="i" d="M0 61.697h22.727v4.319H0z"/>
        <filter id="j" width="108.8%" height="146.3%" x="-4.4%" y="-23.2%" filterUnits="objectBoundingBox">
            <feOffset dy="2" in="SourceAlpha" result="shadowOffsetInner1"/>
            <feComposite in="shadowOffsetInner1" in2="SourceAlpha" k2="-1" k3="1" operator="arithmetic" result="shadowInnerInner1"/>
            <feColorMatrix in="shadowInnerInner1" values="0 0 0 0 0.0170237601 0 0 0 0 0.115540972 0 0 0 0 0.305961277 0 0 0 0.728638549 0"/>
        </filter>
        <path id="k" d="M4.607 44.422h18.12v4.319H4.607z"/>
        <filter id="l" width="111%" height="146.3%" x="-5.5%" y="-23.2%" filterUnits="objectBoundingBox">
            <feOffset dy="2" in="SourceAlpha" result="shadowOffsetInner1"/>
            <feComposite in="shadowOffsetInner1" in2="SourceAlpha" k2="-1" k3="1" operator="arithmetic" result="shadowInnerInner1"/>
            <feColorMatrix in="shadowInnerInner1" values="0 0 0 0 0.0298615198 0 0 0 0 0.252799473 0 0 0 0 0.534675045 0 0 0 1 0"/>
        </filter>
        <ellipse id="n" cx="1.458" cy="8.869" rx="1.458" ry="1.465"/>
        <filter id="m" width="408.6%" height="407.2%" x="-154.3%" y="-153.6%" filterUnits="objectBoundingBox">
            <feOffset in="SourceAlpha" result="shadowOffsetOuter1"/>
            <feGaussianBlur in="shadowOffsetOuter1" result="shadowBlurOuter1" stdDeviation="1.5"/>
            <feColorMatrix in="shadowBlurOuter1" values="0 0 0 0 0.109803922 0 0 0 0 0.91372549 0 0 0 0 0.678431373 0 0 0 1 0"/>
        </filter>
        <ellipse id="p" cx="1.458" cy="1.465" rx="1.458" ry="1.465"/>
        <filter id="o" width="408.6%" height="407.2%" x="-154.3%" y="-153.6%" filterUnits="objectBoundingBox">
            <feOffset in="SourceAlpha" result="shadowOffsetOuter1"/>
            <feGaussianBlur in="shadowOffsetOuter1" result="shadowBlurOuter1" stdDeviation="1.5"/>
            <feColorMatrix in="shadowBlurOuter1" values="0 0 0 0 0.109803922 0 0 0 0 0.91372549 0 0 0 0 0.678431373 0 0 0 1 0"/>
        </filter>
        <ellipse id="r" cx="1.458" cy="15.964" rx="1.458" ry="1.465"/>
        <filter id="q" width="408.6%" height="407.2%" x="-154.3%" y="-153.6%" filterUnits="objectBoundingBox">
            <feOffset in="SourceAlpha" result="shadowOffsetOuter1"/>
            <feGaussianBlur in="shadowOffsetOuter1" result="shadowBlurOuter1" stdDeviation="1.5"/>
            <feColorMatrix in="shadowBlurOuter1" values="0 0 0 0 0.109803922 0 0 0 0 0.91372549 0 0 0 0 0.678431373 0 0 0 1 0"/>
        </filter>
        <linearGradient id="s" x1="50%" x2="50%" y1="8.466%" y2="83.52%">
            <stop offset="0%" stop-color="#104481"/>
            <stop offset="100%" stop-color="#07489F" stop-opacity="0"/>
        </linearGradient>
        <linearGradient id="t" x1="62.411%" x2="50%" y1="-123.523%" y2="91.88%">
            <stop offset="0%" stop-color="#0059C2"/>
            <stop offset="100%" stop-color="#007AC2" stop-opacity="0"/>
        </linearGradient>
        <linearGradient id="u" x1="39.407%" x2="39.407%" y1="-26.604%" y2="100%">
            <stop offset="0%" stop-color="#0065DB"/>
            <stop offset="100%" stop-color="#007AC2" stop-opacity="0"/>
        </linearGradient>
        <linearGradient id="v" x1="100%" x2="16.378%" y1="27.003%" y2="27.003%">
            <stop offset="0%" stop-color="#2978E7"/>
            <stop offset="100%" stop-color="#0F4C99"/>
        </linearGradient>
        <linearGradient id="w" x1="42.906%" x2="51.085%" y1="-14.775%" y2="85.341%">
            <stop offset="0%" stop-color="#0C4BAA"/>
            <stop offset="100%" stop-color="#1D94D9" stop-opacity=".019"/>
        </linearGradient>
        <linearGradient id="x" x1="-36.99%" x2="72.706%" y1="50%" y2="50%">
            <stop offset="0%" stop-color="#359FC1"/>
            <stop offset="100%" stop-color="#2E51FD"/>
        </linearGradient>
        <linearGradient id="y" x1="86.757%" x2="0%" y1="75.392%" y2="82.17%">
            <stop offset="0%" stop-color="#B493D5" stop-opacity=".734"/>
            <stop offset="100%" stop-color="#5D52D4" stop-opacity=".823"/>
        </linearGradient>
        <linearGradient id="z" x1="86.757%" x2="0%" y1="75.392%" y2="82.17%">
            <stop offset="0%" stop-color="#B493D5" stop-opacity=".509"/>
            <stop offset="100%" stop-color="#5D52D4" stop-opacity=".763"/>
        </linearGradient>
        <linearGradient id="A" x1="86.757%" x2="0%" y1="75.392%" y2="82.17%">
            <stop offset="0%" stop-color="#B493D5" stop-opacity=".258"/>
            <stop offset="100%" stop-color="#5D52D4" stop-opacity=".58"/>
        </linearGradient>
        <linearGradient id="B" x1="50%" x2="50%" y1="0%" y2="100%">
            <stop offset="0%" stop-color="#23B7C6"/>
            <stop offset="100%" stop-color="#2167BC"/>
        </linearGradient>
        <linearGradient id="C" x1="50%" x2="50%" y1="0%" y2="100%">
            <stop offset="0%" stop-color="#1045D5"/>
            <stop offset="100%" stop-color="#007AC2" stop-opacity="0"/>
        </linearGradient>
        <linearGradient id="D" x1="68.607%" x2="50%" y1="-188.814%" y2="70.213%">
            <stop offset="0%" stop-color="#0056C2"/>
            <stop offset="100%" stop-color="#007AC2" stop-opacity="0"/>
        </linearGradient>
        <linearGradient id="E" x1="50%" x2="50%" y1="0%" y2="100%">
            <stop offset="0%" stop-color="#1C80F7"/>
            <stop offset="100%" stop-color="#126AE3" stop-opacity=".002"/>
        </linearGradient>
        <linearGradient id="G" x1="50%" x2="50%" y1="0%" y2="94.993%">
            <stop offset="0%" stop-color="#0B4098"/>
            <stop offset="100%" stop-color="#0069A7" stop-opacity="0"/>
        </linearGradient>
        <path id="F" d="M23.316 16.676c1.91 0 9.034 29.968 21.373 89.905H1.944c12.338-59.937 19.462-89.905 21.372-89.905z"/>
        <filter id="H" width="130.4%" height="114.5%" x="-15.2%" y="-7.2%" filterUnits="objectBoundingBox">
            <feOffset dy="13" in="SourceAlpha" result="shadowOffsetInner1"/>
            <feComposite in="shadowOffsetInner1" in2="SourceAlpha" k2="-1" k3="1" operator="arithmetic" result="shadowInnerInner1"/>
            <feColorMatrix in="shadowInnerInner1" values="0 0 0 0 0 0 0 0 0 0.251858383 0 0 0 0 0.532580389 0 0 0 0 0"/>
        </filter>
        <linearGradient id="I" x1="50%" x2="50%" y1="0%" y2="100%">
            <stop offset="0%" stop-color="#0E81E3"/>
            <stop offset="100%" stop-color="#236DF6"/>
        </linearGradient>
        <linearGradient id="K" x1="50%" x2="50%" y1="0%" y2="100%">
            <stop offset="0%" stop-color="#0E81E3" stop-opacity=".616"/>
            <stop offset="100%" stop-color="#236DF6" stop-opacity=".576"/>
        </linearGradient>
        <linearGradient id="L" x1="50%" x2="50%" y1="0%" y2="100%">
            <stop offset="0%" stop-color="#0E81E3" stop-opacity=".198"/>
            <stop offset="100%" stop-color="#236DF6" stop-opacity=".412"/>
        </linearGradient>
        <linearGradient id="M" x1="50%" x2="50%" y1="0%" y2="100%">
            <stop offset="0%" stop-color="#0E81E3" stop-opacity=".333"/>
            <stop offset="100%" stop-color="#236DF6" stop-opacity=".454"/>
        </linearGradient>
        <linearGradient id="N" x1="50%" x2="50%" y1="91.732%" y2="-6.614%">
            <stop offset="0%" stop-color="#0056C2" stop-opacity="0"/>
            <stop offset="100%" stop-color="#2AB0FF"/>
        </linearGradient>
        <linearGradient id="O" x1="50%" x2="50%" y1="-27.987%" y2="100%">
            <stop offset="0%" stop-color="#4580F7"/>
            <stop offset="100%" stop-color="#78A4FF" stop-opacity="0"/>
        </linearGradient>
        <linearGradient id="P" x1="50%" x2="50%" y1="0%" y2="100%">
            <stop offset="0%" stop-color="#162D7A"/>
            <stop offset="100%" stop-color="#592E8F"/>
        </linearGradient>
        <linearGradient id="Q" x1="50%" x2="50%" y1="0%" y2="100%">
            <stop offset="0%" stop-color="#42A4FF" stop-opacity=".746"/>
            <stop offset="100%" stop-color="#73A9FF" stop-opacity=".761"/>
        </linearGradient>
        <linearGradient id="R" x1="50%" x2="50%" y1="0%" y2="100%">
            <stop offset="0%" stop-color="#117FE4" stop-opacity=".612"/>
            <stop offset="100%" stop-color="#4B84FF" stop-opacity=".685"/>
        </linearGradient>
        <linearGradient id="S" x1="0%" y1="50%" y2="50%">
            <stop offset="0%" stop-color="#0076E7" stop-opacity=".799"/>
            <stop offset="100%" stop-color="#C292FF" stop-opacity=".853"/>
        </linearGradient>
        <path id="T" d="M5.831 39.466h37.482v5.559H5.831z"/>
        <filter id="U" width="118.7%" height="225.9%" x="-9.3%" y="-63%" filterUnits="objectBoundingBox">
            <feOffset dx="-7" in="SourceAlpha" result="shadowOffsetInner1"/>
            <feComposite in="shadowOffsetInner1" in2="SourceAlpha" k2="-1" k3="1" operator="arithmetic" result="shadowInnerInner1"/>
            <feColorMatrix in="shadowInnerInner1" values="0 0 0 0 0.68601866 0 0 0 0 0.627362805 0 0 0 0 1 0 0 0 1 0"/>
        </filter>
        <linearGradient id="V" x1="0%" y1="50%" y2="50%">
            <stop offset="0%" stop-color="#0076E7" stop-opacity=".873"/>
            <stop offset="100%" stop-color="#C292FF" stop-opacity=".847"/>
        </linearGradient>
        <path id="W" d="M5.831 31.128h37.482v5.559H5.831z"/>
        <filter id="X" width="118.7%" height="225.9%" x="-9.3%" y="-63%" filterUnits="objectBoundingBox">
            <feOffset dx="-7" in="SourceAlpha" result="shadowOffsetInner1"/>
            <feComposite in="shadowOffsetInner1" in2="SourceAlpha" k2="-1" k3="1" operator="arithmetic" result="shadowInnerInner1"/>
            <feColorMatrix in="shadowInnerInner1" values="0 0 0 0 0.68601866 0 0 0 0 0.627362805 0 0 0 0 1 0 0 0 1 0"/>
        </filter>
        <linearGradient id="Y" x1="80.332%" x2="50%" y1="50%" y2="51.1%">
            <stop offset="0%" stop-color="#AFA0FF" stop-opacity=".866"/>
            <stop offset="100%" stop-color="#2973F4" stop-opacity=".848"/>
        </linearGradient>
        <linearGradient id="Z" x1="50%" x2="50%" y1="0%" y2="100%">
            <stop offset="0%" stop-color="#044E96"/>
            <stop offset="100%" stop-color="#2481FF"/>
        </linearGradient>
        <linearGradient id="aa" x1="50%" x2="50%" y1="0%" y2="99.828%">
            <stop offset="0%" stop-color="#085CAD"/>
            <stop offset="100%" stop-color="#0357CB" stop-opacity=".786"/>
        </linearGradient>
        <linearGradient id="ab" x1="50%" x2="50%" y1="-57.883%" y2="90.284%">
            <stop offset="0%" stop-color="#4683FD"/>
            <stop offset="100%" stop-color="#5A9CFF" stop-opacity="0"/>
        </linearGradient>
        <linearGradient id="ac" x1="50%" x2="50%" y1="100%" y2="0%">
            <stop offset="0%" stop-color="#C8A4EC" stop-opacity=".558"/>
            <stop offset="100%" stop-color="#A95EFA" stop-opacity=".727"/>
        </linearGradient>
        <linearGradient id="ad" x1="50%" x2="50%" y1="100%" y2="0%">
            <stop offset="0%" stop-color="#0790E7" stop-opacity="0"/>
            <stop offset="100%" stop-color="#0357CB"/>
        </linearGradient>
        <linearGradient id="ae" x1="0%" x2="96.596%" y1="50%" y2="50%">
            <stop offset="0%" stop-color="#EEE" stop-opacity="0"/>
            <stop offset="100%" stop-color="#FFF"/>
        </linearGradient>
        <linearGradient id="af" x1="0%" x2="96.596%" y1="50%" y2="50%">
            <stop offset="0%" stop-color="#EEE" stop-opacity="0"/>
            <stop offset="100%" stop-color="#FFF"/>
        </linearGradient>
        <linearGradient id="ag" x1="50%" x2="50%" y1="0%" y2="100%">
            <stop offset="0%" stop-color="#BBAFFF"/>
            <stop offset="100%" stop-color="#AA98FF"/>
        </linearGradient>
        <linearGradient id="aj" x1="50%" x2="50%" y1="0%" y2="100%">
            <stop offset="0%" stop-color="#BBAFFF"/>
            <stop offset="100%" stop-color="#AA98FF"/>
        </linearGradient>
        <path id="ah" d="M81.288 16.691h24.125l9.232 16.02H71.557l7.284-14.51a2.737 2.737 0 0 1 2.447-1.51z"/>
        <filter id="ai" width="116.2%" height="143.7%" x="-8.1%" y="-21.8%" filterUnits="objectBoundingBox">
            <feOffset dx="7" dy="1" in="SourceAlpha" result="shadowOffsetInner1"/>
            <feComposite in="shadowOffsetInner1" in2="SourceAlpha" k2="-1" k3="1" operator="arithmetic" result="shadowInnerInner1"/>
            <feColorMatrix in="shadowInnerInner1" values="0 0 0 0 0.541176471 0 0 0 0 0.454901961 0 0 0 0 1 0 0 0 1 0"/>
        </filter>
        <linearGradient id="ak" x1="50%" x2="50%" y1="0%" y2="73.616%">
            <stop offset="0%" stop-color="#6551D2"/>
            <stop offset="100%" stop-color="#7A68E1"/>
        </linearGradient>
        <linearGradient id="al" x1="50%" x2="50%" y1="0%" y2="100%">
            <stop offset="0%" stop-color="#BBAFFF"/>
            <stop offset="100%" stop-color="#AA98FF"/>
        </linearGradient>
        <linearGradient id="am" x1="0%" x2="50%" y1="-4.863%" y2="98.225%">
            <stop offset="0%" stop-color="#C65FE0"/>
            <stop offset="100%" stop-color="#DD5AFF"/>
        </linearGradient>
        <linearGradient id="an" x1="50%" x2="50%" y1="142.103%" y2="9.997%">
            <stop offset="0%" stop-color="#08417C"/>
            <stop offset="100%" stop-color="#050C2A"/>
        </linearGradient>
        <linearGradient id="ao" x1="50%" x2="50%" y1="0%" y2="80.372%">
            <stop offset="0%" stop-color="#71FFD3"/>
            <stop offset="100%" stop-color="#0D0B43" stop-opacity="0"/>
        </linearGradient>
        <linearGradient id="ap" x1="50%" x2="50%" y1="2.199%" y2="100%">
            <stop offset="0%" stop-color="#4AFFC7"/>
            <stop offset="100%" stop-color="#0D0B43" stop-opacity="0"/>
        </linearGradient>
        <rect id="aq" width="28.175" height="11.217" rx=".912"/>
        <filter id="ar" width="121.3%" height="153.5%" x="-10.6%" y="-26.7%" filterUnits="objectBoundingBox">
            <feOffset dx="6" in="SourceAlpha" result="shadowOffsetInner1"/>
            <feComposite in="shadowOffsetInner1" in2="SourceAlpha" k2="-1" k3="1" operator="arithmetic" result="shadowInnerInner1"/>
            <feColorMatrix in="shadowInnerInner1" values="0 0 0 0 0.155786843 0 0 0 0 0.143173431 0 0 0 0 0.464815444 0 0 0 1 0"/>
        </filter>
        <linearGradient id="as" x1="50%" x2="50%" y1="142.103%" y2="9.997%">
            <stop offset="0%" stop-color="#08417C"/>
            <stop offset="100%" stop-color="#050C2A"/>
        </linearGradient>
        <rect id="at" width="28.175" height="11.217" rx=".912"/>
        <filter id="au" width="121.3%" height="153.5%" x="-10.6%" y="-26.7%" filterUnits="objectBoundingBox">
            <feOffset dx="6" in="SourceAlpha" result="shadowOffsetInner1"/>
            <feComposite in="shadowOffsetInner1" in2="SourceAlpha" k2="-1" k3="1" operator="arithmetic" result="shadowInnerInner1"/>
            <feColorMatrix in="shadowInnerInner1" values="0 0 0 0 0.155786843 0 0 0 0 0.143173431 0 0 0 0 0.464815444 0 0 0 1 0"/>
        </filter>
        <linearGradient id="av" x1="0%" x2="96.596%" y1="50%" y2="50%">
            <stop offset="0%" stop-color="#EEE" stop-opacity="0"/>
            <stop offset="100%" stop-color="#FFF"/>
        </linearGradient>
        <linearGradient id="aw" x1="0%" x2="96.596%" y1="50%" y2="50%">
            <stop offset="0%" stop-color="#EEE" stop-opacity="0"/>
            <stop offset="100%" stop-color="#FFF"/>
        </linearGradient>
    </defs>
    <g fill="none" fill-rule="evenodd">
        <path fill="url(#a)" d="M0 2.968h460v209.72H0z" transform="translate(-54)"/>
        <g opacity=".798">
            <path fill="url(#b)" d="M69.117 94.173l7.512-7.94v52.134H49.31l18.105-15.819v-24.1c0-1.59.609-3.12 1.702-4.275z" opacity=".504" transform="matrix(-1 0 0 1 143.454 64.642)"/>
            <path fill="url(#c)" d="M43.391 103.344l5.92-6.332v41.576H27.783l14.266-12.615v-19.23c0-1.263.48-2.477 1.341-3.4z" opacity=".504" transform="translate(17.515 64.642)"/>
            <path fill="url(#b)" d="M197.719 94.173l7.512-7.94v52.134h-27.319l18.105-15.819v-24.1c0-1.59.609-3.12 1.702-4.275z" opacity=".504" transform="matrix(-1 0 0 1 400.658 64.642)"/>
            <path fill="url(#c)" d="M171.993 103.344l5.92-6.332v41.576h-21.527l14.266-12.615v-19.23c0-1.263.48-2.477 1.341-3.4z" opacity=".504" transform="translate(17.515 64.642)"/>
            <g transform="translate(103.416 124.696)">
                <mask id="f" fill="#fff">
                    <use xlink:href="#d"/>
                </mask>
                <use fill="url(#e)" xlink:href="#d"/>
                <g mask="url(#f)">
                    <use fill="#1456AA" fill-opacity=".694" xlink:href="#g"/>
                    <use fill="#000" filter="url(#h)" xlink:href="#g"/>
                </g>
                <g mask="url(#f)">
                    <use fill="#083F86" fill-opacity=".556" xlink:href="#i"/>
                    <use fill="#000" filter="url(#j)" xlink:href="#i"/>
                </g>
                <g mask="url(#f)">
                    <use fill="#1B52AD" xlink:href="#k"/>
                    <use fill="#000" filter="url(#l)" xlink:href="#k"/>
                </g>
            </g>
            <g transform="translate(122.228 136.11)">
                <use fill="#000" filter="url(#m)" xlink:href="#n"/>
                <use fill="#1CE9AD" xlink:href="#n"/>
            </g>
            <g transform="translate(122.228 136.11)">
                <use fill="#000" filter="url(#o)" xlink:href="#p"/>
                <use fill="#1CE9AD" xlink:href="#p"/>
            </g>
            <g transform="translate(122.228 136.11)">
                <use fill="#000" filter="url(#q)" xlink:href="#r"/>
                <use fill="#1CE9AD" xlink:href="#r"/>
            </g>
            <path fill="url(#s)" d="M27.027 4.495l8.906 4.143v69.1h-8.906z" transform="translate(103.416 124.696)"/>
            <path fill="url(#t)" d="M7.37 126.788v-7.797c0-2.236 1.201-4.3 3.144-5.406l6.07-3.455v28.072H7.372v-.154H0v-6.595a4.666 4.666 0 0 1 4.666-4.665H7.37z" opacity=".504" transform="translate(17.515 64.642)"/>
            <path fill="url(#u)" d="M157.082 126.759v-7.797c0-2.236 1.2-4.3 3.143-5.407l6.07-3.455v28.073h-9.213v-.155h-7.371v-6.594a4.666 4.666 0 0 1 4.665-4.665h2.706z" opacity=".504" transform="matrix(-1 0 0 1 333.521 64.642)"/>
            <g transform="translate(32.104 64.642)">
                <g transform="translate(8.274)">
                    <path fill="url(#v)" d="M.94 5.566l6.757-4.024v27.146L.94 26.274z"/>
                    <ellipse cx="4.3" cy="3.709" fill="#4F7EBF" rx="3.998" ry="1.695" transform="scale(-1 1) rotate(32 0 -11.286)"/>
                </g>
                <path fill="url(#w)" d="M1.843 23.619l26.105 15.25v99.333H1.843z"/>
                <ellipse cx="14.96" cy="31.701" fill="url(#x)" rx="15.221" ry="3.389" transform="rotate(32 14.96 31.701)"/>
                <path fill="url(#y)" d="M1.843 67.057c.805 2.18 5.275 6.213 11.226 9.948 7.193 4.514 13.824 6.886 14.813 5.296a.773.773 0 0 0 .066-.133v3.9h-.231c.313.625.381 1.13.165 1.477-.989 1.59-7.562-.745-14.682-5.214-6.47-4.06-11.166-8.487-11.227-10.454h-.13v-4.82z"/>
                <path fill="url(#z)" d="M1.843 82.173c.805 2.18 5.275 6.213 11.226 9.948 7.193 4.514 13.824 6.885 14.813 5.296a.773.773 0 0 0 .066-.133v3.9h-.231c.313.624.381 1.13.165 1.477-.989 1.59-7.562-.745-14.682-5.214-6.47-4.06-11.166-8.487-11.227-10.454h-.13v-4.82z"/>
                <path fill="url(#A)" d="M1.843 96.363c.805 2.18 5.275 6.213 11.226 9.949 7.193 4.514 13.824 6.885 14.813 5.295a.773.773 0 0 0 .066-.132v3.899h-.231c.313.625.381 1.13.165 1.478-.989 1.589-7.562-.745-14.682-5.214-6.47-4.061-11.166-8.488-11.227-10.454h-.13v-4.82z"/>
                <path fill="#0D3F70" d="M27.948 51.209H9.828l-1.554 4.076h19.733z" opacity=".568"/>
                <path fill="url(#B)" d="M30.343 24.243l.983-.49v24.345a3.11 3.11 0 0 1-3.11 3.11H9.828c1.915-1.662 3.351-4.043 4.31-7.142.06-.197.12-.399.18-.605a31.104 31.104 0 0 1 16.025-19.218z"/>
            </g>
            <g>
                <path fill="url(#C)" d="M236.998 98.558l8.33 6.115v40.855H220.63l10.273-11.117v-13.737a2.8 2.8 0 0 1 2.8-2.8h3.294V98.558zM296.353 98.558l8.33 6.115v40.855h-24.697l10.273-11.117v-13.737a2.8 2.8 0 0 1 2.799-2.8h3.295V98.558zM109.385 98.558l8.33 6.115v40.855H93.018l10.273-11.117v-13.737a2.8 2.8 0 0 1 2.8-2.8h3.294V98.558z" opacity=".504" transform="translate(-13.44 57.506)"/>
                <path fill="url(#C)" d="M380.44 98.558l8.328 6.115v40.855h-24.696l10.273-11.117v-13.737a2.8 2.8 0 0 1 2.799-2.8h3.295V98.558z" opacity=".504" transform="matrix(-1 0 0 1 739.4 57.506)"/>
                <path fill="url(#D)" d="M26.88 66.387L40.56 76.69v68.837H0l16.871-18.731v-26.183c0-.928.752-1.68 1.68-1.68h8.329V66.387z" transform="translate(-13.44 57.506)"/>
                <g transform="translate(232.775 96.005)">
                    <path fill="url(#E)" d="M23.461.185C28.32.185 32.957 18.692 34.6 28.9l12.502 77.682H0l12.502-77.682C14.145 18.692 19.002.185 23.462.185z"/>
                    <mask id="J" fill="#fff">
                        <use xlink:href="#F"/>
                    </mask>
                    <use fill="url(#G)" xlink:href="#F"/>
                    <use fill="#000" filter="url(#H)" xlink:href="#F"/>
                    <path fill="url(#I)" d="M14.438 38.017h18.324v3.057H14.438v-3.057zM1.944 51.914H44.7v3.057H1.944v-3.057z" mask="url(#J)"/>
                    <path fill="url(#K)" d="M1.944 65.81h42.758v3.057H1.944z" mask="url(#J)"/>
                    <path fill="url(#L)" d="M1.944 93.603h42.758v3.057H1.944z" mask="url(#J)"/>
                    <path fill="url(#M)" d="M1.944 79.707h42.758v3.057H1.944z" mask="url(#J)"/>
                </g>
                <path fill="url(#N)" d="M69.736 84.701l11.777-12.378v73.204h-38.58l16.048-17.326v-17.275h9.52V87.789c0-1.15.442-2.255 1.235-3.088z" opacity=".504" transform="matrix(-1 0 0 1 410.157 57.506)"/>
                <g transform="translate(285.71 57.506)">
                    <path fill="url(#O)" d="M29.765 127.57H43.37l5.774 17.51-13.605.074z"/>
                    <path fill="url(#P)" d="M18.047 28.349h13.327v99.184H18.047z"/>
                    <path fill="url(#Q)" d="M29.8 47.804h13.513v79.766H29.8z"/>
                    <path fill="url(#R)" d="M5.782 47.866h24.155v79.766H5.782z"/>
                    <g opacity=".737">
                        <use fill="url(#S)" xlink:href="#T"/>
                        <use fill="#000" filter="url(#U)" xlink:href="#T"/>
                    </g>
                    <g opacity=".737">
                        <use fill="url(#V)" xlink:href="#W"/>
                        <use fill="#000" filter="url(#X)" xlink:href="#W"/>
                    </g>
                    <path fill="#3378F2" d="M23.322 4.447h2.499v18.552h-2.499z" opacity=".743"/>
                    <ellipse cx="24.711" cy="2.779" fill="#3378F2" rx="2.776" ry="2.779"/>
                    <path fill="url(#Y)" d="M21.808 22.79h5.527l15.978 5.559H5.83z"/>
                    <path fill="url(#Z)" d="M40.814 61.145h2.499v3.057h-2.499v-3.057zm0 11.117h2.499v3.057h-2.499v-3.057zm0-5.559h2.499v3.057h-2.499v-3.057zm0 11.117h2.499v3.058h-2.499V77.82zm0 5.559h2.499v3.057h-2.499V83.38zm0 5.559h2.499v3.057h-2.499v-3.057zm0 5.558h2.499v3.057h-2.499v-3.057zm0 5.559h2.499v3.057h-2.499v-3.057zm0 5.558h2.499v3.058h-2.499v-3.058zm0 5.559h2.499v3.057h-2.499v-3.057zm0 5.559h2.499v3.057h-2.499v-3.057z"/>
                    <path fill="url(#aa)" d="M34.706 61.145h4.165v66.425h-4.165z"/>
                    <path fill="url(#ab)" d="M5.774 127.57h23.991l5.774 17.51H0z"/>
                    <path fill="url(#ac)" d="M15.418 47.866h4.857v79.766h-4.857z"/>
                    <path fill="url(#ad)" d="M34.706 127.57h4.146l6.15 17.51h-4.684z"/>
                </g>
            </g>
        </g>
        <g opacity=".798">
            <path fill="url(#ae)" d="M0 0h80.129L97.52 9.859 0 9.892z" opacity=".148" transform="translate(56.172 3.957)"/>
            <path fill="url(#af)" d="M0 2.968h80.129L97.52 5.925 0 5.935z" opacity=".214" transform="translate(56.172 3.957)"/>
        </g>
        <path fill="#5143A3" d="M141.866 37.577H246.95c0 2-1.622 3.621-3.621 3.621H141.866v-3.62z"/>
        <path fill="#A190FF" stroke="url(#ag)" stroke-width="1.825" d="M104.348 17.615l5.944 14.458h41.5v-14.08l-47.444-.378z" transform="translate(56.172)"/>
        <g transform="translate(56.172)">
            <use fill="#A190FF" xlink:href="#ah"/>
            <use fill="#000" filter="url(#ai)" xlink:href="#ah"/>
            <path stroke="url(#aj)" stroke-linejoin="square" stroke-width="1.825" d="M73.036 31.798h40.03l-8.18-14.194H81.288c-.69 0-1.322.389-1.631 1.006l-6.621 13.188z"/>
        </g>
        <path fill="url(#ak)" d="M71.557 32.55h119.222v5.608h-77.932l-1.306 1.17-25.847.824-12.244-3.967a2.737 2.737 0 0 1-1.893-2.604V32.55z" transform="translate(56.172)"/>
        <path fill="#A190FF" stroke="url(#al)" stroke-width="1.825" d="M144.01 31.651l46.256.392 2.12-2.16c.34-.346.531-.812.531-1.297v-4.427c0-.943-.709-1.736-1.647-1.84l-38.473-4.272-8.786 13.604z" transform="translate(56.172)"/>
        <path fill="#E8ECED" d="M161.284 3.154h4.95v13.924h-4.95z"/>
        <path fill="#26F2B5" stroke="#BDAFFF" stroke-width="1.825" d="M162.742 4.066v12.107l43.035.356L181.98 4.553a4.562 4.562 0 0 0-2.051-.487h-17.187z"/>
        <path fill="url(#am)" d="M79.962 0L97.35 5.27l-17.39 11.808z" transform="translate(56.172)"/>
        <path fill="#8C77FF" d="M157.846 3.154h3.818v13.924H135.77l20.577-13.477a2.737 2.737 0 0 1 1.5-.447z"/>
        <path stroke="#6C56E4" stroke-linecap="round" stroke-width="1.825" d="M147.595 14.031h11.038M153.114 10.41h5.519"/>
        <g transform="translate(104.652 6.067)">
            <path fill="url(#an)" d="M65.007 31.51c0-7.903-6.136-14.31-13.706-14.31-7.57 0-13.707 6.407-13.707 14.31"/>
            <g opacity=".5">
                <path fill="url(#ao)" d="M38.937 0h24.728l2.273 42.546H.487z" transform="translate(0 37.312)"/>
                <path fill="url(#ap)" d="M43.277 0h15.706l-7.407 44.516-40.694-.16z" transform="translate(0 37.312)"/>
            </g>
            <g opacity=".5">
                <path fill="url(#ao)" d="M38.937 0h24.728l2.273 42.546H.487z" transform="translate(62.323 37.312)"/>
                <path fill="url(#ap)" d="M43.277 0h15.706l-7.407 44.516-40.694-.16z" transform="translate(62.323 37.312)"/>
            </g>
            <g transform="translate(37.213 26.482)">
                <use fill="#3E3AA0" xlink:href="#aq"/>
                <use fill="#000" filter="url(#ar)" xlink:href="#aq"/>
            </g>
            <ellipse cx="37.556" cy="1.627" fill="#1CE9AD" rx="1.346" ry="1.358"/>
        </g>
        <path fill="url(#as)" d="M28.257 14.31C28.257 6.408 22.205 0 14.74 0S1.224 6.407 1.224 14.31" transform="translate(203.084 23.267)"/>
        <g transform="translate(203.695 32.55)">
            <use fill="#3E3AA0" xlink:href="#at"/>
            <use fill="#000" filter="url(#au)" xlink:href="#at"/>
        </g>
        <g opacity=".75">
            <path fill="url(#av)" d="M0 1.581l148.066-1.4 5.628 3.443 38.074 4.29 2.124 6.332L0 15.828z" opacity=".148" transform="translate(55.182 13.85)"/>
            <path fill="url(#aw)" d="M0 3.624h153.694l40.198 4.124v3.24L.624 11.872z" opacity=".214" transform="translate(55.182 13.85)"/>
        </g>
    </g>
</svg>
