<?xml version="1.0" encoding="UTF-8"?>
<svg width="14px" height="13px" viewBox="0 0 14 13" version="1.1" xmlns="http://www.w3.org/2000/svg" xmlns:xlink="http://www.w3.org/1999/xlink">
    <!-- Generator: Sketch 55.1 (78136) - https://sketchapp.com -->
    <title>Path</title>
    <desc>Created with Sketch.</desc>
    <g id="Page-1" stroke="none" stroke-width="1" fill="none" fill-rule="evenodd">
        <g id="Grakn-Presentation-Wide" transform="translate(-1050.000000, -6827.000000)" fill="#ED4141" fill-rule="nonzero">
            <g id="9th-Section" transform="translate(-197.000000, 6302.000000)">
                <g id="Footer" transform="translate(1189.000000, 476.000000)">
                    <path d="M70.8893738,50.272219 C70.1646576,49.4518317 69.1702423,49 68.0890961,49 C67.2809601,49 66.540863,49.2666621 65.8893128,49.7925171 C65.5605469,50.0579529 65.2626495,50.3826965 65,50.7617312 C64.7374573,50.3828079 64.4394531,50.0579529 64.1105804,49.7925171 C63.459137,49.2666621 62.7190399,49 61.9109039,49 C60.8297577,49 59.8352356,49.4518317 59.1105194,50.272219 C58.3944549,51.0830189 58,52.1906922 58,53.3913405 C58,54.6271053 58.4412384,55.758301 59.3885498,56.9513686 C60.2359924,58.0185744 61.4539642,59.1019449 62.8644104,60.3564384 C63.3460236,60.7848592 63.8919372,61.2704696 64.458786,61.7877405 C64.6085358,61.924639 64.8006897,62 65,62 C65.1992035,62 65.3914642,61.924639 65.5410004,61.7879635 C66.1078491,61.2705811 66.6540833,60.7847477 67.13591,60.356104 C68.5461426,59.1018334 69.7641144,58.0185744 70.611557,56.9512572 C71.5588684,55.758301 72,54.6271053 72,53.391229 C72,52.1906922 71.6055451,51.0830189 70.8893738,50.272219 Z" id="Path"></path>
                </g>
            </g>
        </g>
    </g>
</svg>