<?xml version="1.0" encoding="UTF-8"?>
<svg width="20px" height="20px" viewBox="0 0 20 20" version="1.1" xmlns="http://www.w3.org/2000/svg" xmlns:xlink="http://www.w3.org/1999/xlink">
    <!-- Generator: Sketch 55.1 (78136) - https://sketchapp.com -->
    <title>Path Copy 2</title>
    <desc>Created with Sketch.</desc>
    <g id="Page-1" stroke="none" stroke-width="1" fill="none" fill-rule="evenodd">
        <g id="Grakn-Presentation-Wide" transform="translate(-1817.000000, -6825.000000)" fill="#FFFFFF" fill-rule="nonzero">
            <g id="9th-Section" transform="translate(-197.000000, 6302.000000)">
                <g id="Footer" transform="translate(1189.000000, 476.000000)">
                    <path d="M842.295892,47 L827.693741,47 C826.206112,47 825.000098,48.2059658 825.000098,49.693643 L825.000098,64.2958924 C825.000098,65.7835697 826.206064,66.9896333 827.693741,66.9896333 L834.895452,66.9896333 L834.907726,59.846357 L833.051932,59.846357 C832.810758,59.846357 832.615012,59.6513447 832.614083,59.4101711 L832.605183,57.1076284 C832.604254,56.8651345 832.800587,56.6680685 833.043081,56.6680685 L834.895501,56.6680685 L834.895501,54.4432274 C834.895501,51.8613203 836.472372,50.4554523 838.775599,50.4554523 L840.665575,50.4554523 C840.907384,50.4554523 841.103472,50.6514914 841.103472,50.8933496 L841.103472,52.8348655 C841.103472,53.0766259 840.907531,53.2726161 840.665819,53.2727628 L839.505966,53.2733007 C838.253399,53.2733007 838.010856,53.8685086 838.010856,54.7420049 L838.010856,56.6681174 L840.763178,56.6681174 C841.025428,56.6681174 841.2289,56.8971149 841.197995,57.157555 L840.925086,59.4600978 C840.898973,59.6804401 840.712127,59.8464548 840.490269,59.8464548 L838.02313,59.8464548 L838.010856,66.9896333 L842.29599,66.9896333 C843.783619,66.9896333 844.989584,65.7836675 844.989584,64.2960391 L844.989584,49.693643 C844.989584,48.2059658 843.78357,47 842.295892,47 Z" id="Path-Copy-2"></path>
                </g>
            </g>
        </g>
    </g>
</svg>