<?xml version="1.0" encoding="UTF-8"?>
<svg width="15px" height="15px" viewBox="0 0 15 15" version="1.1" xmlns="http://www.w3.org/2000/svg" xmlns:xlink="http://www.w3.org/1999/xlink">
    <!-- Generator: sketchtool 57.1 (101010) - https://sketch.com -->
    <title>9A6A1D9C-A51F-429C-A219-4A038982E226</title>
    <desc>Created with sketchtool.</desc>
    <g id="sessions-list" stroke="none" stroke-width="1" fill="none" fill-rule="evenodd">
        <g id="sessions-list-desktop" transform="translate(-531.000000, -305.000000)" fill="#0A0926" fill-rule="nonzero">
            <g id="tags" transform="translate(0.000000, 100.000000)">
                <g id="grakndev-active-desktop-tablet" transform="translate(380.000000, 198.000000)">
                    <g id="grakndev">
                        <g>
                            <path d="M158.5,7 C154.358155,7 151,10.3593649 151,14.5 C151,18.6430544 154.358155,22 158.5,22 C162.641845,22 166,18.6430544 166,14.5 C166,10.3593649 162.641845,7 158.5,7 Z M158.5,10.3266129 C159.201492,10.3266129 159.770161,10.8952823 159.770161,11.5967742 C159.770161,12.2982661 159.201492,12.8669355 158.5,12.8669355 C157.798508,12.8669355 157.229839,12.2982661 157.229839,11.5967742 C157.229839,10.8952823 157.798508,10.3266129 158.5,10.3266129 Z M160.193548,18.0080645 C160.193548,18.2084778 160.031058,18.3709677 159.830645,18.3709677 L157.169355,18.3709677 C156.968942,18.3709677 156.806452,18.2084778 156.806452,18.0080645 L156.806452,17.2822581 C156.806452,17.0818448 156.968942,16.9193548 157.169355,16.9193548 L157.532258,16.9193548 L157.532258,14.983871 L157.169355,14.983871 C156.968942,14.983871 156.806452,14.821381 156.806452,14.6209677 L156.806452,13.8951613 C156.806452,13.694748 156.968942,13.5322581 157.169355,13.5322581 L159.104839,13.5322581 C159.305252,13.5322581 159.467742,13.694748 159.467742,13.8951613 L159.467742,16.9193548 L159.830645,16.9193548 C160.031058,16.9193548 160.193548,17.0818448 160.193548,17.2822581 L160.193548,18.0080645 Z" id="icon-info"></path>
                        </g>
                    </g>
                </g>
            </g>
        </g>
    </g>
</svg>