<?xml version="1.0" encoding="UTF-8"?>
<svg width="20px" height="20px" viewBox="0 0 20 20" version="1.1" xmlns="http://www.w3.org/2000/svg" xmlns:xlink="http://www.w3.org/1999/xlink">
    <!-- Generator: Sketch 55.1 (78136) - https://sketchapp.com -->
    <title>Shape</title>
    <desc>Created with Sketch.</desc>
    <g id="Page-1" stroke="none" stroke-width="1" fill="none" fill-rule="evenodd">
        <g id="Grakn-Presentation1" transform="translate(-1630.000000, -5935.000000)" fill="#FFFFFF" fill-rule="nonzero">
            <g id="9th-Section" transform="translate(-197.000000, 5369.000000)">
                <g id="Footer" transform="translate(1189.000000, 519.000000)">
                    <path d="M656.571429,47 L639.424107,47 C638.638393,47 638,47.6473214 638,48.4419643 L638,65.5580357 C638,66.3526786 638.638393,67 639.424107,67 L656.571429,67 C657.357143,67 658,66.3526786 658,65.5580357 L658,48.4419643 C658,47.6473214 657.357143,47 656.571429,47 Z M644.044643,64.1428571 L641.080357,64.1428571 L641.080357,54.5982143 L644.049107,54.5982143 L644.049107,64.1428571 L644.044643,64.1428571 Z M642.5625,53.2946429 C641.611607,53.2946429 640.84375,52.5223214 640.84375,51.5758929 C640.84375,50.6294643 641.611607,49.8571429 642.5625,49.8571429 C643.508929,49.8571429 644.28125,50.6294643 644.28125,51.5758929 C644.28125,52.5267857 643.513393,53.2946429 642.5625,53.2946429 L642.5625,53.2946429 Z M655.15625,64.1428571 L652.191964,64.1428571 L652.191964,59.5 C652.191964,58.3928571 652.169643,56.96875 650.651786,56.96875 C649.107143,56.96875 648.870536,58.1741071 648.870536,59.4196429 L648.870536,64.1428571 L645.90625,64.1428571 L645.90625,54.5982143 L648.75,54.5982143 L648.75,55.9017857 L648.790179,55.9017857 C649.1875,55.1517857 650.15625,54.3616071 651.598214,54.3616071 C654.598214,54.3616071 655.15625,56.3392857 655.15625,58.9107143 L655.15625,64.1428571 L655.15625,64.1428571 Z" id="Shape"></path>
                </g>
            </g>
        </g>
    </g>
</svg>