<?xml version="1.0" encoding="UTF-8"?>
<svg width="22px" height="21px" viewBox="0 0 22 21" version="1.1" xmlns="http://www.w3.org/2000/svg" xmlns:xlink="http://www.w3.org/1999/xlink">
    <!-- Generator: Sketch 55.1 (78136) - https://sketchapp.com -->
    <title>Shape</title>
    <desc>Created with Sketch.</desc>
    <g id="Page-1" stroke="none" stroke-width="1" fill="none" fill-rule="evenodd">
        <g id="Grakn-Presentation1" transform="translate(-1675.000000, -5935.000000)" fill="#FFFFFF" fill-rule="nonzero">
            <g id="9th-Section" transform="translate(-197.000000, 5369.000000)">
                <g id="Footer" transform="translate(1189.000000, 519.000000)">
                    <g id="github" transform="translate(683.000000, 47.000000)">
                        <path d="M7.35846774,16.8954545 C7.35846774,16.9822314 7.25645161,17.0516529 7.12782258,17.0516529 C6.98145161,17.0646694 6.87943548,16.9952479 6.87943548,16.8954545 C6.87943548,16.8086777 6.98145161,16.7392562 7.11008065,16.7392562 C7.24314516,16.7262397 7.35846774,16.7956612 7.35846774,16.8954545 Z M5.97903226,16.7002066 C5.94798387,16.7869835 6.03669355,16.8867769 6.16975806,16.9128099 C6.28508065,16.9561983 6.41814516,16.9128099 6.44475806,16.8260331 C6.47137097,16.7392562 6.38709677,16.6394628 6.25403226,16.6004132 C6.13870968,16.5700413 6.01008065,16.6134298 5.97903226,16.7002066 Z M7.93951613,16.6264463 C7.8108871,16.6568182 7.72217742,16.7392562 7.73548387,16.8390496 C7.74879032,16.9258264 7.8641129,16.9822314 7.99717742,16.9518595 C8.12580645,16.9214876 8.21451613,16.8390496 8.20120968,16.7522727 C8.18790323,16.6698347 8.06814516,16.6134298 7.93951613,16.6264463 Z M10.8580645,0 C4.70604839,0 0,4.56880165 0,10.5867769 C0,15.3985537 3.09596774,19.5161157 7.51814516,20.9652893 C8.0858871,21.0650826 8.28548387,20.722314 8.28548387,20.4402893 C8.28548387,20.171281 8.27217742,18.6873967 8.27217742,17.7762397 C8.27217742,17.7762397 5.16733871,18.4270661 4.51532258,16.4832645 C4.51532258,16.4832645 4.00967742,15.2206612 3.28225806,14.8952479 C3.28225806,14.8952479 2.26653226,14.2140496 3.35322581,14.2270661 C3.35322581,14.2270661 4.45766129,14.313843 5.06532258,15.3464876 C6.03669355,17.021281 7.66451613,16.5396694 8.29879032,16.2533058 C8.40080645,15.5590909 8.6891129,15.0774793 9.00846774,14.7911157 C6.52903226,14.5221074 4.02741935,14.1706612 4.02741935,9.99669421 C4.02741935,8.8035124 4.36451613,8.20475207 5.07419355,7.4411157 C4.95887097,7.15909091 4.58185484,5.99628099 5.18951613,4.49504132 C6.11653226,4.21301653 8.25,5.66652893 8.25,5.66652893 C9.13709677,5.42355372 10.0907258,5.29772727 11.0354839,5.29772727 C11.9802419,5.29772727 12.933871,5.42355372 13.8209677,5.66652893 C13.8209677,5.66652893 15.9544355,4.20867769 16.8814516,4.49504132 C17.4891129,6.00061983 17.1120968,7.15909091 16.9967742,7.4411157 C17.7064516,8.20909091 18.141129,8.80785124 18.141129,9.99669421 C18.141129,14.1836777 15.528629,14.5177686 13.0491935,14.7911157 C13.4572581,15.1338843 13.8032258,15.7847107 13.8032258,16.8043388 C13.8032258,18.2665289 13.7899194,20.0758264 13.7899194,20.4316116 C13.7899194,20.7136364 13.9939516,21.056405 14.5572581,20.9566116 C18.9927419,19.5161157 22,15.3985537 22,10.5867769 C22,4.56880165 17.0100806,0 10.8580645,0 Z M4.31129032,14.9646694 C4.25362903,15.0080579 4.26693548,15.1078512 4.34233871,15.1902893 C4.41330645,15.2597107 4.51532258,15.2900826 4.57298387,15.2336777 C4.63064516,15.1902893 4.61733871,15.0904959 4.54193548,15.0080579 C4.47096774,14.9386364 4.36895161,14.9082645 4.31129032,14.9646694 Z M3.83225806,14.6132231 C3.80120968,14.6696281 3.84556452,14.7390496 3.93427419,14.782438 C4.00524194,14.8258264 4.09395161,14.8128099 4.125,14.7520661 C4.15604839,14.6956612 4.11169355,14.6262397 4.02298387,14.5828512 C3.93427419,14.5568182 3.86330645,14.5698347 3.83225806,14.6132231 Z M5.26935484,16.1578512 C5.1983871,16.2142562 5.225,16.3444215 5.32701613,16.4268595 C5.42903226,16.5266529 5.55766129,16.5396694 5.61532258,16.4702479 C5.67298387,16.413843 5.64637097,16.2836777 5.55766129,16.2012397 C5.46008065,16.1014463 5.32701613,16.0884298 5.26935484,16.1578512 Z M4.76370968,15.5200413 C4.69274194,15.5634298 4.69274194,15.6762397 4.76370968,15.7760331 C4.83467742,15.8758264 4.95443548,15.9192149 5.01209677,15.8758264 C5.08306452,15.8194215 5.08306452,15.7066116 5.01209677,15.6068182 C4.95,15.5070248 4.83467742,15.4636364 4.76370968,15.5200413 Z" id="Shape"></path>
                    </g>
                </g>
            </g>
        </g>
    </g>
</svg>