<?xml version="1.0" standalone="no"?>
<!DOCTYPE svg PUBLIC "-//W3C//DTD SVG 20010904//EN"
 "http://www.w3.org/TR/2001/REC-SVG-20010904/DTD/svg10.dtd">
<svg version="1.0" xmlns="http://www.w3.org/2000/svg"
 width="572.000000pt" height="572.000000pt" viewBox="0 0 572.000000 572.000000"
 preserveAspectRatio="xMidYMid meet">
<metadata>
Created by potrace 1.11, written by Peter Selinger 2001-2013
</metadata>
<g transform="translate(0.000000,572.000000) scale(0.100000,-0.100000)"
fill="#000000" stroke="none">
<path d="M2425 4705 c-588 -54 -1124 -197 -1585 -424 -164 -80 -154 -76 -146
-62 4 6 5 11 2 11 -2 0 -34 -51 -70 -114 -166 -286 -276 -612 -322 -956 -22
-168 -22 -475 0 -635 45 -319 157 -654 309 -922 46 -80 106 -172 82 -125 -3 6
-4 12 -2 12 2 0 69 -31 148 -69 214 -103 539 -228 691 -265 l28 -6 2 953 3
953 38 77 c60 121 170 213 295 246 l42 12 0 222 0 222 -40 23 c-75 42 -128
153 -116 239 16 121 114 212 236 221 111 8 202 -41 252 -137 36 -69 38 -144 4
-216 -21 -47 -85 -115 -106 -115 -6 0 -10 -89 -10 -230 l0 -229 873 -3 873 -3
75 -37 c100 -49 167 -117 216 -215 l38 -77 3 -370 c3 -349 2 -373 -18 -437
-27 -90 -96 -181 -178 -236 -120 -80 -84 -77 -834 -81 l-668 -3 0 -469 0 -469
46 -7 c93 -14 699 4 879 25 454 55 842 152 1215 304 132 53 293 128 316 148
24 20 142 231 193 346 101 224 176 488 206 717 31 245 19 579 -31 826 -55 272
-160 548 -303 792 l-61 105 -109 51 c-480 225 -1031 366 -1615 412 -174 14
-678 11 -851 -5z"/>
<path d="M2440 2951 c-124 -38 -214 -160 -214 -292 0 -55 6 -78 32 -132 112
-226 435 -230 556 -6 80 147 19 331 -136 408 -53 27 -71 31 -137 30 -42 0 -87
-4 -101 -8z"/>
<path d="M3380 2943 c-63 -23 -151 -113 -173 -177 -40 -117 -14 -231 72 -317
150 -149 390 -116 498 69 35 60 43 167 18 243 -24 72 -110 159 -179 182 -62
21 -176 21 -236 0z"/>
<path d="M870 1226 c0 -2 8 -10 18 -17 15 -13 16 -12 3 4 -13 16 -21 21 -21
13z"/>
<path d="M940 1146 c0 -2 8 -10 18 -17 15 -13 16 -12 3 4 -13 16 -21 21 -21
13z"/>
</g>
</svg>
