<svg xmlns="http://www.w3.org/2000/svg" width="197" height="149" viewBox="0 0 197 149">
    <defs>
        <linearGradient id="a" x1="32.197%" x2="89.656%" y1="81.075%" y2="81.075%">
            <stop offset="0%" stop-color="#FFF"/>
            <stop offset="100%" stop-color="#8F77E1"/>
        </linearGradient>
        <linearGradient id="b" x1="50%" x2="50%" y1="30.503%" y2="124.067%">
            <stop offset="0%" stop-color="#060639"/>
            <stop offset="100%" stop-color="#291B78"/>
        </linearGradient>
        <linearGradient id="c" x1="124.661%" x2="19.359%" y1="52.544%" y2="52.544%">
            <stop offset="0%" stop-color="#3C2E7C"/>
            <stop offset="100%" stop-color="#0C0C60"/>
        </linearGradient>
        <linearGradient id="d" x1="50%" x2="50%" y1="0%" y2="100%">
            <stop offset="0%" stop-color="#02DAC9"/>
            <stop offset="100%" stop-color="#1AEBA8"/>
        </linearGradient>
        <linearGradient id="e" x1="34.951%" x2="60.24%" y1="-4.351%" y2="25.128%">
            <stop offset="0%" stop-color="#C6B7FF"/>
            <stop offset="100%" stop-color="#FFF"/>
        </linearGradient>
        <linearGradient id="f" x1="18.72%" x2="52.514%" y1="19.057%" y2="7.236%">
            <stop offset="0%" stop-color="#B9ACEE"/>
            <stop offset="100%" stop-color="#FFF"/>
        </linearGradient>
    </defs>
    <g fill="none" fill-rule="evenodd">
        <g transform="translate(38)">
            <path fill="url(#a)" d="M104.126 44.86l13.814-.001c1.413 0 2.635.984 2.936 2.365l3.575 16.405-26.84.003 3.58-16.407a3.005 3.005 0 0 1 2.935-2.364z" transform="rotate(89 111.031 54.246)"/>
            <path fill="url(#a)" d="M3.514 44.86l13.814-.001c1.413 0 2.635.984 2.936 2.365L23.84 63.63-3 63.632.579 47.225a3.005 3.005 0 0 1 2.935-2.364z" transform="scale(-1 1) rotate(89 0 43.643)"/>
            <ellipse cx="60.516" cy="54.12" fill="url(#b)" rx="54.061" ry="53.677"/>
            <path fill="url(#c)" d="M61.287 106.81h-.144a54.17 54.17 0 0 1 .144 0zm-1.064-.008l.08.001-.08-.001zM61.143 0c18.723 0 35.188 9.694 44.68 24.352-12.118-6.417-27.53-10.26-44.31-10.26-17.308 0-33.16 4.088-45.441 10.872C25.498 9.965 42.16 0 61.142 0z" transform="rotate(90 60.948 53.405)"/>
            <path fill="url(#c)" d="M61.287 106.81h-.144a54.17 54.17 0 0 1 .144 0zm-1.064-.008l.08.001-.08-.001zM61.143 0c18.723 0 35.188 9.694 44.68 24.352-12.118-6.417-27.53-10.26-44.31-10.26-17.308 0-33.16 4.088-45.441 10.872C25.498 9.965 42.16 0 61.142 0z" transform="matrix(0 1 1 0 7.543 -7.543)"/>
            <path fill="url(#d)" d="M43.52 23.163c2.992 0 5.417 2.365 5.417 5.281 0 2.092-1.247 3.9-3.055 4.755v9.537h34.444a9.438 9.438 0 0 1 9.438 9.438v11.673a9.438 9.438 0 0 1-9.438 9.437h-26.39v33.188L33.383 98.28V52.174c0-4.742 3.498-8.668 8.055-9.337v-9.516c-1.958-.796-3.333-2.68-3.333-4.877 0-2.916 2.425-5.28 5.416-5.28zM53.937 51.6c-3.681 0-6.666 2.91-6.666 6.5s2.985 6.5 6.666 6.5c3.681 0 6.666-2.91 6.666-6.5s-2.985-6.5-6.666-6.5zm20.275 0c-3.682 0-6.666 2.91-6.666 6.5s2.984 6.5 6.666 6.5c3.681 0 6.665-2.91 6.665-6.5s-2.984-6.5-6.665-6.5z"/>
            <path fill="url(#e)" d="M60.977 107.763h-.147a55.553 55.553 0 0 1 .147 0zm-1.08-.007h.08-.08zM60.83.409a54.11 54.11 0 0 1 45.368 24.475c-12.304-6.449-27.954-10.31-44.992-10.31-17.574 0-33.671 4.108-46.141 10.927A54.112 54.112 0 0 1 60.83.409z"/>
            <path fill="url(#f)" d="M60.977 107.763h-.147a55.553 55.553 0 0 1 .147 0zm-1.08-.007h.08-.08zM60.83.409a54.11 54.11 0 0 1 45.368 24.475c-12.304-6.449-27.954-10.31-44.992-10.31-17.574 0-33.671 4.108-46.141 10.927A54.112 54.112 0 0 1 60.83.409z" transform="matrix(1 0 0 -1 0 108.172)"/>
        </g>
        <g fill="#FFF" fill-rule="nonzero">
            <path d="M1.794 131.065c1.445-.824 3.169-.87 4.788-.824 1.386.093 2.866.36 3.902 1.346.816.777 1.06 1.95.99 3.028-.058.406.164.963-.232 1.242-.606.07-1.223.023-1.83.023-.22.023-.454-.104-.477-.348-.07-.638.082-1.334-.245-1.926-.396-.743-1.27-.998-2.038-1.09-.979-.094-2.016-.082-2.913.347-.652.302-1.013 1.033-.978 1.74v9.167c0 .58.233 1.183.722 1.531.687.476 1.538.522 2.353.569.827-.047 1.736-.093 2.423-.615.443-.325.653-.87.664-1.404.012-.835 0-1.67 0-2.506-1.036-.012-2.073.011-3.11-.012-.268.012-.408-.278-.408-.51-.011-.453-.035-.905.012-1.346.012-.255.268-.395.5-.383h5.022c.244-.023.524.128.524.394.012 1.59 0 3.168.012 4.757 0 1.126-.513 2.263-1.468 2.89-1.328.881-2.994.986-4.555.986-1.503-.058-3.157-.255-4.31-1.323-.746-.661-1.084-1.694-1.049-2.669.012-3.41 0-6.81 0-10.21.035-1.16.688-2.286 1.701-2.854zM17.52 131.019c-.023-.256.106-.604.42-.569 1.946-.012 3.891-.012 5.837 0 1.374.046 2.842.278 3.96 1.137.804.603 1.27 1.566 1.317 2.553.023.974 0 1.949.011 2.923 0 .824-.233 1.671-.769 2.31-.547.672-1.362 1.078-2.178 1.334 1.025 2.274 2.097 4.525 3.075 6.822-.034.07-.093.209-.128.278-.454.22-.967.093-1.456.128-.361-.023-.874.116-1.048-.302-1.002-2.18-1.98-4.374-2.96-6.567-1.153-.011-2.306 0-3.46 0 0 2.147.013 4.293 0 6.451.024.244-.209.43-.442.418-.57 0-1.153.012-1.724 0-.291.023-.454-.278-.43-.534-.036-5.476-.024-10.93-.024-16.382zm2.61 1.67v6.103c1.107-.011 2.202.012 3.309-.011.932-.058 2.003-.174 2.62-.952.525-.684.35-1.6.385-2.401.024-.673-.011-1.428-.512-1.927-.63-.638-1.585-.765-2.447-.8-1.118-.023-2.236-.012-3.355-.012zM38.886 131.088c.07-.29.233-.661.594-.65.629-.011 1.258-.011 1.887 0 .291.012.454.302.524.557 1.561 5.187 3.122 10.361 4.683 15.548.094.348.257.684.245 1.056.023.243-.28.301-.466.301-.582 0-1.153.012-1.736 0-.268-.011-.442-.267-.5-.499a200.035 200.035 0 0 1-1.806-6.242c-.431-1.497-1.375-5.163-1.946-7.774-.559 2.39-.734 3.203-1.829 7.124-.5 1.799-.547 1.903-.92 3.156a472.935 472.935 0 0 1-1.13 3.818.597.597 0 0 1-.524.429c-.536.012-1.072.012-1.608 0-.175 0-.43-.105-.408-.313.012-.337.152-.65.245-.975 1.573-5.175 3.145-10.35 4.695-15.536zM52.294 130.578c.14-.163.385-.128.583-.14.547.012 1.106-.023 1.654.024.256.034.326.336.315.557v7.193h.477c1.748-2.402 3.507-4.792 5.254-7.193.21-.256.443-.557.804-.569.582-.012 1.176 0 1.77 0 .164-.023.327.023.42.174.035.22-.117.418-.221.603-1.923 2.611-3.821 5.222-5.744 7.82 1.76 2.217 3.507 4.433 5.266 6.649.466.65 1.072 1.218 1.433 1.937-.105.116-.175.325-.373.29-.687.012-1.386 0-2.073.012-.303.023-.548-.174-.711-.394-1.934-2.449-3.856-4.897-5.79-7.333h-.5v7.205c.023.22-.117.487-.362.51-.606.024-1.211.012-1.817.012-.291.023-.49-.255-.466-.522V131.39c0-.29-.047-.569.081-.812zM69.594 130.902c-.024-.232.163-.487.407-.452.583 0 1.165-.023 1.736.012.198.011.268.208.361.348 1.76 3.086 3.519 6.16 5.278 9.235.489.894 1.06 1.752 1.432 2.715-.023-3.945-.011-7.901-.011-11.846.011-.661.804-.44 1.235-.476.407.058 1.13-.208 1.234.372.012 5.557.012 11.115 0 16.673-.023.58-.733.417-1.118.44-.43-.057-1.037.175-1.316-.266-1.806-3.156-3.6-6.324-5.394-9.48-.466-.858-1.013-1.67-1.363-2.587.023 3.933 0 7.867.012 11.788.046.255-.152.546-.431.522-.536.012-1.084.012-1.62 0-.28.012-.466-.267-.43-.522-.012-5.488-.024-10.987-.012-16.476z"/>
        </g>
        <path fill="#05E9A8" fill-rule="nonzero" d="M95.415 130.836c1.445-.824 3.169-.87 4.788-.824 1.386.093 2.866.36 3.903 1.346.815.778 1.06 1.95.99 3.029-.058.406.13.946-.266 1.224-.606.07-1.19.04-1.796.04-.221.023-.454-.104-.478-.348-.07-.638.082-1.334-.244-1.926-.396-.742-1.27-.998-2.039-1.09-.978-.093-2.015-.082-2.912.348-.653.301-1.014 1.032-.979 1.74v9.166c0 .58.233 1.183.722 1.532.688.475 1.538.522 2.354.568.827-.046 1.735-.093 2.423-.615.442-.325.652-.87.664-1.404.01-.682-.012-.646 0-1.662 0-.397.446-.397.489-.395h1.526c.245-.023.524.128.524.395.012 1.59 0 .467.012 2.057 0 1.125-.513 2.262-1.468 2.889-1.328.882-2.994.986-4.555.986-1.503-.058-3.157-.255-4.31-1.323-.746-.661-1.083-1.694-1.049-2.668.012-3.411 0-6.811 0-10.21.035-1.16.688-2.286 1.701-2.855zM112.415 130.836c1.445-.824 3.169-.87 4.788-.824 1.386.093 2.866.36 3.903 1.346.815.778 1.06 1.95.99 3.029-.058.406.13 9.946-.266 10.224-.606.07-1.19.04-1.796.04-.221.023-.454-.104-.478-.348-.07-.638.082-10.334-.244-10.926-.396-.742-1.27-.998-2.039-1.09-.978-.093-2.015-.082-2.912.348-.653.301-1.014 1.032-.979 1.74v9.166c0 .58.233 1.183.722 1.532.688.475 1.538.522 2.354.568.827-.046 1.735-.093 2.423-.615.442-.325.652-.87.664-1.404.01-.682-.012-.646 0-1.662 0-.397.446-.397.489-.395h1.526c.245-.023.524.128.524.395.012 1.59 0 .467.012 2.057 0 1.125-.513 2.262-1.468 2.889-1.328.882-2.994.986-4.555.986-1.503-.058-3.157-.255-4.31-1.323-.746-.661-1.083-1.694-1.049-2.668.012-3.411 0-6.811 0-10.21.035-1.16.688-2.286 1.701-2.855zM168.415 130.836c1.445-.824 3.169-.87 4.788-.824 1.386.093 2.866.36 3.903 1.346.815.778 1.06 1.95.99 3.029-.058.406.13 9.946-.266 10.224-.606.07-1.19.04-1.796.04-.221.023-.454-.104-.478-.348-.07-.638.082-10.334-.244-10.926-.396-.742-1.27-.998-2.039-1.09-.978-.093-2.015-.082-2.912.348-.653.301-1.014 1.032-.979 1.74v9.166c0 .58.233 1.183.722 1.532.688.475 1.538.522 2.354.568.827-.046 1.735-.093 2.423-.615.442-.325.652-.87.664-1.404.01-.682-.012-.646 0-1.662 0-.397.446-.397.489-.395h1.526c.245-.023.524.128.524.395.012 1.59 0 .467.012 2.057 0 1.125-.513 2.262-1.468 2.889-1.328.882-2.994.986-4.555.986-1.503-.058-3.157-.255-4.31-1.323-.746-.661-1.083-1.694-1.049-2.668.012-3.411 0-6.811 0-10.21.035-1.16.688-2.286 1.701-2.855z"/>
        <path fill="#05E9A8" d="M145.998 147.692c.007.3.182.331.433.331h1.49c.229 0 .373-.056.383-.331.025-3.887.038-7.959.038-12.215 1.239 3.04 2.47 6.032 3.693 8.98.2.436.29.573.694.573h1.266c.338 0 .366-.198.534-.574a279.27 279.27 0 0 0 3.76-8.98 237.48 237.48 0 0 0 0 12.216c.007.255.122.331.327.331h1.478c.3 0 .539.033.55-.331.264-8.323 0-9.049 0-17.042-.012-.379-.236-.412-.55-.412h-1.23c-.325 0-.416.067-.575.412a655.778 655.778 0 0 0-4.968 11.632 372.52 372.52 0 0 0-4.979-11.632c-.127-.285-.16-.412-.421-.412h-1.49c-.265 0-.425.086-.433.412v17.042z"/>
        <g stroke="#05E9A8">
            <path stroke-width="2.565" d="M139.614 134.916c.318-2.413-1.114-3.619-4.295-3.619-3.182 0-4.701 1.206-4.557 3.619.016 1.064.567 1.95 1.654 2.658 1.086.708 2.893 1.432 5.419 2.172 1.168.426 1.795 1.414 1.88 2.961.128 2.322-.983 3.337-1.88 3.648-.897.311-4.946.689-6.13-.497-.79-.791-1.164-1.922-1.123-3.393"/>
        </g>
        <g stroke="#05E9A8">
            <path stroke-width="2.565" d="M195.048 134.619c.318-2.413-1.114-3.619-4.296-3.619-3.182 0-4.7 1.206-4.556 3.619.016 1.064.567 1.95 1.653 2.658 1.087.708 2.893 1.432 5.42 2.171 1.168.427 1.794 1.414 1.88 2.962.128 2.322-.984 3.337-1.88 3.648-.897.311-4.946.689-6.13-.498-.79-.79-1.165-1.921-1.124-3.392"/>
        </g>
    </g>
</svg>
