<svg xmlns="http://www.w3.org/2000/svg" width="120" height="15" viewBox="0 0 120 15">
    <g fill="none" fill-rule="evenodd">
        <path fill="#FFF" fill-rule="nonzero" d="M1.384.691C2.5.07 3.83.035 5.08.07c1.07.07 2.21.271 3.01 1.015.63.586.819 1.47.765 2.284-.045.306.126.726-.18.936-.467.053-.944.018-1.411.018-.17.017-.35-.08-.369-.263-.054-.481.063-1.006-.188-1.452-.306-.56-.98-.753-1.573-.823-.755-.07-1.555-.061-2.248.263-.503.227-.782.778-.755 1.312v6.913c0 .437.18.892.558 1.155.53.358 1.186.393 1.815.428.639-.035 1.34-.07 1.87-.463.342-.245.503-.657.512-1.06.01-.63 0-1.26 0-1.89-.8-.008-1.6.01-2.4-.008-.206.009-.314-.21-.314-.385-.01-.341-.027-.683.009-1.015.009-.193.207-.297.386-.289H8.44c.19-.017.405.096.405.298.009 1.199 0 2.388.009 3.587 0 .849-.396 1.706-1.133 2.179-1.024.665-2.31.744-3.514.744-1.16-.044-2.436-.193-3.326-.998-.575-.498-.836-1.277-.81-2.012.01-2.573 0-5.136 0-7.7A2.58 2.58 0 0 1 1.385.69zM13.52.656c-.019-.192.08-.455.323-.428 1.5-.01 3.002-.01 4.503 0 1.06.035 2.193.21 3.056.857.62.455.98 1.181 1.016 1.925.018.735 0 1.47.009 2.205 0 .621-.18 1.26-.593 1.741-.423.508-1.052.814-1.681 1.006.79 1.716 1.618 3.413 2.373 5.146-.027.052-.072.157-.099.21-.35.166-.746.07-1.124.096-.278-.018-.674.087-.809-.228a495.93 495.93 0 0 1-2.283-4.952c-.89-.009-1.78 0-2.67 0 0 1.618.01 3.237 0 4.865.019.183-.161.323-.341.315-.44 0-.89.008-1.33 0-.225.017-.35-.21-.333-.403-.027-4.13-.018-8.242-.018-12.355zm2.013 1.26V6.52c.854-.009 1.698.008 2.552-.009.72-.044 1.546-.131 2.023-.717.404-.517.27-1.208.296-1.812.018-.507-.008-1.076-.395-1.452-.485-.481-1.222-.578-1.888-.604-.863-.018-1.725-.009-2.588-.009zM30.004.709c.054-.219.18-.499.459-.49.485-.009.97-.009 1.456 0 .225.009.35.227.405.42 1.204 3.911 2.409 7.814 3.613 11.725.072.262.198.516.189.796.018.184-.216.227-.36.227-.45 0-.89.01-1.339 0-.207-.008-.342-.2-.387-.376a148.242 148.242 0 0 1-1.393-4.707 116.27 116.27 0 0 1-1.5-5.863c-.432 1.803-.567 2.415-1.412 5.373-.387 1.356-.423 1.435-.71 2.38a350.56 350.56 0 0 1-.872 2.879.458.458 0 0 1-.405.323c-.413.009-.827.009-1.24 0-.135 0-.333-.079-.315-.236.01-.254.117-.49.189-.735C27.596 8.523 28.809 4.62 30.004.709z"/>
        <text fill="#05E9A8" font-family="Geogrotesque-Medium, Geogrotesque" font-size="19.3" font-weight="400" letter-spacing="2.211" transform="translate(0 -4)">
            <tspan x="72.111" y="19.421">LABS</tspan>
        </text>
        <path fill="#FFF" fill-rule="nonzero" d="M40.35.324c.108-.123.297-.096.45-.105.422.009.854-.018 1.276.017.198.027.252.254.243.42v5.425h.369c1.348-1.811 2.705-3.614 4.054-5.425.161-.192.341-.42.62-.428.45-.01.908 0 1.366 0 .126-.018.252.017.324.13.027.167-.09.316-.171.456-1.483 1.968-2.948 3.937-4.432 5.897 1.358 1.671 2.706 3.343 4.063 5.014.36.49.827.919 1.106 1.461-.08.088-.135.245-.288.219-.53.009-1.07 0-1.6.009-.233.017-.422-.132-.548-.298-1.492-1.846-2.975-3.692-4.467-5.53h-.387v5.434c.018.166-.09.367-.279.385-.467.018-.934.009-1.402.009-.225.017-.377-.193-.36-.394V.936c0-.218-.035-.428.064-.612zM53.699.569c-.018-.175.126-.368.314-.341.45 0 .9-.018 1.34.008.153.009.207.158.278.263a4913.06 4913.06 0 0 0 4.072 6.965c.378.673.818 1.321 1.106 2.047-.018-2.975-.009-5.958-.009-8.933.009-.5.62-.333.953-.36.314.045.872-.157.953.28.009 4.192.009 8.383 0 12.575-.018.437-.567.314-.863.332-.333-.044-.8.131-1.016-.201-1.393-2.38-2.778-4.769-4.162-7.149-.36-.647-.782-1.26-1.052-1.951.018 2.966 0 5.932.01 8.89.035.192-.117.411-.333.393-.414.01-.836.01-1.25 0-.215.01-.36-.2-.332-.393-.01-4.139-.018-8.287-.01-12.425z"/>
    </g>
</svg>
