<svg xmlns="http://www.w3.org/2000/svg" width="271" height="42" viewBox="0 0 271 42">
    <defs>
        <linearGradient id="a" x1="100%" x2="-25.296%" y1="50%" y2="-33.794%">
            <stop offset="0%" stop-color="#FFF"/>
            <stop offset="100%" stop-color="#A38BF6"/>
        </linearGradient>
        <linearGradient id="b" x1="100%" x2="-51.991%" y1="50%" y2="41.028%">
            <stop offset="0%" stop-color="#FFF"/>
            <stop offset="100%" stop-color="#A38BF6"/>
        </linearGradient>
        <linearGradient id="c" x1="50%" x2="50%" y1="30.503%" y2="165.734%">
            <stop offset="0%" stop-color="#060639"/>
            <stop offset="100%" stop-color="#1C1157"/>
        </linearGradient>
        <linearGradient id="d" x1="50%" x2="50%" y1="0%" y2="100%">
            <stop offset="0%" stop-color="#1AEBA7"/>
            <stop offset="100%" stop-color="#1AEBA8"/>
        </linearGradient>
        <linearGradient id="e" x1="34.951%" x2="60.24%" y1="-4.351%" y2="25.128%">
            <stop offset="0%" stop-color="#C6B7FF"/>
            <stop offset="100%" stop-color="#FFF"/>
        </linearGradient>
        <linearGradient id="f" x1="83.849%" x2="37.668%" y1="0%" y2="10.053%">
            <stop offset="0%" stop-color="#B9ACEE"/>
            <stop offset="100%" stop-color="#FFF"/>
        </linearGradient>
    </defs>
    <g fill="none" fill-rule="evenodd">
        <g fill="#FFF" fill-rule="nonzero">
            <path d="M66.369 11.634c1.605-.915 3.52-.967 5.32-.915 1.54.103 3.184.4 4.336 1.495.906.864 1.178 2.166 1.1 3.365-.065.45.181 1.07-.259 1.38-.673.076-1.36.025-2.032.025-.246.026-.505-.116-.53-.387-.079-.709.09-1.482-.273-2.14-.44-.825-1.41-1.109-2.265-1.212-1.087-.103-2.24-.09-3.236.387-.725.335-1.126 1.147-1.087 1.934V25.75c0 .645.259 1.315.802 1.702.764.529 1.709.58 2.615.632.919-.052 1.929-.103 2.692-.684.492-.36.725-.966.738-1.56.013-.928 0-1.856 0-2.784-1.152-.013-2.304.013-3.456-.013-.298.013-.453-.31-.453-.567-.013-.503-.039-1.006.013-1.496.013-.283.298-.438.557-.425h5.578c.272-.026.583.142.583.438.013 1.766 0 3.52.013 5.286 0 1.25-.57 2.514-1.631 3.21-1.476.98-3.327 1.096-5.061 1.096-1.67-.065-3.508-.284-4.79-1.47-.828-.735-1.203-1.882-1.164-2.965.013-3.79 0-7.567 0-11.345.039-1.289.763-2.54 1.89-3.171zM83.479 12.346c-.026-.283.116-.67.466-.632 2.162-.012 4.323-.012 6.485 0 1.527.052 3.158.31 4.4 1.264.894.67 1.412 1.74 1.463 2.836.026 1.083 0 2.166.013 3.249 0 .915-.259 1.856-.854 2.565-.608.748-1.514 1.2-2.42 1.483 1.139 2.527 2.33 5.028 3.417 7.58-.04.078-.104.232-.143.31-.505.245-1.074.103-1.618.141-.4-.025-.97.13-1.165-.335-1.113-2.423-2.2-4.86-3.287-7.297-1.282-.012-2.563 0-3.845 0 0 2.385.013 4.77 0 7.168.026.271-.233.477-.492.464-.634 0-1.281.013-1.915 0-.324.026-.505-.309-.48-.593-.038-6.085-.025-12.144-.025-18.203zm2.9 1.857v6.78c1.229-.012 2.446.014 3.675-.012 1.036-.065 2.227-.194 2.913-1.057.582-.761.388-1.78.427-2.669.026-.748-.013-1.586-.57-2.14-.699-.709-1.76-.85-2.718-.89-1.242-.025-2.485-.012-3.728-.012zM107.966 12.436c.077-.322.259-.734.66-.722a56.85 56.85 0 0 1 2.097 0c.323.013.505.336.582.62 1.735 5.762 3.47 11.512 5.204 17.274.103.387.285.76.272 1.173.025.271-.311.336-.518.336-.647 0-1.282.013-1.929 0-.298-.013-.492-.297-.556-.555-.7-2.307-1.385-4.615-2.007-6.936-.479-1.663-1.527-5.736-2.161-8.637-.622 2.656-.816 3.558-2.032 7.916-.557 1.998-.609 2.114-1.023 3.506a525.483 525.483 0 0 1-1.256 4.242c-.077.257-.31.464-.582.477-.595.012-1.19.012-1.786 0-.194 0-.48-.117-.453-.349.013-.373.168-.722.271-1.082 1.748-5.75 3.495-11.5 5.217-17.263zM122.576 11.861c.155-.18.427-.141.647-.154.608.013 1.23-.026 1.838.026.285.038.362.373.35.618v7.993h.53c1.942-2.668 3.896-5.324 5.838-7.993.233-.283.492-.618.893-.631.647-.013 1.307 0 1.967 0 .182-.026.363.025.466.193.04.245-.129.464-.246.67-2.135 2.901-4.245 5.802-6.38 8.69 1.954 2.462 3.895 4.924 5.85 7.386.518.722 1.19 1.354 1.592 2.153-.117.13-.194.361-.414.323-.764.013-1.54 0-2.304.013-.337.025-.609-.194-.79-.439-2.149-2.72-4.284-5.44-6.433-8.147h-.557v8.005c.026.245-.129.542-.4.568-.674.025-1.347.013-2.02.013-.324.025-.544-.284-.518-.58V12.763c0-.322-.052-.632.09-.903zM141.481 12.234c-.026-.258.182-.541.453-.503.648 0 1.295-.025 1.929.013.22.013.298.232.401.387 1.955 3.43 3.91 6.846 5.864 10.262.543.993 1.178 1.947 1.592 3.017-.026-4.384-.013-8.78-.013-13.163.013-.735.893-.49 1.372-.529.453.065 1.256-.232 1.372.413.013 6.175.013 12.35 0 18.525-.026.645-.815.465-1.243.49-.478-.064-1.152.194-1.462-.296-2.006-3.507-4-7.026-5.993-10.533-.518-.954-1.126-1.856-1.515-2.875.026 4.37 0 8.741.013 13.098.052.284-.168.606-.479.58-.595.013-1.203.013-1.799 0-.31.013-.518-.296-.479-.58a4315.1 4315.1 0 0 1-.013-18.306z"/>
        </g>
        <path fill="#05E9A8" fill-rule="nonzero" d="M166.369 11.469c1.605-.915 3.52-.967 5.32-.915 1.54.103 3.184.4 4.336 1.495.906.864 1.178 2.166 1.1 3.365-.065.451.144 1.051-.296 1.36-.673.078-1.322.045-1.995.045-.246.026-.505-.116-.53-.387-.079-.709.09-1.482-.273-2.14-.44-.825-1.41-1.108-2.265-1.211-1.087-.104-2.24-.09-3.236.386-.725.335-1.126 1.148-1.087 1.934v10.185c0 .644.259 1.315.802 1.701.764.529 1.709.58 2.615.632.919-.052 1.929-.103 2.692-.683.492-.361.725-.967.738-1.56.01-.759-.013-.718 0-1.848 0-.44.496-.44.544-.438h1.695c.272-.026.583.142.583.438.013 1.767 0 .52.013 2.286 0 1.25-.57 2.514-1.631 3.21-1.476.98-3.327 1.096-5.061 1.096-1.67-.064-3.508-.284-4.79-1.47-.828-.735-1.203-1.882-1.164-2.965.013-3.79 0-7.567 0-11.345.039-1.289.763-2.54 1.89-3.171zM184.369 11.469c1.605-.915 3.52-.967 5.32-.915 1.54.103 3.184.4 4.336 1.495.906.864 1.178 2.166 1.1 3.365-.065.451.144 11.051-.296 11.36-.673.078-1.322.045-1.995.045-.246.026-.505-.116-.53-.387-.079-.709.09-11.482-.273-12.14-.44-.825-1.41-1.108-2.265-1.211-1.087-.104-2.24-.09-3.236.386-.725.335-1.126 1.148-1.087 1.934v10.185c0 .644.259 1.315.802 1.701.764.529 1.709.58 2.615.632.919-.052 1.929-.103 2.692-.683.492-.361.725-.967.738-1.56.01-.759-.013-.718 0-1.848 0-.44.496-.44.544-.438h1.695c.272-.026.583.142.583.438.013 1.767 0 .52.013 2.286 0 1.25-.57 2.514-1.631 3.21-1.476.98-3.327 1.096-5.061 1.096-1.67-.064-3.508-.284-4.79-1.47-.828-.735-1.203-1.882-1.164-2.965.013-3.79 0-7.567 0-11.345.039-1.289.763-2.54 1.89-3.171zM241.369 11.469c1.605-.915 3.52-.967 5.32-.915 1.54.103 3.184.4 4.336 1.495.906.864 1.178 2.166 1.1 3.365-.065.451.144 11.051-.296 11.36-.673.078-1.322.045-1.995.045-.246.026-.505-.116-.53-.387-.079-.709.09-11.482-.273-12.14-.44-.825-1.41-1.108-2.265-1.211-1.087-.104-2.24-.09-3.236.386-.725.335-1.126 1.148-1.087 1.934v10.185c0 .644.259 1.315.802 1.701.764.529 1.709.58 2.615.632.919-.052 1.929-.103 2.692-.683.492-.361.725-.967.738-1.56.01-.759-.013-.718 0-1.848 0-.44.496-.44.544-.438h1.695c.272-.026.583.142.583.438.013 1.767 0 .52.013 2.286 0 1.25-.57 2.514-1.631 3.21-1.476.98-3.327 1.096-5.061 1.096-1.67-.064-3.508-.284-4.79-1.47-.828-.735-1.203-1.882-1.164-2.965.013-3.79 0-7.567 0-11.345.039-1.289.763-2.54 1.89-3.171z"/>
        <path fill="#05E9A8" d="M218.127 30.197c.008.333.203.369.48.369h1.656c.255 0 .415-.063.426-.369.029-4.318.043-8.842.043-13.572 1.376 3.377 2.744 6.703 4.103 9.978.223.484.322.637.771.637h1.406c.376 0 .407-.22.594-.637a310.3 310.3 0 0 0 4.178-9.978c-.117 4.59-.117 9.114 0 13.572.007.284.136.369.364.369h1.64c.335 0 .6.037.613-.369.293-9.246 0-10.054 0-18.935-.014-.42-.263-.458-.612-.458h-1.367c-.36 0-.462.074-.638.458a728.642 728.642 0 0 0-5.52 12.925 413.91 413.91 0 0 0-5.532-12.925c-.142-.317-.179-.458-.469-.458h-1.655c-.295 0-.472.096-.481.458v18.935z"/>
        <g stroke="#05E9A8">
            <path stroke-width="2.85" d="M211.034 16.002c.353-2.68-1.238-4.02-4.773-4.02-3.535 0-5.223 1.34-5.062 4.02.017 1.182.63 2.167 1.837 2.953 1.207.787 3.214 1.591 6.02 2.413 1.299.474 1.995 1.571 2.09 3.291.142 2.58-1.093 3.708-2.09 4.054-.996.345-5.494.765-6.81-.554-.878-.878-1.294-2.135-1.248-3.77"/>
        </g>
        <g stroke="#05E9A8">
            <path stroke-width="2.85" d="M269.034 16.002c.353-2.68-1.238-4.02-4.773-4.02-3.535 0-5.223 1.34-5.062 4.02.017 1.182.63 2.167 1.837 2.953 1.207.787 3.214 1.591 6.02 2.413 1.299.474 1.995 1.571 2.09 3.291.142 2.58-1.093 3.708-2.09 4.054-.996.345-5.494.765-6.81-.554-.878-.878-1.294-2.135-1.248-3.77"/>
        </g>
        <g>
            <path fill="url(#a)" d="M40.516 17.39h5.404c.553 0 1.031.385 1.15.925l1.397 6.418-10.5.002 1.4-6.42c.118-.54.596-.924 1.149-.924z" transform="rotate(89 43.217 21.062)"/>
            <path fill="url(#b)" d="M1.154 17.39h5.404c.553 0 1.031.385 1.149.925l1.398 6.418-10.5.002 1.4-6.42c.118-.54.596-.924 1.149-.924z" transform="scale(-1 1) rotate(89 0 17.14)"/>
            <ellipse cx="23.577" cy="21" fill="url(#c)" rx="21.15" ry="21"/>
            <path fill="url(#d)" d="M18.212 9.333c1.013 0 1.834.808 1.834 1.805 0 .714-.422 1.332-1.034 1.624l-.001 3.258 11.651.001a3.21 3.21 0 0 1 3.21 3.21v4.017a3.21 3.21 0 0 1-3.21 3.21h-8.923v11.34h-6.96V19.232a3.212 3.212 0 0 1 2.727-3.175v-3.253a1.805 1.805 0 0 1-1.128-1.666c0-.997.821-1.805 1.834-1.805zm3.527 9.717c-1.246 0-2.257.994-2.257 2.22 0 1.227 1.01 2.221 2.257 2.221s2.258-.994 2.258-2.22c0-1.227-1.01-2.221-2.258-2.221zm6.867 0c-1.247 0-2.258.994-2.258 2.22 0 1.227 1.01 2.221 2.258 2.221 1.246 0 2.257-.994 2.257-2.22 0-1.227-1.01-2.221-2.257-2.221z"/>
            <path fill="url(#e)" d="M23.641 42h-.064a21.723 21.723 0 0 1 .064 0zm-.064-42a21.17 21.17 0 0 1 17.75 9.576c-4.813-2.523-10.936-4.034-17.603-4.034-6.875 0-13.173 1.607-18.052 4.275A21.17 21.17 0 0 1 23.577 0z"/>
            <path fill="url(#f)" d="M23.641 42h-.064a21.723 21.723 0 0 1 .064 0zm-.064-42a21.17 21.17 0 0 1 17.75 9.576c-4.813-2.523-10.936-4.034-17.603-4.034-6.875 0-13.173 1.607-18.052 4.275A21.17 21.17 0 0 1 23.577 0z" transform="matrix(1 0 0 -1 0 42)"/>
        </g>
    </g>
</svg>
