<svg xmlns="http://www.w3.org/2000/svg" width="119" height="140" viewBox="0 0 119 140">
    <defs>
        <linearGradient id="a" x1="22.962%" x2="88.227%" y1="100%" y2="21.672%">
            <stop offset="0%" stop-color="#591B76"/>
            <stop offset="100%" stop-color="#BA5EF5"/>
        </linearGradient>
        <linearGradient id="c" x1="50%" x2="50%" y1="0%" y2="100%">
            <stop offset="0%" stop-color="#9C35B7"/>
            <stop offset="100%" stop-color="#B048CE"/>
        </linearGradient>
        <linearGradient id="b" x1="36.987%" x2="98.861%" y1="50%" y2="50%">
            <stop offset="0%" stop-color="#A150D2"/>
            <stop offset="100%" stop-color="#A360D6"/>
        </linearGradient>
        <linearGradient id="e" x1="0%" x2="50%" y1="37.364%" y2="37.364%">
            <stop offset="0%" stop-color="#8F18A8"/>
            <stop offset="100%" stop-color="#962DB0"/>
        </linearGradient>
        <linearGradient id="d" x1="0%" x2="99.142%" y1="50%" y2="50%">
            <stop offset="0%" stop-color="#893BB0"/>
            <stop offset="100%" stop-color="#8A3DB9"/>
        </linearGradient>
        <linearGradient id="g" x1="88.982%" x2="0%" y1="29.368%" y2="50%">
            <stop offset="0%" stop-color="#7F1D94"/>
            <stop offset="100%" stop-color="#84289B"/>
        </linearGradient>
        <linearGradient id="f" x1="36.987%" x2="99.142%" y1="50%" y2="50%">
            <stop offset="0%" stop-color="#8137A4"/>
            <stop offset="100%" stop-color="#7F2BAD"/>
        </linearGradient>
        <linearGradient id="i" x1="88.982%" x2="0%" y1="29.368%" y2="50%">
            <stop offset="0%" stop-color="#7C1691"/>
            <stop offset="100%" stop-color="#BA33DC"/>
        </linearGradient>
        <linearGradient id="h" x1="36.987%" x2="99.142%" y1="50%" y2="50%">
            <stop offset="0%" stop-color="#8937B0"/>
            <stop offset="100%" stop-color="#9343BF"/>
        </linearGradient>
        <linearGradient id="k" x1="88.982%" x2=".162%" y1="39.732%" y2="49.981%">
            <stop offset="0%" stop-color="#6D1382"/>
            <stop offset="100%" stop-color="#812999"/>
        </linearGradient>
        <linearGradient id="j" x1="0%" x2="98.75%" y1="50%" y2="50%">
            <stop offset="0%" stop-color="#732F98"/>
            <stop offset="100%" stop-color="#7B33A8"/>
        </linearGradient>
        <linearGradient id="m" x1="88.982%" x2="0%" y1="43.935%" y2="50%">
            <stop offset="0%" stop-color="#7C1C91"/>
            <stop offset="100%" stop-color="#A23BBB"/>
        </linearGradient>
        <linearGradient id="l" x1="36.987%" x2="99.142%" y1="50%" y2="50%">
            <stop offset="0%" stop-color="#732E95"/>
            <stop offset="100%" stop-color="#9143BD"/>
        </linearGradient>
    </defs>
    <g fill="none" fill-rule="evenodd" transform="translate(-28 -28)">
        <circle cx="98" cy="98" r="48.161" fill="url(#a)"/>
        <path stroke="#A036A5" stroke-linecap="round" stroke-width=".501" d="M146.954 49.046c-11.87-11.869-26.977-18.528-42.48-19.975-19.808-1.85-40.26 4.809-55.428 19.975m-20.18 45.3c-.995 18.914 5.732 38.16 20.18 52.608m51.119 20.243c16.989-.528 33.821-7.276 46.789-20.243" opacity=".305"/>
        <path fill="#8430A3" d="M119.44 81.133c4.864 4.728 12.59 5.597 14.77 1.936 2.181-3.66-13.913-19.338-17.32-15.733-3.407 3.606-2.313 9.07 2.55 13.797z"/>
        <path fill="#72268F" d="M118.347 115.858c-5.211 7.022-1.885 12.461.62 14.17 2.507 1.71 11.658-16.244 10.335-17.682-1.323-1.437-5.743-3.51-10.955 3.512z"/>
        <path fill="#882BAA" d="M102.741 89.402c-2.131-2.265-5.482-2.549-7.92-.768-2.437 1.78 4.284 11.051 7.168 9.366 2.884-1.685 2.884-6.334.752-8.598z"/>
        <path fill="#711F97" d="M89.665 119.626c-3.571-6.4-10.226-5.802-12.46-3.59-2.234 2.214-.436 5.512 2.245 9.998s5.6 7.332 8.539 5.909 5.247-5.918 1.676-12.317z"/>
        <path fill="#7D2D93" d="M70.48 71.875c4.686-4.726 3.506-8.036 1.709-9.906-1.797-1.87-13.726 10.165-11.929 12.036 1.797 1.87 5.536 2.597 10.22-2.13z"/>
        <ellipse cx="126.479" cy="74.005" fill="url(#c)" stroke="url(#b)" stroke-width="1.727" rx="11.018" ry="6.956" transform="rotate(42 126.48 74.005)"/>
        <ellipse cx="125.336" cy="121.794" fill="url(#e)" stroke="url(#d)" stroke-width="1.732" rx="9.57" ry="6.088" transform="rotate(120 125.336 121.794)"/>
        <path fill="#72258E" d="M68.885 95.55c-2.743-3.268-6.16-2.089-7.953-.786-1.793 1.303 5.39 10.59 7.182 9.287 1.794-1.303 3.515-5.232.771-8.5z"/>
        <ellipse cx="63.671" cy="99.866" fill="url(#g)" stroke="url(#f)" stroke-width="1.732" rx="5.218" ry="4.88" transform="rotate(-126 63.671 99.866)"/>
        <ellipse cx="97.785" cy="93.846" fill="url(#i)" stroke="url(#h)" stroke-width="1.732" rx="5.218" ry="4.88" transform="scale(1 -1) rotate(-53 -90.442 0)"/>
        <ellipse cx="81.727" cy="124.426" fill="url(#k)" stroke="url(#j)" stroke-width="1.732" rx="8.893" ry="6.088" transform="rotate(-121 81.727 124.426)"/>
        <ellipse cx="65.293" cy="66.813" fill="url(#m)" stroke="url(#l)" stroke-width="1.732" rx="7.829" ry="4.348" transform="rotate(-44 65.293 66.813)"/>
    </g>
</svg>
