<?xml version="1.0" encoding="UTF-8"?>
<svg width="226px" height="19px" viewBox="0 0 226 19" version="1.1" xmlns="http://www.w3.org/2000/svg" xmlns:xlink="http://www.w3.org/1999/xlink">
    <!-- Generator: Sketch 58 (84663) - https://sketch.com -->
    <title>footer-with</title>
    <desc>Created with Sketch.</desc>
    <g id="Symbols" stroke="none" stroke-width="1" fill="none" fill-rule="evenodd">
        <g id="footer-desktop" transform="translate(-395.000000, -48.000000)">
            <g id="footer">
                <g id="footer-with" transform="translate(397.000000, 47.000000)">
                    <g id="with">
                        <g id="&lt;&gt;" transform="translate(0.000000, 2.000000)" stroke="#FFFFFF" stroke-width="3">
                            <polyline id="&lt;" points="6.08792849 0.029296875 0.907714844 6.04032475 6.08792849 11.9082011"></polyline>
                            <polyline id="&gt;" transform="translate(13.464138, 5.968749) scale(-1, 1) translate(-13.464138, -5.968749) " points="16.0542447 0.029296875 10.8740311 6.04032475 16.0542447 11.9082011"></polyline>
                        </g>
                        <path d="M77.7307129,2.38965458 C76.9024658,1.49353925 75.7659912,1 74.5303955,1 C73.6068115,1 72.7609863,1.29127706 72.0163574,1.86567248 C71.640625,2.15561004 71.3001709,2.51032999 71,2.92435256 C70.6999512,2.51045175 70.359375,2.15561004 69.9835205,1.86567248 C69.2390137,1.29127706 68.3931885,1 67.4696045,1 C66.2340088,1 65.0974121,1.49353925 64.269165,2.38965458 C63.4508057,3.27529756 63,4.48521764 63,5.79669503 C63,7.14653037 63.5042725,8.38214421 64.5869141,9.68534112 C65.5554199,10.8510582 66.9473877,12.0344321 68.5593262,13.4047251 C69.1097412,13.8726923 69.7336426,14.4031283 70.3814697,14.9681474 C70.5526123,15.1176826 70.7722168,15.2 71,15.2 C71.2276611,15.2 71.4473877,15.1176826 71.6182861,14.9683909 C72.2661133,14.4032501 72.8903809,13.8725706 73.44104,13.4043597 C75.0527344,12.0343104 76.4447022,10.8510582 77.413208,9.68521936 C78.4958496,8.38214421 79,7.14653037 79,5.79657327 C79,4.48521764 78.5491943,3.27529756 77.7307129,2.38965458 Z" id="icon-heart" fill="#ED4141" fill-rule="nonzero"></path>
                        <g id="logo-grakn-labs" transform="translate(107.000000, 0.000000)">
                            <g id="text-labs" transform="translate(70.117676, 0.322754)">
                                <g id="l" transform="translate(0.582693, 0.870913)" stroke="#05E9A8" stroke-width="1.00450822">
                                    <path d="M0.502254112,0.502254112 L0.502254112,12.7572544 L1.60721316,12.7572544 L1.60721316,0.502254112 L0.502254112,0.502254112 Z" id="Rectangle" fill="#05E9A8"></path>
                                    <rect id="Rectangle-Copy-113" transform="translate(4.195980, 12.307887) rotate(-270.000000) translate(-4.195980, -12.307887) " x="3.74395126" y="9.79661605" width="1" height="5.02254112" rx="0.331487714"></rect>
                                </g>
                                <g id="a" transform="translate(10.885376, 0.962234)">
                                    <path d="M3.82956767,0.498801115 C3.88374341,0.279064941 4.01015344,-0.00219736174 4.29006127,0.00659208522 C4.77764283,-0.00219736174 5.26522439,-0.00219736174 5.75280585,0.00659208522 C5.97853803,0.0153815322 6.10494806,0.235117706 6.1591238,0.428485539 C7.36904833,4.35736833 8.57897286,8.27746167 9.78889739,12.2063445 C9.86113168,12.4700279 9.98754171,12.7249218 9.97851238,13.0061841 C9.99657093,13.1907625 9.76180952,13.2347098 9.61734085,13.2347098 C9.16587648,13.2347098 8.72344144,13.2434992 8.27197707,13.2347098 C8.06430343,13.2259203 7.92886418,13.0325525 7.88371766,12.8567635 C7.3961362,11.2834525 6.91758396,9.71014153 6.48417814,8.12804107 C6.15009448,6.99420242 5.41872229,4.21673718 4.97628714,2.23911161 C4.54288132,4.04973769 4.40744207,4.66499897 3.55868907,7.63583204 C3.17042967,8.99819632 3.13431258,9.07730135 2.84537533,10.0265616 C2.55643818,10.9934008 2.26750093,11.9514505 1.96953446,12.9182897 C1.91535872,13.0940786 1.7528316,13.2347098 1.56321651,13.2434992 C1.14786934,13.2522887 0.732522062,13.2522887 0.317174888,13.2434992 C0.181735537,13.2434992 -0.0169087769,13.1643942 0.00114976972,13.0061841 C0.0101790932,12.7512902 0.118530574,12.5139751 0.190764861,12.2678706 C1.40971861,8.34777725 2.62867247,4.42768391 3.82956767,0.498801115 Z" id="Path" fill="#05E9A8" fill-rule="nonzero"></path>
                                    <path d="M3.70942176,8.24510454 L6.72294643,8.24510454" id="Line" stroke="#05E9A8" stroke-width="1.90856563" stroke-linecap="square"></path>
                                </g>
                                <g id="b" transform="translate(26.092812, 1.841271)" stroke="#05E9A8" stroke-width="1.8081148">
                                    <path d="M0.0389933612,5.283907 L4.11859034,5.283907 C5.74891315,5.28388217 7.07055093,6.60551994 7.07055093,8.23584275 C7.07055093,8.23584275 7.07055093,8.23584275 7.07055093,8.23584275 C7.07055093,8.30814063 7.06868623,8.38042992 7.06495684,8.45271062 C6.98230835,10.0545554 5.65941089,11.3109563 4.0554354,11.3109563 L0.0389933612,11.3109563 L0.0389933612,11.3109563 L0.0389933612,5.283907 Z" id="Path-19"></path>
                                    <path d="M2.97539771e-13,-1.33226763e-15 L4.03542827,-1.33226763e-15 C5.41980054,-1.67570306e-05 6.542056,1.12223871 6.542056,2.50661098 C6.542056,2.50661098 6.542056,2.50661098 6.542056,2.50661098 C6.542056,2.50661098 6.542056,2.50661098 6.542056,2.50661098 C6.542056,3.94873101 5.37298673,5.11780029 3.93086669,5.11781735 L2.97539771e-13,5.11781735 L2.97539771e-13,5.11781735 L2.97539771e-13,-1.33226763e-15 Z" id="Path-19-Copy"></path>
                                </g>
                                <g id="s" transform="translate(38.046393, 1.677450)" stroke="#05E9A8">
                                    <path d="M7.69069711,2.72272984 C7.92729873,0.907576614 6.86186083,0 4.4943834,0 C2.12690597,0 0.996834216,0.907576614 1.10416814,2.72272984 C1.11591501,3.52342901 1.52601972,4.19013783 2.33448226,4.72285629 C3.1429448,5.25557475 4.48701,5.80027604 6.36667784,6.35696016 C7.23585376,6.67802185 7.70218003,7.42091895 7.76565664,8.58565147 C7.86087156,10.3327502 7.03404063,11.0964315 6.36667784,11.330453 C5.69931505,11.5644745 2.68677134,11.8484945 1.80543554,10.9559083 C1.21787834,10.3608508 0.939291929,9.50987383 0.9696763,8.40297738" id="Path-20" stroke-width="1.90856563"></path>
                                    <path d="M7.69674708,2.76895782 L8.67058158,2.76895782 L8.1685632,2.25131744 L8.14762469,2.93449289 C8.15045148,2.84226138 8.22603612,2.76895782 8.31831094,2.76895782 L7.69674708,2.76895782 Z M7.69674708,2.76895782 L7.07518322,2.76895782 C7.1694949,2.76895782 7.24594962,2.84541254 7.24594962,2.93972422 C7.24593023,2.94287567 7.24593023,2.94287567 7.24583332,2.94602569 L7.27023376,2.28523745 L6.76832172,2.76895782 L7.69674708,2.76895782 Z" id="Rectangle" stroke-width="1.00450822"></path>
                                    <path d="M0.9655181,8.54386849 L1.9393526,8.54386849 L1.43733422,8.02622811 L1.41639571,8.70940355 C1.41922249,8.61717204 1.49480714,8.54386849 1.58708196,8.54386849 L0.9655181,8.54386849 Z M0.9655181,8.54386849 L0.343954241,8.54386849 C0.438265919,8.54386849 0.51472064,8.62032321 0.51472064,8.71463488 C0.514701252,8.71778634 0.514701252,8.71778634 0.514604334,8.72093636 L0.539004779,8.06014811 L0.0370927414,8.54386849 L0.9655181,8.54386849 Z" id="Rectangle-Copy-117" stroke-width="1.00450822" transform="translate(0.969676, 8.543868) scale(1, -1) translate(-0.969676, -8.543868) "></path>
                                </g>
                            </g>
                            <g id="text-grakn" transform="translate(0.117676, 1.322754)" fill="#FFFFFF" fill-rule="nonzero">
                                <path d="M1.32017779,0.633404021 C2.43980943,0.00935328669 3.77614397,-0.0258045011 5.03121492,0.00935328669 C6.10570012,0.0796688624 7.25241962,0.281826142 8.0560262,1.02892913 C8.68807631,1.61782208 8.87769135,2.50555622 8.82351562,3.32297479 C8.77836919,3.63060543 8.94992565,4.05249889 8.64292988,4.26344561 C8.17340693,4.3161823 7.6948547,4.28102451 7.22533176,4.28102451 C7.0537753,4.2986034 6.87318955,4.20191949 6.85513097,4.0173411 C6.80095525,3.53392152 6.91833599,3.0065547 6.66551594,2.5582929 C6.35852017,1.9957683 5.68132362,1.80240047 5.08539064,1.73208489 C4.3269305,1.66176931 3.52332392,1.67055876 2.82806879,1.9957683 C2.3224287,2.22429392 2.04252079,2.77802908 2.06960865,3.31418534 C2.06960865,5.62580989 2.06960865,7.93743444 2.06960865,10.2578484 C2.06960865,10.6973208 2.2501944,11.154372 2.62942447,11.4180554 C3.16215243,11.7784228 3.8212904,11.8135806 4.45334053,11.8487383 C5.09441993,11.8135806 5.79870435,11.7784228 6.33143231,11.3828977 C6.67454523,11.1367931 6.8370724,10.7236891 6.84610169,10.3193746 C6.85513097,9.68653439 6.84610169,9.05369421 6.84610169,8.42085403 C6.04249511,8.41206458 5.23888853,8.42964347 4.43528195,8.41206458 C4.22760834,8.42085403 4.11925689,8.20111785 4.11925689,8.02532891 C4.1102276,7.68254048 4.09216902,7.33975205 4.12828618,7.00575307 C4.13731546,6.81238523 4.33595978,6.70691187 4.51654553,6.71570132 C5.81676293,6.71570132 7.10795103,6.71570132 8.40816841,6.71570132 C8.59778344,6.69812242 8.81448634,6.81238523 8.81448634,7.01454251 C8.82351562,8.21869675 8.81448634,9.41406153 8.82351562,10.6182158 C8.82351562,11.4707921 8.42622699,12.3321579 7.68582541,12.8067881 C6.65648665,13.474786 5.36529856,13.553891 4.15537404,13.553891 C2.99059596,13.5099438 1.70843716,13.3605232 0.814537701,12.5518941 C0.236663307,12.0508956 -0.0251860278,11.2686348 0.00190183451,10.5303213 C0.0109311219,7.94622389 0.00190183451,5.37091593 0.00190183451,2.79560797 C0.0289896967,1.91666328 0.534629791,1.06408692 1.32017779,0.633404021 Z" id="g"></path>
                                <path d="M30.0694289,0.650982915 C30.1236047,0.431246741 30.2500147,0.149984438 30.5299225,0.158773885 C31.0175041,0.149984438 31.5050856,0.149984438 31.9926671,0.158773885 C32.2183993,0.167563332 32.3448093,0.387299506 32.398985,0.580667339 C33.6089096,4.50955013 34.8188341,8.42964347 36.0287586,12.3585263 C36.1009929,12.6222097 36.2274029,12.8771036 36.2183736,13.1583659 C36.2364322,13.3429443 36.0016708,13.3868916 35.8572021,13.3868916 C35.4057377,13.3868916 34.9633027,13.395681 34.5118383,13.3868916 C34.3041647,13.3781021 34.1687254,13.1847343 34.1235789,13.0089453 C33.6359974,11.4356343 33.1574452,9.86232333 32.7240394,8.28022287 C32.3899557,7.14638422 31.6585835,4.36891898 31.2161484,2.39129341 C30.7827426,4.20191949 30.6473033,4.81718077 29.7985503,7.78801384 C29.4102909,9.15037812 29.3741738,9.22948315 29.0852366,10.1787434 C28.7962994,11.1455826 28.5073622,12.1036323 28.2093957,13.0704715 C28.15522,13.2462604 27.9926928,13.3868916 27.8030777,13.395681 C27.3877306,13.4044705 26.9723833,13.4044705 26.5570361,13.395681 C26.4215968,13.395681 26.2229525,13.316576 26.241011,13.1583659 C26.2500403,12.903472 26.3583918,12.6661569 26.4306261,12.4200524 C27.6495799,8.49995905 28.8685337,4.5798657 30.0694289,0.650982915 Z" id="a"></path>
                                <path d="M13.5097158,0.598246233 C13.4916572,0.4048784 13.5909794,0.141194991 13.8347701,0.167563332 C15.3426611,0.158773885 16.8505521,0.158773885 18.3584431,0.167563332 C19.4238991,0.20272112 20.5615892,0.378510059 21.4284009,1.02892913 C22.0514217,1.48598038 22.4125932,2.21550447 22.4487103,2.96260746 C22.4667689,3.70092101 22.4487103,4.43923455 22.4577396,5.1775481 C22.4577396,5.80159883 22.2771539,6.44322846 21.8618067,6.92664804 C21.4374302,7.43643597 20.80538,7.74406661 20.1733299,7.93743444 C20.9679072,9.66016605 21.7986016,11.3653188 22.5570618,13.1056293 C22.5299739,13.1583659 22.4848275,13.2638393 22.4577396,13.316576 C22.1055974,13.4835755 21.7083088,13.3868916 21.3290787,13.4132599 C21.0491708,13.395681 20.6518821,13.5011544 20.5164428,13.1847343 C19.7399241,11.5323182 18.9814639,9.87111277 18.2230039,8.2099073 C17.3291043,8.20111785 16.4352049,8.2099073 15.5413054,8.2099073 C15.5413054,9.83595499 15.5503347,11.4620027 15.5413054,13.0968398 C15.5593641,13.2814182 15.3787783,13.4220493 15.1981925,13.4132599 C14.7557575,13.4132599 14.3042931,13.4220493 13.861858,13.4132599 C13.6361258,13.4308388 13.5097158,13.2023132 13.5277744,13.0089453 C13.5006865,8.86032637 13.5097158,4.7292863 13.5097158,0.598246233 Z M15.5322762,1.86392659 C15.5322762,3.40207981 15.5322762,4.94902248 15.5322762,6.48717569 C16.3900585,6.47838625 17.2388115,6.49596514 18.0965938,6.47838625 C18.8189368,6.43443901 19.6496313,6.34654454 20.1281835,5.7576516 C20.5345014,5.23907423 20.3990621,4.54470792 20.42615,3.93823608 C20.4442085,3.42844815 20.4171206,2.8571341 20.0288613,2.47918788 C19.5412798,1.9957683 18.8008783,1.89908438 18.1327109,1.87271604 C17.2658994,1.85513715 16.3990877,1.86392659 15.5322762,1.86392659 Z" id="r"></path>
                                <path d="M40.4621387,0.264247248 C40.5704902,0.141194991 40.7601052,0.167563332 40.9136031,0.158773885 C41.3379796,0.167563332 41.7713854,0.141194991 42.1957619,0.176352779 C42.3944062,0.20272112 42.4485819,0.431246741 42.4395526,0.598246233 C42.4395526,2.41766175 42.4395526,4.23707727 42.4395526,6.04770335 C42.5659626,6.04770335 42.6833434,6.04770335 42.8097534,6.04770335 C44.1641466,4.22828783 45.5275689,2.41766175 46.881962,0.598246233 C47.0444892,0.4048784 47.225075,0.176352779 47.5049829,0.167563332 C47.9564473,0.158773885 48.4169409,0.167563332 48.8774346,0.167563332 C49.0038446,0.149984438 49.1302546,0.185142226 49.2024889,0.299405036 C49.2295768,0.466404529 49.1121961,0.615825127 49.0309325,0.756456278 C47.5411,2.73408184 46.0693262,4.71170741 44.5794938,6.68054353 C45.9429162,8.3593279 47.2973093,10.0381123 48.6607317,11.7168966 C49.0219031,12.2091057 49.4914261,12.6397886 49.771334,13.1847343 C49.6900705,13.2726287 49.6358947,13.4308388 49.4823968,13.4044705 C48.9496689,13.4132599 48.4079117,13.4044705 47.8751837,13.4132599 C47.6404222,13.4308388 47.4508072,13.2814182 47.3243972,13.1144187 C45.8255354,11.2598454 44.335703,9.40527208 42.8368412,7.55948822 C42.701402,7.55948822 42.574992,7.55948822 42.4485819,7.55948822 C42.4485819,9.37890374 42.4485819,11.1983193 42.4485819,13.0177348 C42.4666405,13.1847343 42.358289,13.3868916 42.168674,13.4044705 C41.6991511,13.4220493 41.2296281,13.4132599 40.7601052,13.4132599 C40.534373,13.4308388 40.3808751,13.2198921 40.3989336,13.0177348 C40.3989336,8.97458918 40.3989336,4.92265414 40.3989336,0.879508536 C40.3989336,0.659772362 40.3628165,0.448825635 40.4621387,0.264247248 Z" id="k"></path>
                                <path d="M53.8706305,0.510351763 C53.8525719,0.334562824 53.9970405,0.141194991 54.1866555,0.167563332 C54.6381199,0.167563332 55.0895843,0.149984438 55.5320194,0.176352779 C55.6855173,0.185142226 55.739693,0.334562824 55.8119273,0.440036188 C57.1753496,2.77802908 58.5387721,5.10723252 59.9021945,7.43643597 C60.2814246,8.11322338 60.7238596,8.76364246 61.0127969,9.49316655 C60.9947382,6.50475459 61.0037675,3.50755318 61.0037675,0.51914121 C61.0127969,0.0181427336 61.6267884,0.185142226 61.960872,0.158773885 C62.276897,0.20272112 62.8367129,0.000563839728 62.9179765,0.440036188 C62.9270057,4.65018128 62.9270057,8.86032637 62.9179765,13.0704715 C62.8999178,13.5099438 62.3491313,13.3868916 62.0511649,13.4044705 C61.7170813,13.3605232 61.2475583,13.5363122 61.0308554,13.2023132 C59.6313159,10.8115836 58.2408056,8.41206458 56.8502953,6.02133501 C56.4891239,5.37091593 56.0647474,4.75565464 55.7938687,4.06128833 C55.8119273,7.04091085 55.7938687,10.0205334 55.802898,12.9913664 C55.8390152,13.1847343 55.6855173,13.4044705 55.4688143,13.3868916 C55.0534671,13.395681 54.6290906,13.395681 54.2137434,13.3868916 C53.9970405,13.395681 53.8525719,13.1847343 53.8796598,12.9913664 C53.8706305,8.83395803 53.8616012,4.66776017 53.8706305,0.510351763 Z" id="n"></path>
                            </g>
                        </g>
                        <g id="text-with" transform="translate(22.872177, 1.260986)" fill="#FFFFFF">
                            <polygon id="w" points="-8.58868532e-13 4.24023438 2.37345886 13.7532959 4.33058167 13.7532959 6.59302521 5.90858459 8.83384705 13.7532959 10.8083496 13.7532959 13.1860504 4.24023438 12.0120239 4.24023438 9.93406677 12.7390137 9.65318298 12.7390137 7.18617249 4.43374634 5.98127747 4.43374634 3.5118103 12.7390137 3.25047302 12.7390137 1.16322327 4.24023438"></polygon>
                            <g id="i" transform="translate(15.899490, 0.443924)">
                                <polygon points="8.08442202e-12 13.3093719 1.1191864 13.3093719 1.1191864 3.79631042 5.89356013e-12 3.79631042"></polygon>
                                <polygon id="." points="8.08442202e-12 1.4150238 1.1191864 1.4150238 1.1191864 2.70894418e-14 8.08442202e-12 2.70894418e-14"></polygon>
                            </g>
                            <path d="M19.6163483,4.24023438 L19.6163483,5.25384521 L20.9740753,5.25384521 L20.9740753,10.9526367 C21.0433909,12.041748 21.2405345,12.7946879 21.565506,13.2114563 C21.8904775,13.6282247 22.4031321,13.8639933 23.1034698,13.9187622 C23.560847,13.9544271 23.9525706,13.9544271 24.2786407,13.9187622 C24.6047109,13.8830973 25.0135651,13.8279419 25.5052032,13.7532959 L25.4163971,12.7710266 L23.1034698,12.8106689 C22.6598053,12.7842407 22.3844706,12.477061 22.2774658,11.8891296 C22.2612383,11.7999684 22.2096007,11.519181 22.1931305,11.2002869 C22.1648714,10.6531381 22.1736235,9.97014902 22.1617584,9.77944946 C22.1324124,9.30779173 22.1588503,8.63978542 22.1617584,7.77536011 C22.1633475,7.30299412 22.1633475,6.46248915 22.1617584,5.25384521 L25.3278351,5.25384521 L25.3278351,4.24023438 L22.1617584,4.24023438 L22.1617584,1.28051758 L20.9740753,1.28051758 L20.9740753,4.24023438 L19.6163483,4.24023438 Z" id="t"></path>
                            <path d="M27.7644806,-1.16351373e-13 L28.911026,-1.16351373e-13 L28.911026,4.75411987 C29.6270396,4.4726359 30.2010956,4.28365072 30.633194,4.18716431 C31.0652924,4.0906779 31.5623728,4.04418945 32.1244354,4.04769897 C32.8193105,4.06267293 33.3603719,4.17229207 33.7476196,4.3765564 C34.1348674,4.58082072 34.3996226,4.81954956 34.5418854,5.09274292 C34.8739471,5.55514526 35.0737966,6.58829753 35.1414337,8.19219971 C35.2090708,9.79610189 35.2186381,11.6553345 35.1701355,13.7698975 L33.9943695,13.7698975 L33.9943695,8.71951294 C33.8810374,7.15368652 33.7718252,6.25400798 33.6667328,6.02047729 C33.5090942,5.67018127 33.3331451,5.21459961 32.1244354,5.09274292 C31.3186289,5.01150513 30.2474925,5.21776326 28.911026,5.71151733 L28.911026,13.7698975 L27.7644806,13.7698975 L27.7644806,-1.16351373e-13 Z" id="h"></path>
                        </g>
                        <g id="text-by" transform="translate(84.195557, 1.284424)" fill="#FFFFFF">
                            <g id="b">
                                <path d="M1.24365234,4.7300415 C2.1862793,4.25986735 3.19537354,4.02478027 4.27093506,4.02478027 C5.34649658,4.02478027 6.16775513,4.34210205 6.73471069,4.97674561 C6.95850627,5.27433268 7.11628215,5.56467692 7.20803833,5.84777832 C7.49493945,6.73297323 7.5559082,7.56890836 7.5559082,8.33911133 C7.5559082,9.00909034 7.62373145,10.027837 7.38565063,11.0496826 C7.33642013,11.2609805 7.29797985,11.5538004 7.16253662,11.8796387 C7.08628382,12.0630815 6.9065658,12.3710038 6.62338257,12.8034058 C6.13064575,13.3341675 5.43568929,13.6653646 4.53851318,13.7969971 C3.64133708,13.9286296 2.54305013,13.9436442 1.24365234,13.842041 L1.24365234,12.7633667 C2.64299506,12.8739353 3.63005561,12.8872816 4.20483398,12.8034058 C4.77961236,12.7195299 5.25324517,12.4930284 5.62573242,12.1239014 C6.13916016,11.6073608 6.39587402,10.5720825 6.39587402,9.01806641 C6.39587402,7.46405029 6.22926839,6.43107096 5.89605713,5.91912842 C5.56103516,5.41253662 5.0391744,5.12882487 4.33047485,5.06799316 C3.62177531,5.00716146 2.59283447,5.21708171 1.24365234,5.69775391 L1.24365234,4.7300415 Z" id="Path-32"></path>
                                <polygon id="Path-33" points="1.24365234 0 1.24365234 13.842041 1.72591433e-17 13.722229 0 0"></polygon>
                            </g>
                            <polygon id="y" points="10.7386169 4.20935059 13.2715607 12.7282715 13.947998 12.7282715 16.4928131 4.20935059 17.6564026 4.20935059 13.5490112 18.0125732 12.4026184 18.0125732 13.6809692 13.7176208 12.3675995 13.7176208 9.57649231 4.20935059"></polygon>
                        </g>
                    </g>
                </g>
            </g>
        </g>
    </g>
</svg>