<?xml version="1.0" encoding="UTF-8"?>
<svg width="24px" height="19px" viewBox="0 0 24 19" version="1.1" xmlns="http://www.w3.org/2000/svg" xmlns:xlink="http://www.w3.org/1999/xlink">
    <!-- Generator: Sketch 55.1 (78136) - https://sketchapp.com -->
    <title>Path Copy</title>
    <desc>Created with Sketch.</desc>
    <g id="Page-1" stroke="none" stroke-width="1" fill="none" fill-rule="evenodd">
        <g id="Grakn-Presentation-Wide" transform="translate(-1721.000000, -6825.000000)" fill="#FFFFFF" fill-rule="nonzero">
            <g id="9th-Section" transform="translate(-197.000000, 6302.000000)">
                <g id="Footer" transform="translate(1189.000000, 476.000000)">
                    <path d="M753,49.2608474 C752.116667,49.6416486 751.168863,49.8999036 750.17302,50.0152008 C751.189843,49.4228052 751.968196,48.4831827 752.337098,47.36699 C751.383294,47.9155863 750.330471,48.3139378 749.208667,48.5298815 C748.310353,47.5975462 747.032588,47.0168253 745.615333,47.0168253 C742.896353,47.0168253 740.691765,49.1616506 740.691765,51.8054739 C740.691765,52.1804378 740.735255,52.5466647 740.819255,52.8968675 C736.728039,52.6969478 733.100235,50.7899659 730.672196,47.8922369 C730.247765,48.5984418 730.006314,49.4213173 730.006314,50.2997048 C730.006314,51.9615944 730.876157,53.4279518 732.195922,54.2858514 C731.389059,54.2596024 730.630196,54.0436586 729.965843,53.6847189 L729.965843,53.7445422 C729.965843,56.0644498 731.663529,58.0006185 733.914588,58.4412811 C733.502157,58.549253 733.067255,58.6090763 732.617333,58.6090763 C732.299412,58.6090763 731.991961,58.5784398 731.69051,58.5200663 C732.317373,60.4241486 734.135059,61.8087831 736.288667,61.846745 C734.604471,63.1307329 732.480863,63.8938233 730.174314,63.8938233 C729.776902,63.8938233 729.385451,63.8704739 729.000039,63.8281627 C731.179137,65.1894859 733.766157,65.9832129 736.546627,65.9832129 C745.603412,65.9832129 750.554,58.6849618 750.554,52.3555582 L750.53749,51.7354639 C751.504784,51.064245 752.341608,50.2209197 753,49.2608474 Z" id="Path-Copy"></path>
                </g>
            </g>
        </g>
    </g>
</svg>