<?xml version="1.0" encoding="UTF-8"?>
<svg width="24px" height="24px" viewBox="0 0 24 24" version="1.1" xmlns="http://www.w3.org/2000/svg" xmlns:xlink="http://www.w3.org/1999/xlink">
    <!-- Generator: Sketch 55.1 (78136) - https://sketchapp.com -->
    <title>Shape Copy</title>
    <desc>Created with Sketch.</desc>
    <g id="Page-1" stroke="none" stroke-width="1" fill="none" fill-rule="evenodd">
        <g id="Grakn-Presentation-Wide" transform="translate(-1769.000000, -6823.000000)" fill="#FFFFFF" fill-rule="nonzero">
            <g id="9th-Section" transform="translate(-197.000000, 6302.000000)">
                <g id="Footer" transform="translate(1189.000000, 476.000000)">
                    <path d="M800.4015,57.27675 C799.9365,56.23575 798.71475,55.7685 797.67375,56.2335 L796.68,56.679 L794.133,50.98575 L795.12675,50.54175 C796.16775,50.07525 796.63425,48.85425 796.1685,47.814 C795.7035,46.77225 794.4825,46.305 793.44075,46.7715 L792.44775,47.21625 L792.003,46.22175 C791.53725,45.18075 790.31625,44.715 789.27525,45.18075 C788.23425,45.64575 787.7685,46.866 788.2335,47.9085 L788.67825,48.90225 L782.985,51.4485 L782.541,50.45475 C782.07525,49.41225 780.85425,48.948 779.81325,49.41225 C778.77225,49.878 778.3065,51.099 778.7715,52.14 L779.2155,53.133 L778.2225,53.5785 C777.1815,54.04425 776.715,55.26375 777.18075,56.3055 C777.64575,57.3465 778.8675,57.813 779.9085,57.348 L780.90225,56.9025 L783.44775,62.5965 L782.454,63.0405 C781.413,63.50625 780.94725,64.728 781.41225,65.76825 C781.878,66.81 783.099,67.2765 784.14,66.8115 L785.133,66.36675 L785.57775,67.3605 C786.0435,68.40225 787.2645,68.868 788.3055,68.40225 C789.34575,67.93725 789.81225,66.71625 789.3465,65.67525 L788.90325,64.68075 L794.5965,62.13525 L795.0405,63.126 C795.50625,64.16925 796.7265,64.63575 797.76825,64.17 C798.80925,63.70575 799.27575,62.484 798.81,61.44225 L798.366,60.44925 L799.35825,60.00375 C800.40075,59.538 800.86725,58.31775 800.4015,57.27675 Z M787.21725,60.91125 L784.671,55.2165 L790.36425,52.671 L792.9105,58.36425 L787.21725,60.91125 Z" id="Shape-Copy"></path>
                </g>
            </g>
        </g>
    </g>
</svg>