<svg xmlns="http://www.w3.org/2000/svg" width="216" height="22" viewBox="0 0 216 22">
    <g fill="none" fill-rule="evenodd">
        <g fill="#FFF" fill-rule="nonzero">
            <path d="M2.47 1.723C4.073.808 5.99.756 7.79.808c1.54.103 3.183.4 4.335 1.495.907.864 1.178 2.166 1.1 3.365-.064.451.182 1.07-.258 1.38-.673.077-1.36.025-2.032.025-.246.026-.505-.116-.531-.386-.078-.71.09-1.483-.272-2.14-.44-.826-1.41-1.11-2.265-1.212-1.087-.103-2.24-.09-3.236.386-.725.336-1.126 1.148-1.087 1.934V15.84c0 .644.259 1.315.802 1.701.764.529 1.709.58 2.615.632.919-.051 1.928-.103 2.692-.683.492-.361.725-.967.738-1.56.013-.928 0-1.856 0-2.785-1.152-.013-2.304.013-3.456-.013-.298.013-.453-.309-.453-.567-.013-.503-.039-1.005.013-1.495.013-.284.298-.439.556-.426h5.58c.271-.025.582.142.582.439.013 1.766 0 3.52.013 5.285 0 1.25-.57 2.514-1.631 3.21-1.476.98-3.327 1.096-5.061 1.096-1.67-.064-3.508-.283-4.79-1.47C.916 18.47.541 17.323.58 16.24c.012-3.79 0-7.567 0-11.344.038-1.29.763-2.54 1.89-3.172zM19.944 1.672c-.026-.284.116-.67.465-.632 2.162-.013 4.324-.013 6.485 0 1.528.052 3.159.31 4.401 1.263.893.67 1.411 1.74 1.463 2.837.026 1.082 0 2.165.013 3.248 0 .916-.259 1.857-.854 2.566-.609.747-1.515 1.199-2.421 1.482 1.14 2.527 2.33 5.028 3.417 7.58-.039.078-.103.233-.142.31-.505.245-1.075.103-1.618.142-.401-.026-.97.129-1.165-.335-1.113-2.424-2.2-4.86-3.288-7.297-1.281-.013-2.563 0-3.844 0 0 2.385.013 4.77 0 7.168.026.27-.233.477-.492.464-.634 0-1.281.013-1.916 0-.323.026-.504-.31-.479-.593-.038-6.085-.025-12.144-.025-18.203zm2.899 1.856v6.781c1.23-.013 2.446.013 3.676-.013 1.035-.064 2.226-.193 2.912-1.057.583-.76.389-1.779.427-2.668.026-.748-.012-1.586-.57-2.14-.698-.71-1.76-.851-2.717-.89-1.243-.026-2.485-.013-3.728-.013zM43.682 1.749c.078-.322.26-.735.66-.722a56.85 56.85 0 0 1 2.098 0c.323.013.504.335.582.619 1.734 5.763 3.469 11.512 5.203 17.275.104.387.285.76.272 1.173.026.27-.31.335-.518.335-.647 0-1.281.013-1.928 0-.298-.013-.492-.296-.557-.554-.699-2.308-1.385-4.615-2.006-6.936-.479-1.663-1.527-5.737-2.162-8.637-.621 2.655-.815 3.558-2.032 7.915-.556 1.998-.608 2.114-1.022 3.507a525.479 525.479 0 0 1-1.256 4.241c-.078.258-.31.464-.582.477-.596.013-1.191.013-1.787 0-.194 0-.479-.116-.453-.348.013-.374.169-.722.272-1.083 1.748-5.75 3.495-11.5 5.216-17.262zM58.58 1.182c.156-.18.428-.142.648-.155.608.013 1.23-.026 1.838.026.285.039.362.374.35.619v7.993h.53c1.942-2.669 3.896-5.325 5.838-7.993.233-.284.492-.62.893-.632.647-.013 1.307 0 1.967 0 .182-.026.363.026.466.193.04.245-.129.464-.246.67-2.135 2.901-4.245 5.802-6.38 8.69 1.954 2.462 3.895 4.924 5.85 7.387.518.722 1.19 1.353 1.592 2.153-.117.129-.194.36-.414.322-.764.013-1.54 0-2.304.013-.337.026-.609-.193-.79-.438-2.149-2.72-4.284-5.44-6.433-8.148h-.557v8.006c.026.245-.129.541-.4.567-.674.026-1.347.013-2.02.013-.324.026-.544-.284-.518-.58V2.084c0-.322-.052-.631.09-.902zM77.802 1.543c-.026-.258.182-.542.453-.503.648 0 1.295-.026 1.929.013.22.013.298.232.401.387 1.955 3.429 3.91 6.845 5.864 10.261.543.993 1.178 1.947 1.592 3.017-.026-4.383-.013-8.78-.013-13.162.013-.735.893-.49 1.372-.529.453.065 1.256-.232 1.372.413.013 6.175.013 12.35 0 18.525-.026.645-.815.464-1.243.49-.478-.064-1.152.193-1.462-.296-2.006-3.507-4-7.027-5.993-10.533-.518-.954-1.126-1.856-1.515-2.875.026 4.37 0 8.74.013 13.098.052.284-.168.606-.479.58-.595.013-1.203.013-1.799 0-.31.013-.518-.296-.479-.58-.013-6.098-.026-12.208-.013-18.306z"/>
        </g>
        <g fill="#05E9A8" font-family="Geogrotesque-Medium, Geogrotesque" font-size="28.512" font-weight="400" letter-spacing="3.266">
            <text transform="translate(100.156 -7.46)">
                <tspan x="0" y="27">C</tspan>
            </text>
            <text transform="translate(100.156 -7.46)">
                <tspan x="19.31" y="27">O</tspan>
            </text>
            <text transform="translate(100.156 -7.46)">
                <tspan x="39.01" y="27">S</tspan>
            </text>
            <text transform="translate(100.156 -7.46)">
                <tspan x="81.518" y="27">O</tspan>
            </text>
            <text transform="translate(100.156 -7.46)">
                <tspan x="101.218" y="27">S</tspan>
            </text>
            <text transform="translate(100.156 -7.46)">
                <tspan x="58.061" y="27">M</tspan>
            </text>
        </g>
    </g>
</svg>
