<?xml version="1.0" encoding="UTF-8"?>
<svg width="120px" height="15px" viewBox="0 0 120 15" version="1.1" xmlns="http://www.w3.org/2000/svg" xmlns:xlink="http://www.w3.org/1999/xlink">
    <!-- Generator: Sketch 57.1 (83088) - https://sketch.com -->
    <title>Logo</title>
    <desc>Created with Sketch.</desc>
    <g id="Page-1" stroke="none" stroke-width="1" fill="none" fill-rule="evenodd">
        <g id="Grakn-Presentation1--(Titilium)" transform="translate(-482.000000, -6429.000000)">
            <g id="9th-Section" transform="translate(-830.000000, 5862.000000)">
                <g id="Footer" transform="translate(1192.000000, 519.000000)">
                    <g id="Logo" transform="translate(120.000000, 48.000000)">
                        <path d="M1.38426966,1.69125 C2.4988764,1.07 3.82921348,1.035 5.07865169,1.07 C6.14831461,1.14 7.28988764,1.34125 8.08988764,2.085 C8.71910112,2.67125 8.90786517,3.555 8.85393258,4.36875 C8.80898876,4.675 8.97977528,5.095 8.6741573,5.305 C8.20674157,5.3575 7.73033708,5.3225 7.26292135,5.3225 C7.09213483,5.34 6.91235955,5.24375 6.89438202,5.06 C6.84044944,4.57875 6.95730337,4.05375 6.70561798,3.6075 C6.4,3.0475 5.7258427,2.855 5.13258427,2.785 C4.37752809,2.715 3.57752809,2.72375 2.88539326,3.0475 C2.38202247,3.275 2.10337079,3.82625 2.13033708,4.36 C2.13033708,6.66125 2.13033708,8.9625 2.13033708,11.2725 C2.13033708,11.71 2.31011236,12.165 2.68764045,12.4275 C3.21797753,12.78625 3.8741573,12.82125 4.50337079,12.85625 C5.14157303,12.82125 5.84269663,12.78625 6.37303371,12.3925 C6.71460674,12.1475 6.87640449,11.73625 6.88539326,11.33375 C6.89438202,10.70375 6.88539326,10.07375 6.88539326,9.44375 C6.08539326,9.435 5.28539326,9.4525 4.48539326,9.435 C4.27865169,9.44375 4.17078652,9.225 4.17078652,9.05 C4.16179775,8.70875 4.14382022,8.3675 4.17977528,8.035 C4.18876404,7.8425 4.38651685,7.7375 4.56629213,7.74625 C5.86067416,7.74625 7.14606742,7.74625 8.44044944,7.74625 C8.62921348,7.72875 8.84494382,7.8425 8.84494382,8.04375 C8.85393258,9.2425 8.84494382,10.4325 8.85393258,11.63125 C8.85393258,12.48 8.45842697,13.3375 7.72134831,13.81 C6.69662921,14.475 5.41123596,14.55375 4.20674157,14.55375 C3.04719101,14.51 1.77078652,14.36125 0.880898876,13.55625 C0.305617978,13.0575 0.0449438202,12.27875 0.0719101124,11.54375 C0.0808988764,8.97125 0.0719101124,6.4075 0.0719101124,3.84375 C0.0988764045,2.96875 0.602247191,2.12 1.38426966,1.69125 Z" id="Path" fill="#FFFFFF" fill-rule="nonzero"></path>
                        <path d="M30.0044944,1.70875 C30.058427,1.49 30.1842697,1.21 30.4629213,1.21875 C30.9483146,1.21 31.4337079,1.21 31.9191011,1.21875 C32.1438202,1.2275 32.2696629,1.44625 32.3235955,1.63875 C33.5280899,5.55 34.7325843,9.4525 35.9370787,13.36375 C36.0089888,13.62625 36.1348315,13.88 36.1258427,14.16 C36.1438202,14.34375 35.9101124,14.3875 35.7662921,14.3875 C35.3168539,14.3875 34.8764045,14.39625 34.4269663,14.3875 C34.2202247,14.37875 34.0853933,14.18625 34.0404494,14.01125 C33.5550562,12.445 33.0786517,10.87875 32.647191,9.30375 C32.3146067,8.175 31.5865169,5.41 31.1460674,3.44125 C30.7146067,5.24375 30.5797753,5.85625 29.7348315,8.81375 C29.3483146,10.17 29.3123596,10.24875 29.0247191,11.19375 C28.7370787,12.15625 28.4494382,13.11 28.152809,14.0725 C28.0988764,14.2475 27.9370787,14.3875 27.7483146,14.39625 C27.3348315,14.405 26.9213483,14.405 26.5078652,14.39625 C26.3730337,14.39625 26.1752809,14.3175 26.1932584,14.16 C26.2022472,13.90625 26.3101124,13.67 26.3820225,13.425 C27.5955056,9.5225 28.8089888,5.62 30.0044944,1.70875 Z" id="Path" fill="#FFFFFF" fill-rule="nonzero"></path>
                        <g id="Group-30" transform="translate(13.000000, 0.000000)">
                            <g id="LABS" transform="translate(60.000000, 0.000000)">
                                <path d="M1.08007812,1.36700439 L1.08007812,13.5670044 L2.18007813,13.5670044 L2.18007813,1.36700439 L1.08007812,1.36700439 Z" id="Rectangle" stroke="#05E9A8" fill="#05E9A8"></path>
                                <path d="M14.6489036,1.45447754 C14.7028362,1.23572754 14.8286789,0.955727539 15.1073305,0.964477539 C15.5927238,0.955727539 16.0781171,0.955727539 16.5635103,0.964477539 C16.7882294,0.973227539 16.9140721,1.19197754 16.9680047,1.38447754 C18.1724991,5.29572754 19.3769935,9.19822754 20.5814879,13.1094775 C20.653398,13.3719775 20.7792407,13.6257275 20.7702519,13.9057275 C20.7882294,14.0894775 20.5545216,14.1332275 20.4107013,14.1332275 C19.9612631,14.1332275 19.5208137,14.1419775 19.0713755,14.1332275 C18.8646339,14.1244775 18.7298025,13.9319775 18.6848586,13.7569775 C18.1994654,12.1907275 17.7230609,10.6244775 17.2916002,9.04947754 C16.9590159,7.92072754 16.2309261,5.15572754 15.7904766,3.18697754 C15.3590159,4.98947754 15.2241845,5.60197754 14.3792407,8.55947754 C13.9927238,9.91572754 13.9567688,9.99447754 13.6691283,10.9394775 C13.3814879,11.9019775 13.0938474,12.8557275 12.7972182,13.8182275 C12.7432856,13.9932275 12.5814879,14.1332275 12.3927238,14.1419775 C11.9792407,14.1507275 11.5657575,14.1507275 11.1522744,14.1419775 C11.0174429,14.1419775 10.8196901,14.0632275 10.8376676,13.9057275 C10.8466564,13.6519775 10.9545216,13.4157275 11.0264317,13.1707275 C12.2399148,9.26822754 13.453398,5.36572754 14.6489036,1.45447754 Z" id="Path" fill="#05E9A8" fill-rule="nonzero"></path>
                                <path d="M14.5292969,9.16601562 L17.5292969,9.16601562" id="Line" stroke="#05E9A8" stroke-width="1.9" stroke-linecap="square"></path>
                                <rect id="Rectangle-Copy-113" stroke="#05E9A8" transform="translate(4.757227, 13.119653) rotate(-270.000000) translate(-4.757227, -13.119653) " x="4.30722656" y="10.6196533" width="1" height="5" rx="0.33"></rect>
                            </g>
                            <path d="M86.0145264,7.09320068 L90.0758142,7.09320068 C91.6988201,7.09317596 93.0145264,8.40888224 93.0145264,10.0318882 C93.0145264,10.0318882 93.0145264,10.0318882 93.0145264,10.0318882 C93.0145264,10.1038616 93.01267,10.1758264 93.0089574,10.2477827 C92.9266798,11.8424384 91.6097195,13.0932007 90.0129426,13.0932007 L86.0145264,13.0932007 L86.0145264,13.0932007 L86.0145264,7.09320068 Z" id="Path-19" stroke="#05E9A8" stroke-width="1.8"></path>
                            <path d="M85.975708,1.83300781 L89.9930253,1.83300781 C91.3711845,1.83299113 92.4884033,2.95020992 92.4884033,4.32836914 C92.4884033,4.32836914 92.4884033,4.32836914 92.4884033,4.32836914 C92.4884033,4.32836914 92.4884033,4.32836914 92.4884033,4.32836914 C92.4884033,5.76401695 91.3245808,6.92783946 89.888933,6.92785645 L85.975708,6.92785645 L85.975708,6.92785645 L85.975708,1.83300781 Z" id="Path-19-Copy" stroke="#05E9A8" stroke-width="1.8"></path>
                            <path d="M0.5191011,1.65625 C0.5011236,1.46375 0.6,1.20125 0.8426966,1.2275 C2.3438202,1.21875 3.8449438,1.21875 5.3460674,1.2275 C6.4067416,1.2625 7.5393258,1.4375 8.4022472,2.085 C9.0224719,2.54 9.3820225,3.26625 9.4179775,4.01 C9.4359551,4.745 9.4179775,5.48 9.4269663,6.215 C9.4269663,6.83625 9.247191,7.475 8.8337079,7.95625 C8.411236,8.46375 7.7820225,8.77 7.152809,8.9625 C7.9438202,10.6775 8.7707865,12.375 9.5258427,14.1075 C9.4988764,14.16 9.4539326,14.265 9.4269663,14.3175 C9.0764045,14.48375 8.6808989,14.3875 8.3033708,14.41375 C8.0247191,14.39625 7.6292135,14.50125 7.494382,14.18625 C6.7213483,12.54125 5.9662921,10.8875 5.211236,9.23375 C4.3213483,9.225 3.4314607,9.23375 2.541573,9.23375 C2.541573,10.8525 2.5505618,12.47125 2.541573,14.09875 C2.5595506,14.2825 2.3797753,14.4225 2.2,14.41375 C1.7595506,14.41375 1.3101124,14.4225 0.8696629,14.41375 C0.6449438,14.43125 0.5191011,14.20375 0.5370787,14.01125 C0.5101124,9.88125 0.5191011,5.76875 0.5191011,1.65625 Z M2.5325843,2.91625 C2.5325843,4.4475 2.5325843,5.9875 2.5325843,7.51875 C3.3865169,7.51 4.2314607,7.5275 5.0853933,7.51 C5.8044944,7.46625 6.6314607,7.37875 7.1078652,6.7925 C7.5123596,6.27625 7.3775281,5.585 7.4044944,4.98125 C7.4224719,4.47375 7.3955056,3.905 7.0089888,3.52875 C6.5235955,3.0475 5.7865169,2.95125 5.1213483,2.925 C4.258427,2.9075 3.3955056,2.91625 2.5325843,2.91625 Z" id="Shape" fill="#FFFFFF" fill-rule="nonzero"></path>
                            <g id="Group-16" transform="translate(97.875641, 1.669922)" stroke="#05E9A8">
                                <path d="M7.65618134,2.71051025 C7.89172109,0.903503418 6.83106486,0 4.47421265,0 C2.11736043,0 0.992360433,0.903503418 1.09921265,2.71051025 C1.1109068,3.5076159 1.51917096,4.17133253 2.32400513,4.70166016 C3.1288393,5.23198778 4.46687234,5.77424446 6.33810425,6.32843018 C7.20337931,6.64805094 7.66761271,7.38761393 7.73080444,8.54711914 C7.82559204,10.286377 7.00247192,11.0466309 6.33810425,11.2796021 C5.67373657,11.5125732 2.67471313,11.7953186 1.79733276,10.9067383 C1.21241252,10.3143514 0.935076396,9.4671936 0.965324402,8.36526489" id="Path-20" stroke-width="1.9"></path>
                            </g>
                        </g>
                        <path d="M40.3505618,1.32375 C40.458427,1.20125 40.647191,1.2275 40.8,1.21875 C41.2224719,1.2275 41.6539326,1.20125 42.0764045,1.23625 C42.2741573,1.2625 42.3280899,1.49 42.3191011,1.65625 C42.3191011,3.4675 42.3191011,5.27875 42.3191011,7.08125 C42.4449438,7.08125 42.5617978,7.08125 42.6876404,7.08125 C44.0359551,5.27 45.3932584,3.4675 46.741573,1.65625 C46.9033708,1.46375 47.0831461,1.23625 47.3617978,1.2275 C47.811236,1.21875 48.2696629,1.2275 48.7280899,1.2275 C48.8539326,1.21 48.9797753,1.245 49.0516854,1.35875 C49.0786517,1.525 48.9617978,1.67375 48.8808989,1.81375 C47.3977528,3.7825 45.9325843,5.75125 44.4494382,7.71125 C45.8067416,9.3825 47.1550562,11.05375 48.5123596,12.725 C48.8719101,13.215 49.3393258,13.64375 49.6179775,14.18625 C49.5370787,14.27375 49.4831461,14.43125 49.3303371,14.405 C48.8,14.41375 48.2606742,14.405 47.7303371,14.41375 C47.4966292,14.43125 47.3078652,14.2825 47.1820225,14.11625 C45.6898876,12.27 44.2067416,10.42375 42.7146067,8.58625 C42.5797753,8.58625 42.4539326,8.58625 42.3280899,8.58625 C42.3280899,10.3975 42.3280899,12.20875 42.3280899,14.02 C42.3460674,14.18625 42.2382022,14.3875 42.0494382,14.405 C41.5820225,14.4225 41.1146067,14.41375 40.647191,14.41375 C40.4224719,14.43125 40.2696629,14.22125 40.2876404,14.02 C40.2876404,9.995 40.2876404,5.96125 40.2876404,1.93625 C40.2876404,1.7175 40.2516854,1.5075 40.3505618,1.32375 Z" id="Path" fill="#FFFFFF" fill-rule="nonzero"></path>
                        <path d="M53.6988764,1.56875 C53.6808989,1.39375 53.8247191,1.20125 54.0134831,1.2275 C54.4629213,1.2275 54.9123596,1.21 55.352809,1.23625 C55.505618,1.245 55.5595506,1.39375 55.6314607,1.49875 C56.988764,3.82625 58.3460674,6.145 59.7033708,8.46375 C60.0808989,9.1375 60.5213483,9.785 60.8089888,10.51125 C60.7910112,7.53625 60.8,4.5525 60.8,1.5775 C60.8089888,1.07875 61.4202247,1.245 61.752809,1.21875 C62.0674157,1.2625 62.6247191,1.06125 62.705618,1.49875 C62.7146067,5.69 62.7146067,9.88125 62.705618,14.0725 C62.6876404,14.51 62.1393258,14.3875 61.8426966,14.405 C61.5101124,14.36125 61.0426966,14.53625 60.8269663,14.20375 C59.4337079,11.82375 58.0494382,9.435 56.6651685,7.055 C56.305618,6.4075 55.8831461,5.795 55.6134831,5.10375 C55.6314607,8.07 55.6134831,11.03625 55.6224719,13.99375 C55.658427,14.18625 55.505618,14.405 55.2898876,14.3875 C54.8764045,14.39625 54.4539326,14.39625 54.0404494,14.3875 C53.8247191,14.39625 53.6808989,14.18625 53.7078652,13.99375 C53.6988764,9.855 53.6898876,5.7075 53.6988764,1.56875 Z" id="Path" fill="#FFFFFF" fill-rule="nonzero"></path>
                    </g>
                </g>
            </g>
        </g>
    </g>
</svg>