<svg xmlns="http://www.w3.org/2000/svg" width="67" height="15" viewBox="0 0 67 15">
    <g fill="#FFF" fill-rule="nonzero">
        <path d="M1.461.827c1.177-.671 2.58-.71 3.9-.671C6.49.23 7.695.449 8.539 1.252c.664.633.864 1.587.807 2.466-.048.331.133.785-.19 1.011-.493.057-.996.02-1.49.02-.18.018-.37-.086-.389-.284-.057-.52.067-1.087-.199-1.569-.322-.605-1.034-.813-1.66-.888-.797-.076-1.642-.066-2.372.283-.532.246-.826.841-.797 1.418v7.465c0 .473.19.964.588 1.248.56.387 1.252.425 1.917.463.673-.038 1.413-.076 1.973-.501.36-.265.531-.709.54-1.144.01-.68 0-1.36 0-2.04-.844-.01-1.688.009-2.532-.01-.219.01-.333-.227-.333-.416-.009-.369-.028-.737.01-1.096.01-.208.218-.321.408-.312h4.09c.199-.019.426.104.426.321.01 1.295 0 2.58.01 3.875 0 .916-.418 1.843-1.196 2.353-1.081.718-2.438.803-3.71.803-1.224-.047-2.57-.208-3.51-1.077-.607-.539-.883-1.38-.854-2.174.01-2.778 0-5.547 0-8.316C.104 2.206.636 1.29 1.46.827zM14.27.789c-.019-.208.086-.492.342-.463 1.584-.01 3.169-.01 4.753 0 1.12.037 2.315.226 3.226.926.655.491 1.034 1.276 1.072 2.079.02.794 0 1.587.01 2.381 0 .671-.19 1.361-.626 1.88-.446.549-1.11.88-1.775 1.088.835 1.852 1.708 3.685 2.505 5.556-.028.057-.076.17-.104.227-.37.18-.788.076-1.186.104-.294-.02-.712.094-.854-.246a541.574 541.574 0 0 1-2.41-5.349c-.94-.009-1.879 0-2.818 0 0 1.749.01 3.497 0 5.255.019.198-.17.35-.36.34-.465 0-.94.01-1.405 0-.237.019-.37-.227-.35-.435-.03-4.46-.02-8.902-.02-13.343zm2.126 1.36V7.12c.9-.01 1.793.01 2.694-.01.76-.046 1.632-.141 2.135-.774.427-.558.285-1.304.313-1.956.02-.548-.01-1.163-.417-1.569-.513-.52-1.29-.624-1.993-.652-.91-.019-1.822-.01-2.732-.01zM31.671.845c.057-.236.19-.538.484-.529.513-.01 1.025-.01 1.537 0 .238.01.37.246.427.454l3.815 12.663c.075.283.208.557.199.86.019.198-.228.246-.38.246-.474 0-.939.009-1.413 0-.219-.01-.361-.218-.408-.407a162.924 162.924 0 0 1-1.471-5.084c-.351-1.219-1.12-4.205-1.585-6.331-.455 1.946-.597 2.608-1.49 5.802-.407 1.465-.445 1.55-.749 2.57-.303 1.04-.607 2.07-.92 3.11a.486.486 0 0 1-.427.349c-.437.01-.873.01-1.31 0-.142 0-.35-.085-.332-.255.01-.274.124-.53.2-.794 1.28-4.215 2.561-8.43 3.823-12.654zM42.592.43c.114-.133.313-.104.475-.114.446.01.901-.019 1.347.02.209.028.266.273.256.453v5.859h.39c1.422-1.956 2.855-3.903 4.278-5.86.171-.207.36-.453.655-.462.474-.01.958 0 1.442 0 .133-.02.266.019.342.141.028.18-.095.34-.18.492-1.566 2.126-3.113 4.252-4.678 6.37 1.433 1.804 2.856 3.61 4.288 5.414.38.53.873.992 1.168 1.578-.086.095-.143.265-.304.236-.56.01-1.13 0-1.689.01-.247.019-.446-.142-.579-.321-1.575-1.994-3.14-3.988-4.715-5.973h-.408v5.869c.019.18-.095.397-.294.415-.494.02-.987.01-1.48.01-.238.019-.4-.208-.38-.425V1.092c0-.237-.038-.464.066-.662zM56.682.694c-.019-.189.133-.397.332-.368.475 0 .949-.02 1.414.01.161.009.218.17.294.283 1.433 2.513 2.866 5.018 4.298 7.522.399.728.864 1.427 1.167 2.211-.019-3.213-.01-6.435-.01-9.648.01-.539.655-.36 1.007-.388.332.048.92-.17 1.005.303.01 4.526.01 9.053 0 13.58-.019.472-.597.34-.91.358-.352-.047-.845.142-1.073-.217-1.47-2.57-2.932-5.15-4.393-7.72-.38-.7-.825-1.361-1.11-2.108.02 3.204 0 6.407.01 9.601.038.208-.124.444-.351.426-.437.009-.883.009-1.32 0-.227.009-.379-.218-.35-.426-.01-4.47-.02-8.949-.01-13.419z"/>
    </g>
</svg>
