<?xml version="1.0" encoding="UTF-8"?>
<svg width="591px" height="500px" viewBox="0 0 591 500" version="1.1" xmlns="http://www.w3.org/2000/svg" xmlns:xlink="http://www.w3.org/1999/xlink">
    <!-- Generator: Sketch 55 (78076) - https://sketchapp.com -->
    <title>Group 12</title>
    <desc>Created with Sketch.</desc>
    <defs>
        <linearGradient x1="61.8107848%" y1="6.96065512%" x2="61.8107848%" y2="38.8685188%" id="linearGradient-1">
            <stop stop-color="#3B3FF2" stop-opacity="0.594432911" offset="0%"></stop>
            <stop stop-color="#1E5E87" offset="100%"></stop>
        </linearGradient>
        <linearGradient x1="53.8858654%" y1="0%" x2="53.8858654%" y2="98.0351092%" id="linearGradient-2">
            <stop stop-color="#2F659C" offset="0%"></stop>
            <stop stop-color="#009CBF" offset="100%"></stop>
        </linearGradient>
    </defs>
    <g id="Page-1" stroke="none" stroke-width="1" fill="none" fill-rule="evenodd">
        <g id="Grakn-Presentation1" transform="translate(-1329.000000, -755.000000)">
            <g id="1rst/2nd-Section" transform="translate(-448.000000, -87.000000)">
                <g id="Clouds" transform="translate(0.000000, 786.000000)">
                    <g id="Group-12" transform="translate(1777.000000, 56.000000)">
                        <path d="M367.028288,414.931365 C365.691145,414.976998 364.348259,415 363,415 C362.329322,415 361.659973,414.994308 360.991999,414.98297 L359,415 L359.019912,414.933 C296.797731,412.835066 247,361.732974 247,299 C247,270.722299 257.118264,244.807845 273.9318,224.679629 C270.754892,217.084856 269,208.747367 269,200 C269,164.653776 297.653776,136 333,136 C336.801459,136 340.525508,136.331434 344.144826,136.966981 C346.750591,91.8130178 384.193006,56 430,56 C438.881806,56 447.449139,57.346418 455.509027,59.846281 C465.925488,38.6155376 487.755923,24 513,24 C527.750432,24 541.335375,28.9900548 552.158788,37.3741245 C563.612064,26.6007605 579.035187,20 596,20 C605.96189,20 615.392183,22.2760369 623.799231,26.3364622 C634.807496,10.424139 653.186404,0 674,0 C698.236848,0 719.172272,14.1350792 729.01231,34.6112762 C733.503984,33.5574384 738.186894,33 743,33 C757.646965,33 771.088215,38.1622759 781.603576,46.7666524 C788.876767,32.0900325 804.010057,22 821.5,22 C846.076671,22 866,41.9233286 866,66.5 C866,67.7056712 865.952052,68.9001434 865.857958,70.0816139 C878.936375,73.5929474 890.279301,81.3429179 898.323656,91.7684459 C907.588475,77.464518 923.688959,68 942,68 C970.718807,68 994,91.281193 994,120 C994,132.274559 989.747109,143.555802 982.634486,152.45057 L992.432203,157 L918.129523,245.52 C898.319399,237.235655 881.711714,246.062321 868.306469,272 C854.901223,297.937679 850.451609,344.191012 854.957627,410.76 L367.028288,414.931365 Z" id="Combined-Shape-Copy-8" fill="url(#linearGradient-1)" transform="translate(620.500000, 207.500000) scale(-1, 1) translate(-620.500000, -207.500000) "></path>
                        <path d="M26.931817,309.679609 C23.7548923,302.084856 22,293.747367 22,285 C22,249.653776 50.653776,221 86,221 C89.8014592,221 93.525508,221.331434 97.1448263,221.966981 C99.7505907,176.813018 137.193006,141 183,141 C191.881806,141 200.449139,142.346418 208.509027,144.846281 C218.925488,123.615538 240.755923,109 266,109 C280.750432,109 294.335375,113.990055 305.158788,122.374124 C316.612064,111.60076 332.035187,105 349,105 C358.96189,105 368.392183,107.276037 376.799231,111.336462 C387.807496,95.424139 406.186404,85 427,85 C451.236848,85 472.172272,99.1350792 482.01231,119.611276 C486.503984,118.557438 491.186894,118 496,118 C510.646965,118 524.088215,123.162276 534.603576,131.766652 C541.876767,117.090032 557.010057,107 574.5,107 C599.076671,107 619,126.923329 619,151.5 C619,152.705671 618.952052,153.900143 618.857958,155.081614 C631.936375,158.592947 643.279301,166.342918 651.323656,176.768446 C660.588475,162.464518 676.688959,153 695,153 C723.718807,153 747,176.281193 747,205 C747,215.419469 743.935472,225.12318 738.658572,233.258974 C769.695121,236.113802 794,262.218546 794,294 C794,309.445012 788.259861,323.549342 778.796529,334.296044 C805.774161,349.457793 824,378.35046 824,411.5 C824,460.3772 784.3772,500 735.5,500 C731.824778,500 728.201879,499.775973 724.644216,499.340831 L607.957627,495.76 L120.028288,499.931365 C118.691145,499.976998 117.348259,500 116,500 C115.329322,500 114.659973,499.994308 113.991999,499.98297 L112,500 L112.019912,499.933 C49.797731,497.835066 0,446.732974 0,384 C0,355.722299 10.1182638,329.807845 26.9318002,309.679629 Z" id="Combined-Shape-Copy-7" fill="url(#linearGradient-2)" transform="translate(412.000000, 292.500000) scale(-1, 1) translate(-412.000000, -292.500000) "></path>
                    </g>
                </g>
            </g>
        </g>
    </g>
</svg>