<?xml version="1.0" encoding="UTF-8"?>
<svg width="565px" height="564px" viewBox="0 0 565 564" version="1.1" xmlns="http://www.w3.org/2000/svg" xmlns:xlink="http://www.w3.org/1999/xlink">
    <!-- Generator: Sketch 55 (78076) - https://sketchapp.com -->
    <title>Group 11</title>
    <desc>Created with Sketch.</desc>
    <defs>
        <linearGradient x1="61.8107848%" y1="6.96065512%" x2="61.8107848%" y2="39.3862952%" id="linearGradient-1">
            <stop stop-color="#3F2AB3" offset="0%"></stop>
            <stop stop-color="#1B5091" offset="100%"></stop>
        </linearGradient>
        <linearGradient x1="44.8196878%" y1="4.03426205%" x2="44.8196878%" y2="92.8294428%" id="linearGradient-2">
            <stop stop-color="#296BA0" offset="0%"></stop>
            <stop stop-color="#099DBE" offset="100%"></stop>
        </linearGradient>
    </defs>
    <g id="Page-1" stroke="none" stroke-width="1" fill="none" fill-rule="evenodd">
        <g id="Grakn-Presentation1" transform="translate(0.000000, -699.000000)">
            <g id="1rst/2nd-Section" transform="translate(-448.000000, -87.000000)">
                <g id="Clouds" transform="translate(0.000000, 786.000000)">
                    <g id="Group-11">
                        <path d="M291.028288,414.931365 C289.691145,414.976998 288.348259,415 287,415 C286.329322,415 285.659973,414.994308 284.991999,414.98297 L283,415 L283.019912,414.933 C220.797731,412.835066 171,361.732974 171,299 C171,270.722299 181.118264,244.807845 197.9318,224.679629 C194.754892,217.084856 193,208.747367 193,200 C193,164.653776 221.653776,136 257,136 C260.801459,136 264.525508,136.331434 268.144826,136.966981 C270.750591,91.8130178 308.193006,56 354,56 C362.881806,56 371.449139,57.346418 379.509027,59.846281 C389.925488,38.6155376 411.755923,24 437,24 C451.750432,24 465.335375,28.9900548 476.158788,37.3741245 C487.612064,26.6007605 503.035187,20 520,20 C529.96189,20 539.392183,22.2760369 547.799231,26.3364622 C558.807496,10.424139 577.186404,0 598,0 C622.236848,0 643.172272,14.1350792 653.01231,34.6112762 C657.503984,33.5574384 662.186894,33 667,33 C681.646965,33 695.088215,38.1622759 705.603576,46.7666524 C712.876767,32.0900325 728.010057,22 745.5,22 C770.076671,22 790,41.9233286 790,66.5 C790,67.7056712 789.952052,68.9001434 789.857958,70.0816139 C802.936375,73.5929474 814.279301,81.3429179 822.323656,91.7684459 C831.588475,77.464518 847.688959,68 866,68 C894.718807,68 918,91.281193 918,120 C918,132.274559 913.747109,143.555802 906.634486,152.45057 L916.432203,157 L842.129523,245.52 C822.319399,237.235655 805.711714,246.062321 792.306469,272 C778.901223,297.937679 774.451609,344.191012 778.957627,410.76 L291.028288,414.931365 Z" id="Combined-Shape-Copy-9" fill="url(#linearGradient-1)" transform="translate(544.500000, 207.500000) scale(-1, 1) translate(-544.500000, -207.500000) "></path>
                        <path d="M112.01992,563.933001 C49.797731,561.835066 0,510.732974 0,448 C0,419.722299 10.1182638,393.807845 26.9318002,373.679629 C23.7548923,366.084856 22,357.747367 22,349 C22,313.653776 50.653776,285 86,285 C89.8014592,285 93.525508,285.331434 97.1448263,285.966981 C99.7505907,240.813018 137.193006,205 183,205 C191.881806,205 200.449139,206.346418 208.509027,208.846281 C218.925488,187.615538 240.755923,173 266,173 C280.750432,173 294.335375,177.990055 305.158788,186.374124 C316.612064,175.60076 332.035187,169 349,169 C358.96189,169 368.392183,171.276037 376.799231,175.336462 C387.807496,159.424139 406.186404,149 427,149 C451.236848,149 472.172272,163.135079 482.01231,183.611276 C486.503984,182.557438 491.186894,182 496,182 C510.646965,182 524.088215,187.162276 534.603576,195.766652 C541.876767,181.090032 557.010057,171 574.5,171 C599.076671,171 619,190.923329 619,215.5 C619,216.705671 618.952052,217.900143 618.857958,219.081614 C631.936375,222.592947 643.279301,230.342918 651.323656,240.768446 C660.588475,226.464518 676.688959,217 695,217 C717.014909,217 735.834535,230.680634 743.421146,250.004171 C777.594233,250.314085 807.652202,267.851164 825.331175,294.351533 C838.134689,288.352096 852.425882,285 867.5,285 C922.452333,285 967,329.547667 967,384.5 C967,403.391849 961.73496,421.053983 952.592169,436.099112 C986.26734,437.962228 1013,465.85924 1013,500 C1013,531.024236 990.925138,556.892611 961.625632,562.754909 L962,564 L112,564 L112.019912,563.933 Z" id="Combined-Shape-Copy-6" fill="url(#linearGradient-2)" transform="translate(506.500000, 356.500000) scale(-1, 1) translate(-506.500000, -356.500000) "></path>
                    </g>
                </g>
            </g>
        </g>
    </g>
</svg>