<?xml version="1.0" encoding="UTF-8"?>
<svg width="90px" height="14px" viewBox="0 0 90 14" version="1.1" xmlns="http://www.w3.org/2000/svg" xmlns:xlink="http://www.w3.org/1999/xlink">
    <!-- Generator: Sketch 55.1 (78136) - https://sketchapp.com -->
    <title>Group 11</title>
    <desc>Created with Sketch.</desc>
    <defs>
        <linearGradient x1="0.0230101434%" y1="49.9962545%" x2="99.9996203%" y2="49.9962545%" id="linearGradient-1">
            <stop stop-color="#00D8CE" offset="0%"></stop>
            <stop stop-color="#00ECA2" offset="100%"></stop>
        </linearGradient>
        <linearGradient x1="0.232876653%" y1="49.9620892%" x2="100.024332%" y2="49.9620892%" id="linearGradient-2">
            <stop stop-color="#00D8CE" offset="0%"></stop>
            <stop stop-color="#00ECA2" offset="100%"></stop>
        </linearGradient>
        <linearGradient x1="0.0834834094%" y1="50.2086159%" x2="99.9358579%" y2="50.2086159%" id="linearGradient-3">
            <stop stop-color="#00D8CE" offset="0%"></stop>
            <stop stop-color="#00ECA2" offset="100%"></stop>
        </linearGradient>
    </defs>
    <g id="Page-1" stroke="none" stroke-width="1" fill="none" fill-rule="evenodd">
        <g id="Grakn-Presentation-Wide" transform="translate(-1093.000000, -6827.000000)" fill-rule="nonzero">
            <g id="9th-Section" transform="translate(-197.000000, 6302.000000)">
                <g id="Footer" transform="translate(1189.000000, 476.000000)">
                    <g id="Group-11" transform="translate(101.000000, 49.000000)">
                        <g id="Group-Copy" transform="translate(67.865169, 0.175000)">
                            <path d="M9.68988764,0.5425 C9.74382022,0.35 9.83370787,0.105 10.0674157,0.0525 C10.552809,0.02625 11.0382022,0.04375 11.5235955,0.04375 C11.7752809,0.00875 11.9550562,0.2275 12.0089888,0.44625 C13.1775281,4.235 14.3460674,8.0325 15.5146067,11.82125 C15.6134831,12.215 15.811236,12.59125 15.8202247,13.0025 C15.8382022,13.18625 15.5955056,13.22125 15.4606742,13.22125 C15.011236,13.22125 14.5707865,13.2300875 14.1213483,13.22125 C13.9146067,13.2125 13.7797753,13.02 13.7348315,12.845 C13.4292135,11.85625 13.1235955,10.8675 12.8179775,9.87875 C11.4606742,9.87875 10.1123596,9.87875 8.76404494,9.87875 C8.45842697,10.885 8.15280899,11.89125 7.84719101,12.8975 C7.79325843,13.0725 7.63146067,13.22125 7.44269663,13.22125 C7.08314607,13.23875 6.72359551,13.22125 6.37303371,13.2300875 C6.21123596,13.2300875 5.99550562,13.23875 5.90561798,13.08125 C5.86966292,12.9325 5.92359551,12.78375 5.95955056,12.64375 C7.2,8.61 8.4494382,4.57625 9.68988764,0.5425 Z M10.1842697,5.25875 C9.86067416,6.265 9.54606742,7.27125 9.23146067,8.26875 C10.2741573,8.26875 11.3258427,8.26875 12.3685393,8.26875 C12.0449438,7.2275 11.7213483,6.18625 11.388764,5.145 C11.0831461,4.2525 10.9662921,3.3075 10.8044944,2.38875 C10.6696629,3.35125 10.5078652,4.3225 10.1842697,5.25875 Z" id="Shape" fill="url(#linearGradient-1)"></path>
                            <path d="M20.152809,0.07875 C20.6741573,0.0175 21.2224719,0.0525 21.752809,0.06125 C21.9685393,0.07 22.0224719,0.315 22.0044944,0.48125 C22.0044944,4.59375 22.0044944,8.715 22.0044944,12.8275 C22.0314607,13.0025 21.9235955,13.20375 21.7258427,13.22125 C21.258427,13.23875 20.7910112,13.23 20.3235955,13.22125 C20.0988764,13.23875 19.9730337,13.02 19.9820225,12.8275 C19.9820225,8.715 19.9820225,4.59375 19.9820225,0.48125 C19.9820225,0.3325 20.0179775,0.1575 20.152809,0.07875 Z" id="Path" fill="url(#linearGradient-2)"></path>
                            <path d="M0.296629213,10.85 C0.764044944,10.82375 1.22247191,10.8325 1.68988764,10.84125 C1.91460674,10.82375 2.04044944,11.0425 2.03146067,11.235 C2.03146067,11.78625 2.04044944,12.3375 2.03146067,12.88875 C2.04044944,13.06375 1.87865169,13.22125 1.6988764,13.2125 C1.25842697,13.22125 0.808988764,13.22125 0.368539326,13.2125 C0.188764045,13.22125 -6.9388939e-18,13.08125 0.0179775281,12.8975 C0.00898876404,12.34625 0.00898876404,11.78625 0.0179775281,11.235 C-6.9388939e-18,11.06 0.0988764045,10.8675 0.296629213,10.85 Z" id="Path" fill="url(#linearGradient-3)"></path>
                        </g>
                        <g id="Group-Copy-2" fill="#FFFFFF">
                            <path d="M1.38426966,0.69125 C2.4988764,0.07 3.82921348,0.035 5.07865169,0.07 C6.14831461,0.14 7.28988764,0.34125 8.08988764,1.085 C8.71910112,1.67125 8.90786517,2.555 8.85393258,3.36875 C8.80898876,3.675 8.97977528,4.095 8.6741573,4.305 C8.20674157,4.3575 7.73033708,4.3225 7.26292135,4.3225 C7.09213483,4.34 6.91235955,4.24375 6.89438202,4.06 C6.84044944,3.57875 6.95730337,3.05375 6.70561798,2.6075 C6.4,2.0475 5.7258427,1.855 5.13258427,1.785 C4.37752809,1.715 3.57752809,1.72375 2.88539326,2.0475 C2.38202247,2.275 2.10337079,2.82625 2.13033708,3.36 C2.13033708,5.66125 2.13033708,7.9625 2.13033708,10.2725 C2.13033708,10.71 2.31011236,11.165 2.68764045,11.4275 C3.21797753,11.78625 3.8741573,11.82125 4.50337079,11.85625 C5.14157303,11.82125 5.84269663,11.78625 6.37303371,11.3925 C6.71460674,11.1475 6.87640449,10.73625 6.88539326,10.33375 C6.89438202,9.70375 6.88539326,9.07375 6.88539326,8.44375 C6.08539326,8.435 5.28539326,8.4525 4.48539326,8.435 C4.27865169,8.44375 4.17078652,8.225 4.17078652,8.05 C4.16179775,7.70875 4.14382022,7.3675 4.17977528,7.035 C4.18876404,6.8425 4.38651685,6.7375 4.56629213,6.74625 C5.86067416,6.74625 7.14606742,6.74625 8.44044944,6.74625 C8.62921348,6.72875 8.84494382,6.8425 8.84494382,7.04375 C8.85393258,8.2425 8.84494382,9.4325 8.85393258,10.63125 C8.85393258,11.48 8.45842697,12.3375 7.72134831,12.81 C6.69662921,13.475 5.41123596,13.55375 4.20674157,13.55375 C3.04719101,13.51 1.77078652,13.36125 0.880898876,12.55625 C0.305617978,12.0575 0.0449438202,11.27875 0.0719101124,10.54375 C0.0808988764,7.97125 0.0719101124,5.4075 0.0719101124,2.84375 C0.0988764045,1.96875 0.602247191,1.12 1.38426966,0.69125 Z" id="Path"></path>
                            <path d="M13.5191011,0.65625 C13.5011236,0.46375 13.6,0.20125 13.8426966,0.2275 C15.3438202,0.21875 16.8449438,0.21875 18.3460674,0.2275 C19.4067416,0.2625 20.5393258,0.4375 21.4022472,1.085 C22.0224719,1.54 22.3820225,2.26625 22.4179775,3.01 C22.4359551,3.745 22.4179775,4.48 22.4269663,5.215 C22.4269663,5.83625 22.247191,6.475 21.8337079,6.95625 C21.411236,7.46375 20.7820225,7.77 20.152809,7.9625 C20.9438202,9.6775 21.7707865,11.375 22.5258427,13.1075 C22.4988764,13.16 22.4539326,13.265 22.4269663,13.3175 C22.0764045,13.48375 21.6808989,13.3875 21.3033708,13.41375 C21.0247191,13.39625 20.6292135,13.50125 20.494382,13.18625 C19.7213483,11.54125 18.9662921,9.8875 18.211236,8.23375 C17.3213483,8.225 16.4314607,8.23375 15.541573,8.23375 C15.541573,9.8525 15.5505618,11.47125 15.541573,13.09875 C15.5595506,13.2825 15.3797753,13.4225 15.2,13.41375 C14.7595506,13.41375 14.3101124,13.4225 13.8696629,13.41375 C13.6449438,13.43125 13.5191011,13.20375 13.5370787,13.01125 C13.5101124,8.88125 13.5191011,4.76875 13.5191011,0.65625 Z M15.5325843,1.91625 C15.5325843,3.4475 15.5325843,4.9875 15.5325843,6.51875 C16.3865169,6.51 17.2314607,6.5275 18.0853933,6.51 C18.8044944,6.46625 19.6314607,6.37875 20.1078652,5.7925 C20.5123596,5.27625 20.3775281,4.585 20.4044944,3.98125 C20.4224719,3.47375 20.3955056,2.905 20.0089888,2.52875 C19.5235955,2.0475 18.7865169,1.95125 18.1213483,1.925 C17.258427,1.9075 16.3955056,1.91625 15.5325843,1.91625 Z" id="Shape"></path>
                            <path d="M30.0044944,0.70875 C30.058427,0.49 30.1842697,0.21 30.4629213,0.21875 C30.9483146,0.21 31.4337079,0.21 31.9191011,0.21875 C32.1438202,0.2275 32.2696629,0.44625 32.3235955,0.63875 C33.5280899,4.55 34.7325843,8.4525 35.9370787,12.36375 C36.0089888,12.62625 36.1348315,12.88 36.1258427,13.16 C36.1438202,13.34375 35.9101124,13.3875 35.7662921,13.3875 C35.3168539,13.3875 34.8764045,13.39625 34.4269663,13.3875 C34.2202247,13.37875 34.0853933,13.18625 34.0404494,13.01125 C33.5550562,11.445 33.0786517,9.87875 32.647191,8.30375 C32.3146067,7.175 31.5865169,4.41 31.1460674,2.44125 C30.7146067,4.24375 30.5797753,4.85625 29.7348315,7.81375 C29.3483146,9.17 29.3123596,9.24875 29.0247191,10.19375 C28.7370787,11.15625 28.4494382,12.11 28.152809,13.0725 C28.0988764,13.2475 27.9370787,13.3875 27.7483146,13.39625 C27.3348315,13.405 26.9213483,13.405 26.5078652,13.39625 C26.3730337,13.39625 26.1752809,13.3175 26.1932584,13.16 C26.2022472,12.90625 26.3101124,12.67 26.3820225,12.425 C27.5955056,8.5225 28.8089888,4.62 30.0044944,0.70875 Z" id="Path"></path>
                            <path d="M40.3505618,0.32375 C40.458427,0.20125 40.647191,0.2275 40.8,0.21875 C41.2224719,0.2275 41.6539326,0.20125 42.0764045,0.23625 C42.2741573,0.2625 42.3280899,0.49 42.3191011,0.65625 C42.3191011,2.4675 42.3191011,4.27875 42.3191011,6.08125 C42.4449438,6.08125 42.5617978,6.08125 42.6876404,6.08125 C44.0359551,4.27 45.3932584,2.4675 46.741573,0.65625 C46.9033708,0.46375 47.0831461,0.23625 47.3617978,0.2275 C47.811236,0.21875 48.2696629,0.2275 48.7280899,0.2275 C48.8539326,0.21 48.9797753,0.245 49.0516854,0.35875 C49.0786517,0.525 48.9617978,0.67375 48.8808989,0.81375 C47.3977528,2.7825 45.9325843,4.75125 44.4494382,6.71125 C45.8067416,8.3825 47.1550562,10.05375 48.5123596,11.725 C48.8719101,12.215 49.3393258,12.64375 49.6179775,13.18625 C49.5370787,13.27375 49.4831461,13.43125 49.3303371,13.405 C48.8,13.41375 48.2606742,13.405 47.7303371,13.41375 C47.4966292,13.43125 47.3078652,13.2825 47.1820225,13.11625 C45.6898876,11.27 44.2067416,9.42375 42.7146067,7.58625 C42.5797753,7.58625 42.4539326,7.58625 42.3280899,7.58625 C42.3280899,9.3975 42.3280899,11.20875 42.3280899,13.02 C42.3460674,13.18625 42.2382022,13.3875 42.0494382,13.405 C41.5820225,13.4225 41.1146067,13.41375 40.647191,13.41375 C40.4224719,13.43125 40.2696629,13.22125 40.2876404,13.02 C40.2876404,8.995 40.2876404,4.96125 40.2876404,0.93625 C40.2876404,0.7175 40.2516854,0.5075 40.3505618,0.32375 Z" id="Path"></path>
                            <path d="M53.6988764,0.56875 C53.6808989,0.39375 53.8247191,0.20125 54.0134831,0.2275 C54.4629213,0.2275 54.9123596,0.21 55.352809,0.23625 C55.505618,0.245 55.5595506,0.39375 55.6314607,0.49875 C56.988764,2.82625 58.3460674,5.145 59.7033708,7.46375 C60.0808989,8.1375 60.5213483,8.785 60.8089888,9.51125 C60.7910112,6.53625 60.8,3.5525 60.8,0.5775 C60.8089888,0.07875 61.4202247,0.245 61.752809,0.21875 C62.0674157,0.2625 62.6247191,0.06125 62.705618,0.49875 C62.7146067,4.69 62.7146067,8.88125 62.705618,13.0725 C62.6876404,13.51 62.1393258,13.3875 61.8426966,13.405 C61.5101124,13.36125 61.0426966,13.53625 60.8269663,13.20375 C59.4337079,10.82375 58.0494382,8.435 56.6651685,6.055 C56.305618,5.4075 55.8831461,4.795 55.6134831,4.10375 C55.6314607,7.07 55.6134831,10.03625 55.6224719,12.99375 C55.658427,13.18625 55.505618,13.405 55.2898876,13.3875 C54.8764045,13.39625 54.4539326,13.39625 54.0404494,13.3875 C53.8247191,13.39625 53.6808989,13.18625 53.7078652,12.99375 C53.6988764,8.855 53.6898876,4.7075 53.6988764,0.56875 Z" id="Path"></path>
                        </g>
                    </g>
                </g>
            </g>
        </g>
    </g>
</svg>