<svg xmlns="http://www.w3.org/2000/svg" width="143" height="129" viewBox="0 0 143 129">
    <defs>
        <linearGradient id="a" x1="32.197%" x2="89.656%" y1="81.075%" y2="81.075%">
            <stop offset="0%" stop-color="#FFF"/>
            <stop offset="100%" stop-color="#8F77E1"/>
        </linearGradient>
        <linearGradient id="b" x1="50%" x2="50%" y1="30.503%" y2="124.067%">
            <stop offset="0%" stop-color="#060639"/>
            <stop offset="100%" stop-color="#291B78"/>
        </linearGradient>
        <linearGradient id="c" x1="124.661%" x2="19.359%" y1="52.544%" y2="52.544%">
            <stop offset="0%" stop-color="#3C2E7C"/>
            <stop offset="100%" stop-color="#0C0C60"/>
        </linearGradient>
        <linearGradient id="d" x1="50%" x2="50%" y1="0%" y2="100%">
            <stop offset="0%" stop-color="#02DAC9"/>
            <stop offset="100%" stop-color="#1AEBA8"/>
        </linearGradient>
        <linearGradient id="e" x1="34.951%" x2="60.24%" y1="-4.351%" y2="25.128%">
            <stop offset="0%" stop-color="#C6B7FF"/>
            <stop offset="100%" stop-color="#FFF"/>
        </linearGradient>
        <linearGradient id="f" x1="18.72%" x2="52.514%" y1="19.057%" y2="7.236%">
            <stop offset="0%" stop-color="#B9ACEE"/>
            <stop offset="100%" stop-color="#FFF"/>
        </linearGradient>
    </defs>
    <g fill="none" fill-rule="evenodd">
        <path fill="url(#a)" d="M123.067 53.784l16.416-.002c1.68 0 3.132 1.17 3.49 2.811l4.247 19.495-31.894.004 4.253-19.498a3.571 3.571 0 0 1 3.488-2.81z" transform="rotate(89 131.273 64.937)"/>
        <path fill="url(#a)" d="M3.505 53.784l16.415-.002c1.68 0 3.132 1.17 3.49 2.811l4.247 19.495-31.893.004L.016 56.594a3.571 3.571 0 0 1 3.489-2.81z" transform="scale(-1 1) rotate(89 0 53.02)"/>
        <ellipse cx="71.243" cy="64.787" fill="url(#b)" rx="64.243" ry="63.788"/>
        <path fill="url(#c)" d="M70.95 127.393zM18.429 30.14C29.63 12.316 49.43.474 71.988.474c22.25 0 41.817 11.521 53.097 28.94-14.399-7.626-32.716-12.193-52.658-12.193-20.566 0-39.405 4.857-54 12.92z" transform="rotate(90 71.756 63.938)"/>
        <path fill="url(#c)" d="M70.95 127.393zM18.429 30.14C29.63 12.316 49.43.474 71.988.474c22.25 0 41.817 11.521 53.097 28.94-14.399-7.626-32.716-12.193-52.658-12.193-20.566 0-39.405 4.857-54 12.92z" transform="matrix(0 1 1 0 7.819 -7.819)"/>
        <path fill="url(#d)" d="M53.852 51.26h40.932C100.98 51.26 106 56.28 106 62.475v13.871c0 6.195-5.021 11.216-11.216 11.216h-31.36V127L39 117.266v-54.79c0-5.636 4.157-10.301 9.571-11.096V40.07c-2.325-.945-3.96-3.183-3.96-5.794 0-3.466 2.881-6.276 6.436-6.276 3.554 0 6.436 2.81 6.436 6.276 0 2.485-1.482 4.633-3.63 5.65V51.26zm9.572 25.982c4.374 0 7.92-3.459 7.92-7.725 0-4.265-3.546-7.724-7.92-7.724-4.375 0-7.922 3.459-7.922 7.724 0 4.266 3.547 7.725 7.922 7.725zm24.093 0c4.375 0 7.921-3.459 7.921-7.725 0-4.265-3.546-7.724-7.92-7.724-4.376 0-7.922 3.459-7.922 7.724 0 4.266 3.546 7.725 7.921 7.725z"/>
        <path fill="url(#e)" d="M70.563 128.527zm-53.332-97.75A64.303 64.303 0 0 1 71.616.96a64.303 64.303 0 0 1 53.915 29.088c-14.62-7.666-33.22-12.255-53.469-12.255-20.883 0-40.012 4.881-54.83 12.984z"/>
        <path fill="url(#f)" d="M70.563 128.527zm-53.332-97.75A64.303 64.303 0 0 1 71.616.96a64.303 64.303 0 0 1 53.915 29.088c-14.62-7.666-33.22-12.255-53.469-12.255-20.883 0-40.012 4.881-54.83 12.984z" transform="matrix(1 0 0 -1 0 129.495)"/>
    </g>
</svg>
