<?xml version="1.0" encoding="UTF-8"?>
<svg width="47px" height="42px" viewBox="0 0 47 42" version="1.1" xmlns="http://www.w3.org/2000/svg" xmlns:xlink="http://www.w3.org/1999/xlink">
    <!-- Generator: Sketch 55.1 (78136) - https://sketchapp.com -->
    <title>Space logo</title>
    <desc>Created with Sketch.</desc>
    <defs>
        <linearGradient x1="100%" y1="50%" x2="-25.2959672%" y2="-33.7937185%" id="linearGradient-1">
            <stop stop-color="#FFFFFF" offset="0%"></stop>
            <stop stop-color="#A38BF6" offset="100%"></stop>
        </linearGradient>
        <linearGradient x1="100%" y1="50%" x2="-51.9913124%" y2="41.0276899%" id="linearGradient-2">
            <stop stop-color="#FFFFFF" offset="0%"></stop>
            <stop stop-color="#A38BF6" offset="100%"></stop>
        </linearGradient>
        <linearGradient x1="50%" y1="30.5031187%" x2="50%" y2="165.734486%" id="linearGradient-3">
            <stop stop-color="#060639" offset="0%"></stop>
            <stop stop-color="#1C1157" offset="100%"></stop>
        </linearGradient>
        <linearGradient x1="50%" y1="0%" x2="50%" y2="100%" id="linearGradient-4">
            <stop stop-color="#1AEBA7" offset="0%"></stop>
            <stop stop-color="#1AEBA8" offset="100%"></stop>
        </linearGradient>
        <linearGradient x1="34.9510329%" y1="-4.35068141%" x2="60.2399994%" y2="25.1277239%" id="linearGradient-5">
            <stop stop-color="#C6B7FF" offset="0%"></stop>
            <stop stop-color="#FFFFFF" offset="100%"></stop>
        </linearGradient>
        <linearGradient x1="83.8486869%" y1="0%" x2="37.6678985%" y2="10.0531684%" id="linearGradient-6">
            <stop stop-color="#B9ACEE" offset="0%"></stop>
            <stop stop-color="#FFFFFF" offset="100%"></stop>
        </linearGradient>
    </defs>
    <g id="Page-1" stroke="none" stroke-width="1" fill="none" fill-rule="evenodd">
        <g id="Grakn-Presentation-Wide" transform="translate(-1063.000000, -30.000000)">
            <g id="1rst/2nd-Section" transform="translate(-170.000000, -87.000000)">
                <g id="Space-logo" transform="translate(1233.000000, 117.000000)">
                    <path d="M40.5160473,17.3906883 L45.9202597,17.3900148 C46.4731633,17.3899458 46.9513996,17.7751537 47.069106,18.3153828 L48.4674859,24.7334313 L37.9674631,24.73474 L39.3675505,18.315798 C39.4853339,17.7757995 39.9633528,17.3907572 40.5160473,17.3906883 Z" id="Rectangle" fill="url(#linearGradient-1)" transform="translate(43.217475, 21.062377) rotate(89.000000) translate(-43.217475, -21.062377) "></path>
                    <path d="M1.15388073,17.3906883 L6.55809315,17.3900148 C7.11099668,17.3899458 7.58923298,17.7751537 7.70693941,18.3153828 L9.10531935,24.7334313 L-1.39470349,24.73474 L0.00538388267,18.315798 C0.123167317,17.7757995 0.601186175,17.3907572 1.15388073,17.3906883 Z" id="Rectangle-Copy-2" fill="url(#linearGradient-2)" transform="translate(3.855308, 21.062377) scale(-1, 1) rotate(89.000000) translate(-3.855308, -21.062377) "></path>
                    <ellipse id="Oval" fill="url(#linearGradient-3)" cx="23.577395" cy="21" rx="21.15" ry="21"></ellipse>
                    <path d="M19.0116505,16.0211062 L30.6620382,16.0211062 C32.4352907,16.0211062 33.8727959,17.4586114 33.8727959,19.2318639 L33.8727959,23.2480312 C33.8727959,25.0212837 32.4352907,26.4587889 30.6620382,26.4587889 L21.7393291,26.4587889 L21.7393291,37.7981771 L14.7790459,37.7981771 L14.7790459,19.2318639 C14.7790459,17.6228081 15.9626609,16.2902004 17.5067244,16.0572074 L17.5067244,12.8039737 C16.8439121,12.5320377 16.3780299,11.888446 16.3780299,11.1378012 C16.3780299,10.1412211 17.1991972,9.33333333 18.2121586,9.33333333 C19.2251199,9.33333333 20.0462872,10.1412211 20.0462872,11.1378012 C20.0462872,11.8524135 19.624058,12.4700037 19.0116505,12.7622735 L19.0116505,16.0211062 Z M21.7393291,23.4914659 C22.9860507,23.4914659 23.9967183,22.4971424 23.9967183,21.2705823 C23.9967183,20.0440222 22.9860507,19.0496988 21.7393291,19.0496988 C20.4926075,19.0496988 19.48194,20.0440222 19.48194,21.2705823 C19.48194,22.4971424 20.4926075,23.4914659 21.7393291,23.4914659 Z M28.6055545,23.4914659 C29.8522761,23.4914659 30.8629437,22.4971424 30.8629437,21.2705823 C30.8629437,20.0440222 29.8522761,19.0496988 28.6055545,19.0496988 C27.3588329,19.0496988 26.3481653,20.0440222 26.3481653,21.2705823 C26.3481653,22.4971424 27.3588329,23.4914659 28.6055545,23.4914659 Z" id="Combined-Shape" fill="url(#linearGradient-4)"></path>
                    <path d="M23.2306332,41.9972346 C23.3661888,41.9987544 23.5019788,41.9996495 23.6379965,41.9999156 C23.6178027,41.9999719 23.5976021,42 23.577395,42 C23.461588,42 23.3459984,41.9990758 23.2306332,41.9972346 Z M5.67279587,9.81645923 C9.41749869,3.91841889 16.0365804,0 23.577395,0 C31.0153809,0 37.5566006,3.81228218 41.3272041,9.57628644 C36.5138589,7.05263382 30.39061,5.54166667 23.72427,5.54166667 C16.8490668,5.54166667 10.5515188,7.14879733 5.67279587,9.81645923 Z" id="Combined-Shape" fill="url(#linearGradient-5)"></path>
                    <path d="M23.2306332,41.9972346 C23.3661888,41.9987544 23.5019788,41.9996495 23.6379965,41.9999156 C23.6178027,41.9999719 23.5976021,42 23.577395,42 C23.461588,42 23.3459984,41.9990758 23.2306332,41.9972346 Z M5.67279587,9.81645923 C9.41749869,3.91841889 16.0365804,0 23.577395,0 C31.0153809,0 37.5566006,3.81228218 41.3272041,9.57628644 C36.5138589,7.05263382 30.39061,5.54166667 23.72427,5.54166667 C16.8490668,5.54166667 10.5515188,7.14879733 5.67279587,9.81645923 Z" id="Combined-Shape-Copy" fill="url(#linearGradient-6)" transform="translate(23.500000, 21.000000) scale(1, -1) translate(-23.500000, -21.000000) "></path>
                    <g id="Group" transform="translate(29.172796, 8.458333)"></g>
                </g>
            </g>
        </g>
    </g>
</svg>