<svg xmlns="http://www.w3.org/2000/svg" width="277" height="43" viewBox="0 0 277 43">
    <defs>
        <linearGradient id="a" x1="32.197%" x2="89.656%" y1="81.075%" y2="81.075%">
            <stop offset="0%" stop-color="#FFF"/>
            <stop offset="100%" stop-color="#8F77E1"/>
        </linearGradient>
        <linearGradient id="b" x1="50%" x2="50%" y1="30.503%" y2="124.067%">
            <stop offset="0%" stop-color="#060639"/>
            <stop offset="100%" stop-color="#291B78"/>
        </linearGradient>
        <linearGradient id="c" x1="124.661%" x2="19.359%" y1="52.544%" y2="52.544%">
            <stop offset="0%" stop-color="#3C2E7C"/>
            <stop offset="100%" stop-color="#0C0C60"/>
        </linearGradient>
        <linearGradient id="d" x1="50%" x2="50%" y1="0%" y2="100%">
            <stop offset="0%" stop-color="#02DAC9"/>
            <stop offset="100%" stop-color="#1AEBA8"/>
        </linearGradient>
        <linearGradient id="e" x1="34.951%" x2="60.24%" y1="-4.351%" y2="25.128%">
            <stop offset="0%" stop-color="#C6B7FF"/>
            <stop offset="100%" stop-color="#FFF"/>
        </linearGradient>
        <linearGradient id="f" x1="18.72%" x2="52.514%" y1="19.057%" y2="7.236%">
            <stop offset="0%" stop-color="#B9ACEE"/>
            <stop offset="100%" stop-color="#FFF"/>
        </linearGradient>
    </defs>
    <g fill="none" fill-rule="evenodd">
        <g fill="#FFF" fill-rule="nonzero">
            <path d="M63.47 11.723c1.604-.915 3.52-.967 5.32-.915 1.54.103 3.183.4 4.335 1.495.907.864 1.178 2.166 1.1 3.365-.064.451.182 1.07-.258 1.38-.673.077-1.36.025-2.032.025-.246.026-.505-.116-.531-.386-.078-.71.09-1.483-.272-2.14-.44-.826-1.41-1.11-2.265-1.212-1.087-.103-2.24-.09-3.236.386-.725.336-1.126 1.148-1.087 1.934V25.84c0 .644.259 1.315.802 1.701.764.529 1.709.58 2.615.632.919-.051 1.928-.103 2.692-.683.492-.361.725-.967.738-1.56.013-.928 0-1.856 0-2.785-1.152-.013-2.304.013-3.456-.013-.298.013-.453-.309-.453-.567-.013-.503-.039-1.005.013-1.495.013-.284.298-.439.556-.426h5.58c.271-.025.582.142.582.439.013 1.766 0 3.52.013 5.285 0 1.25-.57 2.514-1.631 3.21-1.476.98-3.327 1.096-5.061 1.096-1.67-.064-3.508-.283-4.79-1.47-.828-.734-1.203-1.882-1.164-2.965.012-3.79 0-7.567 0-11.344.038-1.29.763-2.54 1.89-3.172zM80.944 11.672c-.026-.284.116-.67.465-.632 2.162-.013 4.324-.013 6.485 0 1.528.052 3.159.31 4.401 1.263.893.67 1.411 1.74 1.463 2.837.026 1.082 0 2.165.013 3.248 0 .916-.259 1.857-.854 2.566-.609.747-1.515 1.199-2.421 1.482 1.14 2.527 2.33 5.028 3.417 7.58-.039.078-.103.233-.142.31-.505.245-1.075.103-1.618.142-.401-.026-.97.129-1.165-.335-1.113-2.424-2.2-4.86-3.288-7.297-1.281-.013-2.563 0-3.844 0 0 2.385.013 4.77 0 7.168.026.27-.233.477-.492.464-.634 0-1.281.013-1.916 0-.323.026-.504-.31-.479-.593-.038-6.085-.025-12.144-.025-18.203zm2.899 1.856v6.781c1.23-.013 2.446.013 3.676-.013 1.035-.064 2.226-.193 2.912-1.057.583-.76.389-1.779.427-2.668.026-.748-.012-1.586-.57-2.14-.698-.71-1.76-.851-2.717-.89-1.243-.026-2.485-.013-3.728-.013zM104.682 11.749c.078-.322.26-.735.66-.722a56.85 56.85 0 0 1 2.098 0c.323.013.504.335.582.619 1.734 5.763 3.469 11.512 5.203 17.275.104.387.285.76.272 1.173.026.27-.31.335-.518.335-.647 0-1.281.013-1.928 0-.298-.013-.492-.296-.557-.554-.699-2.308-1.385-4.615-2.006-6.936-.479-1.663-1.527-5.737-2.162-8.637-.621 2.655-.815 3.558-2.032 7.915-.556 1.998-.608 2.114-1.022 3.507a525.479 525.479 0 0 1-1.256 4.241c-.078.258-.31.464-.582.477-.596.013-1.191.013-1.787 0-.194 0-.479-.116-.453-.348.013-.374.169-.722.272-1.083 1.748-5.75 3.495-11.5 5.216-17.262zM119.58 11.182c.156-.18.428-.142.648-.155.608.013 1.23-.026 1.838.026.285.039.362.374.35.619v7.993h.53c1.942-2.669 3.896-5.325 5.838-7.993.233-.284.492-.62.893-.632.647-.013 1.307 0 1.967 0 .182-.026.363.026.466.193.04.245-.129.464-.246.67-2.135 2.901-4.245 5.802-6.38 8.69 1.954 2.462 3.895 4.924 5.85 7.387.518.722 1.19 1.353 1.592 2.153-.117.129-.194.36-.414.322-.764.013-1.54 0-2.304.013-.337.026-.609-.193-.79-.438-2.149-2.72-4.284-5.44-6.433-8.148h-.557v8.006c.026.245-.129.541-.4.567-.674.026-1.347.013-2.02.013-.324.026-.544-.284-.518-.58V12.084c0-.322-.052-.631.09-.902zM138.802 11.543c-.026-.258.182-.542.453-.503.648 0 1.295-.026 1.929.013.22.013.298.232.401.387 1.955 3.429 3.91 6.845 5.864 10.261.543.993 1.178 1.947 1.592 3.017-.026-4.383-.013-8.78-.013-13.162.013-.735.893-.49 1.372-.529.453.065 1.256-.232 1.372.413.013 6.175.013 12.35 0 18.525-.026.645-.815.464-1.243.49-.478-.064-1.152.193-1.462-.296-2.006-3.507-4-7.027-5.993-10.533-.518-.954-1.126-1.856-1.515-2.875.026 4.37 0 8.74.013 13.098.052.284-.168.606-.479.58-.595.013-1.203.013-1.799 0-.31.013-.518-.296-.479-.58-.013-6.098-.026-12.208-.013-18.306z"/>
        </g>
        <g fill="#05E9A8" font-family="Geogrotesque-Medium, Geogrotesque" font-size="28.512" font-weight="400" letter-spacing="3.266">
            <text transform="translate(161.156 2.54)">
                <tspan x="0" y="27">C</tspan>
            </text>
            <text transform="translate(161.156 2.54)">
                <tspan x="19.31" y="27">O</tspan>
            </text>
            <text transform="translate(161.156 2.54)">
                <tspan x="39.01" y="27">S</tspan>
            </text>
            <text transform="translate(161.156 2.54)">
                <tspan x="81.518" y="27">O</tspan>
            </text>
            <text transform="translate(161.156 2.54)">
                <tspan x="101.218" y="27">S</tspan>
            </text>
            <text transform="translate(161.156 2.54)">
                <tspan x="58.061" y="27">M</tspan>
            </text>
        </g>
        <g>
            <path fill="url(#a)" d="M40.92 17.883h5.458c.558 0 1.041.389 1.16.934l1.413 6.482-10.605.002 1.414-6.483a1.187 1.187 0 0 1 1.16-.935z" transform="rotate(89 43.648 21.592)"/>
            <path fill="url(#a)" d="M1.165 17.883h5.458c.559 0 1.042.389 1.16.934L9.197 25.3l-10.605.002 1.414-6.483a1.187 1.187 0 0 1 1.16-.935z" transform="scale(-1 1) rotate(89 0 17.63)"/>
            <ellipse cx="23.688" cy="21.542" fill="url(#b)" rx="21.361" ry="21.209"/>
            <path fill="url(#c)" d="M23.591 42.358zM6.127 10.022C9.852 4.095 16.436.158 23.936.158c7.398 0 13.904 3.83 17.655 9.622-4.788-2.536-10.878-4.054-17.509-4.054-6.838 0-13.102 1.615-17.955 4.296z" transform="rotate(90 23.859 21.26)"/>
            <path fill="url(#c)" d="M23.591 42.358zM6.127 10.022C9.852 4.095 16.436.158 23.936.158c7.398 0 13.904 3.83 17.655 9.622-4.788-2.536-10.878-4.054-17.509-4.054-6.838 0-13.102 1.615-17.955 4.296z" transform="matrix(0 1 1 0 2.6 -2.6)"/>
            <path fill="url(#d)" d="M17.906 17.044h13.61a3.73 3.73 0 0 1 3.729 3.73v4.611a3.73 3.73 0 0 1-3.73 3.73H21.089v13.113l-8.12-3.237V20.773a3.73 3.73 0 0 1 3.182-3.69v-3.76a2.088 2.088 0 0 1-1.317-1.926c0-1.153.958-2.087 2.14-2.087 1.182 0 2.14.934 2.14 2.087 0 .826-.493 1.54-1.207 1.878v3.769zm3.182 8.639c1.455 0 2.634-1.15 2.634-2.568 0-1.419-1.179-2.569-2.634-2.569-1.454 0-2.633 1.15-2.633 2.569 0 1.418 1.179 2.568 2.633 2.568zm8.011 0c1.455 0 2.634-1.15 2.634-2.568 0-1.419-1.179-2.569-2.634-2.569-1.454 0-2.633 1.15-2.633 2.569 0 1.418 1.179 2.568 2.633 2.568z"/>
            <path fill="url(#e)" d="M23.462 42.735zM5.73 10.234A21.38 21.38 0 0 1 23.812.319 21.38 21.38 0 0 1 41.74 9.991c-4.861-2.549-11.045-4.075-17.778-4.075-6.944 0-13.304 1.623-18.232 4.318z"/>
            <path fill="url(#f)" d="M23.462 42.735zM5.73 10.234A21.38 21.38 0 0 1 23.812.319 21.38 21.38 0 0 1 41.74 9.991c-4.861-2.549-11.045-4.075-17.778-4.075-6.944 0-13.304 1.623-18.232 4.318z" transform="matrix(1 0 0 -1 0 43.057)"/>
        </g>
    </g>
</svg>
