<svg xmlns="http://www.w3.org/2000/svg" width="48" height="43" viewBox="0 0 48 43">
    <defs>
        <linearGradient id="a" x1="32.197%" x2="89.656%" y1="81.075%" y2="81.075%">
            <stop offset="0%" stop-color="#FFF"/>
            <stop offset="100%" stop-color="#8F77E1"/>
        </linearGradient>
        <linearGradient id="b" x1="50%" x2="50%" y1="30.503%" y2="124.067%">
            <stop offset="0%" stop-color="#060639"/>
            <stop offset="100%" stop-color="#291B78"/>
        </linearGradient>
        <linearGradient id="c" x1="124.661%" x2="19.359%" y1="52.544%" y2="52.544%">
            <stop offset="0%" stop-color="#3C2E7C"/>
            <stop offset="100%" stop-color="#0C0C60"/>
        </linearGradient>
        <linearGradient id="d" x1="50%" x2="50%" y1="0%" y2="100%">
            <stop offset="0%" stop-color="#02DAC9"/>
            <stop offset="100%" stop-color="#1AEBA8"/>
        </linearGradient>
        <linearGradient id="e" x1="34.951%" x2="60.24%" y1="-4.351%" y2="25.128%">
            <stop offset="0%" stop-color="#C6B7FF"/>
            <stop offset="100%" stop-color="#FFF"/>
        </linearGradient>
        <linearGradient id="f" x1="18.72%" x2="52.514%" y1="19.057%" y2="7.236%">
            <stop offset="0%" stop-color="#B9ACEE"/>
            <stop offset="100%" stop-color="#FFF"/>
        </linearGradient>
    </defs>
    <g fill="none" fill-rule="evenodd">
        <path fill="url(#a)" d="M40.92 17.883h5.458c.558 0 1.041.389 1.16.934l1.413 6.482-10.605.002 1.414-6.483a1.187 1.187 0 0 1 1.16-.935z" transform="rotate(89 43.648 21.592)"/>
        <path fill="url(#a)" d="M1.165 17.883h5.458c.559 0 1.042.389 1.16.934L9.197 25.3l-10.605.002 1.414-6.483a1.187 1.187 0 0 1 1.16-.935z" transform="scale(-1 1) rotate(89 0 17.63)"/>
        <ellipse cx="23.688" cy="21.542" fill="url(#b)" rx="21.361" ry="21.209"/>
        <path fill="url(#c)" d="M23.591 42.358zM6.127 10.022C9.852 4.095 16.436.158 23.936.158c7.398 0 13.904 3.83 17.655 9.622-4.788-2.536-10.878-4.054-17.509-4.054-6.838 0-13.102 1.615-17.955 4.296z" transform="rotate(90 23.859 21.26)"/>
        <path fill="url(#c)" d="M23.591 42.358zM6.127 10.022C9.852 4.095 16.436.158 23.936.158c7.398 0 13.904 3.83 17.655 9.622-4.788-2.536-10.878-4.054-17.509-4.054-6.838 0-13.102 1.615-17.955 4.296z" transform="matrix(0 1 1 0 2.6 -2.6)"/>
        <path fill="url(#d)" d="M17.906 17.044h13.61a3.73 3.73 0 0 1 3.729 3.73v4.611a3.73 3.73 0 0 1-3.73 3.73H21.089v13.113l-8.12-3.237V20.773a3.73 3.73 0 0 1 3.182-3.69v-3.76a2.088 2.088 0 0 1-1.317-1.926c0-1.153.958-2.087 2.14-2.087 1.182 0 2.14.934 2.14 2.087 0 .826-.493 1.54-1.207 1.878v3.769zm3.182 8.639c1.455 0 2.634-1.15 2.634-2.568 0-1.419-1.179-2.569-2.634-2.569-1.454 0-2.633 1.15-2.633 2.569 0 1.418 1.179 2.568 2.633 2.568zm8.011 0c1.455 0 2.634-1.15 2.634-2.568 0-1.419-1.179-2.569-2.634-2.569-1.454 0-2.633 1.15-2.633 2.569 0 1.418 1.179 2.568 2.633 2.568z"/>
        <path fill="url(#e)" d="M23.462 42.735zM5.73 10.234A21.38 21.38 0 0 1 23.812.319 21.38 21.38 0 0 1 41.74 9.991c-4.861-2.549-11.045-4.075-17.778-4.075-6.944 0-13.304 1.623-18.232 4.318z"/>
        <path fill="url(#f)" d="M23.462 42.735zM5.73 10.234A21.38 21.38 0 0 1 23.812.319 21.38 21.38 0 0 1 41.74 9.991c-4.861-2.549-11.045-4.075-17.778-4.075-6.944 0-13.304 1.623-18.232 4.318z" transform="matrix(1 0 0 -1 0 43.057)"/>
    </g>
</svg>
