<svg xmlns="http://www.w3.org/2000/svg" width="234" height="20" viewBox="0 0 234 20">
    <g fill="none" fill-rule="evenodd">
        <g stroke="#FFF" stroke-width="3">
            <path d="M8.088 2.03l-5.18 6.01 5.18 5.868M12.874 2.03l5.18 6.01-5.18 5.868"/>
        </g>
        <text fill="#FFF" font-family="Titillium Web" font-size="19" font-weight="300" letter-spacing=".656" transform="translate(2 -7)">
            <tspan x="24.244" y="22">with</tspan>
        </text>
        <path fill="#ED4141" fill-rule="nonzero" d="M83.73 2.39A4.307 4.307 0 0 0 80.53 1c-.923 0-1.769.291-2.514.866-.375.29-.716.644-1.016 1.058-.3-.414-.64-.768-1.016-1.058A4.03 4.03 0 0 0 73.47 1a4.308 4.308 0 0 0-3.2 1.39C69.45 3.275 69 4.485 69 5.797c0 1.35.504 2.585 1.587 3.888.968 1.166 2.36 2.35 3.972 3.72.55.468 1.175.998 1.822 1.563a.94.94 0 0 0 1.237 0c.648-.565 1.272-1.095 1.823-1.564 1.612-1.37 3.004-2.553 3.972-3.719C84.496 8.382 85 7.147 85 5.797c0-1.312-.45-2.522-1.27-3.407z"/>
        <text fill="#FFF" font-family="Titillium Web" font-size="19" font-weight="300" letter-spacing=".656" transform="translate(2 -7)">
            <tspan x="88.877" y="22">by</tspan>
        </text>
        <g>
            <g stroke="#05E9A8" transform="translate(187.125 1.105)">
                <path fill="#05E9A8" d="M.5.5v12.2h1.1V.5H.5z"/>
                <rect width="1" height="5" x="3.727" y="9.753" rx=".33" transform="rotate(90 4.177 12.253)"/>
            </g>
            <path fill="#05E9A8" fill-rule="nonzero" d="M201.194 1.693c.054-.219.18-.499.458-.49.486-.009.971-.009 1.456 0 .225.009.351.227.405.42 1.204 3.911 2.409 7.814 3.613 11.725.072.262.198.516.19.796.017.184-.217.228-.36.228-.45 0-.89.008-1.34 0-.206-.01-.341-.202-.386-.377a148.242 148.242 0 0 1-1.393-4.707 116.27 116.27 0 0 1-1.502-5.863c-.431 1.803-.566 2.415-1.41 5.373-.387 1.356-.423 1.435-.71 2.38a350.56 350.56 0 0 1-.873 2.879.458.458 0 0 1-.404.323c-.414.009-.827.009-1.24 0-.136 0-.333-.078-.315-.236.009-.254.116-.49.188-.735 1.214-3.902 2.427-7.805 3.623-11.716z"/>
            <path stroke="#05E9A8" stroke-linecap="square" stroke-width="1.9" d="M201.074 9.404h3"/>
            <g stroke="#05E9A8" stroke-width="1.8">
                <path d="M212.56 7.331h4.06a2.939 2.939 0 0 1 2.94 2.94c0 .071-.002.143-.006.215a3 3 0 0 1-2.996 2.845h-3.999v-6zM212.52 2.071h4.018a2.495 2.495 0 0 1 2.495 2.496 2.6 2.6 0 0 1-2.6 2.6h-3.912V2.07z"/>
            </g>
            <g stroke="#05E9A8">
                <path stroke-width="1.9" d="M232.077 4.619c.235-1.807-.825-2.71-3.182-2.71s-3.482.903-3.375 2.71c.011.797.42 1.46 1.225 1.99.804.531 2.142 1.073 4.014 1.628.865.32 1.33 1.059 1.392 2.218.095 1.74-.728 2.5-1.392 2.733-.665.233-3.664.516-4.541-.373-.585-.592-.862-1.44-.832-2.542"/>
                <path d="M232.083 4.665h.97l-.5-.516-.021.68a.17.17 0 0 1 .17-.164h-.62zm0 0h-.619a.17.17 0 0 1 .17.17v.006l.024-.658-.5.482h.925zM225.382 10.414h.97l-.5.515-.021-.68a.17.17 0 0 0 .17.165h-.62zm0 0h-.619a.17.17 0 0 0 .17-.17v-.007l.024.658-.5-.481h.925z"/>
            </g>
            <g fill="#FFF" fill-rule="nonzero">
                <path d="M118.384 1.691c1.115-.621 2.445-.656 3.695-.621 1.07.07 2.21.271 3.01 1.015.63.586.819 1.47.765 2.284-.045.306.126.726-.18.936-.467.053-.944.018-1.411.018-.17.017-.35-.08-.369-.263-.054-.481.063-1.006-.188-1.452-.306-.56-.98-.753-1.573-.823-.755-.07-1.555-.061-2.248.263-.503.227-.782.778-.755 1.312v6.913c0 .437.18.892.558 1.155.53.358 1.186.393 1.815.428.639-.035 1.34-.07 1.87-.463.342-.245.503-.657.512-1.06.01-.63 0-1.26 0-1.89-.8-.008-1.6.01-2.4-.008-.206.009-.314-.21-.314-.385-.01-.341-.027-.682.009-1.015.009-.192.207-.297.386-.289h3.874c.19-.017.405.097.405.298.009 1.199 0 2.389.009 3.587 0 .849-.396 1.707-1.133 2.179-1.024.665-2.31.744-3.514.744-1.16-.044-2.436-.193-3.326-.998-.575-.498-.836-1.277-.81-2.012.01-2.573 0-5.136 0-7.7a2.58 2.58 0 0 1 1.313-2.153zM147.004 1.709c.054-.219.18-.499.459-.49.485-.009.97-.009 1.456 0 .225.009.35.227.405.42 1.204 3.911 2.409 7.814 3.613 11.725.072.262.198.516.189.796.018.184-.216.228-.36.228-.45 0-.89.008-1.339 0-.207-.01-.342-.202-.387-.377a148.242 148.242 0 0 1-1.393-4.707 116.27 116.27 0 0 1-1.5-5.863c-.432 1.803-.567 2.415-1.412 5.373-.387 1.356-.423 1.435-.71 2.38a350.56 350.56 0 0 1-.872 2.879.458.458 0 0 1-.405.323c-.413.009-.827.009-1.24 0-.135 0-.333-.078-.315-.236.01-.254.117-.49.189-.735 1.214-3.902 2.427-7.805 3.622-11.716zM130.52 1.656c-.019-.192.08-.455.323-.428 1.5-.01 3.002-.01 4.503 0 1.06.035 2.193.21 3.056.857.62.455.98 1.181 1.016 1.925.018.735 0 1.47.009 2.205 0 .621-.18 1.26-.593 1.741-.423.508-1.052.814-1.681 1.007.79 1.715 1.618 3.412 2.373 5.145-.027.052-.072.157-.099.21-.35.166-.746.07-1.124.096-.278-.018-.674.087-.809-.228a495.93 495.93 0 0 1-2.283-4.952c-.89-.009-1.78 0-2.67 0 0 1.619.01 3.237 0 4.865.019.184-.161.324-.341.315-.44 0-.89.009-1.33 0-.225.017-.35-.21-.333-.403-.027-4.13-.018-8.242-.018-12.355zm2.013 1.26V7.52c.854-.009 1.698.009 2.552-.009.72-.044 1.546-.131 2.023-.717.404-.517.27-1.208.296-1.812.018-.507-.008-1.076-.395-1.452-.485-.481-1.222-.578-1.888-.604-.863-.017-1.725-.009-2.588-.009zM157.35 1.324c.108-.123.297-.096.45-.105.422.009.854-.018 1.276.017.198.027.252.254.243.42v5.425h.369c1.348-1.811 2.705-3.613 4.054-5.425.161-.192.341-.42.62-.428.45-.01.908 0 1.366 0 .126-.018.252.017.324.13.027.167-.09.316-.171.456-1.483 1.969-2.948 3.937-4.432 5.897 1.358 1.672 2.706 3.343 4.063 5.014.36.49.827.919 1.106 1.461-.08.088-.135.245-.288.219-.53.009-1.07 0-1.6.009-.233.017-.422-.131-.548-.298-1.492-1.846-2.975-3.692-4.467-5.53h-.387v5.434c.018.166-.09.368-.279.385-.467.018-.934.009-1.402.009-.225.017-.377-.193-.36-.394V1.936c0-.218-.035-.428.064-.612zM170.699 1.569c-.018-.175.126-.368.314-.341.45 0 .9-.018 1.34.008.153.009.207.158.278.263a4913.06 4913.06 0 0 0 4.072 6.965c.378.674.818 1.321 1.106 2.047-.018-2.975-.009-5.958-.009-8.933.009-.5.62-.333.953-.36.314.045.872-.157.953.28.009 4.192.009 8.383 0 12.575-.018.437-.567.315-.863.332-.333-.044-.8.131-1.016-.201-1.393-2.38-2.778-4.769-4.162-7.149-.36-.647-.782-1.26-1.052-1.951.018 2.966 0 5.932.01 8.89.035.192-.117.411-.333.394-.414.008-.836.008-1.25 0-.215.008-.36-.202-.332-.394-.01-4.139-.018-8.286-.01-12.425z"/>
            </g>
        </g>
    </g>
</svg>
