<svg xmlns="http://www.w3.org/2000/svg" xmlns:xlink="http://www.w3.org/1999/xlink" width="457" height="259" viewBox="0 0 457 259">
    <defs>
        <radialGradient id="a" cx="51.091%" r="90.148%" fx="51.091%" fy="50%" gradientTransform="matrix(.55914 0 0 .66986 .225 .165)">
            <stop offset="0%" stop-color="#0F247C"/>
            <stop offset="75.544%" stop-color="#0B0742"/>
            <stop offset="100%" stop-color="#0B0743" stop-opacity="0"/>
        </radialGradient>
        <linearGradient id="b" x1="50%" x2="50%" y1="0%" y2="100%">
            <stop offset="0%" stop-color="#122680"/>
            <stop offset="100%" stop-color="#0B0743"/>
        </linearGradient>
        <linearGradient id="f" x1="98.554%" x2="1.446%" y1="48.554%" y2="48.554%">
            <stop offset="0%" stop-color="#141B61"/>
            <stop offset="100%" stop-color="#21308C"/>
        </linearGradient>
        <linearGradient id="e" x1="36.987%" x2="98.74%" y1="50%" y2="50%">
            <stop offset="0%" stop-color="#151D6B"/>
            <stop offset="100%" stop-color="#131D6A"/>
        </linearGradient>
        <ellipse id="d" cx="303.792" cy="86.641" rx="24.487" ry="14.694"/>
        <filter id="c" width="112.9%" height="128.3%" x="-6.5%" y="-10.8%" filterUnits="objectBoundingBox">
            <feMorphology in="SourceAlpha" operator="dilate" radius="2.16" result="shadowSpreadOuter1"/>
            <feOffset dy="2" in="shadowSpreadOuter1" result="shadowOffsetOuter1"/>
            <feComposite in="shadowOffsetOuter1" in2="SourceAlpha" operator="out" result="shadowOffsetOuter1"/>
            <feColorMatrix in="shadowOffsetOuter1" values="0 0 0 0 0.0414025262 0 0 0 0 0.0575527251 0 0 0 0 0.33701399 0 0 0 1 0"/>
        </filter>
        <linearGradient id="j" x1="98.554%" x2="1.446%" y1="48.554%" y2="48.554%">
            <stop offset="0%" stop-color="#141B61"/>
            <stop offset="100%" stop-color="#172471"/>
        </linearGradient>
        <linearGradient id="i" x1="36.987%" x2="98.74%" y1="50%" y2="50%">
            <stop offset="0%" stop-color="#121D6A"/>
            <stop offset="100%" stop-color="#141D6B"/>
        </linearGradient>
        <ellipse id="h" cx="106.154" cy="81.099" rx="38.086" ry="21.763"/>
        <filter id="g" width="113.5%" height="128.3%" x="-6.8%" y="-11.9%" filterUnits="objectBoundingBox">
            <feMorphology in="SourceAlpha" operator="dilate" radius="4.16" result="shadowSpreadOuter1"/>
            <feOffset dy="2" in="shadowSpreadOuter1" result="shadowOffsetOuter1"/>
            <feComposite in="shadowOffsetOuter1" in2="SourceAlpha" operator="out" result="shadowOffsetOuter1"/>
            <feColorMatrix in="shadowOffsetOuter1" values="0 0 0 0 0.04081351 0 0 0 0 0.0582779001 0 0 0 0 0.336616848 0 0 0 1 0"/>
        </filter>
        <linearGradient id="k" x1="50%" x2="50%" y1="0%" y2="100%">
            <stop offset="0%" stop-color="#7457FF"/>
            <stop offset="100%" stop-color="#7049F6"/>
        </linearGradient>
        <linearGradient id="l" x1="50%" x2="50%" y1="0%" y2="100%">
            <stop offset="0%" stop-color="#6E59FD"/>
            <stop offset="100%" stop-color="#7049F6"/>
        </linearGradient>
        <path id="m" d="M22.451 5.715h3.418v10.258h-3.418z"/>
        <filter id="n" width="129.3%" height="109.7%" x="-14.6%" y="-4.9%" filterUnits="objectBoundingBox">
            <feOffset dx="1" in="SourceAlpha" result="shadowOffsetInner1"/>
            <feComposite in="shadowOffsetInner1" in2="SourceAlpha" k2="-1" k3="1" operator="arithmetic" result="shadowInnerInner1"/>
            <feColorMatrix in="shadowInnerInner1" values="0 0 0 0 0.110938909 0 0 0 0 0.0634287376 0 0 0 0 0.366762908 0 0 0 1 0"/>
        </filter>
        <ellipse id="o" cx="24.16" cy="3.285" rx="3.283" ry="3.285"/>
        <filter id="p" width="130.5%" height="130.4%" x="-15.2%" y="-15.2%" filterUnits="objectBoundingBox">
            <feOffset dx="2" in="SourceAlpha" result="shadowOffsetInner1"/>
            <feComposite in="shadowOffsetInner1" in2="SourceAlpha" k2="-1" k3="1" operator="arithmetic" result="shadowInnerInner1"/>
            <feColorMatrix in="shadowInnerInner1" values="0 0 0 0 0.558682756 0 0 0 0 0.185409023 0 0 0 0 0.655457428 0 0 0 1 0"/>
        </filter>
        <linearGradient id="q" x1="50%" x2="50%" y1="0%" y2="98.857%">
            <stop offset="0%" stop-color="#8565FF"/>
            <stop offset="100%" stop-color="#6D52FF"/>
        </linearGradient>
        <path id="r" d="M13.434 15.974h22.71a2 2 0 0 1 2 2V38.77h-26.71V17.974a2 2 0 0 1 2-2z"/>
        <filter id="s" width="126.2%" height="130.7%" x="-13.1%" y="-15.4%" filterUnits="objectBoundingBox">
            <feOffset dx="7" dy="1" in="SourceAlpha" result="shadowOffsetInner1"/>
            <feComposite in="shadowOffsetInner1" in2="SourceAlpha" k2="-1" k3="1" operator="arithmetic" result="shadowInnerInner1"/>
            <feColorMatrix in="shadowInnerInner1" values="0 0 0 0 0.374456653 0 0 0 0 0.256707317 0 0 0 0 1 0 0 0 1 0"/>
        </filter>
        <rect id="u" width="6.925" height="2.968" x="16.131" y="28.847" rx="1.484"/>
        <filter id="t" width="273.3%" height="504.3%" x="-86.6%" y="-202.2%" filterUnits="objectBoundingBox">
            <feOffset in="SourceAlpha" result="shadowOffsetOuter1"/>
            <feGaussianBlur in="shadowOffsetOuter1" result="shadowBlurOuter1" stdDeviation="2"/>
            <feColorMatrix in="shadowBlurOuter1" values="0 0 0 0 0.149019608 0 0 0 0 0.949019608 0 0 0 0 0.709803922 0 0 0 1 0"/>
        </filter>
        <rect id="w" width="6.925" height="2.968" x="26.023" y="28.847" rx="1.484"/>
        <filter id="v" width="273.3%" height="504.3%" x="-86.6%" y="-202.2%" filterUnits="objectBoundingBox">
            <feOffset in="SourceAlpha" result="shadowOffsetOuter1"/>
            <feGaussianBlur in="shadowOffsetOuter1" result="shadowBlurOuter1" stdDeviation="2"/>
            <feColorMatrix in="shadowBlurOuter1" values="0 0 0 0 0.149019608 0 0 0 0 0.949019608 0 0 0 0 0.709803922 0 0 0 1 0"/>
        </filter>
        <rect id="y" width="16.817" height="2.968" x="16.131" y="22.912" rx="1.484"/>
        <filter id="x" width="171.4%" height="504.3%" x="-35.7%" y="-202.2%" filterUnits="objectBoundingBox">
            <feOffset in="SourceAlpha" result="shadowOffsetOuter1"/>
            <feGaussianBlur in="shadowOffsetOuter1" result="shadowBlurOuter1" stdDeviation="2"/>
            <feColorMatrix in="shadowBlurOuter1" values="0 0 0 0 0.149019608 0 0 0 0 0.949019608 0 0 0 0 0.709803922 0 0 0 1 0"/>
        </filter>
        <path id="z" d="M46.495 49.066c-.2-5.94-5.073-10.651-11.016-10.651H11.194C3.155 39.711 2.407 44.441.631 48.686l45.864.38z"/>
        <filter id="A" width="124%" height="203.3%" x="-12%" y="-51.6%" filterUnits="objectBoundingBox">
            <feOffset dx="11" in="SourceAlpha" result="shadowOffsetInner1"/>
            <feComposite in="shadowOffsetInner1" in2="SourceAlpha" k2="-1" k3="1" operator="arithmetic" result="shadowInnerInner1"/>
            <feColorMatrix in="shadowInnerInner1" values="0 0 0 0 0.134411258 0 0 0 0 0.0940463716 0 0 0 0 0.351760643 0 0 0 1 0"/>
        </filter>
        <linearGradient id="B" x1="66.873%" x2="26.446%" y1="68.163%" y2="24.449%">
            <stop offset="0%" stop-color="#5140FF"/>
            <stop offset="100%" stop-color="#6F96FF"/>
        </linearGradient>
        <linearGradient id="D" x1="50%" x2="50%" y1="99.045%" y2="0%">
            <stop offset="0%" stop-color="#866CFF"/>
            <stop offset="100%" stop-color="#AEA0FF"/>
        </linearGradient>
        <path id="C" d="M17.713.036c.039-.008.077-.016.116-.022v.051c2.985.828 6.98 6.99 11.985 18.487 7.758 17.82 5.522 39.615 4.205 46.18-.728 3.63-2.24 7.95-4.535 12.96a5.45 5.45 0 0 1-4.954 3.18h-6.701v.014h-6.997a5.45 5.45 0 0 1-4.954-3.18c-2.296-5.01-3.807-9.33-4.535-12.96-1.317-6.564-3.553-28.36 4.205-46.18C10.553 7.07 14.548.907 17.533.08V0c.06.01.12.022.18.036z"/>
        <filter id="E" width="125.5%" height="111.1%" x="-12.7%" y="-5.6%" filterUnits="objectBoundingBox">
            <feOffset dx="9" in="SourceAlpha" result="shadowOffsetInner1"/>
            <feComposite in="shadowOffsetInner1" in2="SourceAlpha" k2="-1" k3="1" operator="arithmetic" result="shadowInnerInner1"/>
            <feColorMatrix in="shadowInnerInner1" values="0 0 0 0 0.47885892 0 0 0 0 0.378639482 0 0 0 0 1 0 0 0 0.526496941 0"/>
        </filter>
        <linearGradient id="G" x1="50%" x2="50%" y1="100%" y2="34.637%">
            <stop offset="0%" stop-color="#A138A7"/>
            <stop offset="100%" stop-color="#C573FD"/>
        </linearGradient>
        <linearGradient id="H" x1="50%" x2="50%" y1="0%" y2="100%">
            <stop offset="0%" stop-color="#FFE433"/>
            <stop offset="100%" stop-color="#FF51EE"/>
        </linearGradient>
        <linearGradient id="I" x1="50%" x2="50%" y1="0%" y2="100%">
            <stop offset="0%" stop-color="#B23CD1"/>
            <stop offset="100%" stop-color="#B93DD9"/>
        </linearGradient>
        <ellipse id="K" cx="25.739" cy="28.023" rx="5.755" ry="5.724"/>
        <filter id="J" width="230.3%" height="231%" x="-65.2%" y="-65.5%" filterUnits="objectBoundingBox">
            <feOffset in="SourceAlpha" result="shadowOffsetOuter1"/>
            <feGaussianBlur in="shadowOffsetOuter1" result="shadowBlurOuter1" stdDeviation="2.5"/>
            <feColorMatrix in="shadowBlurOuter1" values="0 0 0 0 0.149019608 0 0 0 0 0.949019608 0 0 0 0 0.709803922 0 0 0 1 0"/>
        </filter>
        <linearGradient id="L" x1="50%" x2="50%" y1="0%" y2="100%">
            <stop offset="0%" stop-color="#B33BD2"/>
            <stop offset="100%" stop-color="#C862E2"/>
        </linearGradient>
        <path id="M" d="M9.45 50.46c-1.894.652-13.594 21.612-7.902 37.256.791 2.177 2.565 1.905 4.26 1.011 1.943-1.026 5.496-4.839 10.656-11.438-3.692-9.813-5.4-18.36-5.12-25.643 0-1.226-.631-1.622-1.894-1.187z"/>
        <filter id="N" width="124.3%" height="110.2%" x="-12.1%" y="-5.1%" filterUnits="objectBoundingBox">
            <feOffset dx="4" in="SourceAlpha" result="shadowOffsetInner1"/>
            <feComposite in="shadowOffsetInner1" in2="SourceAlpha" k2="-1" k3="1" operator="arithmetic" result="shadowInnerInner1"/>
            <feColorMatrix in="shadowInnerInner1" values="0 0 0 0 0 0 0 0 0 0 0 0 0 0 0 0 0 0 0.157998252 0"/>
        </filter>
        <linearGradient id="O" x1="50%" x2="50%" y1="0%" y2="100%">
            <stop offset="0%" stop-color="#B335D4"/>
            <stop offset="100%" stop-color="#B050C9"/>
        </linearGradient>
        <path id="P" d="M44.517 50.46c-1.894.652-13.595 21.612-7.903 37.256.792 2.177 2.566 1.905 4.26 1.011 1.944-1.026 5.496-4.839 10.657-11.438-3.693-9.813-5.4-18.36-5.12-25.643 0-1.226-.632-1.622-1.894-1.187z"/>
        <filter id="Q" width="124.3%" height="110.2%" x="-12.1%" y="-5.1%" filterUnits="objectBoundingBox">
            <feOffset dx="4" in="SourceAlpha" result="shadowOffsetInner1"/>
            <feComposite in="shadowOffsetInner1" in2="SourceAlpha" k2="-1" k3="1" operator="arithmetic" result="shadowInnerInner1"/>
            <feColorMatrix in="shadowInnerInner1" values="0 0 0 0 1 0 0 0 0 1 0 0 0 0 1 0 0 0 0.21170236 0"/>
        </filter>
        <linearGradient id="R" x1="50%" x2="48.592%" y1="107.258%" y2="42.933%">
            <stop offset="0%" stop-color="#FFF"/>
            <stop offset="100%" stop-color="#2B0A3D" stop-opacity="0"/>
        </linearGradient>
        <linearGradient id="S" x1="49.997%" x2="48.775%" y1="107.076%" y2="30.618%">
            <stop offset="0%" stop-color="#FFF"/>
            <stop offset="100%" stop-color="#340D40" stop-opacity="0"/>
        </linearGradient>
        <linearGradient id="T" x1="50%" x2="48.709%" y1="107.258%" y2="53.924%">
            <stop offset="0%" stop-color="#CE79F5"/>
            <stop offset="100%" stop-color="#2B0A3D" stop-opacity="0"/>
        </linearGradient>
        <linearGradient id="U" x1="86.615%" x2="24.458%" y1="21.032%" y2="100%">
            <stop offset="0%" stop-color="#045A9D"/>
            <stop offset="100%" stop-color="#002D64"/>
        </linearGradient>
        <ellipse id="V" cx="29.192" cy="28.956" rx="16.02" ry="16.482"/>
        <filter id="W" width="121.8%" height="121.2%" x="-10.9%" y="-10.6%" filterUnits="objectBoundingBox">
            <feOffset dx="-6" dy="-7" in="SourceAlpha" result="shadowOffsetInner1"/>
            <feComposite in="shadowOffsetInner1" in2="SourceAlpha" k2="-1" k3="1" operator="arithmetic" result="shadowInnerInner1"/>
            <feColorMatrix in="shadowInnerInner1" values="0 0 0 0 0 0 0 0 0 0 0 0 0 0 0 0 0 0 0.099104021 0"/>
        </filter>
        <linearGradient id="aa" x1="50%" x2="50%" y1="0%" y2="100%">
            <stop offset="0%" stop-color="#003058"/>
            <stop offset="100%" stop-color="#005BAA"/>
        </linearGradient>
        <linearGradient id="Z" x1="36.987%" x2="99.142%" y1="50%" y2="50%">
            <stop offset="0%" stop-color="#035091"/>
            <stop offset="100%" stop-color="#0F68B8"/>
        </linearGradient>
        <ellipse id="Y" cx="38.634" cy="20.418" rx="3.478" ry="2.089"/>
        <filter id="X" width="143.1%" height="219.7%" x="-21.6%" y="-35.9%" filterUnits="objectBoundingBox">
            <feMorphology in="SourceAlpha" operator="dilate" radius=".5" result="shadowSpreadOuter1"/>
            <feOffset dy="2" in="shadowSpreadOuter1" result="shadowOffsetOuter1"/>
            <feComposite in="shadowOffsetOuter1" in2="SourceAlpha" operator="out" result="shadowOffsetOuter1"/>
            <feColorMatrix in="shadowOffsetOuter1" values="0 0 0 0 0.0518902986 0 0 0 0 0.255176178 0 0 0 0 0.428243886 0 0 0 1 0"/>
        </filter>
        <linearGradient id="ae" x1="50%" x2="50%" y1="0%" y2="100%">
            <stop offset="0%" stop-color="#003058"/>
            <stop offset="100%" stop-color="#005BAA"/>
        </linearGradient>
        <linearGradient id="ad" x1="36.987%" x2="99.142%" y1="50%" y2="50%">
            <stop offset="0%" stop-color="#035091"/>
            <stop offset="100%" stop-color="#0F68B8"/>
        </linearGradient>
        <ellipse id="ac" cx="38.244" cy="36.878" rx="2.99" ry="1.785"/>
        <filter id="ab" width="150.2%" height="240.1%" x="-25.1%" y="-42%" filterUnits="objectBoundingBox">
            <feMorphology in="SourceAlpha" operator="dilate" radius=".5" result="shadowSpreadOuter1"/>
            <feOffset dy="2" in="shadowSpreadOuter1" result="shadowOffsetOuter1"/>
            <feComposite in="shadowOffsetOuter1" in2="SourceAlpha" operator="out" result="shadowOffsetOuter1"/>
            <feColorMatrix in="shadowOffsetOuter1" values="0 0 0 0 0.0101391973 0 0 0 0 0.21724718 0 0 0 0 0.393568841 0 0 0 1 0"/>
        </filter>
        <linearGradient id="ai" x1="35.915%" x2="50%" y1="91.78%" y2="21.483%">
            <stop offset="0%" stop-color="#003561"/>
            <stop offset="100%" stop-color="#014B8C"/>
        </linearGradient>
        <linearGradient id="ah" x1="36.987%" x2="98.871%" y1="50%" y2="50%">
            <stop offset="0%" stop-color="#024582"/>
            <stop offset="100%" stop-color="#034886"/>
        </linearGradient>
        <ellipse id="ag" cx="17.769" cy="27.944" rx="1.494" ry="1.373"/>
        <filter id="af" width="200.4%" height="282.1%" x="-50.2%" y="-127.4%" filterUnits="objectBoundingBox">
            <feMorphology in="SourceAlpha" operator="dilate" radius=".5" result="shadowSpreadOuter1"/>
            <feOffset dy="-2" in="shadowSpreadOuter1" result="shadowOffsetOuter1"/>
            <feComposite in="shadowOffsetOuter1" in2="SourceAlpha" operator="out" result="shadowOffsetOuter1"/>
            <feColorMatrix in="shadowOffsetOuter1" values="0 0 0 0 0.0101391973 0 0 0 0 0.21724718 0 0 0 0 0.393568841 0 0 0 1 0"/>
        </filter>
        <linearGradient id="al" x1="27.247%" x2="27.247%" y1="100%" y2="0%">
            <stop offset="0%" stop-color="#003561"/>
            <stop offset="100%" stop-color="#014B8C"/>
        </linearGradient>
        <ellipse id="ak" cx="28.167" cy="24.35" rx="1.494" ry="1.373"/>
        <filter id="aj" width="200.4%" height="282.1%" x="-50.2%" y="-127.4%" filterUnits="objectBoundingBox">
            <feMorphology in="SourceAlpha" operator="dilate" radius=".5" result="shadowSpreadOuter1"/>
            <feOffset dy="-2" in="shadowSpreadOuter1" result="shadowOffsetOuter1"/>
            <feComposite in="shadowOffsetOuter1" in2="SourceAlpha" operator="out" result="shadowOffsetOuter1"/>
            <feColorMatrix in="shadowOffsetOuter1" values="0 0 0 0 0.0101391973 0 0 0 0 0.21724718 0 0 0 0 0.393568841 0 0 0 1 0"/>
        </filter>
        <linearGradient id="ap" x1="50%" x2="50%" y1="100%" y2="0%">
            <stop offset="0%" stop-color="#003058"/>
            <stop offset="100%" stop-color="#005BAA"/>
        </linearGradient>
        <linearGradient id="ao" x1="36.987%" x2="99.142%" y1="50%" y2="50%">
            <stop offset="0%" stop-color="#035091"/>
            <stop offset="100%" stop-color="#0F68B8"/>
        </linearGradient>
        <ellipse id="an" cx="23.377" cy="37.785" rx="2.757" ry="1.785"/>
        <filter id="am" width="154.4%" height="240%" x="-27.2%" y="-42%" filterUnits="objectBoundingBox">
            <feMorphology in="SourceAlpha" operator="dilate" radius=".5" result="shadowSpreadOuter1"/>
            <feOffset dy="2" in="shadowSpreadOuter1" result="shadowOffsetOuter1"/>
            <feComposite in="shadowOffsetOuter1" in2="SourceAlpha" operator="out" result="shadowOffsetOuter1"/>
            <feColorMatrix in="shadowOffsetOuter1" values="0 0 0 0 0.0101391973 0 0 0 0 0.21724718 0 0 0 0 0.393568841 0 0 0 1 0"/>
        </filter>
        <linearGradient id="at" x1="50%" x2="50%" y1="0%" y2="100%">
            <stop offset="0%" stop-color="#003058"/>
            <stop offset="100%" stop-color="#005BAA"/>
        </linearGradient>
        <linearGradient id="as" x1="36.987%" x2="99.142%" y1="50%" y2="50%">
            <stop offset="0%" stop-color="#035091"/>
            <stop offset="100%" stop-color="#0F68B8"/>
        </linearGradient>
        <ellipse id="ar" cx="18.535" cy="18.415" rx="2.386" ry="1.193"/>
        <filter id="aq" width="162.9%" height="309.5%" x="-31.4%" y="-62.9%" filterUnits="objectBoundingBox">
            <feMorphology in="SourceAlpha" operator="dilate" radius=".5" result="shadowSpreadOuter1"/>
            <feOffset dy="2" in="shadowSpreadOuter1" result="shadowOffsetOuter1"/>
            <feComposite in="shadowOffsetOuter1" in2="SourceAlpha" operator="out" result="shadowOffsetOuter1"/>
            <feColorMatrix in="shadowOffsetOuter1" values="0 0 0 0 0.0101391973 0 0 0 0 0.21724718 0 0 0 0 0.393568841 0 0 0 1 0"/>
        </filter>
        <linearGradient id="au" x1="23.287%" x2="90.694%" y1="100%" y2="22.332%">
            <stop offset="0%" stop-color="#250040"/>
            <stop offset="100%" stop-color="#631450"/>
        </linearGradient>
        <ellipse id="av" cx="34.354" cy="34.227" rx="18.531" ry="18.643"/>
        <filter id="aw" width="129.7%" height="129.5%" x="-14.8%" y="-14.8%" filterUnits="objectBoundingBox">
            <feOffset dx="5" dy="-11" in="SourceAlpha" result="shadowOffsetInner1"/>
            <feComposite in="shadowOffsetInner1" in2="SourceAlpha" k2="-1" k3="1" operator="arithmetic" result="shadowInnerInner1"/>
            <feColorMatrix in="shadowInnerInner1" values="0 0 0 0 0 0 0 0 0 0 0 0 0 0 0 0 0 0 0.198918269 0"/>
        </filter>
        <linearGradient id="aA" x1="50%" x2="50%" y1="0%" y2="100%">
            <stop offset="0%" stop-color="#420A3C"/>
            <stop offset="97.107%" stop-color="#580B55"/>
        </linearGradient>
        <linearGradient id="az" x1="82.562%" x2="0%" y1="54.015%" y2="50%">
            <stop offset="0%" stop-color="#6A1B64"/>
            <stop offset="100%" stop-color="#5C1550"/>
        </linearGradient>
        <ellipse id="ay" cx="43.569" cy="23.392" rx="3.918" ry="2.352"/>
        <filter id="ax" width="131.8%" height="174.3%" x="-15.9%" y="-26.5%" filterUnits="objectBoundingBox">
            <feMorphology in="SourceAlpha" operator="dilate" radius=".746" result="shadowSpreadOuter1"/>
            <feOffset dy="1" in="shadowSpreadOuter1" result="shadowOffsetOuter1"/>
            <feComposite in="shadowOffsetOuter1" in2="SourceAlpha" operator="out" result="shadowOffsetOuter1"/>
            <feColorMatrix in="shadowOffsetOuter1" values="0 0 0 0 0.225685009 0 0 0 0 0.0282708317 0 0 0 0 0.216573585 0 0 0 1 0"/>
        </filter>
        <linearGradient id="aE" x1="50%" x2="50%" y1="0%" y2="97.107%">
            <stop offset="0%" stop-color="#420A3C"/>
            <stop offset="100%" stop-color="#580B55"/>
        </linearGradient>
        <linearGradient id="aD" x1="36.987%" x2="98.74%" y1="50%" y2="50%">
            <stop offset="0%" stop-color="#6A1B64"/>
            <stop offset="100%" stop-color="#5C1550"/>
        </linearGradient>
        <ellipse id="aC" cx="45.923" cy="41.951" rx="3.364" ry="2.012"/>
        <filter id="aB" width="137.1%" height="186.8%" x="-18.5%" y="-31%" filterUnits="objectBoundingBox">
            <feMorphology in="SourceAlpha" operator="dilate" radius=".746" result="shadowSpreadOuter1"/>
            <feOffset dy="1" in="shadowSpreadOuter1" result="shadowOffsetOuter1"/>
            <feComposite in="shadowOffsetOuter1" in2="SourceAlpha" operator="out" result="shadowOffsetOuter1"/>
            <feColorMatrix in="shadowOffsetOuter1" values="0 0 0 0 0.225685009 0 0 0 0 0.0282708317 0 0 0 0 0.216573585 0 0 0 1 0"/>
        </filter>
        <linearGradient id="aI" x1="50%" x2="50%" y1="97.107%" y2="0%">
            <stop offset="0%" stop-color="#390333"/>
            <stop offset="100%" stop-color="#570755"/>
        </linearGradient>
        <linearGradient id="aH" x1="36.987%" x2="98.74%" y1="50%" y2="50%">
            <stop offset="0%" stop-color="#500F4B"/>
            <stop offset="100%" stop-color="#580E59"/>
        </linearGradient>
        <ellipse id="aG" cx="33.887" cy="32.511" rx="1.681" ry="1.554"/>
        <filter id="aF" width="174.1%" height="212.4%" x="-37.1%" y="-72.3%" filterUnits="objectBoundingBox">
            <feMorphology in="SourceAlpha" operator="dilate" radius=".746" result="shadowSpreadOuter1"/>
            <feOffset dy="-1" in="shadowSpreadOuter1" result="shadowOffsetOuter1"/>
            <feComposite in="shadowOffsetOuter1" in2="SourceAlpha" operator="out" result="shadowOffsetOuter1"/>
            <feColorMatrix in="shadowOffsetOuter1" values="0 0 0 0 0.225685009 0 0 0 0 0.0282708317 0 0 0 0 0.216573585 0 0 0 1 0"/>
        </filter>
        <linearGradient id="aM" x1="50%" x2="50%" y1="0%" y2="97.107%">
            <stop offset="0%" stop-color="#270623"/>
            <stop offset="98.435%" stop-color="#4C084A"/>
        </linearGradient>
        <linearGradient id="aL" x1="36.987%" x2="98.74%" y1="50%" y2="50%">
            <stop offset="0%" stop-color="#520A4D"/>
            <stop offset="100%" stop-color="#3F0E37"/>
        </linearGradient>
        <ellipse id="aK" cx="27.085" cy="43.772" rx="3.364" ry="2.013"/>
        <filter id="aJ" width="137.1%" height="186.8%" x="-18.5%" y="-31%" filterUnits="objectBoundingBox">
            <feMorphology in="SourceAlpha" operator="dilate" radius=".746" result="shadowSpreadOuter1"/>
            <feOffset dy="1" in="shadowSpreadOuter1" result="shadowOffsetOuter1"/>
            <feComposite in="shadowOffsetOuter1" in2="SourceAlpha" operator="out" result="shadowOffsetOuter1"/>
            <feColorMatrix in="shadowOffsetOuter1" values="0 0 0 0 0.225685009 0 0 0 0 0.0282708317 0 0 0 0 0.216573585 0 0 0 1 0"/>
        </filter>
        <linearGradient id="aQ" x1="98.554%" x2="1.446%" y1="48.554%" y2="48.554%">
            <stop offset="0%" stop-color="#3B0835"/>
            <stop offset="100%" stop-color="#540952"/>
        </linearGradient>
        <linearGradient id="aP" x1="36.987%" x2="98.74%" y1="50%" y2="50%">
            <stop offset="0%" stop-color="#451052"/>
            <stop offset="100%" stop-color="#56114A"/>
        </linearGradient>
        <ellipse id="aO" cx="21.584" cy="22.469" rx="2.687" ry="1.344"/>
        <filter id="aN" width="146.4%" height="230%" x="-23.2%" y="-46.4%" filterUnits="objectBoundingBox">
            <feMorphology in="SourceAlpha" operator="dilate" radius=".746" result="shadowSpreadOuter1"/>
            <feOffset dy="1" in="shadowSpreadOuter1" result="shadowOffsetOuter1"/>
            <feComposite in="shadowOffsetOuter1" in2="SourceAlpha" operator="out" result="shadowOffsetOuter1"/>
            <feColorMatrix in="shadowOffsetOuter1" values="0 0 0 0 0.225685009 0 0 0 0 0.0282708317 0 0 0 0 0.216573585 0 0 0 1 0"/>
        </filter>
        <linearGradient id="aR" x1="50%" x2="50%" y1="15.809%" y2="100%">
            <stop offset="0%" stop-color="#110B37" stop-opacity="0"/>
            <stop offset="100%" stop-color="#561A74"/>
        </linearGradient>
    </defs>
    <g fill="none" fill-rule="evenodd">
        <path fill="url(#a)" d="M0 0h460v257.204H0z" transform="matrix(-1 0 0 1 460 0)"/>
        <g transform="translate(18.656 33.09)">
            <path fill="url(#b)" d="M358.788 134.865C336.404 56.982 264.63 0 179.548 0 94.238 0 22.31 57.287.13 135.49" transform="translate(0 89.654)"/>
            <g transform="rotate(42 187.014 131.468)">
                <use fill="#000" filter="url(#c)" xlink:href="#d"/>
                <ellipse cx="303.792" cy="86.641" fill="url(#f)" stroke="url(#e)" stroke-width="2.16" rx="25.567" ry="15.774"/>
            </g>
            <g transform="rotate(-32 262.484 125.926)">
                <use fill="#000" filter="url(#g)" xlink:href="#h"/>
                <ellipse cx="106.154" cy="81.099" fill="url(#j)" stroke="url(#i)" stroke-width="4.16" rx="40.166" ry="23.843"/>
            </g>
            <ellipse cx="266.103" cy="138.73" fill="#100324" fill-opacity=".487" opacity=".6" rx="23.742" ry="4.9"/>
            <g>
                <path stroke="url(#k)" stroke-width="3" d="M25.968 1.978v87.593H1.978V1.978z" transform="translate(251.413 48.911)"/>
                <path stroke="url(#l)" stroke-width="3" d="M23.025 56.695l.16-.201-.16.201.965 1.19-.965-1.19-11.358 14.372L23.99 86.46 11.667 71.067 0 85.831l11.667-14.764L0 56.494l11.667 14.573 11.358-14.372-11.537-14.212 11.651-14.21.045.057-.045-.057.85-1.037-.85 1.037-11.345-14.355L0 28.33l11.794-14.412L23.14 28.273l-11.65 14.21L0 28.33l11.488 14.153L0 56.493l11.488-14.01 11.537 14.212zm-11.23-42.777L.794 0l11 13.918L23.184 0l-11.39 13.918z" transform="translate(253.392 50.89)"/>
                <path fill="#0C0E1A" d="M251.413 48.911h27.7v13.85h-27.7z" opacity=".301"/>
                <g transform="translate(241.074 .385)">
                    <use fill="#34277A" xlink:href="#m"/>
                    <use fill="#000" filter="url(#n)" xlink:href="#m"/>
                </g>
                <g transform="translate(241.074 .385)">
                    <use fill="#C054DC" xlink:href="#o"/>
                    <use fill="#000" filter="url(#p)" xlink:href="#o"/>
                </g>
                <g transform="translate(241.074 .385)">
                    <use fill="url(#q)" xlink:href="#r"/>
                    <use fill="#000" filter="url(#s)" xlink:href="#r"/>
                </g>
                <g transform="translate(241.074 .385)">
                    <use fill="#000" filter="url(#t)" xlink:href="#u"/>
                    <use fill="#26F2B5" xlink:href="#u"/>
                </g>
                <g transform="translate(241.074 .385)">
                    <use fill="#000" filter="url(#v)" xlink:href="#w"/>
                    <use fill="#26F2B5" xlink:href="#w"/>
                </g>
                <g transform="translate(241.074 .385)">
                    <use fill="#000" filter="url(#x)" xlink:href="#y"/>
                    <use fill="#26F2B5" xlink:href="#y"/>
                </g>
                <g transform="translate(241.074 .385)">
                    <use fill="#34277A" xlink:href="#z"/>
                    <use fill="#000" filter="url(#A)" xlink:href="#z"/>
                </g>
                <path fill="url(#B)" d="M81.989 106.873a27.859 27.859 0 0 1 24.14-8.406c15.219 2.138 25.836 16.11 23.714 31.205-1.713 12.19-11.209 21.385-22.815 23.347-2.448 9.895-12.075 16.527-22.44 15.07A20.241 20.241 0 0 1 68.6 155.597c-2.214.59-4.582.756-6.996.417a17.564 17.564 0 0 1-11.33-6.461 10.95 10.95 0 0 1-9.815 3.671 10.94 10.94 0 0 1-9.343-9.421c-5.24-1.955-8.843-6.9-9.037-12.503-7.73 2.211-16.142-1.322-19.76-8.742-4.064-8.33-.548-18.404 7.851-22.5a16.937 16.937 0 0 1 10.88-1.38 5.796 5.796 0 0 1-.612-2.597c0-3.256 2.681-5.896 5.989-5.896 2.741 0 5.052 1.814 5.763 4.289a11.63 11.63 0 0 1 7.425 1.727 7.631 7.631 0 0 1 2.828-2.954 8.411 8.411 0 0 1-.188-1.773c0-4.655 3.798-8.43 8.484-8.43a8.49 8.49 0 0 1 7.176 3.934 11.804 11.804 0 0 1 5.69-1.45c6.454 0 11.685 5.134 11.685 11.467 0 2.016-.53 3.911-1.462 5.557 3.15.711 5.937 2.24 8.161 4.322zM34.431 91.754c-2.957 0-5.355-2.352-5.355-5.255s2.398-5.256 5.355-5.256c2.958 0 5.355 2.353 5.355 5.256s-2.397 5.255-5.355 5.255zm10.136-9.447c-1.832 0-3.318-1.473-3.318-3.29s1.486-3.29 3.318-3.29 3.318 1.473 3.318 3.29-1.486 3.29-3.318 3.29zm-19.652-.884a2.313 2.313 0 0 1-2.322-2.303 2.313 2.313 0 0 1 2.322-2.303 2.313 2.313 0 0 1 2.323 2.303 2.313 2.313 0 0 1-2.323 2.303z" opacity=".896" transform="translate(149.839)"/>
            </g>
        </g>
        <g transform="rotate(-43 98.164 -108.08)">
            <path fill="#6761FD" d="M14.836 79.146H37.09l-2.65 5.366H17.486z"/>
            <rect width="16.859" height="1.341" x="17.533" y="85.183" fill="#6761FD" rx=".671"/>
            <g transform="translate(8.22)">
                <mask id="F" fill="#fff">
                    <use xlink:href="#C"/>
                </mask>
                <use fill="url(#D)" xlink:href="#C"/>
                <use fill="#000" filter="url(#E)" xlink:href="#C"/>
                <path stroke="#787AC2" stroke-linecap="round" stroke-width="1.619" d="M15.685 42.917h4.791" mask="url(#F)"/>
                <path fill="url(#G)" d="M14.767-9.492l20.3 3.455v20.519c-7.958-.712-13.753-1.067-17.386-1.067-3.633 0-8.837.355-15.612 1.067L14.767-9.492z" mask="url(#F)"/>
            </g>
            <path fill="#F1AAFF" d="M20.15 86.524h11.864c1.046 7.338 1.046 12.48 0 15.427-1.045 2.946-3.004 6.3-5.875 10.061-2.757-3.223-4.753-6.577-5.99-10.06-1.236-3.485-1.236-8.627 0-15.428z"/>
            <path fill="url(#H)" d="M22.162 87.11h7.677c.676 4.601.676 7.826 0 9.674-.57 1.554-1.557 3.29-2.962 5.205a1.09 1.09 0 0 1-1.736.029c-1.327-1.69-2.32-3.434-2.98-5.234-.8-2.185-.8-5.41 0-9.675z"/>
            <path fill="url(#I)" d="M25.85 50.305c.7 0 1.282.543 1.329 1.243.572 8.45.858 14.631.858 18.543 0 3.912-.286 10.094-.858 18.544a1.333 1.333 0 0 1-1.33 1.243 1.31 1.31 0 0 1-1.308-1.244c-.424-8.414-.636-14.595-.636-18.543 0-3.948.212-10.129.636-18.542a1.31 1.31 0 0 1 1.308-1.244z"/>
            <use fill="#000" filter="url(#J)" xlink:href="#K"/>
            <use fill="#26F2B5" xlink:href="#K"/>
            <use fill="url(#L)" xlink:href="#M"/>
            <use fill="#000" filter="url(#N)" xlink:href="#M"/>
            <g transform="matrix(-1 0 0 1 86.597 0)">
                <use fill="url(#O)" xlink:href="#P"/>
                <use fill="#000" filter="url(#Q)" xlink:href="#P"/>
            </g>
        </g>
        <g opacity=".411">
            <path fill="url(#R)" d="M13.562.459l30.708.871C31.926 57.734 13.155 110.386 25.983 165.878l-14.45 4.957C-5.159 148.688-1.837 69.106 13.563.459z" transform="rotate(156 107.013 142.607)"/>
            <path fill="url(#S)" d="M21.861 14.06l16.625-.61C25.152 67 7.655 112.605 22.57 165.2l-10.264 3.406C-2.161 113.72 7.699 67.12 21.86 14.06z" transform="rotate(156 107.013 142.607)"/>
            <g fill="url(#T)" transform="rotate(162 111.421 139.7)">
                <path d="M15.287 0h28.034c-12.343 56.403-16.37 113.767-3.542 169.26l-16.972 7.822C-12.621 129.436.458 68.424 15.287 0z"/>
            </g>
        </g>
        <g opacity=".506">
            <g transform="matrix(-1 0 0 1 114.9 65.875)">
                <use fill="url(#U)" xlink:href="#V"/>
                <use fill="#000" filter="url(#W)" xlink:href="#V"/>
            </g>
            <path stroke="#615BB8" stroke-linecap="round" stroke-width=".5" d="M92.845 73.24a22.233 22.233 0 0 1 11.943 9.254c3.43 5.402 4.514 12.228 2.385 18.78M97.14 113.647a22.258 22.258 0 0 1-18.036 1.883m-13.285-11.689a22.126 22.126 0 0 1-1.044-16.345" opacity=".462"/>
            <g transform="scale(-1 1) rotate(42 -104.621 -96.305)">
                <use fill="#000" filter="url(#X)" xlink:href="#Y"/>
                <ellipse cx="38.634" cy="20.418" fill="url(#aa)" stroke="url(#Z)" stroke-width=".5" rx="3.728" ry="2.339"/>
            </g>
            <g opacity=".602" transform="scale(1 -1) rotate(-60 -63.475 -66.202)">
                <use fill="#000" filter="url(#ab)" xlink:href="#ac"/>
                <ellipse cx="38.244" cy="36.878" fill="url(#ae)" stroke="url(#ad)" stroke-width=".5" rx="3.24" ry="2.035"/>
            </g>
            <g transform="scale(1 -1) rotate(54 176.935 44.94)">
                <use fill="#000" filter="url(#af)" xlink:href="#ag"/>
                <ellipse cx="17.769" cy="27.944" fill="url(#ai)" stroke="url(#ah)" stroke-width=".5" rx="1.744" ry="1.623"/>
            </g>
            <g transform="scale(1 -1) rotate(54 169.882 24.532)">
                <use fill="#000" filter="url(#aj)" xlink:href="#ak"/>
                <ellipse cx="28.167" cy="24.35" fill="url(#al)" stroke="url(#ah)" stroke-width=".5" rx="1.744" ry="1.623"/>
            </g>
            <g opacity=".324" transform="scale(1 -1) rotate(59 182.451 27.285)">
                <use fill="#000" filter="url(#am)" xlink:href="#an"/>
                <ellipse cx="23.377" cy="37.785" fill="url(#ap)" stroke="url(#ao)" stroke-width=".5" rx="3.007" ry="2.035"/>
            </g>
            <g transform="scale(-1 1) rotate(-44 42.609 193.545)">
                <use fill="#000" filter="url(#aq)" xlink:href="#ar"/>
                <ellipse cx="18.535" cy="18.415" fill="url(#at)" stroke="url(#as)" stroke-width=".5" rx="2.636" ry="1.443"/>
            </g>
        </g>
        <g opacity=".449" transform="translate(374.925 20.774)">
            <use fill="url(#au)" xlink:href="#av"/>
            <use fill="#000" filter="url(#aw)" xlink:href="#av"/>
            <path stroke="#AF2CD8" stroke-linecap="round" stroke-width=".6" d="M52.936 18.9a24.03 24.03 0 0 0-14.02-8.475c-6.812-1.36-14.161.213-19.988 4.932m-8.679 15.002c-1.042 6.533.586 13.46 5.073 19m17.01 8.88A24.14 24.14 0 0 0 49.33 52.9" opacity=".305"/>
            <g transform="rotate(42 43.569 23.392)">
                <use fill="#000" filter="url(#ax)" xlink:href="#ay"/>
                <ellipse cx="43.569" cy="23.392" fill="url(#aA)" stroke="url(#az)" stroke-width=".746" rx="4.291" ry="2.725"/>
            </g>
            <g opacity=".705" transform="rotate(120 45.923 41.951)">
                <use fill="#000" filter="url(#aB)" xlink:href="#aC"/>
                <ellipse cx="45.923" cy="41.951" fill="url(#aE)" stroke="url(#aD)" stroke-width=".746" rx="3.737" ry="2.386"/>
            </g>
            <g opacity=".759" transform="rotate(-126 33.887 32.511)">
                <use fill="#000" filter="url(#aF)" xlink:href="#aG"/>
                <ellipse cx="33.887" cy="32.511" fill="url(#aI)" stroke="url(#aH)" stroke-width=".746" rx="2.054" ry="1.927"/>
            </g>
            <g opacity=".303" transform="rotate(-121 27.085 43.772)">
                <use fill="#000" filter="url(#aJ)" xlink:href="#aK"/>
                <ellipse cx="27.085" cy="43.772" fill="url(#aM)" stroke="url(#aL)" stroke-width=".746" rx="3.737" ry="2.386"/>
            </g>
            <g transform="rotate(-44 21.584 22.469)">
                <use fill="#000" filter="url(#aN)" xlink:href="#aO"/>
                <ellipse cx="21.584" cy="22.469" fill="url(#aQ)" stroke="url(#aP)" stroke-width=".746" rx="3.06" ry="1.717"/>
            </g>
            <ellipse cx="34.411" cy="33.133" stroke="url(#aR)" stroke-width="3.732" rx="31.807" ry="8.937" transform="rotate(21 34.411 33.133)"/>
        </g>
    </g>
</svg>
