<svg xmlns="http://www.w3.org/2000/svg" xmlns:xlink="http://www.w3.org/1999/xlink" width="535" height="316" viewBox="0 0 535 316">
    <defs>
        <linearGradient id="a" x1="50%" x2="90.832%" y1="58.22%" y2="60.601%">
            <stop offset="0%" stop-color="#110B37" stop-opacity="0"/>
            <stop offset="100%" stop-color="#2E1A74"/>
        </linearGradient>
        <linearGradient id="b" x1="76.037%" x2="94.503%" y1="58.614%" y2="53.226%">
            <stop offset="0%" stop-color="#110B37" stop-opacity="0"/>
            <stop offset="100%" stop-color="#2E1A74"/>
        </linearGradient>
        <linearGradient id="c" x1="67.722%" x2="70.699%" y1="57.378%" y2="46.138%">
            <stop offset="0%" stop-color="#0E0733" stop-opacity="0"/>
            <stop offset="100%" stop-color="#4E1B81"/>
        </linearGradient>
        <filter id="d" width="150.5%" height="238.5%" x="-25.2%" y="-69.2%" filterUnits="objectBoundingBox">
            <feGaussianBlur in="SourceGraphic" stdDeviation="33"/>
        </filter>
        <linearGradient id="h" x1="38.977%" x2="50%" y1="39.22%" y2="68%">
            <stop offset="0%" stop-color="#210F66"/>
            <stop offset="100%" stop-color="#251B81"/>
        </linearGradient>
        <linearGradient id="g" x1="36.987%" x2="99.142%" y1="50%" y2="50%">
            <stop offset="0%" stop-color="#201269"/>
            <stop offset="100%" stop-color="#231B81"/>
        </linearGradient>
        <ellipse id="f" cx="217.834" cy="139.351" rx="30" ry="18"/>
        <filter id="e" width="106.4%" height="113.5%" x="-3.2%" y="-5.3%" filterUnits="objectBoundingBox">
            <feMorphology in="SourceAlpha" operator="dilate" radius="1.422" result="shadowSpreadOuter1"/>
            <feOffset dy="1" in="shadowSpreadOuter1" result="shadowOffsetOuter1"/>
            <feComposite in="shadowOffsetOuter1" in2="SourceAlpha" operator="out" result="shadowOffsetOuter1"/>
            <feColorMatrix in="shadowOffsetOuter1" values="0 0 0 0 0.0936427913 0 0 0 0 0.0453741813 0 0 0 0 0.267946105 0 0 0 1 0"/>
        </filter>
        <linearGradient id="l" x1="50%" x2="50%" y1="0%" y2="100%">
            <stop offset="0%" stop-color="#1C0E51"/>
            <stop offset="100%" stop-color="#4B1A7E"/>
        </linearGradient>
        <linearGradient id="k" x1="32.032%" x2="80.15%" y1="56.235%" y2="11.262%">
            <stop offset="0%" stop-color="#321E74"/>
            <stop offset="100%" stop-color="#4B1A7E"/>
        </linearGradient>
        <ellipse id="j" cx="117.501" cy="192.263" rx="13.829" ry="11.55"/>
        <filter id="i" width="113.9%" height="121%" x="-6.9%" y="-8.3%" filterUnits="objectBoundingBox">
            <feMorphology in="SourceAlpha" operator="dilate" radius="1.422" result="shadowSpreadOuter1"/>
            <feOffset dy="1" in="shadowSpreadOuter1" result="shadowOffsetOuter1"/>
            <feComposite in="shadowOffsetOuter1" in2="SourceAlpha" operator="out" result="shadowOffsetOuter1"/>
            <feColorMatrix in="shadowOffsetOuter1" values="0 0 0 0 0.0473018418 0 0 0 0 0.0215953159 0 0 0 0 0.141559103 0 0 0 1 0"/>
        </filter>
        <linearGradient id="p" x1="50%" x2="50%" y1="0%" y2="100%">
            <stop offset="0%" stop-color="#150942"/>
            <stop offset="100%" stop-color="#4B1A7D"/>
        </linearGradient>
        <linearGradient id="o" x1="36.987%" x2="99.142%" y1="50%" y2="50%">
            <stop offset="0%" stop-color="#2C1B63"/>
            <stop offset="100%" stop-color="#36115E"/>
        </linearGradient>
        <ellipse id="n" cx="53.692" cy="151.42" rx="22.142" ry="11.069"/>
        <filter id="m" width="108.7%" height="121.9%" x="-4.3%" y="-8.7%" filterUnits="objectBoundingBox">
            <feMorphology in="SourceAlpha" operator="dilate" radius="1.422" result="shadowSpreadOuter1"/>
            <feOffset dy="1" in="shadowSpreadOuter1" result="shadowOffsetOuter1"/>
            <feComposite in="shadowOffsetOuter1" in2="SourceAlpha" operator="out" result="shadowOffsetOuter1"/>
            <feColorMatrix in="shadowOffsetOuter1" values="0 0 0 0 0.190434644 0 0 0 0 0.0360889423 0 0 0 0 0.756368886 0 0 0 1 0"/>
        </filter>
        <path id="r" d="M16.368.197h12.736V34.43H14.347V2.218c0-1.116.905-2.021 2.021-2.021z"/>
        <filter id="q" width="283%" height="178.9%" x="-91.5%" y="-39.4%" filterUnits="objectBoundingBox">
            <feOffset in="SourceAlpha" result="shadowOffsetOuter1"/>
            <feGaussianBlur in="shadowOffsetOuter1" result="shadowBlurOuter1" stdDeviation="4.5"/>
            <feColorMatrix in="shadowBlurOuter1" values="0 0 0 0 0.207843137 0 0 0 0 1 0 0 0 0 0.768627451 0 0 0 1 0"/>
        </filter>
        <path id="t" d="M2.021 6.676h12.736v33.047a2.021 2.021 0 0 1-2.02 2.021H0V8.697c0-1.116.905-2.02 2.021-2.02z"/>
        <filter id="s" width="283%" height="177%" x="-91.5%" y="-38.5%" filterUnits="objectBoundingBox">
            <feOffset in="SourceAlpha" result="shadowOffsetOuter1"/>
            <feGaussianBlur in="shadowOffsetOuter1" result="shadowBlurOuter1" stdDeviation="4.5"/>
            <feColorMatrix in="shadowBlurOuter1" values="0 0 0 0 0.207843137 0 0 0 0 1 0 0 0 0 0.768627451 0 0 0 1 0"/>
        </filter>
        <linearGradient id="u" x1="50%" x2="50%" y1="0%" y2="100%">
            <stop offset="0%" stop-color="#917CFF"/>
            <stop offset="100%" stop-color="#AC9AFF"/>
        </linearGradient>
        <path id="v" d="M60.674 57.796l-.825-.967h25.005v35.567a2.021 2.021 0 0 1-2.021 2.021h-9.875a2.021 2.021 0 0 1-2.02-1.96l-.715-23.474-.62-.727-8.115 7.733v16.407a2.021 2.021 0 0 1-2.02 2.021h-9.896a2.021 2.021 0 0 1-2.021-2.021V74.103c0-.477.169-.938.476-1.303l12.647-15.004z"/>
        <filter id="w" width="106.1%" height="110.6%" x="-.9%" y="-5.3%" filterUnits="objectBoundingBox">
            <feOffset dx="4" in="SourceAlpha" result="shadowOffsetInner1"/>
            <feComposite in="shadowOffsetInner1" in2="SourceAlpha" k2="-1" k3="1" operator="arithmetic" result="shadowInnerInner1"/>
            <feColorMatrix in="shadowInnerInner1" values="0 0 0 0 0.555979869 0 0 0 0 0.477372109 0 0 0 0 0.962890625 0 0 0 1 0"/>
        </filter>
        <linearGradient id="x" x1="50%" x2="50%" y1="0%" y2="100%">
            <stop offset="0%" stop-color="#13EBA8"/>
            <stop offset="100%" stop-color="#3CBCED"/>
        </linearGradient>
        <linearGradient id="y" x1="50%" x2="50%" y1="0%" y2="100%">
            <stop offset="0%" stop-color="#B238D2"/>
            <stop offset="100%" stop-color="#C174D5"/>
        </linearGradient>
        <linearGradient id="z" x1="50%" x2="50%" y1="0%" y2="100%">
            <stop offset="0%" stop-color="#AC9BFF"/>
            <stop offset="100%" stop-color="#C8BDFF"/>
        </linearGradient>
        <path id="A" d="M103.29 46.732h.01V63.82a4.042 4.042 0 0 1-4.042 4.042h-5.853a4.042 4.042 0 0 1-4.042-4.042v-2.885a3.64 3.64 0 0 1 2.46-3.443v-9.104L84.854 34.83l10.227-5.166 7.63 14.846c.367.713.554 1.47.58 2.222z"/>
        <filter id="B" width="116.3%" height="107.9%" x="-8.1%" y="-3.9%" filterUnits="objectBoundingBox">
            <feOffset dx="3" in="SourceAlpha" result="shadowOffsetInner1"/>
            <feComposite in="shadowOffsetInner1" in2="SourceAlpha" k2="-1" k3="1" operator="arithmetic" result="shadowInnerInner1"/>
            <feColorMatrix in="shadowInnerInner1" values="0 0 0 0 0.62394569 0 0 0 0 0.552115091 0 0 0 0 1 0 0 0 1 0"/>
        </filter>
        <linearGradient id="C" x1="50%" x2="50%" y1="0%" y2="100%">
            <stop offset="0%" stop-color="#A795FF"/>
            <stop offset="100%" stop-color="#C1B4FF"/>
        </linearGradient>
        <linearGradient id="D" x1="40.831%" x2="87.554%" y1="24.98%" y2="73.079%">
            <stop offset="0%" stop-color="#A997FF"/>
            <stop offset="100%" stop-color="#C8BDFF"/>
        </linearGradient>
        <path id="E" d="M24.595 41.449h9.018v15.035h-9.018z"/>
        <filter id="F" width="111.1%" height="106.7%" x="-5.5%" y="-3.3%" filterUnits="objectBoundingBox">
            <feOffset dx="1" in="SourceAlpha" result="shadowOffsetInner1"/>
            <feComposite in="shadowOffsetInner1" in2="SourceAlpha" k2="-1" k3="1" operator="arithmetic" result="shadowInnerInner1"/>
            <feColorMatrix in="shadowInnerInner1" values="0 0 0 0 0.784313725 0 0 0 0 0.741176471 0 0 0 0 1 0 0 0 1 0"/>
        </filter>
        <linearGradient id="G" x1="81.414%" x2="81.414%" y1="36.397%" y2="100%">
            <stop offset="0%" stop-color="#AB99FF"/>
            <stop offset="100%" stop-color="#B3A3FF"/>
        </linearGradient>
        <linearGradient id="H" x1="81.414%" x2="81.414%" y1="36.397%" y2="100%">
            <stop offset="0%" stop-color="#A997FF"/>
            <stop offset="100%" stop-color="#B3A3FF"/>
        </linearGradient>
        <path id="I" d="M84.444 100.574c0-3.478-2.845-6.298-6.354-6.298s-6.354 2.82-6.354 6.298"/>
        <filter id="J" width="131.5%" height="81.8%" x="-15.7%" y="-15.9%" filterUnits="objectBoundingBox">
            <feOffset dx="4" in="SourceAlpha" result="shadowOffsetInner1"/>
            <feComposite in="shadowOffsetInner1" in2="SourceAlpha" k2="-1" k3="1" operator="arithmetic" result="shadowInnerInner1"/>
            <feColorMatrix in="shadowInnerInner1" values="0 0 0 0 0.279187771 0 0 0 0 0.258019126 0 0 0 0 0.821105072 0 0 0 1 0"/>
        </filter>
        <linearGradient id="L" x1="50%" x2="50%" y1="0%" y2="98.155%">
            <stop offset="0%" stop-color="#1375C8"/>
            <stop offset="100%" stop-color="#070534"/>
        </linearGradient>
        <ellipse id="K" cx="17.997" cy="17.835" rx="17.217" ry="17.067"/>
        <filter id="M" width="126.1%" height="126.4%" x="-13.1%" y="-13.2%" filterUnits="objectBoundingBox">
            <feOffset dx="9" in="SourceAlpha" result="shadowOffsetInner1"/>
            <feComposite in="shadowOffsetInner1" in2="SourceAlpha" k2="-1" k3="1" operator="arithmetic" result="shadowInnerInner1"/>
            <feColorMatrix in="shadowInnerInner1" values="0 0 0 0 0 0 0 0 0 0 0 0 0 0 0 0 0 0 0.186543925 0"/>
        </filter>
        <linearGradient id="O" x1="65.723%" x2="35.544%" y1="80.062%" y2="68.466%">
            <stop offset="0%" stop-color="#C8BDFF"/>
            <stop offset="100%" stop-color="#C8BDFF"/>
        </linearGradient>
        <linearGradient id="P" x1="81.414%" x2="81.414%" y1="36.397%" y2="100%">
            <stop offset="0%" stop-color="#AE9DFF"/>
            <stop offset="100%" stop-color="#B3A3FF"/>
        </linearGradient>
        <path id="Q" d="M54.93 40.636h27.055v12.597H54.93z"/>
        <filter id="R" width="111.1%" height="123.8%" x="-5.5%" y="-11.9%" filterUnits="objectBoundingBox">
            <feOffset dx="1" dy="-3" in="SourceAlpha" result="shadowOffsetInner1"/>
            <feComposite in="shadowOffsetInner1" in2="SourceAlpha" k2="-1" k3="1" operator="arithmetic" result="shadowInnerInner1"/>
            <feColorMatrix in="shadowInnerInner1" values="0 0 0 0 0.704593914 0 0 0 0 0.640967988 0 0 0 0 1 0 0 0 1 0"/>
        </filter>
        <path id="S" d="M47.908 94.276h12.76v6.095H41.813a6.095 6.095 0 0 1 6.096-6.095z"/>
        <filter id="T" width="121.2%" height="165.6%" x="-10.6%" y="-32.8%" filterUnits="objectBoundingBox">
            <feOffset dx="4" in="SourceAlpha" result="shadowOffsetInner1"/>
            <feComposite in="shadowOffsetInner1" in2="SourceAlpha" k2="-1" k3="1" operator="arithmetic" result="shadowInnerInner1"/>
            <feColorMatrix in="shadowInnerInner1" values="0 0 0 0 0.279187771 0 0 0 0 0.258019126 0 0 0 0 0.821105072 0 0 0 1 0"/>
        </filter>
        <linearGradient id="U" x1="50%" x2="50%" y1="0%" y2="100%">
            <stop offset="0%" stop-color="#13EBA8"/>
            <stop offset="100%" stop-color="#3CBCED"/>
        </linearGradient>
        <linearGradient id="V" x1="50%" x2="50%" y1="107.258%" y2="3.339%">
            <stop offset="0%" stop-color="#A53FB1"/>
            <stop offset="100%" stop-color="#2B0A3D" stop-opacity="0"/>
        </linearGradient>
        <linearGradient id="W" x1="50%" x2="50%" y1="107.258%" y2="5.841%">
            <stop offset="0%" stop-color="#A53FB1"/>
            <stop offset="100%" stop-color="#340D40" stop-opacity="0"/>
        </linearGradient>
        <linearGradient id="X" x1="50%" x2="50%" y1="107.258%" y2="5.428%">
            <stop offset="0%" stop-color="#A53FB1"/>
            <stop offset="100%" stop-color="#330D40" stop-opacity="0"/>
        </linearGradient>
        <ellipse id="Z" cx="25.898" cy="169.201" rx="14.112" ry="14.009"/>
        <filter id="Y" width="156.7%" height="157.1%" x="-28.3%" y="-25%" filterUnits="objectBoundingBox">
            <feOffset dy="1" in="SourceAlpha" result="shadowOffsetOuter1"/>
            <feGaussianBlur in="shadowOffsetOuter1" result="shadowBlurOuter1" stdDeviation="2.5"/>
            <feColorMatrix in="shadowBlurOuter1" values="0 0 0 0 0.647058824 0 0 0 0 0.247058824 0 0 0 0 0.694117647 0 0 0 1 0"/>
        </filter>
        <ellipse id="aa" cx="25.898" cy="169.201" rx="14.112" ry="14.009"/>
        <filter id="ab" width="117.7%" height="117.8%" x="-8.9%" y="-8.9%" filterUnits="objectBoundingBox">
            <feOffset dx="5" dy="-3" in="SourceAlpha" result="shadowOffsetInner1"/>
            <feComposite in="shadowOffsetInner1" in2="SourceAlpha" k2="-1" k3="1" operator="arithmetic" result="shadowInnerInner1"/>
            <feColorMatrix in="shadowInnerInner1" values="0 0 0 0 0.399739583 0 0 0 0 0.117860402 0 0 0 0 0.372334663 0 0 0 1 0"/>
        </filter>
        <ellipse id="ac" cx="28.518" cy="163.398" rx="3.226" ry="3.202"/>
        <filter id="ad" width="115.5%" height="115.6%" x="-7.8%" y="-7.8%" filterUnits="objectBoundingBox">
            <feOffset dy="1" in="SourceAlpha" result="shadowOffsetInner1"/>
            <feComposite in="shadowOffsetInner1" in2="SourceAlpha" k2="-1" k3="1" operator="arithmetic" result="shadowInnerInner1"/>
            <feColorMatrix in="shadowInnerInner1" values="0 0 0 0 0.449926404 0 0 0 0 0.0816949067 0 0 0 0 0.414856738 0 0 0 1 0"/>
        </filter>
        <ellipse id="ae" cx="25.696" cy="175.005" rx="2.016" ry="2.001"/>
        <filter id="af" width="124.8%" height="125%" x="-12.4%" y="-12.5%" filterUnits="objectBoundingBox">
            <feOffset dy="1" in="SourceAlpha" result="shadowOffsetInner1"/>
            <feComposite in="shadowOffsetInner1" in2="SourceAlpha" k2="-1" k3="1" operator="arithmetic" result="shadowInnerInner1"/>
            <feColorMatrix in="shadowInnerInner1" values="0 0 0 0 0.449926404 0 0 0 0 0.0816949067 0 0 0 0 0.414856738 0 0 0 1 0"/>
        </filter>
        <ellipse id="ag" cx="33.256" cy="169.702" rx="1.512" ry="1.501"/>
        <filter id="ah" width="133.1%" height="133.3%" x="-16.5%" y="-16.7%" filterUnits="objectBoundingBox">
            <feOffset dy="1" in="SourceAlpha" result="shadowOffsetInner1"/>
            <feComposite in="shadowOffsetInner1" in2="SourceAlpha" k2="-1" k3="1" operator="arithmetic" result="shadowInnerInner1"/>
            <feColorMatrix in="shadowInnerInner1" values="0 0 0 0 0.449926404 0 0 0 0 0.0816949067 0 0 0 0 0.414856738 0 0 0 1 0"/>
        </filter>
        <ellipse id="ai" cx="19.648" cy="162.197" rx="2.016" ry="2.001"/>
        <filter id="aj" width="124.8%" height="125%" x="-12.4%" y="-12.5%" filterUnits="objectBoundingBox">
            <feOffset dy="1" in="SourceAlpha" result="shadowOffsetInner1"/>
            <feComposite in="shadowOffsetInner1" in2="SourceAlpha" k2="-1" k3="1" operator="arithmetic" result="shadowInnerInner1"/>
            <feColorMatrix in="shadowInnerInner1" values="0 0 0 0 0.449926404 0 0 0 0 0.0816949067 0 0 0 0 0.414856738 0 0 0 1 0"/>
        </filter>
        <ellipse id="ak" cx="17.935" cy="171.303" rx="2.117" ry="2.101"/>
        <filter id="al" width="123.6%" height="123.8%" x="-11.8%" y="-11.9%" filterUnits="objectBoundingBox">
            <feOffset dy="1" in="SourceAlpha" result="shadowOffsetInner1"/>
            <feComposite in="shadowOffsetInner1" in2="SourceAlpha" k2="-1" k3="1" operator="arithmetic" result="shadowInnerInner1"/>
            <feColorMatrix in="shadowInnerInner1" values="0 0 0 0 0.449926404 0 0 0 0 0.0816949067 0 0 0 0 0.414856738 0 0 0 1 0"/>
        </filter>
        <linearGradient id="am" x1="50%" x2="50%" y1="107.258%" y2="3.339%">
            <stop offset="0%" stop-color="#396EEF"/>
            <stop offset="100%" stop-color="#2B0A3D" stop-opacity="0"/>
        </linearGradient>
        <linearGradient id="an" x1="50%" x2="50%" y1="107.258%" y2="5.841%">
            <stop offset="0%" stop-color="#396EEF"/>
            <stop offset="100%" stop-color="#340D40" stop-opacity="0"/>
        </linearGradient>
        <linearGradient id="ao" x1="50%" x2="50%" y1="107.258%" y2="5.428%">
            <stop offset="0%" stop-color="#396EEF"/>
            <stop offset="100%" stop-color="#330D40" stop-opacity="0"/>
        </linearGradient>
        <ellipse id="aq" cx="14.485" cy="94.855" rx="7.893" ry="7.854"/>
        <filter id="ap" width="163.3%" height="163.7%" x="-31.7%" y="-25.5%" filterUnits="objectBoundingBox">
            <feOffset dy="1" in="SourceAlpha" result="shadowOffsetOuter1"/>
            <feGaussianBlur in="shadowOffsetOuter1" result="shadowBlurOuter1" stdDeviation="1.5"/>
            <feColorMatrix in="shadowBlurOuter1" values="0 0 0 0 0.223529412 0 0 0 0 0.431372549 0 0 0 0 0.937254902 0 0 0 1 0"/>
        </filter>
        <ellipse id="ar" cx="14.485" cy="94.855" rx="7.893" ry="7.854"/>
        <filter id="as" width="119%" height="119.1%" x="-9.5%" y="-9.5%" filterUnits="objectBoundingBox">
            <feOffset dy="-3" in="SourceAlpha" result="shadowOffsetInner1"/>
            <feComposite in="shadowOffsetInner1" in2="SourceAlpha" k2="-1" k3="1" operator="arithmetic" result="shadowInnerInner1"/>
            <feColorMatrix in="shadowInnerInner1" values="0 0 0 0 0.130374961 0 0 0 0 0.289663675 0 0 0 0 0.677366395 0 0 0 1 0"/>
        </filter>
        <ellipse id="at" cx="15.951" cy="91.602" rx="1.804" ry="1.795"/>
        <filter id="au" width="127.7%" height="127.9%" x="-13.9%" y="-13.9%" filterUnits="objectBoundingBox">
            <feOffset dy="1" in="SourceAlpha" result="shadowOffsetInner1"/>
            <feComposite in="shadowOffsetInner1" in2="SourceAlpha" k2="-1" k3="1" operator="arithmetic" result="shadowInnerInner1"/>
            <feColorMatrix in="shadowInnerInner1" values="0 0 0 0 0.320276608 0 0 0 0 0.26713635 0 0 0 0 0.991394928 0 0 0 1 0"/>
        </filter>
        <ellipse id="av" cx="14.372" cy="98.109" rx="1.128" ry="1.122"/>
        <filter id="aw" width="144.3%" height="144.6%" x="-22.2%" y="-22.3%" filterUnits="objectBoundingBox">
            <feOffset dy="1" in="SourceAlpha" result="shadowOffsetInner1"/>
            <feComposite in="shadowOffsetInner1" in2="SourceAlpha" k2="-1" k3="1" operator="arithmetic" result="shadowInnerInner1"/>
            <feColorMatrix in="shadowInnerInner1" values="0 0 0 0 0.320276608 0 0 0 0 0.26713635 0 0 0 0 0.991394928 0 0 0 1 0"/>
        </filter>
        <ellipse id="ax" cx="18.601" cy="95.136" rx="1" ry="1"/>
        <filter id="ay" width="159.1%" height="159.4%" x="-29.6%" y="-29.7%" filterUnits="objectBoundingBox">
            <feOffset dy="1" in="SourceAlpha" result="shadowOffsetInner1"/>
            <feComposite in="shadowOffsetInner1" in2="SourceAlpha" k2="-1" k3="1" operator="arithmetic" result="shadowInnerInner1"/>
            <feColorMatrix in="shadowInnerInner1" values="0 0 0 0 0.320276608 0 0 0 0 0.26713635 0 0 0 0 0.991394928 0 0 0 1 0"/>
        </filter>
        <ellipse id="az" cx="10.99" cy="90.929" rx="1.128" ry="1.122"/>
        <filter id="aA" width="144.3%" height="144.6%" x="-22.2%" y="-22.3%" filterUnits="objectBoundingBox">
            <feOffset dy="1" in="SourceAlpha" result="shadowOffsetInner1"/>
            <feComposite in="shadowOffsetInner1" in2="SourceAlpha" k2="-1" k3="1" operator="arithmetic" result="shadowInnerInner1"/>
            <feColorMatrix in="shadowInnerInner1" values="0 0 0 0 0.320276608 0 0 0 0 0.26713635 0 0 0 0 0.991394928 0 0 0 1 0"/>
        </filter>
        <ellipse id="aB" cx="10.031" cy="96.033" rx="1.184" ry="1.178"/>
        <filter id="aC" width="142.2%" height="142.4%" x="-21.1%" y="-21.2%" filterUnits="objectBoundingBox">
            <feOffset dy="1" in="SourceAlpha" result="shadowOffsetInner1"/>
            <feComposite in="shadowOffsetInner1" in2="SourceAlpha" k2="-1" k3="1" operator="arithmetic" result="shadowInnerInner1"/>
            <feColorMatrix in="shadowInnerInner1" values="0 0 0 0 0.320276608 0 0 0 0 0.26713635 0 0 0 0 0.991394928 0 0 0 1 0"/>
        </filter>
        <linearGradient id="aD" x1="23.34%" x2="90.614%" y1="100%" y2="22.332%">
            <stop offset="0%" stop-color="#250040"/>
            <stop offset="100%" stop-color="#631450"/>
        </linearGradient>
        <ellipse id="aE" cx="23.03" cy="22.967" rx="12.422" ry="12.51"/>
        <filter id="aF" width="136.2%" height="136%" x="-18.1%" y="-18%" filterUnits="objectBoundingBox">
            <feOffset dx="4" dy="-9" in="SourceAlpha" result="shadowOffsetInner1"/>
            <feComposite in="shadowOffsetInner1" in2="SourceAlpha" k2="-1" k3="1" operator="arithmetic" result="shadowInnerInner1"/>
            <feColorMatrix in="shadowInnerInner1" values="0 0 0 0 0 0 0 0 0 0 0 0 0 0 0 0 0 0 0.198918269 0"/>
        </filter>
        <linearGradient id="aJ" x1="50%" x2="50%" y1="0%" y2="100%">
            <stop offset="0%" stop-color="#420A3C"/>
            <stop offset="97.107%" stop-color="#580B55"/>
        </linearGradient>
        <linearGradient id="aI" x1="82.562%" x2="0%" y1="54.016%" y2="50%">
            <stop offset="0%" stop-color="#6A1B64"/>
            <stop offset="100%" stop-color="#5C1550"/>
        </linearGradient>
        <ellipse id="aH" cx="29.207" cy="15.697" rx="2.627" ry="1.578"/>
        <filter id="aG" width="141.8%" height="201.3%" x="-20.9%" y="-34.8%" filterUnits="objectBoundingBox">
            <feMorphology in="SourceAlpha" operator="dilate" radius=".599" result="shadowSpreadOuter1"/>
            <feOffset dy="1" in="shadowSpreadOuter1" result="shadowOffsetOuter1"/>
            <feComposite in="shadowOffsetOuter1" in2="SourceAlpha" operator="out" result="shadowOffsetOuter1"/>
            <feColorMatrix in="shadowOffsetOuter1" values="0 0 0 0 0.225685009 0 0 0 0 0.0282708317 0 0 0 0 0.216573585 0 0 0 1 0"/>
        </filter>
        <linearGradient id="aN" x1="50%" x2="50%" y1="0%" y2="97.107%">
            <stop offset="0%" stop-color="#420A3C"/>
            <stop offset="100%" stop-color="#580B55"/>
        </linearGradient>
        <linearGradient id="aM" x1="36.987%" x2="98.74%" y1="50%" y2="50%">
            <stop offset="0%" stop-color="#6A1B64"/>
            <stop offset="100%" stop-color="#5C1550"/>
        </linearGradient>
        <ellipse id="aL" cx="30.785" cy="28.15" rx="2.257" ry="1.349"/>
        <filter id="aK" width="148.7%" height="218.5%" x="-24.3%" y="-40.7%" filterUnits="objectBoundingBox">
            <feMorphology in="SourceAlpha" operator="dilate" radius=".599" result="shadowSpreadOuter1"/>
            <feOffset dy="1" in="shadowSpreadOuter1" result="shadowOffsetOuter1"/>
            <feComposite in="shadowOffsetOuter1" in2="SourceAlpha" operator="out" result="shadowOffsetOuter1"/>
            <feColorMatrix in="shadowOffsetOuter1" values="0 0 0 0 0.225685009 0 0 0 0 0.0282708317 0 0 0 0 0.216573585 0 0 0 1 0"/>
        </filter>
        <linearGradient id="aR" x1="50%" x2="50%" y1="97.107%" y2="0%">
            <stop offset="0%" stop-color="#390333"/>
            <stop offset="100%" stop-color="#570755"/>
        </linearGradient>
        <linearGradient id="aQ" x1="36.987%" x2="98.74%" y1="50%" y2="50%">
            <stop offset="0%" stop-color="#500F4B"/>
            <stop offset="100%" stop-color="#580E59"/>
        </linearGradient>
        <ellipse id="aP" cx="22.716" cy="21.816" rx="1.128" ry="1.042"/>
        <filter id="aO" width="197.4%" height="253.4%" x="-48.7%" y="-100.7%" filterUnits="objectBoundingBox">
            <feMorphology in="SourceAlpha" operator="dilate" radius=".599" result="shadowSpreadOuter1"/>
            <feOffset dy="-1" in="shadowSpreadOuter1" result="shadowOffsetOuter1"/>
            <feComposite in="shadowOffsetOuter1" in2="SourceAlpha" operator="out" result="shadowOffsetOuter1"/>
            <feColorMatrix in="shadowOffsetOuter1" values="0 0 0 0 0.225685009 0 0 0 0 0.0282708317 0 0 0 0 0.216573585 0 0 0 1 0"/>
        </filter>
        <linearGradient id="aV" x1="50%" x2="50%" y1="0%" y2="97.107%">
            <stop offset="0%" stop-color="#270623"/>
            <stop offset="98.435%" stop-color="#4C084A"/>
        </linearGradient>
        <linearGradient id="aU" x1="36.987%" x2="98.74%" y1="50%" y2="50%">
            <stop offset="0%" stop-color="#520A4D"/>
            <stop offset="100%" stop-color="#3F0E37"/>
        </linearGradient>
        <ellipse id="aT" cx="18.157" cy="29.372" rx="2.257" ry="1.35"/>
        <filter id="aS" width="148.7%" height="218.5%" x="-24.3%" y="-40.7%" filterUnits="objectBoundingBox">
            <feMorphology in="SourceAlpha" operator="dilate" radius=".599" result="shadowSpreadOuter1"/>
            <feOffset dy="1" in="shadowSpreadOuter1" result="shadowOffsetOuter1"/>
            <feComposite in="shadowOffsetOuter1" in2="SourceAlpha" operator="out" result="shadowOffsetOuter1"/>
            <feColorMatrix in="shadowOffsetOuter1" values="0 0 0 0 0.225685009 0 0 0 0 0.0282708317 0 0 0 0 0.216573585 0 0 0 1 0"/>
        </filter>
        <linearGradient id="aZ" x1="98.554%" x2="1.446%" y1="48.554%" y2="48.554%">
            <stop offset="0%" stop-color="#3B0835"/>
            <stop offset="100%" stop-color="#540952"/>
        </linearGradient>
        <linearGradient id="aY" x1="36.987%" x2="98.74%" y1="50%" y2="50%">
            <stop offset="0%" stop-color="#451052"/>
            <stop offset="100%" stop-color="#56114A"/>
        </linearGradient>
        <ellipse id="aX" cx="14.469" cy="15.077" rx="1.802" ry="1"/>
        <filter id="aW" width="161%" height="277.4%" x="-30.5%" y="-61%" filterUnits="objectBoundingBox">
            <feMorphology in="SourceAlpha" operator="dilate" radius=".599" result="shadowSpreadOuter1"/>
            <feOffset dy="1" in="shadowSpreadOuter1" result="shadowOffsetOuter1"/>
            <feComposite in="shadowOffsetOuter1" in2="SourceAlpha" operator="out" result="shadowOffsetOuter1"/>
            <feColorMatrix in="shadowOffsetOuter1" values="0 0 0 0 0.225685009 0 0 0 0 0.0282708317 0 0 0 0 0.216573585 0 0 0 1 0"/>
        </filter>
        <linearGradient id="ba" x1="50%" x2="50%" y1="15.809%" y2="100%">
            <stop offset="0%" stop-color="#110B37" stop-opacity="0"/>
            <stop offset="100%" stop-color="#561A74"/>
        </linearGradient>
    </defs>
    <g fill="none" fill-rule="evenodd">
        <path d="M6 36h465v260H6z"/>
        <g transform="translate(6 51)">
            <path stroke="url(#a)" stroke-width="7.11" d="M114.497 175.077c79.16-7.087 136.236-27.556 136.19-51.807-.05-26.444-68.003-48.64-158.382-53.974a712.717 712.717 0 0 0-40.617-1.22" transform="scale(-1 1) rotate(-25 8.57 945.511)"/>
            <path stroke="url(#b)" stroke-width="3.11" d="M110.45 174.077c91.454-9.369 152.298-26.18 152.238-45.423-.07-22.152-80.82-41.258-196-49.577" transform="scale(-1 1) rotate(-25 8.57 1011.406)"/>
            <path fill="url(#c)" d="M296.74 196.754C276.827 135.39 218.91 91 150.564 91 96.39 91 48.767 118.89 21.431 161.017" transform="matrix(-1 0 0 1 463.718 17.649)"/>
            <path fill="#0D1F65" d="M6.234 72.322C32.094 35.7 88.12 17.387 174.315 17.387c86.195 0 160.907 16.632 224.138 49.896l-48.143 93.104c-84.366-24.78-137.883-37.17-160.55-37.17-87.83 0-134.62 11.501-140.374 34.504L6.234 72.322z" filter="url(#d)" transform="scale(-1 1) rotate(5 -231.628 -5212.732)"/>
            <g opacity=".598" transform="scale(-1 1) rotate(42 -37.014 -455.838)">
                <use fill="#000" filter="url(#e)" xlink:href="#f"/>
                <ellipse cx="217.834" cy="139.351" fill="url(#h)" stroke="url(#g)" stroke-width="1.422" rx="30.711" ry="18.711"/>
            </g>
            <g opacity=".172" transform="scale(1 -1) rotate(54 626.514 215.616)">
                <use fill="#000" filter="url(#i)" xlink:href="#j"/>
                <ellipse cx="117.501" cy="192.263" fill="url(#l)" stroke="url(#k)" stroke-width="1.422" rx="14.54" ry="12.261"/>
            </g>
            <g opacity=".244" transform="scale(-1 1) rotate(-44 -156.326 734.116)">
                <use fill="#000" filter="url(#m)" xlink:href="#n"/>
                <ellipse cx="53.692" cy="151.42" fill="url(#p)" stroke="url(#o)" stroke-width="1.422" rx="22.853" ry="11.78"/>
            </g>
            <ellipse cx="338.806" cy="133.632" fill="#180C44" rx="35.011" ry="5.552"/>
            <g transform="translate(283.689 30.923)">
                <g transform="translate(0 3.702)">
                    <use fill="#000" filter="url(#q)" xlink:href="#r"/>
                    <use fill="#1CE9AD" xlink:href="#r"/>
                </g>
                <g transform="translate(0 3.702)">
                    <use fill="#000" filter="url(#s)" xlink:href="#t"/>
                    <use fill="#35FFC4" xlink:href="#t"/>
                </g>
                <use fill="url(#u)" xlink:href="#v"/>
                <use fill="#000" filter="url(#w)" xlink:href="#v"/>
                <path fill="#13EBA8" fill-opacity=".7" d="M70.692 75.989h14.162v4.064H70.692z"/>
                <path fill="#13EBA8" fill-opacity=".701" d="M47.551 75.583h13.937v4.064H47.551z"/>
                <ellipse cx="77.885" cy="78.021" fill="url(#x)" rx="4.099" ry="4.064"/>
                <path fill="url(#y)" d="M80.345 20.724h9.104a6.063 6.063 0 0 1 6.063 6.063V47.17a6.063 6.063 0 0 1-6.063 6.063h-9.104V20.724z"/>
                <use fill="url(#z)" xlink:href="#A"/>
                <use fill="#000" filter="url(#B)" xlink:href="#A"/>
                <path fill="url(#C)" d="M87.313 41.042v13.03a4.85 4.85 0 0 1-4.85 4.85H61.42a4.85 4.85 0 0 1-4.85-4.85v-13.03h-8.61v-7.755a6.467 6.467 0 0 1 6.468-6.467h35.437a6.467 6.467 0 0 1 6.467 6.467v7.755h-9.019z"/>
                <path fill="url(#D)" d="M42.304 43.45l6.6-13.416 10.317 4.988-9.896 20.113a2.021 2.021 0 0 1-2.693.928l-.034-.017H27.875V43.45h14.43z"/>
                <rect width="1.64" height="103.622" x="28.695" fill="#504CA7" rx=".818"/>
                <use fill="#CBC0FF" xlink:href="#E"/>
                <use fill="#000" filter="url(#F)" xlink:href="#E"/>
                <path fill="url(#G)" d="M80.318 27.226h3.134a6.705 6.705 0 0 1 0 13.41h-3.134v-13.41z"/>
                <path fill="url(#H)" d="M53.29 27.226h2.93a6.908 6.908 0 0 1 0 13.816h-2.93V27.226z" transform="matrix(-1 0 0 1 116.418 0)"/>
                <use fill="#645FE4" xlink:href="#I"/>
                <use fill="#000" filter="url(#J)" xlink:href="#I"/>
                <g transform="translate(54.15 1.67)">
                    <mask id="N" fill="#fff">
                        <use xlink:href="#K"/>
                    </mask>
                    <use fill="url(#L)" xlink:href="#K"/>
                    <use fill="#000" filter="url(#M)" xlink:href="#K"/>
                    <ellipse cx="27.491" cy="13.359" fill="#FFF" mask="url(#N)" rx="3.332" ry="3.34"/>
                    <ellipse cx="28.324" cy="20.039" fill="#FFF" mask="url(#N)" rx="1.666" ry="1.67"/>
                    <ellipse cx="17.911" cy="-10.437" fill="url(#O)" mask="url(#N)" rx="22.909" ry="16.281"/>
                </g>
                <path fill="url(#P)" d="M71.531 29.258a8.813 8.813 0 0 1 8.814 8.813v5.003H62.718v-5.003a8.813 8.813 0 0 1 8.813-8.813z"/>
                <use fill="#C3B6FF" xlink:href="#Q"/>
                <use fill="#000" filter="url(#R)" xlink:href="#Q"/>
                <ellipse cx="62.064" cy="44.67" fill="#1CE9AD" rx="1.25" ry="1.252"/>
                <ellipse cx="68.728" cy="44.67" fill="#FF8686" rx="1.25" ry="1.252"/>
                <g>
                    <use fill="#645FE4" xlink:href="#S"/>
                    <use fill="#000" filter="url(#T)" xlink:href="#S"/>
                </g>
                <path fill="#383495" d="M41.402 99.965h19.266v3.657H41.402zM71.327 99.558h13.527v4.064H71.327z"/>
                <path fill="url(#U)" d="M47.551 73.958h1.06a4.064 4.064 0 1 1 0 8.127h-1.06v-8.127z"/>
            </g>
            <g opacity=".398">
                <g opacity=".411">
                    <path fill="url(#V)" d="M11.71 0h28.223c-12.427 56.848-12.915 113.264 0 169.195H11.709C-4.01 125.765-3.795 69.189 11.71 0z" transform="rotate(-26 50.766 9.244)"/>
                    <path fill="url(#W)" d="M15.338 16.562H29.45c-17.669 53.74-15.015 107.026 0 160.037H15.338C2.802 123.37 1.08 70.04 15.338 16.562z" transform="rotate(-26 50.766 9.244)"/>
                    <path fill="url(#X)" d="M32.474 16.762h4.032c-13.787 51.74-12.673 105.215 0 160.038h-4.032c-14.732-54.909-14.349-108.214 0-160.038z" transform="rotate(-26 50.766 9.244)"/>
                </g>
                <g transform="rotate(-26 50.457 9.95)">
                    <use fill="#000" filter="url(#Y)" xlink:href="#Z"/>
                    <use fill="#71296A" xlink:href="#Z"/>
                </g>
                <g transform="rotate(-26 50.457 9.95)">
                    <use fill="#A53FB1" xlink:href="#aa"/>
                    <use fill="#000" filter="url(#ab)" xlink:href="#aa"/>
                </g>
                <g opacity=".483" transform="rotate(-26 50.457 9.95)">
                    <use fill="#80128B" xlink:href="#ac"/>
                    <use fill="#000" filter="url(#ad)" xlink:href="#ac"/>
                </g>
                <g opacity=".483" transform="rotate(-26 50.457 9.95)">
                    <use fill="#80128B" xlink:href="#ae"/>
                    <use fill="#000" filter="url(#af)" xlink:href="#ae"/>
                </g>
                <g opacity=".483" transform="rotate(-26 50.457 9.95)">
                    <use fill="#80128B" xlink:href="#ag"/>
                    <use fill="#000" filter="url(#ah)" xlink:href="#ag"/>
                </g>
                <g opacity=".483" transform="rotate(-26 50.457 9.95)">
                    <use fill="#80128B" xlink:href="#ai"/>
                    <use fill="#000" filter="url(#aj)" xlink:href="#ai"/>
                </g>
                <g opacity=".483" transform="rotate(-26 50.457 9.95)">
                    <use fill="#80128B" xlink:href="#ak"/>
                    <use fill="#000" filter="url(#al)" xlink:href="#ak"/>
                </g>
            </g>
            <g opacity=".704">
                <path fill="url(#am)" d="M6.705.116H22.49c-6.95 31.87-7.224 63.497 0 94.852H6.705c-8.793-24.347-8.672-56.064 0-94.852z" opacity=".411" transform="rotate(63 80.92 247.429)"/>
                <path fill="url(#an)" d="M8.735 9.401h7.893c-9.883 30.127-8.399 60 0 89.718H8.735C1.723 69.279.76 39.38 8.735 9.4z" opacity=".411" transform="rotate(63 80.92 247.429)"/>
                <path fill="url(#ao)" d="M18.319 9.513h2.255c-7.711 29.006-7.088 58.984 0 89.718h-2.255c-8.24-30.782-8.026-60.665 0-89.718z" opacity=".411" transform="rotate(63 80.92 247.429)"/>
                <g transform="rotate(63 80.92 247.429)">
                    <use fill="#000" filter="url(#ap)" xlink:href="#aq"/>
                    <use fill="#71296A" xlink:href="#aq"/>
                </g>
                <g transform="rotate(63 80.92 247.429)">
                    <use fill="#396EEF" xlink:href="#ar"/>
                    <use fill="#000" filter="url(#as)" xlink:href="#ar"/>
                </g>
                <g transform="rotate(63 80.92 247.429)">
                    <use fill="#2055FF" xlink:href="#at"/>
                    <use fill="#000" filter="url(#au)" xlink:href="#at"/>
                </g>
                <g transform="rotate(63 80.92 247.429)">
                    <use fill="#2055FF" xlink:href="#av"/>
                    <use fill="#000" filter="url(#aw)" xlink:href="#av"/>
                </g>
                <g transform="rotate(63 80.92 247.429)">
                    <use fill="#2055FF" xlink:href="#ax"/>
                    <use fill="#000" filter="url(#ay)" xlink:href="#ax"/>
                </g>
                <g transform="rotate(63 80.92 247.429)">
                    <use fill="#2055FF" xlink:href="#az"/>
                    <use fill="#000" filter="url(#aA)" xlink:href="#az"/>
                </g>
                <g transform="rotate(63 80.92 247.429)">
                    <use fill="#2055FF" xlink:href="#aB"/>
                    <use fill="#000" filter="url(#aC)" xlink:href="#aB"/>
                </g>
            </g>
            <g opacity=".498" transform="translate(203.884)">
                <use fill="url(#aD)" xlink:href="#aE"/>
                <use fill="#000" filter="url(#aF)" xlink:href="#aE"/>
                <path stroke="#AF2CD8" stroke-linecap="round" stroke-width=".5" d="M35.486 12.692a16.134 16.134 0 0 0-9.404-5.689 16.195 16.195 0 0 0-13.404 3.302m-5.815 10.06a16.162 16.162 0 0 0 3.408 12.746m11.41 5.962c3.971.29 8.058-.87 11.398-3.575" opacity=".305"/>
                <g transform="rotate(42 29.207 15.697)">
                    <use fill="#000" filter="url(#aG)" xlink:href="#aH"/>
                    <ellipse cx="29.207" cy="15.697" fill="url(#aJ)" stroke="url(#aI)" stroke-width=".599" rx="2.927" ry="1.877"/>
                </g>
                <g opacity=".705" transform="rotate(120 30.785 28.15)">
                    <use fill="#000" filter="url(#aK)" xlink:href="#aL"/>
                    <ellipse cx="30.785" cy="28.15" fill="url(#aN)" stroke="url(#aM)" stroke-width=".599" rx="2.556" ry="1.649"/>
                </g>
                <g opacity=".759" transform="rotate(-126 22.716 21.816)">
                    <use fill="#000" filter="url(#aO)" xlink:href="#aP"/>
                    <ellipse cx="22.716" cy="21.816" fill="url(#aR)" stroke="url(#aQ)" stroke-width=".599" rx="1.427" ry="1.341"/>
                </g>
                <g opacity=".303" transform="rotate(-121 18.157 29.372)">
                    <use fill="#000" filter="url(#aS)" xlink:href="#aT"/>
                    <ellipse cx="18.157" cy="29.372" fill="url(#aV)" stroke="url(#aU)" stroke-width=".599" rx="2.556" ry="1.649"/>
                </g>
                <g transform="rotate(-44 14.469 15.077)">
                    <use fill="#000" filter="url(#aW)" xlink:href="#aX"/>
                    <ellipse cx="14.469" cy="15.077" fill="url(#aZ)" stroke="url(#aY)" stroke-width=".599" rx="2.102" ry="1.201"/>
                </g>
                <ellipse cx="23.068" cy="22.233" stroke="url(#ba)" stroke-width="2.994" rx="21.325" ry="5.996" transform="rotate(21 23.068 22.233)"/>
            </g>
        </g>
    </g>
</svg>
