<svg xmlns="http://www.w3.org/2000/svg" xmlns:xlink="http://www.w3.org/1999/xlink" width="553" height="358" viewBox="0 0 553 358">
    <defs>
        <filter id="a" width="165.4%" height="247.2%" x="-32.7%" y="-73.6%" filterUnits="objectBoundingBox">
            <feGaussianBlur in="SourceGraphic" stdDeviation="39"/>
        </filter>
        <linearGradient id="b" x1="50%" x2="50%" y1="-50.839%" y2="93.591%">
            <stop offset="0%" stop-color="#0056C2"/>
            <stop offset="100%" stop-color="#007AC2" stop-opacity="0"/>
        </linearGradient>
        <linearGradient id="c" x1="55.022%" x2="50%" y1="-92.699%" y2="78.016%">
            <stop offset="0%" stop-color="#0056C2"/>
            <stop offset="100%" stop-color="#007AC2" stop-opacity="0"/>
        </linearGradient>
        <linearGradient id="e" x1="50%" x2="50%" y1="0%" y2="100%">
            <stop offset="0%" stop-color="#2B9BE2"/>
            <stop offset="100%" stop-color="#4665E6" stop-opacity="0"/>
        </linearGradient>
        <path id="d" d="M17.408 0l29.797 13.813 19.894 64.77H0z"/>
        <path id="g" d="M2.173 53.636h20.801v4.366H2.173z"/>
        <filter id="h" width="109.6%" height="145.8%" x="-4.8%" y="-22.9%" filterUnits="objectBoundingBox">
            <feOffset dy="2" in="SourceAlpha" result="shadowOffsetInner1"/>
            <feComposite in="shadowOffsetInner1" in2="SourceAlpha" k2="-1" k3="1" operator="arithmetic" result="shadowInnerInner1"/>
            <feColorMatrix in="shadowInnerInner1" values="0 0 0 0 0.00442181476 0 0 0 0 0.20548092 0 0 0 0 0.456804801 0 0 0 1 0"/>
        </filter>
        <path id="i" d="M0 62.368h22.974v4.366H0z"/>
        <filter id="j" width="108.7%" height="145.8%" x="-4.4%" y="-22.9%" filterUnits="objectBoundingBox">
            <feOffset dy="2" in="SourceAlpha" result="shadowOffsetInner1"/>
            <feComposite in="shadowOffsetInner1" in2="SourceAlpha" k2="-1" k3="1" operator="arithmetic" result="shadowInnerInner1"/>
            <feColorMatrix in="shadowInnerInner1" values="0 0 0 0 0.0170237601 0 0 0 0 0.115540972 0 0 0 0 0.305961277 0 0 0 0.728638549 0"/>
        </filter>
        <path id="k" d="M4.657 44.905h18.317v4.366H4.657z"/>
        <filter id="l" width="110.9%" height="145.8%" x="-5.5%" y="-22.9%" filterUnits="objectBoundingBox">
            <feOffset dy="2" in="SourceAlpha" result="shadowOffsetInner1"/>
            <feComposite in="shadowOffsetInner1" in2="SourceAlpha" k2="-1" k3="1" operator="arithmetic" result="shadowInnerInner1"/>
            <feColorMatrix in="shadowInnerInner1" values="0 0 0 0 0.0298615198 0 0 0 0 0.252799473 0 0 0 0 0.534675045 0 0 0 1 0"/>
        </filter>
        <ellipse id="n" cx="1.474" cy="8.965" rx="1.474" ry="1.481"/>
        <filter id="m" width="405.2%" height="403.9%" x="-152.6%" y="-151.9%" filterUnits="objectBoundingBox">
            <feOffset in="SourceAlpha" result="shadowOffsetOuter1"/>
            <feGaussianBlur in="shadowOffsetOuter1" result="shadowBlurOuter1" stdDeviation="1.5"/>
            <feColorMatrix in="shadowBlurOuter1" values="0 0 0 0 0.109803922 0 0 0 0 0.91372549 0 0 0 0 0.678431373 0 0 0 1 0"/>
        </filter>
        <ellipse id="p" cx="1.474" cy="1.481" rx="1.474" ry="1.481"/>
        <filter id="o" width="405.2%" height="403.9%" x="-152.6%" y="-151.9%" filterUnits="objectBoundingBox">
            <feOffset in="SourceAlpha" result="shadowOffsetOuter1"/>
            <feGaussianBlur in="shadowOffsetOuter1" result="shadowBlurOuter1" stdDeviation="1.5"/>
            <feColorMatrix in="shadowBlurOuter1" values="0 0 0 0 0.109803922 0 0 0 0 0.91372549 0 0 0 0 0.678431373 0 0 0 1 0"/>
        </filter>
        <ellipse id="r" cx="1.474" cy="16.137" rx="1.474" ry="1.481"/>
        <filter id="q" width="405.2%" height="403.9%" x="-152.6%" y="-151.9%" filterUnits="objectBoundingBox">
            <feOffset in="SourceAlpha" result="shadowOffsetOuter1"/>
            <feGaussianBlur in="shadowOffsetOuter1" result="shadowBlurOuter1" stdDeviation="1.5"/>
            <feColorMatrix in="shadowBlurOuter1" values="0 0 0 0 0.109803922 0 0 0 0 0.91372549 0 0 0 0 0.678431373 0 0 0 1 0"/>
        </filter>
        <linearGradient id="s" x1="50%" x2="50%" y1="8.466%" y2="83.52%">
            <stop offset="0%" stop-color="#104481"/>
            <stop offset="100%" stop-color="#07489F" stop-opacity="0"/>
        </linearGradient>
        <linearGradient id="t" x1="62.411%" x2="50%" y1="-123.523%" y2="91.88%">
            <stop offset="0%" stop-color="#0059C2"/>
            <stop offset="100%" stop-color="#007AC2" stop-opacity="0"/>
        </linearGradient>
        <linearGradient id="u" x1="39.407%" x2="39.407%" y1="-26.604%" y2="100%">
            <stop offset="0%" stop-color="#0065DB"/>
            <stop offset="100%" stop-color="#007AC2" stop-opacity="0"/>
        </linearGradient>
        <linearGradient id="v" x1="100%" x2="16.378%" y1="27.003%" y2="27.003%">
            <stop offset="0%" stop-color="#2978E7"/>
            <stop offset="100%" stop-color="#0F4C99"/>
        </linearGradient>
        <linearGradient id="w" x1="42.906%" x2="51.085%" y1="-14.775%" y2="85.341%">
            <stop offset="0%" stop-color="#0C4BAA"/>
            <stop offset="100%" stop-color="#1D94D9" stop-opacity=".019"/>
        </linearGradient>
        <linearGradient id="x" x1="-36.99%" x2="72.706%" y1="50%" y2="50%">
            <stop offset="0%" stop-color="#359FC1"/>
            <stop offset="100%" stop-color="#2E51FD"/>
        </linearGradient>
        <linearGradient id="y" x1="86.757%" x2="0%" y1="75.392%" y2="82.17%">
            <stop offset="0%" stop-color="#B493D5" stop-opacity=".734"/>
            <stop offset="100%" stop-color="#5D52D4" stop-opacity=".823"/>
        </linearGradient>
        <linearGradient id="z" x1="86.757%" x2="0%" y1="75.392%" y2="82.17%">
            <stop offset="0%" stop-color="#B493D5" stop-opacity=".509"/>
            <stop offset="100%" stop-color="#5D52D4" stop-opacity=".763"/>
        </linearGradient>
        <linearGradient id="A" x1="86.757%" x2="0%" y1="75.392%" y2="82.17%">
            <stop offset="0%" stop-color="#B493D5" stop-opacity=".258"/>
            <stop offset="100%" stop-color="#5D52D4" stop-opacity=".58"/>
        </linearGradient>
        <linearGradient id="B" x1="50%" x2="50%" y1="0%" y2="100%">
            <stop offset="0%" stop-color="#23B7C6"/>
            <stop offset="100%" stop-color="#2167BC"/>
        </linearGradient>
        <linearGradient id="C" x1="50%" x2="50%" y1="0%" y2="100%">
            <stop offset="0%" stop-color="#1045D5"/>
            <stop offset="100%" stop-color="#007AC2" stop-opacity="0"/>
        </linearGradient>
        <linearGradient id="D" x1="68.607%" x2="50%" y1="-188.814%" y2="70.213%">
            <stop offset="0%" stop-color="#0056C2"/>
            <stop offset="100%" stop-color="#007AC2" stop-opacity="0"/>
        </linearGradient>
        <linearGradient id="E" x1="50%" x2="50%" y1="0%" y2="100%">
            <stop offset="0%" stop-color="#1C80F7"/>
            <stop offset="100%" stop-color="#126AE3" stop-opacity=".002"/>
        </linearGradient>
        <linearGradient id="G" x1="50%" x2="50%" y1="0%" y2="94.993%">
            <stop offset="0%" stop-color="#0B4098"/>
            <stop offset="100%" stop-color="#0069A7" stop-opacity="0"/>
        </linearGradient>
        <path id="F" d="M23.57 16.857c1.93 0 9.132 30.294 21.604 90.882H1.964C14.438 47.151 21.64 16.857 23.57 16.857z"/>
        <filter id="H" width="130.1%" height="114.3%" x="-15%" y="-7.2%" filterUnits="objectBoundingBox">
            <feOffset dy="13" in="SourceAlpha" result="shadowOffsetInner1"/>
            <feComposite in="shadowOffsetInner1" in2="SourceAlpha" k2="-1" k3="1" operator="arithmetic" result="shadowInnerInner1"/>
            <feColorMatrix in="shadowInnerInner1" values="0 0 0 0 0 0 0 0 0 0.251858383 0 0 0 0 0.532580389 0 0 0 0 0"/>
        </filter>
        <linearGradient id="I" x1="50%" x2="50%" y1="0%" y2="100%">
            <stop offset="0%" stop-color="#0E81E3"/>
            <stop offset="100%" stop-color="#236DF6"/>
        </linearGradient>
        <linearGradient id="K" x1="50%" x2="50%" y1="0%" y2="100%">
            <stop offset="0%" stop-color="#0E81E3" stop-opacity=".616"/>
            <stop offset="100%" stop-color="#236DF6" stop-opacity=".576"/>
        </linearGradient>
        <linearGradient id="L" x1="50%" x2="50%" y1="0%" y2="100%">
            <stop offset="0%" stop-color="#0E81E3" stop-opacity=".198"/>
            <stop offset="100%" stop-color="#236DF6" stop-opacity=".412"/>
        </linearGradient>
        <linearGradient id="M" x1="50%" x2="50%" y1="0%" y2="100%">
            <stop offset="0%" stop-color="#0E81E3" stop-opacity=".333"/>
            <stop offset="100%" stop-color="#236DF6" stop-opacity=".454"/>
        </linearGradient>
        <linearGradient id="N" x1="50%" x2="50%" y1="91.732%" y2="-6.614%">
            <stop offset="0%" stop-color="#0056C2" stop-opacity="0"/>
            <stop offset="100%" stop-color="#2AB0FF"/>
        </linearGradient>
        <linearGradient id="O" x1="50%" x2="50%" y1="-27.987%" y2="100%">
            <stop offset="0%" stop-color="#4580F7"/>
            <stop offset="100%" stop-color="#78A4FF" stop-opacity="0"/>
        </linearGradient>
        <linearGradient id="P" x1="50%" x2="50%" y1="0%" y2="100%">
            <stop offset="0%" stop-color="#162D7A"/>
            <stop offset="100%" stop-color="#592E8F"/>
        </linearGradient>
        <linearGradient id="Q" x1="50%" x2="50%" y1="0%" y2="100%">
            <stop offset="0%" stop-color="#42A4FF" stop-opacity=".746"/>
            <stop offset="100%" stop-color="#73A9FF" stop-opacity=".761"/>
        </linearGradient>
        <linearGradient id="R" x1="50%" x2="50%" y1="0%" y2="100%">
            <stop offset="0%" stop-color="#117FE4" stop-opacity=".612"/>
            <stop offset="100%" stop-color="#4B84FF" stop-opacity=".685"/>
        </linearGradient>
        <linearGradient id="S" x1="0%" y1="50%" y2="50%">
            <stop offset="0%" stop-color="#0076E7" stop-opacity=".799"/>
            <stop offset="100%" stop-color="#C292FF" stop-opacity=".853"/>
        </linearGradient>
        <path id="T" d="M5.894 39.895h37.89v5.619H5.894z"/>
        <filter id="U" width="118.5%" height="224.6%" x="-9.2%" y="-62.3%" filterUnits="objectBoundingBox">
            <feOffset dx="-7" in="SourceAlpha" result="shadowOffsetInner1"/>
            <feComposite in="shadowOffsetInner1" in2="SourceAlpha" k2="-1" k3="1" operator="arithmetic" result="shadowInnerInner1"/>
            <feColorMatrix in="shadowInnerInner1" values="0 0 0 0 0.68601866 0 0 0 0 0.627362805 0 0 0 0 1 0 0 0 1 0"/>
        </filter>
        <linearGradient id="V" x1="0%" y1="50%" y2="50%">
            <stop offset="0%" stop-color="#0076E7" stop-opacity=".873"/>
            <stop offset="100%" stop-color="#C292FF" stop-opacity=".847"/>
        </linearGradient>
        <path id="W" d="M5.894 31.466h37.89v5.619H5.894z"/>
        <filter id="X" width="118.5%" height="224.6%" x="-9.2%" y="-62.3%" filterUnits="objectBoundingBox">
            <feOffset dx="-7" in="SourceAlpha" result="shadowOffsetInner1"/>
            <feComposite in="shadowOffsetInner1" in2="SourceAlpha" k2="-1" k3="1" operator="arithmetic" result="shadowInnerInner1"/>
            <feColorMatrix in="shadowInnerInner1" values="0 0 0 0 0.68601866 0 0 0 0 0.627362805 0 0 0 0 1 0 0 0 1 0"/>
        </filter>
        <linearGradient id="Y" x1="80.332%" x2="50%" y1="50%" y2="51.1%">
            <stop offset="0%" stop-color="#AFA0FF" stop-opacity=".866"/>
            <stop offset="100%" stop-color="#2973F4" stop-opacity=".848"/>
        </linearGradient>
        <linearGradient id="Z" x1="50%" x2="50%" y1="0%" y2="100%">
            <stop offset="0%" stop-color="#044E96"/>
            <stop offset="100%" stop-color="#2481FF"/>
        </linearGradient>
        <linearGradient id="aa" x1="50%" x2="50%" y1="0%" y2="99.828%">
            <stop offset="0%" stop-color="#085CAD"/>
            <stop offset="100%" stop-color="#0357CB" stop-opacity=".786"/>
        </linearGradient>
        <linearGradient id="ab" x1="50%" x2="50%" y1="-57.883%" y2="90.284%">
            <stop offset="0%" stop-color="#4683FD"/>
            <stop offset="100%" stop-color="#5A9CFF" stop-opacity="0"/>
        </linearGradient>
        <linearGradient id="ac" x1="50%" x2="50%" y1="100%" y2="0%">
            <stop offset="0%" stop-color="#C8A4EC" stop-opacity=".558"/>
            <stop offset="100%" stop-color="#A95EFA" stop-opacity=".727"/>
        </linearGradient>
        <linearGradient id="ad" x1="50%" x2="50%" y1="100%" y2="0%">
            <stop offset="0%" stop-color="#0790E7" stop-opacity="0"/>
            <stop offset="100%" stop-color="#0357CB"/>
        </linearGradient>
        <linearGradient id="ae" x1="0%" x2="96.596%" y1="50%" y2="50%">
            <stop offset="0%" stop-color="#EEE" stop-opacity="0"/>
            <stop offset="100%" stop-color="#FFF"/>
        </linearGradient>
        <linearGradient id="af" x1="0%" x2="96.596%" y1="50%" y2="50%">
            <stop offset="0%" stop-color="#EEE" stop-opacity="0"/>
            <stop offset="100%" stop-color="#FFF"/>
        </linearGradient>
        <linearGradient id="ag" x1="50%" x2="50%" y1="0%" y2="100%">
            <stop offset="0%" stop-color="#BBAFFF"/>
            <stop offset="100%" stop-color="#AA98FF"/>
        </linearGradient>
        <linearGradient id="aj" x1="50%" x2="50%" y1="0%" y2="100%">
            <stop offset="0%" stop-color="#BBAFFF"/>
            <stop offset="100%" stop-color="#AA98FF"/>
        </linearGradient>
        <path id="ah" d="M82.153 16.873h24.406l9.332 16.193H72.335l7.372-14.684a2.737 2.737 0 0 1 2.446-1.51z"/>
        <filter id="ai" width="116.1%" height="143.2%" x="-8%" y="-21.6%" filterUnits="objectBoundingBox">
            <feOffset dx="7" dy="1" in="SourceAlpha" result="shadowOffsetInner1"/>
            <feComposite in="shadowOffsetInner1" in2="SourceAlpha" k2="-1" k3="1" operator="arithmetic" result="shadowInnerInner1"/>
            <feColorMatrix in="shadowInnerInner1" values="0 0 0 0 0.541176471 0 0 0 0 0.454901961 0 0 0 0 1 0 0 0 1 0"/>
        </filter>
        <linearGradient id="ak" x1="50%" x2="50%" y1="0%" y2="73.616%">
            <stop offset="0%" stop-color="#6551D2"/>
            <stop offset="100%" stop-color="#7A68E1"/>
        </linearGradient>
        <linearGradient id="al" x1="50%" x2="50%" y1="0%" y2="100%">
            <stop offset="0%" stop-color="#BBAFFF"/>
            <stop offset="100%" stop-color="#AA98FF"/>
        </linearGradient>
        <linearGradient id="am" x1="0%" x2="50%" y1="-4.863%" y2="98.225%">
            <stop offset="0%" stop-color="#C65FE0"/>
            <stop offset="100%" stop-color="#DD5AFF"/>
        </linearGradient>
        <linearGradient id="an" x1="50%" x2="50%" y1="142.103%" y2="9.997%">
            <stop offset="0%" stop-color="#08417C"/>
            <stop offset="100%" stop-color="#050C2A"/>
        </linearGradient>
        <linearGradient id="ao" x1="50%" x2="50%" y1="0%" y2="80.372%">
            <stop offset="0%" stop-color="#71FFD3"/>
            <stop offset="100%" stop-color="#0D0B43" stop-opacity="0"/>
        </linearGradient>
        <linearGradient id="ap" x1="50%" x2="50%" y1="2.199%" y2="100%">
            <stop offset="0%" stop-color="#4AFFC7"/>
            <stop offset="100%" stop-color="#0D0B43" stop-opacity="0"/>
        </linearGradient>
        <rect id="aq" width="28.481" height="11.339" rx=".912"/>
        <filter id="ar" width="121.1%" height="152.9%" x="-10.5%" y="-26.5%" filterUnits="objectBoundingBox">
            <feOffset dx="6" in="SourceAlpha" result="shadowOffsetInner1"/>
            <feComposite in="shadowOffsetInner1" in2="SourceAlpha" k2="-1" k3="1" operator="arithmetic" result="shadowInnerInner1"/>
            <feColorMatrix in="shadowInnerInner1" values="0 0 0 0 0.155786843 0 0 0 0 0.143173431 0 0 0 0 0.464815444 0 0 0 1 0"/>
        </filter>
        <linearGradient id="as" x1="50%" x2="50%" y1="142.103%" y2="9.997%">
            <stop offset="0%" stop-color="#08417C"/>
            <stop offset="100%" stop-color="#050C2A"/>
        </linearGradient>
        <rect id="at" width="28.481" height="11.339" rx=".912"/>
        <filter id="au" width="121.1%" height="152.9%" x="-10.5%" y="-26.5%" filterUnits="objectBoundingBox">
            <feOffset dx="6" in="SourceAlpha" result="shadowOffsetInner1"/>
            <feComposite in="shadowOffsetInner1" in2="SourceAlpha" k2="-1" k3="1" operator="arithmetic" result="shadowInnerInner1"/>
            <feColorMatrix in="shadowInnerInner1" values="0 0 0 0 0.155786843 0 0 0 0 0.143173431 0 0 0 0 0.464815444 0 0 0 1 0"/>
        </filter>
        <linearGradient id="av" x1="0%" x2="96.596%" y1="50%" y2="50%">
            <stop offset="0%" stop-color="#EEE" stop-opacity="0"/>
            <stop offset="100%" stop-color="#FFF"/>
        </linearGradient>
        <linearGradient id="aw" x1="0%" x2="96.596%" y1="50%" y2="50%">
            <stop offset="0%" stop-color="#EEE" stop-opacity="0"/>
            <stop offset="100%" stop-color="#FFF"/>
        </linearGradient>
    </defs>
    <g fill="none" fill-rule="evenodd">
        <path d="M38 62h465v260H38z"/>
        <path fill="#0D1F65" d="M17.574 11.026h356.105l1.895 159H18.068z" filter="url(#a)" transform="translate(80 88)"/>
        <g opacity=".798">
            <path fill="url(#b)" d="M69.85 95.216l7.611-8.046v52.7H49.846l18.302-15.99V99.491c0-1.59.609-3.12 1.701-4.275z" opacity=".504" transform="matrix(-1 0 0 1 238.6 153.344)"/>
            <path fill="url(#c)" d="M43.848 104.483l5.998-6.417v42.028h-21.76l14.421-12.752v-19.46c0-1.263.48-2.477 1.341-3.4z" opacity=".504" transform="translate(111.293 153.344)"/>
            <path fill="url(#b)" d="M199.85 95.216l7.611-8.046v52.7h-27.615l18.302-15.99V99.491c0-1.59.609-3.12 1.701-4.275z" opacity=".504" transform="matrix(-1 0 0 1 498.6 153.344)"/>
            <path fill="url(#c)" d="M173.848 104.483l5.998-6.417v42.028h-21.76l14.421-12.752v-19.46c0-1.263.48-2.477 1.341-3.4z" opacity=".504" transform="translate(111.293 153.344)"/>
            <g transform="translate(198.127 214.052)">
                <mask id="f" fill="#fff">
                    <use xlink:href="#d"/>
                </mask>
                <use fill="url(#e)" xlink:href="#d"/>
                <g mask="url(#f)">
                    <use fill="#1456AA" fill-opacity=".694" xlink:href="#g"/>
                    <use fill="#000" filter="url(#h)" xlink:href="#g"/>
                </g>
                <g mask="url(#f)">
                    <use fill="#083F86" fill-opacity=".556" xlink:href="#i"/>
                    <use fill="#000" filter="url(#j)" xlink:href="#i"/>
                </g>
                <g mask="url(#f)">
                    <use fill="#1B52AD" xlink:href="#k"/>
                    <use fill="#000" filter="url(#l)" xlink:href="#k"/>
                </g>
            </g>
            <g transform="translate(217.143 225.59)">
                <use fill="#000" filter="url(#m)" xlink:href="#n"/>
                <use fill="#1CE9AD" xlink:href="#n"/>
            </g>
            <g transform="translate(217.143 225.59)">
                <use fill="#000" filter="url(#o)" xlink:href="#p"/>
                <use fill="#1CE9AD" xlink:href="#p"/>
            </g>
            <g transform="translate(217.143 225.59)">
                <use fill="#000" filter="url(#q)" xlink:href="#r"/>
                <use fill="#1CE9AD" xlink:href="#r"/>
            </g>
            <path fill="url(#s)" d="M27.32 4.544l9.004 4.188v69.852H27.32z" transform="translate(198.127 214.052)"/>
            <path fill="url(#t)" d="M7.451 128.166v-7.92c0-2.237 1.2-4.301 3.144-5.407l6.17-3.512v28.377H7.45v-.156H0v-6.716a4.666 4.666 0 0 1 4.666-4.666H7.45z" opacity=".504" transform="translate(111.293 153.344)"/>
            <path fill="url(#u)" d="M158.79 128.136v-7.92c0-2.237 1.2-4.3 3.143-5.407l6.17-3.512v28.378h-9.314v-.156h-7.45v-6.717a4.666 4.666 0 0 1 4.665-4.666h2.785z" opacity=".504" transform="matrix(-1 0 0 1 430.733 153.344)"/>
            <g transform="translate(126.04 153.344)">
                <g transform="translate(8.364)">
                    <path fill="url(#v)" d="M.95 5.627l6.83-4.068V29L.95 26.56z"/>
                    <ellipse cx="4.346" cy="3.749" fill="#4F7EBF" rx="4.041" ry="1.713" transform="scale(-1 1) rotate(32 0 -11.408)"/>
                </g>
                <path fill="url(#w)" d="M1.863 23.876l26.389 15.416v100.412H1.862z"/>
                <ellipse cx="15.122" cy="32.046" fill="url(#x)" rx="15.387" ry="3.426" transform="rotate(32 15.122 32.046)"/>
                <path fill="url(#y)" d="M1.863 67.786c.814 2.204 5.332 6.28 11.348 10.056 7.27 4.564 13.975 6.96 14.974 5.354a.781.781 0 0 0 .067-.134v3.941h-.234c.316.632.386 1.143.167 1.494-1 1.607-7.644-.753-14.842-5.27-6.54-4.106-11.287-8.58-11.349-10.568h-.131v-4.873z"/>
                <path fill="url(#z)" d="M1.863 83.066c.814 2.204 5.332 6.28 11.348 10.056 7.27 4.564 13.975 6.96 14.974 5.354a.781.781 0 0 0 .067-.134v3.941h-.234c.316.632.386 1.143.167 1.494-1 1.607-7.644-.753-14.842-5.27-6.54-4.106-11.287-8.58-11.349-10.568h-.131v-4.873z"/>
                <path fill="url(#A)" d="M1.863 97.41c.814 2.205 5.332 6.281 11.348 10.057 7.27 4.563 13.975 6.96 14.974 5.354a.781.781 0 0 0 .067-.135v3.942h-.234c.316.632.386 1.143.167 1.494-1 1.606-7.644-.753-14.842-5.271-6.54-4.105-11.287-8.58-11.349-10.568h-.131v-4.872z"/>
                <path fill="#0D3F70" d="M28.252 51.765H9.935l-1.571 4.12h19.948z" opacity=".568"/>
                <path fill="url(#B)" d="M30.54 24.572l1.127-.56v24.643a3.11 3.11 0 0 1-3.11 3.11H9.934c1.936-1.68 3.388-4.088 4.356-7.22.069-.224.137-.453.205-.689A31.104 31.104 0 0 1 30.54 24.572z"/>
            </g>
            <g>
                <path fill="url(#C)" d="M239.574 99.63l8.42 6.18v41.3H223.03l10.385-11.238v-13.917a2.8 2.8 0 0 1 2.799-2.8h3.361V99.63zM299.574 99.63l8.42 6.18v41.3H283.03l10.385-11.238v-13.917a2.8 2.8 0 0 1 2.799-2.8h3.361V99.63zM110.574 99.63l8.42 6.18v41.3H94.03l10.385-11.238v-13.917a2.8 2.8 0 0 1 2.799-2.8h3.361V99.63z" opacity=".504" transform="translate(80 146.131)"/>
                <path fill="url(#C)" d="M384.574 99.63l8.42 6.18v41.3H368.03l10.385-11.238v-13.917a2.8 2.8 0 0 1 2.799-2.8h3.361V99.63z" opacity=".504" transform="matrix(-1 0 0 1 841.023 146.131)"/>
                <path fill="url(#D)" d="M27.172 67.109L41 77.523v69.586H0l17.054-18.935v-26.486c0-.928.752-1.68 1.68-1.68h8.438V67.11z" transform="translate(80 146.131)"/>
                <g transform="translate(328.892 185.049)">
                    <path fill="url(#E)" d="M23.716.187c4.912 0 9.599 18.708 11.26 29.026l12.637 78.526H0l12.638-78.526C14.298 18.895 19.208.187 23.716.187z"/>
                    <mask id="J" fill="#fff">
                        <use xlink:href="#F"/>
                    </mask>
                    <use fill="url(#G)" xlink:href="#F"/>
                    <use fill="#000" filter="url(#H)" xlink:href="#F"/>
                    <path fill="url(#I)" d="M14.595 38.43h18.523v3.09H14.595v-3.09zM1.965 52.478h43.222v3.09H1.965v-3.09z" mask="url(#J)"/>
                    <path fill="url(#K)" d="M1.965 66.526h43.222v3.09H1.965z" mask="url(#J)"/>
                    <path fill="url(#L)" d="M1.965 94.621h43.222v3.09H1.965z" mask="url(#J)"/>
                    <path fill="url(#M)" d="M1.965 80.573h43.222v3.09H1.965z" mask="url(#J)"/>
                </g>
                <path fill="url(#N)" d="M70.48 85.636L82.4 73.11v74h-39l16.222-17.515v-17.462h9.624V88.724c0-1.15.442-2.255 1.234-3.088z" opacity=".504" transform="matrix(-1 0 0 1 508.202 146.131)"/>
                <g transform="translate(382.403 146.131)">
                    <path fill="url(#O)" d="M30.089 128.956H43.84l5.837 17.7-13.753.076z"/>
                    <path fill="url(#P)" d="M18.243 28.657h13.472v100.262H18.243z"/>
                    <path fill="url(#Q)" d="M30.124 48.324h13.66v80.633h-13.66z"/>
                    <path fill="url(#R)" d="M5.844 48.386h24.418v80.633H5.844z"/>
                    <g opacity=".737">
                        <use fill="url(#S)" xlink:href="#T"/>
                        <use fill="#000" filter="url(#U)" xlink:href="#T"/>
                    </g>
                    <g opacity=".737">
                        <use fill="url(#V)" xlink:href="#W"/>
                        <use fill="#000" filter="url(#X)" xlink:href="#W"/>
                    </g>
                    <path fill="#3378F2" d="M23.576 4.495h2.526v18.754h-2.526z" opacity=".743"/>
                    <ellipse cx="24.979" cy="2.81" fill="#3378F2" rx="2.807" ry="2.81"/>
                    <path fill="url(#Y)" d="M22.045 23.038h5.587l16.152 5.619H5.894z"/>
                    <path fill="url(#Z)" d="M41.258 61.81h2.526v3.09h-2.526v-3.09zm0 11.237h2.526v3.09h-2.526v-3.09zm0-5.619h2.526v3.09h-2.526v-3.09zm0 11.238h2.526v3.09h-2.526v-3.09zm0 5.62h2.526v3.09h-2.526v-3.09zm0 5.618h2.526v3.09h-2.526v-3.09zm0 5.62h2.526v3.09h-2.526v-3.09zm0 5.618h2.526v3.09h-2.526v-3.09zm0 5.62h2.526v3.09h-2.526v-3.09zm0 5.618h2.526v3.09h-2.526v-3.09zm0 5.62h2.526v3.09h-2.526V118z"/>
                    <path fill="url(#aa)" d="M35.083 61.809h4.21v67.147h-4.21z"/>
                    <path fill="url(#ab)" d="M5.836 128.956H30.09l5.836 17.7H0z"/>
                    <path fill="url(#ac)" d="M15.585 48.386h4.91v80.633h-4.91z"/>
                    <path fill="url(#ad)" d="M35.083 128.956h4.19l6.219 17.7h-4.735z"/>
                </g>
            </g>
        </g>
        <g opacity=".798">
            <path fill="url(#ae)" d="M0 0h81l17.58 9.966L0 10z" opacity=".148" transform="translate(150.369 92)"/>
            <path fill="url(#af)" d="M0 3h81l17.58 2.99L0 6z" opacity=".214" transform="translate(150.369 92)"/>
        </g>
        <path fill="#5143A3" d="M236.995 125.986h106.227a3.66 3.66 0 0 1-3.66 3.66H236.995v-3.66z"/>
        <path fill="#A190FF" stroke="url(#ag)" stroke-width="1.825" d="M105.467 17.796l6.017 14.636h41.968V18.18l-47.985-.384z" transform="translate(150.369 88)"/>
        <g transform="translate(150.369 88)">
            <use fill="#A190FF" xlink:href="#ah"/>
            <use fill="#000" filter="url(#ai)" xlink:href="#ah"/>
            <path stroke="url(#aj)" stroke-linejoin="square" stroke-width="1.825" d="M73.814 32.154h40.498l-8.28-14.369h-23.88c-.69 0-1.32.39-1.63 1.006l-6.708 13.363z"/>
        </g>
        <path fill="url(#ak)" d="M72.335 32.903h120.518v5.67h-78.78l-1.32 1.183-26.128.833-12.397-4.017a2.737 2.737 0 0 1-1.893-2.604v-1.065z" transform="translate(150.369 88)"/>
        <path fill="#A190FF" stroke="url(#al)" stroke-width="1.825" d="M145.558 32.005l46.78.396 2.156-2.194c.34-.347.53-.813.53-1.298v-4.514c0-.943-.71-1.736-1.647-1.84l-38.924-4.322-8.895 13.772z" transform="translate(150.369 88)"/>
        <path fill="#E8ECED" d="M256.623 91.188h5.003v14.075h-5.003z"/>
        <path fill="#26F2B5" stroke="#BDAFFF" stroke-width="1.825" d="M258.088 92.1v12.259l43.555.36-24.106-12.131a4.562 4.562 0 0 0-2.051-.487h-17.398z"/>
        <path fill="url(#am)" d="M80.83 0l17.58 5.327-17.58 11.937z" transform="translate(150.369 88)"/>
        <path fill="#8C77FF" d="M253.14 91.188h3.868v14.076h-26.175l20.807-13.628a2.737 2.737 0 0 1 1.5-.448z"/>
        <path stroke="#6C56E4" stroke-linecap="round" stroke-width="1.825" d="M242.786 102.184h11.158M248.365 98.523h5.579"/>
        <g transform="translate(199.377 94.133)">
            <path fill="url(#an)" d="M65.714 31.853c0-7.99-6.203-14.467-13.856-14.467-7.652 0-13.855 6.477-13.855 14.467"/>
            <g opacity=".5">
                <path fill="url(#ao)" d="M39.36 0h24.997l2.298 43.008H.492z" transform="translate(0 37.718)"/>
                <path fill="url(#ap)" d="M43.747 0h15.877l-7.488 45L11 44.838z" transform="translate(0 37.718)"/>
            </g>
            <g opacity=".5">
                <path fill="url(#ao)" d="M39.36 0h24.997l2.298 43.008H.492z" transform="translate(63 37.718)"/>
                <path fill="url(#ap)" d="M43.747 0h15.877l-7.488 45L11 44.838z" transform="translate(63 37.718)"/>
            </g>
            <g transform="translate(37.618 26.77)">
                <use fill="#3E3AA0" xlink:href="#aq"/>
                <use fill="#000" filter="url(#ar)" xlink:href="#aq"/>
            </g>
            <ellipse cx="37.965" cy="1.645" fill="#1CE9AD" rx="1.361" ry="1.373"/>
        </g>
        <path fill="url(#as)" d="M28.564 14.466C28.564 6.476 22.446 0 14.9 0 7.354 0 1.237 6.477 1.237 14.466" transform="translate(298.878 111.52)"/>
        <g transform="translate(299.496 120.903)">
            <use fill="#3E3AA0" xlink:href="#at"/>
            <use fill="#000" filter="url(#au)" xlink:href="#at"/>
        </g>
        <g opacity=".75">
            <path fill="url(#av)" d="M0 1.599L149.676.184l5.689 3.48L193.853 8 196 14.4 0 16z" opacity=".148" transform="translate(149.369 102)"/>
            <path fill="url(#aw)" d="M0 3.664h155.365L196 7.832v3.276L.631 12z" opacity=".214" transform="translate(149.369 102)"/>
        </g>
    </g>
</svg>
