<svg xmlns="http://www.w3.org/2000/svg" xmlns:xlink="http://www.w3.org/1999/xlink" width="530" height="333" viewBox="0 0 530 333">
    <defs>
        <linearGradient id="a" x1="54.272%" x2="50%" y1="45.395%" y2="51.954%">
            <stop offset="0%" stop-color="#1E47D1"/>
            <stop offset="44.62%" stop-color="#152066"/>
            <stop offset="100%" stop-color="#0B0743" stop-opacity="0"/>
        </linearGradient>
        <filter id="b" width="151.6%" height="208.1%" x="-25.8%" y="-54.1%" filterUnits="objectBoundingBox">
            <feGaussianBlur in="SourceGraphic" stdDeviation="33"/>
        </filter>
        <linearGradient id="f" x1="98.554%" x2="1.446%" y1="48.554%" y2="48.554%">
            <stop offset="0%" stop-color="#183280"/>
            <stop offset="100%" stop-color="#3564ED"/>
        </linearGradient>
        <linearGradient id="e" x1="36.987%" x2="98.74%" y1="50%" y2="50%">
            <stop offset="0%" stop-color="#1E3B90"/>
            <stop offset="100%" stop-color="#3564ED"/>
        </linearGradient>
        <ellipse id="d" cx="356.094" cy="161.583" rx="24.753" ry="14.853"/>
        <filter id="c" width="112.8%" height="128%" x="-6.4%" y="-10.6%" filterUnits="objectBoundingBox">
            <feMorphology in="SourceAlpha" operator="dilate" radius="2.16" result="shadowSpreadOuter1"/>
            <feOffset dy="2" in="shadowSpreadOuter1" result="shadowOffsetOuter1"/>
            <feComposite in="shadowOffsetOuter1" in2="SourceAlpha" operator="out" result="shadowOffsetOuter1"/>
            <feColorMatrix in="shadowOffsetOuter1" values="0 0 0 0 0.0920674653 0 0 0 0 0.191256972 0 0 0 0 0.480383832 0 0 0 1 0"/>
        </filter>
        <linearGradient id="j" x1="98.554%" x2="1.446%" y1="48.554%" y2="48.554%">
            <stop offset="0%" stop-color="#0B1E56"/>
            <stop offset="100%" stop-color="#3D6DF7"/>
        </linearGradient>
        <linearGradient id="i" x1="36.987%" x2="98.74%" y1="50%" y2="50%">
            <stop offset="0%" stop-color="#122A71"/>
            <stop offset="100%" stop-color="#3564ED"/>
        </linearGradient>
        <ellipse id="h" cx="143.308" cy="155.981" rx="38.5" ry="22"/>
        <filter id="g" width="113.4%" height="128%" x="-6.7%" y="-11.7%" filterUnits="objectBoundingBox">
            <feMorphology in="SourceAlpha" operator="dilate" radius="4.16" result="shadowSpreadOuter1"/>
            <feOffset dy="2" in="shadowSpreadOuter1" result="shadowOffsetOuter1"/>
            <feComposite in="shadowOffsetOuter1" in2="SourceAlpha" operator="out" result="shadowOffsetOuter1"/>
            <feColorMatrix in="shadowOffsetOuter1" values="0 0 0 0 0.00145819871 0 0 0 0 0.0331307579 0 0 0 0 0.125452899 0 0 0 1 0"/>
        </filter>
        <linearGradient id="k" x1="50%" x2="50%" y1="0%" y2="100%">
            <stop offset="0%" stop-color="#7457FF"/>
            <stop offset="100%" stop-color="#7049F6"/>
        </linearGradient>
        <linearGradient id="l" x1="50%" x2="50%" y1="0%" y2="100%">
            <stop offset="0%" stop-color="#6E59FD"/>
            <stop offset="100%" stop-color="#7049F6"/>
        </linearGradient>
        <path id="m" d="M22.695 5.777h3.455v10.37h-3.455z"/>
        <filter id="n" width="128.9%" height="109.6%" x="-14.5%" y="-4.8%" filterUnits="objectBoundingBox">
            <feOffset dx="1" in="SourceAlpha" result="shadowOffsetInner1"/>
            <feComposite in="shadowOffsetInner1" in2="SourceAlpha" k2="-1" k3="1" operator="arithmetic" result="shadowInnerInner1"/>
            <feColorMatrix in="shadowInnerInner1" values="0 0 0 0 0.110938909 0 0 0 0 0.0634287376 0 0 0 0 0.366762908 0 0 0 1 0"/>
        </filter>
        <ellipse id="o" cx="24.423" cy="3.321" rx="3.319" ry="3.321"/>
        <filter id="p" width="130.1%" height="130.1%" x="-15.1%" y="-15.1%" filterUnits="objectBoundingBox">
            <feOffset dx="2" in="SourceAlpha" result="shadowOffsetInner1"/>
            <feComposite in="shadowOffsetInner1" in2="SourceAlpha" k2="-1" k3="1" operator="arithmetic" result="shadowInnerInner1"/>
            <feColorMatrix in="shadowInnerInner1" values="0 0 0 0 0.558682756 0 0 0 0 0.185409023 0 0 0 0 0.655457428 0 0 0 1 0"/>
        </filter>
        <linearGradient id="q" x1="50%" x2="50%" y1="0%" y2="98.857%">
            <stop offset="0%" stop-color="#8565FF"/>
            <stop offset="100%" stop-color="#6D52FF"/>
        </linearGradient>
        <path id="r" d="M13.558 16.147h23a2 2 0 0 1 2 2v21.045h-27V18.147a2 2 0 0 1 2-2z"/>
        <filter id="s" width="125.9%" height="130.4%" x="-13%" y="-15.2%" filterUnits="objectBoundingBox">
            <feOffset dx="7" dy="1" in="SourceAlpha" result="shadowOffsetInner1"/>
            <feComposite in="shadowOffsetInner1" in2="SourceAlpha" k2="-1" k3="1" operator="arithmetic" result="shadowInnerInner1"/>
            <feColorMatrix in="shadowInnerInner1" values="0 0 0 0 0.374456653 0 0 0 0 0.256707317 0 0 0 0 1 0 0 0 1 0"/>
        </filter>
        <rect id="u" width="7" height="3" x="16.306" y="29.161" rx="1.5"/>
        <filter id="t" width="271.4%" height="500%" x="-85.7%" y="-200%" filterUnits="objectBoundingBox">
            <feOffset in="SourceAlpha" result="shadowOffsetOuter1"/>
            <feGaussianBlur in="shadowOffsetOuter1" result="shadowBlurOuter1" stdDeviation="2"/>
            <feColorMatrix in="shadowBlurOuter1" values="0 0 0 0 0.149019608 0 0 0 0 0.949019608 0 0 0 0 0.709803922 0 0 0 1 0"/>
        </filter>
        <rect id="w" width="7" height="3" x="26.306" y="29.161" rx="1.5"/>
        <filter id="v" width="271.4%" height="500%" x="-85.7%" y="-200%" filterUnits="objectBoundingBox">
            <feOffset in="SourceAlpha" result="shadowOffsetOuter1"/>
            <feGaussianBlur in="shadowOffsetOuter1" result="shadowBlurOuter1" stdDeviation="2"/>
            <feColorMatrix in="shadowBlurOuter1" values="0 0 0 0 0.149019608 0 0 0 0 0.949019608 0 0 0 0 0.709803922 0 0 0 1 0"/>
        </filter>
        <rect id="y" width="17" height="3" x="16.306" y="23.161" rx="1.5"/>
        <filter id="x" width="170.6%" height="500%" x="-35.3%" y="-200%" filterUnits="objectBoundingBox">
            <feOffset in="SourceAlpha" result="shadowOffsetOuter1"/>
            <feGaussianBlur in="shadowOffsetOuter1" result="shadowBlurOuter1" stdDeviation="2"/>
            <feColorMatrix in="shadowBlurOuter1" values="0 0 0 0 0.149019608 0 0 0 0 0.949019608 0 0 0 0 0.709803922 0 0 0 1 0"/>
        </filter>
        <path id="z" d="M47 49.6c-.202-6.005-5.128-10.767-11.136-10.767H11.316C3.19 40.143 2.434 44.924.637 49.216L47 49.6z"/>
        <filter id="A" width="123.7%" height="202.2%" x="-11.9%" y="-51.1%" filterUnits="objectBoundingBox">
            <feOffset dx="11" in="SourceAlpha" result="shadowOffsetInner1"/>
            <feComposite in="shadowOffsetInner1" in2="SourceAlpha" k2="-1" k3="1" operator="arithmetic" result="shadowInnerInner1"/>
            <feColorMatrix in="shadowInnerInner1" values="0 0 0 0 0.134411258 0 0 0 0 0.0940463716 0 0 0 0 0.351760643 0 0 0 1 0"/>
        </filter>
        <linearGradient id="B" x1="66.873%" x2="26.446%" y1="68.163%" y2="24.449%">
            <stop offset="0%" stop-color="#5140FF"/>
            <stop offset="100%" stop-color="#6F96FF"/>
        </linearGradient>
        <linearGradient id="D" x1="50%" x2="50%" y1="99.045%" y2="0%">
            <stop offset="0%" stop-color="#866CFF"/>
            <stop offset="100%" stop-color="#AEA0FF"/>
        </linearGradient>
        <path id="C" d="M17.906.036l.117-.022v.052c3.017.837 7.056 7.066 12.115 18.688C37.981 36.768 35.72 58.8 34.39 65.436c-.738 3.678-2.271 8.057-4.601 13.137a5.45 5.45 0 0 1-4.953 3.177h-6.812v.015h-7.111a5.45 5.45 0 0 1-4.954-3.178c-2.33-5.08-3.863-9.458-4.6-13.136-1.332-6.637-3.593-28.669 4.25-46.683C10.668 7.147 14.706.918 17.724.08V0c.06.01.12.022.182.036z"/>
        <filter id="E" width="125.2%" height="111%" x="-12.6%" y="-5.5%" filterUnits="objectBoundingBox">
            <feOffset dx="9" in="SourceAlpha" result="shadowOffsetInner1"/>
            <feComposite in="shadowOffsetInner1" in2="SourceAlpha" k2="-1" k3="1" operator="arithmetic" result="shadowInnerInner1"/>
            <feColorMatrix in="shadowInnerInner1" values="0 0 0 0 0.47885892 0 0 0 0 0.378639482 0 0 0 0 1 0 0 0 0.526496941 0"/>
        </filter>
        <linearGradient id="G" x1="50%" x2="50%" y1="100%" y2="34.637%">
            <stop offset="0%" stop-color="#A138A7"/>
            <stop offset="100%" stop-color="#C573FD"/>
        </linearGradient>
        <linearGradient id="H" x1="50%" x2="50%" y1="0%" y2="100%">
            <stop offset="0%" stop-color="#FFE433"/>
            <stop offset="100%" stop-color="#FF51EE"/>
        </linearGradient>
        <linearGradient id="I" x1="50%" x2="50%" y1="0%" y2="100%">
            <stop offset="0%" stop-color="#B23CD1"/>
            <stop offset="100%" stop-color="#B93DD9"/>
        </linearGradient>
        <ellipse id="K" cx="26.018" cy="28.328" rx="5.818" ry="5.787"/>
        <filter id="J" width="228.9%" height="229.6%" x="-64.5%" y="-64.8%" filterUnits="objectBoundingBox">
            <feOffset in="SourceAlpha" result="shadowOffsetOuter1"/>
            <feGaussianBlur in="shadowOffsetOuter1" result="shadowBlurOuter1" stdDeviation="2.5"/>
            <feColorMatrix in="shadowBlurOuter1" values="0 0 0 0 0.149019608 0 0 0 0 0.949019608 0 0 0 0 0.709803922 0 0 0 1 0"/>
        </filter>
        <linearGradient id="L" x1="50%" x2="50%" y1="0%" y2="100%">
            <stop offset="0%" stop-color="#B33BD2"/>
            <stop offset="100%" stop-color="#C862E2"/>
        </linearGradient>
        <path id="M" d="M9.553 51.008c-1.915.66-13.742 21.847-7.989 37.662.8 2.2 2.594 1.925 4.306 1.022 1.966-1.037 5.556-4.892 10.773-11.563-3.733-9.92-5.458-18.56-5.176-25.921 0-1.24-.638-1.64-1.914-1.2z"/>
        <filter id="N" width="124%" height="110.1%" x="-12%" y="-5.1%" filterUnits="objectBoundingBox">
            <feOffset dx="4" in="SourceAlpha" result="shadowOffsetInner1"/>
            <feComposite in="shadowOffsetInner1" in2="SourceAlpha" k2="-1" k3="1" operator="arithmetic" result="shadowInnerInner1"/>
            <feColorMatrix in="shadowInnerInner1" values="0 0 0 0 0 0 0 0 0 0 0 0 0 0 0 0 0 0 0.157998252 0"/>
        </filter>
        <linearGradient id="O" x1="50%" x2="50%" y1="0%" y2="100%">
            <stop offset="0%" stop-color="#B335D4"/>
            <stop offset="100%" stop-color="#B050C9"/>
        </linearGradient>
        <path id="P" d="M45 51.008c-1.914.66-13.742 21.847-7.988 37.662.8 2.2 2.594 1.925 4.306 1.022 1.965-1.037 5.556-4.892 10.773-11.563-3.733-9.92-5.458-18.56-5.176-25.921 0-1.24-.638-1.64-1.915-1.2z"/>
        <filter id="Q" width="124%" height="110.1%" x="-12%" y="-5.1%" filterUnits="objectBoundingBox">
            <feOffset dx="4" in="SourceAlpha" result="shadowOffsetInner1"/>
            <feComposite in="shadowOffsetInner1" in2="SourceAlpha" k2="-1" k3="1" operator="arithmetic" result="shadowInnerInner1"/>
            <feColorMatrix in="shadowInnerInner1" values="0 0 0 0 1 0 0 0 0 1 0 0 0 0 1 0 0 0 0.21170236 0"/>
        </filter>
        <linearGradient id="R" x1="50%" x2="48.592%" y1="107.258%" y2="42.933%">
            <stop offset="0%" stop-color="#FFF"/>
            <stop offset="100%" stop-color="#2B0A3D" stop-opacity="0"/>
        </linearGradient>
        <linearGradient id="S" x1="49.997%" x2="48.775%" y1="107.076%" y2="30.618%">
            <stop offset="0%" stop-color="#FFF"/>
            <stop offset="100%" stop-color="#340D40" stop-opacity="0"/>
        </linearGradient>
        <linearGradient id="T" x1="50%" x2="48.709%" y1="107.258%" y2="53.924%">
            <stop offset="0%" stop-color="#CE79F5"/>
            <stop offset="100%" stop-color="#2B0A3D" stop-opacity="0"/>
        </linearGradient>
        <linearGradient id="U" x1="86.615%" x2="24.458%" y1="21.032%" y2="100%">
            <stop offset="0%" stop-color="#045A9D"/>
            <stop offset="100%" stop-color="#002D64"/>
        </linearGradient>
        <ellipse id="V" cx="29.509" cy="29.27" rx="16.194" ry="16.662"/>
        <filter id="W" width="121.6%" height="121%" x="-10.8%" y="-10.5%" filterUnits="objectBoundingBox">
            <feOffset dx="-6" dy="-7" in="SourceAlpha" result="shadowOffsetInner1"/>
            <feComposite in="shadowOffsetInner1" in2="SourceAlpha" k2="-1" k3="1" operator="arithmetic" result="shadowInnerInner1"/>
            <feColorMatrix in="shadowInnerInner1" values="0 0 0 0 0 0 0 0 0 0 0 0 0 0 0 0 0 0 0.099104021 0"/>
        </filter>
        <linearGradient id="aa" x1="50%" x2="50%" y1="0%" y2="100%">
            <stop offset="0%" stop-color="#003058"/>
            <stop offset="100%" stop-color="#005BAA"/>
        </linearGradient>
        <linearGradient id="Z" x1="36.987%" x2="99.142%" y1="50%" y2="50%">
            <stop offset="0%" stop-color="#035091"/>
            <stop offset="100%" stop-color="#0F68B8"/>
        </linearGradient>
        <ellipse id="Y" cx="39.054" cy="20.64" rx="3.516" ry="2.112"/>
        <filter id="X" width="142.7%" height="218.4%" x="-21.3%" y="-35.5%" filterUnits="objectBoundingBox">
            <feMorphology in="SourceAlpha" operator="dilate" radius=".5" result="shadowSpreadOuter1"/>
            <feOffset dy="2" in="shadowSpreadOuter1" result="shadowOffsetOuter1"/>
            <feComposite in="shadowOffsetOuter1" in2="SourceAlpha" operator="out" result="shadowOffsetOuter1"/>
            <feColorMatrix in="shadowOffsetOuter1" values="0 0 0 0 0.0518902986 0 0 0 0 0.255176178 0 0 0 0 0.428243886 0 0 0 1 0"/>
        </filter>
        <linearGradient id="ae" x1="50%" x2="50%" y1="0%" y2="100%">
            <stop offset="0%" stop-color="#003058"/>
            <stop offset="100%" stop-color="#005BAA"/>
        </linearGradient>
        <linearGradient id="ad" x1="36.987%" x2="99.142%" y1="50%" y2="50%">
            <stop offset="0%" stop-color="#035091"/>
            <stop offset="100%" stop-color="#0F68B8"/>
        </linearGradient>
        <ellipse id="ac" cx="38.66" cy="37.279" rx="3.023" ry="1.804"/>
        <filter id="ab" width="149.6%" height="238.6%" x="-24.8%" y="-41.6%" filterUnits="objectBoundingBox">
            <feMorphology in="SourceAlpha" operator="dilate" radius=".5" result="shadowSpreadOuter1"/>
            <feOffset dy="2" in="shadowSpreadOuter1" result="shadowOffsetOuter1"/>
            <feComposite in="shadowOffsetOuter1" in2="SourceAlpha" operator="out" result="shadowOffsetOuter1"/>
            <feColorMatrix in="shadowOffsetOuter1" values="0 0 0 0 0.0101391973 0 0 0 0 0.21724718 0 0 0 0 0.393568841 0 0 0 1 0"/>
        </filter>
        <linearGradient id="ai" x1="35.915%" x2="50%" y1="91.78%" y2="21.483%">
            <stop offset="0%" stop-color="#003561"/>
            <stop offset="100%" stop-color="#014B8C"/>
        </linearGradient>
        <linearGradient id="ah" x1="36.987%" x2="98.871%" y1="50%" y2="50%">
            <stop offset="0%" stop-color="#024582"/>
            <stop offset="100%" stop-color="#034886"/>
        </linearGradient>
        <ellipse id="ag" cx="17.962" cy="28.247" rx="1.51" ry="1.388"/>
        <filter id="af" width="199.3%" height="280.1%" x="-49.7%" y="-126.1%" filterUnits="objectBoundingBox">
            <feMorphology in="SourceAlpha" operator="dilate" radius=".5" result="shadowSpreadOuter1"/>
            <feOffset dy="-2" in="shadowSpreadOuter1" result="shadowOffsetOuter1"/>
            <feComposite in="shadowOffsetOuter1" in2="SourceAlpha" operator="out" result="shadowOffsetOuter1"/>
            <feColorMatrix in="shadowOffsetOuter1" values="0 0 0 0 0.0101391973 0 0 0 0 0.21724718 0 0 0 0 0.393568841 0 0 0 1 0"/>
        </filter>
        <linearGradient id="al" x1="27.247%" x2="27.247%" y1="100%" y2="0%">
            <stop offset="0%" stop-color="#003561"/>
            <stop offset="100%" stop-color="#014B8C"/>
        </linearGradient>
        <ellipse id="ak" cx="28.474" cy="24.614" rx="1.51" ry="1.388"/>
        <filter id="aj" width="199.3%" height="280.1%" x="-49.7%" y="-126.1%" filterUnits="objectBoundingBox">
            <feMorphology in="SourceAlpha" operator="dilate" radius=".5" result="shadowSpreadOuter1"/>
            <feOffset dy="-2" in="shadowSpreadOuter1" result="shadowOffsetOuter1"/>
            <feComposite in="shadowOffsetOuter1" in2="SourceAlpha" operator="out" result="shadowOffsetOuter1"/>
            <feColorMatrix in="shadowOffsetOuter1" values="0 0 0 0 0.0101391973 0 0 0 0 0.21724718 0 0 0 0 0.393568841 0 0 0 1 0"/>
        </filter>
        <linearGradient id="ap" x1="50%" x2="50%" y1="100%" y2="0%">
            <stop offset="0%" stop-color="#003058"/>
            <stop offset="100%" stop-color="#005BAA"/>
        </linearGradient>
        <linearGradient id="ao" x1="36.987%" x2="99.142%" y1="50%" y2="50%">
            <stop offset="0%" stop-color="#035091"/>
            <stop offset="100%" stop-color="#0F68B8"/>
        </linearGradient>
        <ellipse id="an" cx="23.631" cy="38.196" rx="2.787" ry="1.805"/>
        <filter id="am" width="153.8%" height="238.5%" x="-26.9%" y="-41.6%" filterUnits="objectBoundingBox">
            <feMorphology in="SourceAlpha" operator="dilate" radius=".5" result="shadowSpreadOuter1"/>
            <feOffset dy="2" in="shadowSpreadOuter1" result="shadowOffsetOuter1"/>
            <feComposite in="shadowOffsetOuter1" in2="SourceAlpha" operator="out" result="shadowOffsetOuter1"/>
            <feColorMatrix in="shadowOffsetOuter1" values="0 0 0 0 0.0101391973 0 0 0 0 0.21724718 0 0 0 0 0.393568841 0 0 0 1 0"/>
        </filter>
        <linearGradient id="at" x1="50%" x2="50%" y1="0%" y2="100%">
            <stop offset="0%" stop-color="#003058"/>
            <stop offset="100%" stop-color="#005BAA"/>
        </linearGradient>
        <linearGradient id="as" x1="36.987%" x2="99.142%" y1="50%" y2="50%">
            <stop offset="0%" stop-color="#035091"/>
            <stop offset="100%" stop-color="#0F68B8"/>
        </linearGradient>
        <ellipse id="ar" cx="18.737" cy="18.615" rx="2.412" ry="1.206"/>
        <filter id="aq" width="162.2%" height="307.3%" x="-31.1%" y="-62.2%" filterUnits="objectBoundingBox">
            <feMorphology in="SourceAlpha" operator="dilate" radius=".5" result="shadowSpreadOuter1"/>
            <feOffset dy="2" in="shadowSpreadOuter1" result="shadowOffsetOuter1"/>
            <feComposite in="shadowOffsetOuter1" in2="SourceAlpha" operator="out" result="shadowOffsetOuter1"/>
            <feColorMatrix in="shadowOffsetOuter1" values="0 0 0 0 0.0101391973 0 0 0 0 0.21724718 0 0 0 0 0.393568841 0 0 0 1 0"/>
        </filter>
        <linearGradient id="au" x1="23.287%" x2="90.694%" y1="100%" y2="22.332%">
            <stop offset="0%" stop-color="#250040"/>
            <stop offset="100%" stop-color="#631450"/>
        </linearGradient>
        <ellipse id="av" cx="34.728" cy="34.599" rx="18.732" ry="18.846"/>
        <filter id="aw" width="129.4%" height="129.2%" x="-14.7%" y="-14.6%" filterUnits="objectBoundingBox">
            <feOffset dx="5" dy="-11" in="SourceAlpha" result="shadowOffsetInner1"/>
            <feComposite in="shadowOffsetInner1" in2="SourceAlpha" k2="-1" k3="1" operator="arithmetic" result="shadowInnerInner1"/>
            <feColorMatrix in="shadowInnerInner1" values="0 0 0 0 0 0 0 0 0 0 0 0 0 0 0 0 0 0 0.198918269 0"/>
        </filter>
        <linearGradient id="aA" x1="50%" x2="50%" y1="0%" y2="100%">
            <stop offset="0%" stop-color="#420A3C"/>
            <stop offset="97.107%" stop-color="#580B55"/>
        </linearGradient>
        <linearGradient id="az" x1="82.562%" x2="0%" y1="54.015%" y2="50%">
            <stop offset="0%" stop-color="#6A1B64"/>
            <stop offset="100%" stop-color="#5C1550"/>
        </linearGradient>
        <ellipse id="ay" cx="44.042" cy="23.646" rx="3.96" ry="2.378"/>
        <filter id="ax" width="131.5%" height="173.5%" x="-15.7%" y="-26.2%" filterUnits="objectBoundingBox">
            <feMorphology in="SourceAlpha" operator="dilate" radius=".746" result="shadowSpreadOuter1"/>
            <feOffset dy="1" in="shadowSpreadOuter1" result="shadowOffsetOuter1"/>
            <feComposite in="shadowOffsetOuter1" in2="SourceAlpha" operator="out" result="shadowOffsetOuter1"/>
            <feColorMatrix in="shadowOffsetOuter1" values="0 0 0 0 0.225685009 0 0 0 0 0.0282708317 0 0 0 0 0.216573585 0 0 0 1 0"/>
        </filter>
        <linearGradient id="aE" x1="50%" x2="50%" y1="0%" y2="97.107%">
            <stop offset="0%" stop-color="#420A3C"/>
            <stop offset="100%" stop-color="#580B55"/>
        </linearGradient>
        <linearGradient id="aD" x1="36.987%" x2="98.74%" y1="50%" y2="50%">
            <stop offset="0%" stop-color="#6A1B64"/>
            <stop offset="100%" stop-color="#5C1550"/>
        </linearGradient>
        <ellipse id="aC" cx="46.423" cy="42.407" rx="3.401" ry="2.034"/>
        <filter id="aB" width="136.7%" height="185.9%" x="-18.3%" y="-30.6%" filterUnits="objectBoundingBox">
            <feMorphology in="SourceAlpha" operator="dilate" radius=".746" result="shadowSpreadOuter1"/>
            <feOffset dy="1" in="shadowSpreadOuter1" result="shadowOffsetOuter1"/>
            <feComposite in="shadowOffsetOuter1" in2="SourceAlpha" operator="out" result="shadowOffsetOuter1"/>
            <feColorMatrix in="shadowOffsetOuter1" values="0 0 0 0 0.225685009 0 0 0 0 0.0282708317 0 0 0 0 0.216573585 0 0 0 1 0"/>
        </filter>
        <linearGradient id="aI" x1="50%" x2="50%" y1="97.107%" y2="0%">
            <stop offset="0%" stop-color="#390333"/>
            <stop offset="100%" stop-color="#570755"/>
        </linearGradient>
        <linearGradient id="aH" x1="36.987%" x2="98.74%" y1="50%" y2="50%">
            <stop offset="0%" stop-color="#500F4B"/>
            <stop offset="100%" stop-color="#580E59"/>
        </linearGradient>
        <ellipse id="aG" cx="34.256" cy="32.865" rx="1.699" ry="1.571"/>
        <filter id="aF" width="173.3%" height="211.2%" x="-36.7%" y="-71.5%" filterUnits="objectBoundingBox">
            <feMorphology in="SourceAlpha" operator="dilate" radius=".746" result="shadowSpreadOuter1"/>
            <feOffset dy="-1" in="shadowSpreadOuter1" result="shadowOffsetOuter1"/>
            <feComposite in="shadowOffsetOuter1" in2="SourceAlpha" operator="out" result="shadowOffsetOuter1"/>
            <feColorMatrix in="shadowOffsetOuter1" values="0 0 0 0 0.225685009 0 0 0 0 0.0282708317 0 0 0 0 0.216573585 0 0 0 1 0"/>
        </filter>
        <linearGradient id="aM" x1="50%" x2="50%" y1="0%" y2="97.107%">
            <stop offset="0%" stop-color="#270623"/>
            <stop offset="98.435%" stop-color="#4C084A"/>
        </linearGradient>
        <linearGradient id="aL" x1="36.987%" x2="98.74%" y1="50%" y2="50%">
            <stop offset="0%" stop-color="#520A4D"/>
            <stop offset="100%" stop-color="#3F0E37"/>
        </linearGradient>
        <ellipse id="aK" cx="27.379" cy="44.248" rx="3.4" ry="2.035"/>
        <filter id="aJ" width="136.7%" height="185.8%" x="-18.3%" y="-30.6%" filterUnits="objectBoundingBox">
            <feMorphology in="SourceAlpha" operator="dilate" radius=".746" result="shadowSpreadOuter1"/>
            <feOffset dy="1" in="shadowSpreadOuter1" result="shadowOffsetOuter1"/>
            <feComposite in="shadowOffsetOuter1" in2="SourceAlpha" operator="out" result="shadowOffsetOuter1"/>
            <feColorMatrix in="shadowOffsetOuter1" values="0 0 0 0 0.225685009 0 0 0 0 0.0282708317 0 0 0 0 0.216573585 0 0 0 1 0"/>
        </filter>
        <linearGradient id="aQ" x1="98.554%" x2="1.446%" y1="48.554%" y2="48.554%">
            <stop offset="0%" stop-color="#3B0835"/>
            <stop offset="100%" stop-color="#540952"/>
        </linearGradient>
        <linearGradient id="aP" x1="36.987%" x2="98.74%" y1="50%" y2="50%">
            <stop offset="0%" stop-color="#451052"/>
            <stop offset="100%" stop-color="#56114A"/>
        </linearGradient>
        <ellipse id="aO" cx="21.818" cy="22.713" rx="2.716" ry="1.358"/>
        <filter id="aN" width="145.9%" height="228.6%" x="-22.9%" y="-45.9%" filterUnits="objectBoundingBox">
            <feMorphology in="SourceAlpha" operator="dilate" radius=".746" result="shadowSpreadOuter1"/>
            <feOffset dy="1" in="shadowSpreadOuter1" result="shadowOffsetOuter1"/>
            <feComposite in="shadowOffsetOuter1" in2="SourceAlpha" operator="out" result="shadowOffsetOuter1"/>
            <feColorMatrix in="shadowOffsetOuter1" values="0 0 0 0 0.225685009 0 0 0 0 0.0282708317 0 0 0 0 0.216573585 0 0 0 1 0"/>
        </filter>
        <linearGradient id="aR" x1="50%" x2="50%" y1="15.809%" y2="100%">
            <stop offset="0%" stop-color="#110B37" stop-opacity="0"/>
            <stop offset="100%" stop-color="#561A74"/>
        </linearGradient>
    </defs>
    <g fill="none" fill-rule="evenodd">
        <path d="M498 31H33v260h465z"/>
        <g transform="translate(73 64.45)">
            <path fill="url(#a)" d="M405.829 181.244C368.214 116.751 298.292 73.412 218.247 73.412c-67.57 0-127.928 30.884-167.726 79.306" transform="scale(-1 1) rotate(-9 105.64 3034.878)"/>
            <path fill="#0E2074" d="M0 97.744C59.37 33.196 125.02.922 196.952.922c71.931 0 134.28 16.632 187.048 49.896l-40.176 93.104C273.418 119.14 228.756 106.75 209.84 106.75c-73.295 0-125.945 25.764-157.948 77.294L0 97.745z" filter="url(#b)" transform="translate(0 16.628)"/>
            <g opacity=".177" transform="rotate(42 334.435 169.897)">
                <use fill="#000" filter="url(#c)" xlink:href="#d"/>
                <ellipse cx="356.094" cy="161.583" fill="url(#f)" stroke="url(#e)" stroke-width="2.16" rx="25.833" ry="15.933"/>
            </g>
            <g opacity=".204" transform="rotate(-32 172.302 164.295)">
                <use fill="#000" filter="url(#g)" xlink:href="#h"/>
                <ellipse cx="143.308" cy="155.981" fill="url(#j)" stroke="url(#i)" stroke-width="4.16" rx="40.58" ry="24.08"/>
            </g>
            <ellipse cx="302.995" cy="140.238" fill="#100324" fill-opacity=".487" opacity=".6" rx="24" ry="4.953"/>
            <g>
                <path stroke="url(#k)" stroke-width="3" d="M26.25 2v88.545H2V2z" transform="translate(290.146 49.443)"/>
                <path stroke="url(#l)" stroke-width="3" d="M23.275 57.312l.161-.204-.161.204.975 1.201-.975-1.201L11.794 71.84 24.25 87.4 11.794 71.84 0 86.763 11.794 71.84 0 57.108 11.794 71.84l11.481-14.528-11.662-14.367L23.391 28.58l.045.057-.045-.057.86-1.048-.86 1.048-11.469-14.51L0 28.636 11.922 14.07 23.391 28.58 11.613 42.945 0 28.637l11.613 14.308L0 57.108l11.613-14.163 11.662 14.367zM11.922 14.069L.802 0l11.12 14.07L23.436 0 11.922 14.07z" transform="translate(292.146 51.443)"/>
                <path fill="#0C0E1A" d="M290.146 49.443h28v14h-28z" opacity=".301"/>
                <g transform="translate(279.694 .389)">
                    <use fill="#34277A" xlink:href="#m"/>
                    <use fill="#000" filter="url(#n)" xlink:href="#m"/>
                </g>
                <g transform="translate(279.694 .389)">
                    <use fill="#C054DC" xlink:href="#o"/>
                    <use fill="#000" filter="url(#p)" xlink:href="#o"/>
                </g>
                <g transform="translate(279.694 .389)">
                    <use fill="url(#q)" xlink:href="#r"/>
                    <use fill="#000" filter="url(#s)" xlink:href="#r"/>
                </g>
                <g transform="translate(279.694 .389)">
                    <use fill="#000" filter="url(#t)" xlink:href="#u"/>
                    <use fill="#26F2B5" xlink:href="#u"/>
                </g>
                <g transform="translate(279.694 .389)">
                    <use fill="#000" filter="url(#v)" xlink:href="#w"/>
                    <use fill="#26F2B5" xlink:href="#w"/>
                </g>
                <g transform="translate(279.694 .389)">
                    <use fill="#000" filter="url(#x)" xlink:href="#y"/>
                    <use fill="#26F2B5" xlink:href="#y"/>
                </g>
                <g transform="translate(279.694 .389)">
                    <use fill="#34277A" xlink:href="#z"/>
                    <use fill="#000" filter="url(#A)" xlink:href="#z"/>
                </g>
                <path fill="url(#B)" d="M87.88 108.035a28.162 28.162 0 0 1 24.403-8.498c15.384 2.162 26.116 16.285 23.972 31.544-1.732 12.323-11.331 21.618-23.063 23.602-2.476 10.001-12.207 16.706-22.684 15.234a20.461 20.461 0 0 1-16.162-12.63 17.788 17.788 0 0 1-7.072.422 17.755 17.755 0 0 1-11.454-6.532 11.068 11.068 0 0 1-9.921 3.711 11.06 11.06 0 0 1-9.444-9.523c-5.298-1.976-8.94-6.976-9.136-12.64-7.815 2.237-16.317-1.335-19.976-8.836-4.107-8.42-.553-18.604 7.937-22.745a17.121 17.121 0 0 1 10.998-1.394 5.86 5.86 0 0 1-.618-2.626c0-3.291 2.71-5.96 6.054-5.96 2.771 0 5.107 1.834 5.826 4.336 2.648-.281 5.297.35 7.505 1.745a7.714 7.714 0 0 1 2.86-2.986 8.503 8.503 0 0 1-.19-1.791c0-4.706 3.839-8.521 8.575-8.521a8.582 8.582 0 0 1 7.255 3.975 11.932 11.932 0 0 1 5.752-1.465c6.523 0 11.811 5.19 11.811 11.591 0 2.039-.536 3.954-1.477 5.618a17.77 17.77 0 0 1 8.25 4.369zM39.806 92.752c-2.99 0-5.414-2.379-5.414-5.313 0-2.934 2.424-5.313 5.414-5.313 2.99 0 5.413 2.38 5.413 5.313 0 2.934-2.424 5.313-5.413 5.313zm10.245-9.55c-1.852 0-3.353-1.489-3.353-3.326s1.501-3.326 3.353-3.326c1.853 0 3.354 1.489 3.354 3.326s-1.501 3.326-3.354 3.326zm-19.865-.894a2.338 2.338 0 0 1-2.348-2.328 2.338 2.338 0 0 1 2.348-2.328 2.338 2.338 0 0 1 2.348 2.328 2.338 2.338 0 0 1-2.348 2.328z" opacity=".896" transform="translate(182.467)"/>
            </g>
        </g>
        <g transform="rotate(-43 183.65 -208.174)">
            <path fill="#6761FD" d="M14.997 80.007h22.496l-2.679 5.424H17.676z"/>
            <rect width="17.042" height="1.356" x="17.724" y="86.109" fill="#6761FD" rx=".678"/>
            <g transform="translate(8.309)">
                <mask id="F" fill="#fff">
                    <use xlink:href="#C"/>
                </mask>
                <use fill="url(#D)" xlink:href="#C"/>
                <use fill="#000" filter="url(#E)" xlink:href="#C"/>
                <path stroke="#787AC2" stroke-linecap="round" stroke-width="1.619" d="M15.855 43.384h4.844" mask="url(#F)"/>
                <path fill="url(#G)" d="M14.927-9.595l20.52 3.493v20.741c-8.043-.719-13.901-1.079-17.574-1.079-3.672 0-8.933.36-15.781 1.079L14.927-9.595z" mask="url(#F)"/>
            </g>
            <path fill="#F1AAFF" d="M20.368 87.465h11.994c1.057 7.418 1.057 12.616 0 15.594-1.057 2.979-3.036 6.369-5.939 10.17-2.787-3.258-4.805-6.648-6.055-10.17-1.25-3.521-1.25-8.72 0-15.594z"/>
            <path fill="url(#H)" d="M22.402 88.056h7.761c.684 4.652.684 7.912 0 9.78-.577 1.574-1.578 3.333-3.003 5.275a1.09 1.09 0 0 1-1.735.029c-1.347-1.712-2.355-3.48-3.023-5.304-.808-2.209-.808-5.469 0-9.78z"/>
            <path fill="url(#I)" d="M26.13 50.852c.709 0 1.297.549 1.344 1.256.579 8.542.868 14.79.868 18.745 0 3.955-.29 10.203-.868 18.746a1.347 1.347 0 0 1-1.344 1.256 1.324 1.324 0 0 1-1.322-1.257c-.429-8.506-.644-14.754-.644-18.745 0-3.99.215-10.239.644-18.744a1.324 1.324 0 0 1 1.322-1.257z"/>
            <use fill="#000" filter="url(#J)" xlink:href="#K"/>
            <use fill="#26F2B5" xlink:href="#K"/>
            <use fill="url(#L)" xlink:href="#M"/>
            <use fill="#000" filter="url(#N)" xlink:href="#M"/>
            <g transform="matrix(-1 0 0 1 87.539 0)">
                <use fill="url(#O)" xlink:href="#P"/>
                <use fill="#000" filter="url(#Q)" xlink:href="#P"/>
            </g>
        </g>
        <g opacity=".411">
            <path fill="url(#R)" d="M13.71.464l31.04.88C32.274 58.362 13.299 111.586 26.266 167.682l-14.607 5.01C-5.215 150.305-1.858 69.859 13.71.465z" transform="rotate(156 149.953 169.238)"/>
            <path fill="url(#S)" d="M22.099 14.213l16.806-.617c-13.48 54.132-31.167 100.233-16.09 153.4l-10.377 3.443c-14.623-55.482-4.655-102.59 9.66-156.226z" transform="rotate(156 149.953 169.238)"/>
            <g fill="url(#T)" transform="rotate(162 155.248 163.857)">
                <path d="M15.453 0h28.339c-12.478 57.016-16.548 115.003-3.58 171.099l-17.157 7.908C-12.758 130.843.463 69.167 15.453 0z"/>
            </g>
        </g>
        <g opacity=".506">
            <g transform="matrix(-1 0 0 1 187.148 97.591)">
                <use fill="url(#U)" xlink:href="#V"/>
                <use fill="#000" filter="url(#W)" xlink:href="#V"/>
            </g>
            <path stroke="#615BB8" stroke-linecap="round" stroke-width=".5" d="M164.854 105.036a22.475 22.475 0 0 1 12.073 9.355c3.467 5.46 4.563 12.36 2.411 18.983m-10.142 12.51a22.5 22.5 0 0 1-18.232 1.902m-13.43-11.815a22.367 22.367 0 0 1-1.055-16.522" opacity=".462"/>
            <g transform="scale(-1 1) rotate(42 -181.637 -174.333)">
                <use fill="#000" filter="url(#X)" xlink:href="#Y"/>
                <ellipse cx="39.054" cy="20.64" fill="url(#aa)" stroke="url(#Z)" stroke-width=".5" rx="3.766" ry="2.362"/>
            </g>
            <g opacity=".602" transform="scale(1 -1) rotate(-60 -55.512 -143.91)">
                <use fill="#000" filter="url(#ab)" xlink:href="#ac"/>
                <ellipse cx="38.66" cy="37.279" fill="url(#ae)" stroke="url(#ad)" stroke-width=".5" rx="3.273" ry="2.054"/>
            </g>
            <g transform="scale(1 -1) rotate(54 244.78 99.601)">
                <use fill="#000" filter="url(#af)" xlink:href="#ag"/>
                <ellipse cx="17.962" cy="28.247" fill="url(#ai)" stroke="url(#ah)" stroke-width=".5" rx="1.76" ry="1.638"/>
            </g>
            <g transform="scale(1 -1) rotate(54 237.649 78.971)">
                <use fill="#000" filter="url(#aj)" xlink:href="#ak"/>
                <ellipse cx="28.474" cy="24.614" fill="url(#al)" stroke="url(#ah)" stroke-width=".5" rx="1.76" ry="1.638"/>
            </g>
            <g opacity=".324" transform="scale(1 -1) rotate(59 247.33 74.827)">
                <use fill="#000" filter="url(#am)" xlink:href="#an"/>
                <ellipse cx="23.631" cy="38.196" fill="url(#ap)" stroke="url(#ao)" stroke-width=".5" rx="3.037" ry="2.055"/>
            </g>
            <g transform="scale(-1 1) rotate(-44 45.936 299.014)">
                <use fill="#000" filter="url(#aq)" xlink:href="#ar"/>
                <ellipse cx="18.737" cy="18.615" fill="url(#at)" stroke="url(#as)" stroke-width=".5" rx="2.662" ry="1.456"/>
            </g>
        </g>
        <g opacity=".449" transform="translate(412 52)">
            <use fill="url(#au)" xlink:href="#av"/>
            <use fill="#000" filter="url(#aw)" xlink:href="#av"/>
            <path stroke="#AF2CD8" stroke-linecap="round" stroke-width=".6" d="M53.512 19.105a24.29 24.29 0 0 0-14.172-8.567c-6.887-1.374-14.316.216-20.207 4.986m-8.772 15.164c-1.054 6.605.592 13.607 5.127 19.207m17.196 8.977a24.403 24.403 0 0 0 17.183-5.396" opacity=".305"/>
            <g transform="rotate(42 44.042 23.646)">
                <use fill="#000" filter="url(#ax)" xlink:href="#ay"/>
                <ellipse cx="44.042" cy="23.646" fill="url(#aA)" stroke="url(#az)" stroke-width=".746" rx="4.334" ry="2.751"/>
            </g>
            <g opacity=".705" transform="rotate(120 46.423 42.407)">
                <use fill="#000" filter="url(#aB)" xlink:href="#aC"/>
                <ellipse cx="46.423" cy="42.407" fill="url(#aE)" stroke="url(#aD)" stroke-width=".746" rx="3.774" ry="2.408"/>
            </g>
            <g opacity=".759" transform="rotate(-126 34.256 32.865)">
                <use fill="#000" filter="url(#aF)" xlink:href="#aG"/>
                <ellipse cx="34.256" cy="32.865" fill="url(#aI)" stroke="url(#aH)" stroke-width=".746" rx="2.073" ry="1.944"/>
            </g>
            <g opacity=".303" transform="rotate(-121 27.38 44.248)">
                <use fill="#000" filter="url(#aJ)" xlink:href="#aK"/>
                <ellipse cx="27.379" cy="44.248" fill="url(#aM)" stroke="url(#aL)" stroke-width=".746" rx="3.774" ry="2.408"/>
            </g>
            <g transform="rotate(-44 21.818 22.713)">
                <use fill="#000" filter="url(#aN)" xlink:href="#aO"/>
                <ellipse cx="21.818" cy="22.713" fill="url(#aQ)" stroke="url(#aP)" stroke-width=".746" rx="3.089" ry="1.732"/>
            </g>
            <ellipse cx="34.785" cy="33.494" stroke="url(#aR)" stroke-width="3.732" rx="32.153" ry="9.034" transform="rotate(21 34.785 33.494)"/>
        </g>
    </g>
</svg>
