<svg xmlns="http://www.w3.org/2000/svg" width="190" height="146" viewBox="0 0 190 146">
    <defs>
        <linearGradient id="a" x1="50%" x2="50%" y1="17.895%" y2="100%">
            <stop offset="0%" stop-color="#16124F"/>
            <stop offset="100%" stop-color="#1D2777"/>
        </linearGradient>
        <linearGradient id="b" x1="27.11%" x2="90.696%" y1="88.882%" y2="22.332%">
            <stop offset="0%" stop-color="#151651"/>
            <stop offset="100%" stop-color="#1D2774"/>
        </linearGradient>
        <linearGradient id="d" x1="98.554%" x2="3.179%" y1="48.554%" y2="48.554%">
            <stop offset="0%" stop-color="#1A1F64"/>
            <stop offset="100%" stop-color="#1E2479"/>
        </linearGradient>
        <linearGradient id="c" x1="36.987%" x2="98.323%" y1="50%" y2="50%">
            <stop offset="0%" stop-color="#191F64"/>
            <stop offset="100%" stop-color="#1F2A87"/>
        </linearGradient>
        <linearGradient id="f" x1="98.554%" x2="1.446%" y1="48.554%" y2="48.554%">
            <stop offset="0%" stop-color="#171D60"/>
            <stop offset="99.306%" stop-color="#1C2470"/>
        </linearGradient>
        <linearGradient id="e" x1="36.987%" x2="98.74%" y1="50%" y2="50%">
            <stop offset="0%" stop-color="#181F62"/>
            <stop offset="100%" stop-color="#1A226B"/>
        </linearGradient>
        <linearGradient id="h" x1="98.554%" x2="1.446%" y1="48.554%" y2="48.554%">
            <stop offset="0%" stop-color="#161A5B"/>
            <stop offset="100%" stop-color="#1D2673"/>
        </linearGradient>
        <linearGradient id="g" x1="36.987%" x2="98.74%" y1="50%" y2="50%">
            <stop offset="0%" stop-color="#171C5E"/>
            <stop offset="100%" stop-color="#1D2776"/>
        </linearGradient>
        <linearGradient id="j" x1="98.554%" x2="1.446%" y1="48.554%" y2="48.554%">
            <stop offset="0%" stop-color="#151854"/>
            <stop offset="100%" stop-color="#171B5B"/>
        </linearGradient>
        <linearGradient id="i" x1="36.987%" x2="98.74%" y1="50%" y2="50%">
            <stop offset="0%" stop-color="#151854"/>
            <stop offset="100%" stop-color="#171C5D"/>
        </linearGradient>
        <linearGradient id="l" x1="98.554%" x2="1.446%" y1="48.554%" y2="48.554%">
            <stop offset="0%" stop-color="#151A59"/>
            <stop offset="100%" stop-color="#1C2572"/>
        </linearGradient>
        <linearGradient id="k" x1="36.987%" x2="98.74%" y1="50%" y2="50%">
            <stop offset="0%" stop-color="#161B5B"/>
            <stop offset="100%" stop-color="#1C2674"/>
        </linearGradient>
        <linearGradient id="m" x1="50%" x2="50%" y1="-54.169%" y2="100%">
            <stop offset="0%" stop-color="#15134C"/>
            <stop offset="100%" stop-color="#1D2777"/>
        </linearGradient>
    </defs>
    <g fill="none" fill-rule="evenodd" transform="translate(-8 -29)">
        <ellipse cx="103.101" cy="98.916" stroke="url(#a)" stroke-width="10.037" rx="95.614" ry="26.866" transform="rotate(21 103.1 98.916)"/>
        <g transform="translate(.085 .002)">
            <ellipse cx="102.462" cy="102.08" fill="url(#b)" rx="55.453" ry="55.788"/>
            <path d="M96.41 157.868c21.885 3.932 39.212-6.743 49.447-18.939 5.335-6.356 9.405-16.815 12.21-31.375-13.99 18.22-32.624 25.425-55.9 21.615-23.276-3.81-38.776-22.669-46.498-56.576-2.26 3.468-3.75 6.089-4.47 7.86-3.11 7.66-4.042 14.312-4.19 18.462-.722 20.22 7.586 36.422 20.5 46.716 7.987 6.366 17.04 10.106 28.901 12.237z"/>
            <path stroke="#171456" stroke-linecap="round" stroke-width=".528" d="M158.068 56.21c-11.03-13.62-25.999-22.175-41.952-25.357-20.386-4.067-42.38.639-59.817 14.759m-25.97 44.891c-3.118 19.55 1.753 40.278 15.178 56.857m50.903 26.572c17.718 1.29 35.958-3.9 50.866-15.973"/>
            <path fill="#191D61" d="M122.263 77.318c5.867 6.081 13.378 6.462 17.109 2.293 3.73-4.168-16.64-22.12-20.37-17.95-3.732 4.167-2.606 9.576 3.261 15.657z"/>
            <ellipse cx="130.035" cy="69.656" fill="url(#d)" stroke="url(#c)" stroke-width="2.007" rx="12.727" ry="8.042" transform="rotate(42 130.035 69.656)"/>
            <path fill="#151956" d="M130.035 117.86c-3.798 4.875-4.494 12.708-1.618 14.379 2.876 1.67 16.543-16.481 13.667-18.152-2.876-1.67-8.25-1.103-12.049 3.772z"/>
            <ellipse cx="137.082" cy="125.193" fill="url(#f)" stroke="url(#e)" stroke-width="2.007" rx="11.071" ry="7.026" transform="rotate(120 137.082 125.193)"/>
            <path fill="#151956" d="M107.782 91.646c-2.695-3.32-6.437-3.414-9.545-1.143-3.109 2.271 4.117 13.432 7.796 11.282 3.679-2.15 4.445-6.82 1.75-10.139z"/>
            <ellipse cx="101.064" cy="96.944" fill="url(#h)" stroke="url(#g)" stroke-width="2.007" rx="6.034" ry="5.653" transform="rotate(-126 101.064 96.944)"/>
            <ellipse cx="83.111" cy="128.699" fill="#151854" rx="12.07" ry="6.552" transform="rotate(-121 83.111 128.699)"/>
            <ellipse cx="80.708" cy="130.641" fill="url(#j)" stroke="url(#i)" stroke-width="2.007" rx="11.07" ry="7.026" transform="rotate(-121 80.708 130.641)"/>
            <path fill="#151956" d="M69.814 72.593c4.69-4.588 4.69-9.412 2.398-11.797C69.92 58.41 55.944 72.334 58.236 74.72c2.292 2.385 6.888 2.46 11.578-2.127z"/>
            <ellipse cx="64.246" cy="66.894" fill="url(#l)" stroke="url(#k)" stroke-width="2.007" rx="9.044" ry="5.025" transform="rotate(-44 64.246 66.894)"/>
        </g>
        <path stroke="url(#m)" stroke-width="10.037" d="M2.708 97.837c.03 14.838 42.861 26.952 95.667 27.059 52.807.107 95.59-11.835 95.56-26.672" transform="rotate(21 98.321 111.367)"/>
    </g>
</svg>
