<svg xmlns="http://www.w3.org/2000/svg" width="191" height="159" viewBox="0 0 191 159">
    <defs>
        <linearGradient id="a" x1="50%" x2="50%" y1="15.891%" y2="100%">
            <stop offset="0%" stop-color="#0B0743"/>
            <stop offset="100%" stop-color="#2E1A74"/>
        </linearGradient>
        <linearGradient id="b" x1="21.54%" x2="84.342%" y1="89.805%" y2="13.271%">
            <stop offset="0%" stop-color="#150A43"/>
            <stop offset="100%" stop-color="#392384"/>
        </linearGradient>
        <linearGradient id="d" x1="50%" x2="50%" y1="0%" y2="100%">
            <stop offset="0%" stop-color="#21115A"/>
            <stop offset="100%" stop-color="#2A186B"/>
        </linearGradient>
        <linearGradient id="c" x1="0%" x2="99.142%" y1="50%" y2="50%">
            <stop offset="0%" stop-color="#321E74"/>
            <stop offset="100%" stop-color="#3F2790"/>
        </linearGradient>
        <linearGradient id="f" x1="19.943%" x2="82.273%" y1="50%" y2="50%">
            <stop offset="0%" stop-color="#201157"/>
            <stop offset="100%" stop-color="#2B186B"/>
        </linearGradient>
        <linearGradient id="e" x1="36.987%" x2="99.142%" y1="50%" y2="50%">
            <stop offset="0%" stop-color="#301C70"/>
            <stop offset="100%" stop-color="#372282"/>
        </linearGradient>
        <linearGradient id="h" x1="50%" x2="50%" y1="0%" y2="100%">
            <stop offset="0%" stop-color="#1E0F54"/>
            <stop offset="100%" stop-color="#2A186C"/>
        </linearGradient>
        <linearGradient id="g" x1="36.987%" x2="99.142%" y1="50%" y2="50%">
            <stop offset="0%" stop-color="#321E74"/>
            <stop offset="100%" stop-color="#3F2790"/>
        </linearGradient>
        <linearGradient id="j" x1="50%" x2="50%" y1="0%" y2="100%">
            <stop offset="0%" stop-color="#1C0F53"/>
            <stop offset="100%" stop-color="#22125C"/>
        </linearGradient>
        <linearGradient id="i" x1="36.987%" x2="99.142%" y1="50%" y2="50%">
            <stop offset="0%" stop-color="#281663"/>
            <stop offset="100%" stop-color="#2E1B70"/>
        </linearGradient>
        <linearGradient id="l" x1="50%" x2="50%" y1="0%" y2="100%">
            <stop offset="0%" stop-color="#1F1056"/>
            <stop offset="100%" stop-color="#2B186D"/>
        </linearGradient>
        <linearGradient id="k" x1="37.661%" x2="99.142%" y1="50%" y2="50%">
            <stop offset="0%" stop-color="#321E74"/>
            <stop offset="100%" stop-color="#3F2891"/>
        </linearGradient>
        <linearGradient id="m" x1="50%" x2="50%" y1="-72.995%" y2="100%">
            <stop offset="0%" stop-color="#0C0844"/>
            <stop offset="100%" stop-color="#2E1A74"/>
        </linearGradient>
    </defs>
    <g fill="none" fill-rule="evenodd" transform="translate(-5 1)">
        <ellipse cx="100.35" cy="79.242" stroke="url(#a)" stroke-width="10.268" rx="97.846" ry="27.27" transform="rotate(-25 100.35 79.242)"/>
        <g transform="translate(18.211 .132)">
            <ellipse cx="81.896" cy="76.543" fill="url(#b)" rx="56.85" ry="56.525"/>
            <path fill="#241362" d="M103.564 49.59c6.09 6.328 13.886 6.723 17.759 2.387 3.873-4.337-17.272-23.014-21.145-18.677-3.873 4.337-2.704 9.964 3.386 16.29z"/>
            <path fill="#23145B" d="M107.568 96.968c-4.21 4.893-2.986 11.684 0 13.42 2.986 1.737 13.515-14.411 10.529-16.148-2.986-1.736-6.32-2.165-10.53 2.728zM89.54 70.219c-2.798-3.454-6.682-3.553-9.909-1.19-3.226 2.364 4.274 13.975 8.093 11.739 3.818-2.237 4.614-7.096 1.816-10.55z"/>
            <path fill="#22125C" d="M63.998 97.882c-5.41-8.056-12.575-7.633-13.631-5.444-1.056 2.188 10.883 20.647 12.775 20.647 1.891 0 6.267-7.147.856-15.203z"/>
            <path stroke="#2E2972" stroke-linecap="round" stroke-width=".55" d="M0 78.57c0 19.051 6.83 36.518 18.19 50.12 14.518 17.381 36.435 28.451 60.956 28.451m52.933-20.156c16.094-14.382 26.213-35.225 26.213-58.414m-24.958-57.268C119.173 8.093 100.11 0 79.146 0"/>
            <path fill="#241362" d="M47.109 48.04c4.868-4.774 4.868-9.792 2.489-12.274-2.38-2.482-16.887 12.004-14.508 14.486 2.379 2.482 7.15 2.56 12.019-2.212z"/>
            <ellipse cx="111.6" cy="41.833" fill="url(#d)" stroke="url(#c)" stroke-width="2.054" rx="12.983" ry="8.196" transform="rotate(42 111.6 41.833)"/>
            <ellipse cx="113.808" cy="102.868" fill="url(#f)" stroke="url(#e)" stroke-width="2.054" rx="8.708" ry="5.734" transform="rotate(120 113.808 102.868)"/>
            <ellipse cx="82.945" cy="75.242" fill="url(#h)" stroke="url(#g)" stroke-width="2.054" rx="6.145" ry="5.304" transform="rotate(-126 82.945 75.242)"/>
            <ellipse cx="55.328" cy="103.533" fill="url(#j)" stroke="url(#i)" stroke-width="2.054" rx="11.258" ry="7.182" transform="rotate(-121 55.328 103.533)"/>
            <ellipse cx="41.524" cy="42.274" fill="url(#l)" stroke="url(#k)" stroke-width="2.054" rx="9.223" ry="5.124" transform="rotate(-44 41.524 42.274)"/>
        </g>
        <path stroke="url(#m)" stroke-width="10.268" d="M8.221 77.76c.033 15.06 43.867 27.365 97.906 27.483 54.039.119 97.82-11.994 97.786-27.054" transform="rotate(-25 106.067 91.502)"/>
    </g>
</svg>
