<svg xmlns="http://www.w3.org/2000/svg" width="144" height="130" viewBox="0 0 144 130">
    <defs>
        <linearGradient id="a" x1="100%" x2="0%" y1="50%" y2="53.771%">
            <stop offset="0%" stop-color="#4E3EA9"/>
            <stop offset="100%" stop-color="#FFF"/>
        </linearGradient>
        <linearGradient id="b" x1="100%" x2="0%" y1="50%" y2="53.771%">
            <stop offset="0%" stop-color="#4E3EA9"/>
            <stop offset="100%" stop-color="#A38BF6"/>
        </linearGradient>
        <linearGradient id="c" x1="50%" x2="50%" y1="0%" y2="99.169%">
            <stop offset="0%" stop-color="#1E0A6F"/>
            <stop offset="100%" stop-color="#2C1D7F"/>
        </linearGradient>
        <linearGradient id="d" x1="50%" x2="50%" y1="0%" y2="100%">
            <stop offset="0%" stop-color="#4463FF"/>
            <stop offset="100%" stop-color="#1EF"/>
        </linearGradient>
        <linearGradient id="e" x1="50%" x2="50%" y1="50%" y2="87.912%">
            <stop offset="0%" stop-color="#6856B0" stop-opacity="0"/>
            <stop offset="100%" stop-color="#520384"/>
        </linearGradient>
        <linearGradient id="f" x1="50%" x2="40.113%" y1="25.879%" y2="-7.789%">
            <stop offset="0%" stop-color="#C6B7FF"/>
            <stop offset="100%" stop-color="#391FC3"/>
        </linearGradient>
        <linearGradient id="g" x1="64.081%" x2="37.917%" y1="4.896%" y2="10.053%">
            <stop offset="0%" stop-color="#B9ACEE"/>
            <stop offset="100%" stop-color="#8673EE"/>
        </linearGradient>
    </defs>
    <g fill="none" fill-rule="evenodd">
        <path fill="url(#a)" d="M124.01 53.944l16.802.001a3.6 3.6 0 0 1 3.515 2.826l4.334 19.675-32.5-.002 4.332-19.674a3.6 3.6 0 0 1 3.516-2.826z" transform="rotate(89 132.411 65.195)"/>
        <path fill="url(#b)" d="M3.41 53.944l16.802.001a3.6 3.6 0 0 1 3.516 2.826l4.334 19.675-32.5-.002L-.106 56.77a3.6 3.6 0 0 1 3.515-2.826z" transform="scale(-1 1) rotate(89 0 53.175)"/>
        <ellipse cx="72.237" cy="65" fill="url(#c)" rx="64.8" ry="65"/>
        <path fill="url(#d)" d="M58.248 49.59h35.7c5.43 0 9.832 4.401 9.832 9.83v12.644c0 5.43-4.401 9.832-9.831 9.832H66.606v35.098H45.28V59.421c0-4.929 3.627-9.01 8.358-9.722V39.631a5.587 5.587 0 0 1-3.459-5.157c0-3.085 2.516-5.585 5.62-5.585 3.103 0 5.62 2.5 5.62 5.585a5.583 5.583 0 0 1-3.17 5.028V49.59zm8.358 23.122c3.82 0 6.916-3.078 6.916-6.874 0-3.797-3.097-6.875-6.916-6.875-3.82 0-6.917 3.078-6.917 6.875 0 3.796 3.097 6.874 6.917 6.874zm21.037 0c3.82 0 6.916-3.078 6.916-6.874 0-3.797-3.097-6.875-6.916-6.875-3.82 0-6.917 3.078-6.917 6.875 0 3.796 3.097 6.874 6.917 6.874z"/>
        <path fill="#37249E" d="M7.009 64.175zm99.607-53.795C124.872 21.854 137 42.133 137 65.237c0 22.789-11.8 42.83-29.64 54.383 7.81-14.748 12.487-33.508 12.487-53.933 0-21.064-4.974-40.359-13.231-55.307z"/>
        <path fill="#4C38BB" d="M119.7 61.389h17.1c.158 1.698.237 2.954.237 3.77 0 .815-.079 1.966-.237 3.452h-17.1V65.16v-3.77z"/>
        <path fill="#37249E" d="M136.991 64.175zM37.384 10.38C19.128 21.854 7 42.133 7 65.237c0 22.789 11.8 42.83 29.64 54.383-7.81-14.748-12.487-33.508-12.487-53.933 0-21.064 4.974-40.359 13.231-55.307z"/>
        <path fill="#4C38BB" d="M24.428 61.389H7.32c-.08 1.698-.121 2.954-.121 3.77 0 .815.04 1.966.121 3.452l16.979.079v-3.531c0-.848.043-2.104.128-3.77z"/>
        <ellipse cx="72.237" cy="65" fill="url(#e)" rx="64.8" ry="65"/>
        <path fill="url(#f)" d="M71.175 129.991zM17.38 30.384C28.854 12.128 49.133 0 72.237 0c22.789 0 42.83 11.8 54.383 29.64-14.748-7.81-33.508-12.487-53.933-12.487-21.064 0-40.359 4.974-55.307 13.231z"/>
        <path fill="url(#g)" d="M71.175 129.991zM17.38 30.384C28.854 12.128 49.133 0 72.237 0c22.789 0 42.83 11.8 54.383 29.64-14.748-7.81-33.508-12.487-53.933-12.487-21.064 0-40.359 4.974-55.307 13.231z" transform="matrix(1 0 0 -1 0 130)"/>
        <g fill="#FFF" transform="translate(89.38 26.18)">
            <ellipse cx="17.6" cy="19.425" rx="4" ry="4.047"/>
            <ellipse cx="7.6" cy="7.689" rx="7.6" ry="7.689"/>
        </g>
    </g>
</svg>
