<svg xmlns="http://www.w3.org/2000/svg" xmlns:xlink="http://www.w3.org/1999/xlink" width="1080" height="401" viewBox="0 0 1080 401">
    <defs>
        <linearGradient id="a" x1="50%" x2="50%" y1="13.569%" y2="100%">
            <stop offset="0%" stop-color="#100A33"/>
            <stop offset="100%" stop-color="#1150DA"/>
        </linearGradient>
        <linearGradient id="c" x1="100%" x2=".127%" y1="50%" y2="50%">
            <stop offset="0%" stop-color="#54B4FF"/>
            <stop offset="100%" stop-color="#2F53E8"/>
        </linearGradient>
        <path id="b" d="M83.468.451c41.718 1.734 68.057 113.427 79.017 335.08H0C13.928 110.41 41.75-1.282 83.468.45z"/>
        <filter id="d" width="111.1%" height="105.4%" x="-5.5%" y="-2.7%" filterUnits="objectBoundingBox">
            <feOffset dx="14" dy="18" in="SourceAlpha" result="shadowOffsetInner1"/>
            <feComposite in="shadowOffsetInner1" in2="SourceAlpha" k2="-1" k3="1" operator="arithmetic" result="shadowInnerInner1"/>
            <feColorMatrix in="shadowInnerInner1" values="0 0 0 0 0.236284808 0 0 0 0 0.458977522 0 0 0 0 0.969146286 0 0 0 1 0"/>
        </filter>
        <linearGradient id="f" x1="50%" x2="50%" y1="0%" y2="100%">
            <stop offset="0%" stop-color="#27A8EC"/>
            <stop offset="100%" stop-color="#0A64C5"/>
        </linearGradient>
        <linearGradient id="g" x1="100%" x2="85.995%" y1="50%" y2="50%">
            <stop offset="0%" stop-color="#140B3D"/>
            <stop offset="100%" stop-color="#5244A3"/>
        </linearGradient>
        <linearGradient id="h" x1="50%" x2="50%" y1="0%" y2="100%">
            <stop offset="0%" stop-color="#4A3BAE"/>
            <stop offset="100%" stop-color="#5345A0"/>
        </linearGradient>
        <linearGradient id="i" x1="50%" x2="50%" y1="0%" y2="100%">
            <stop offset="0%" stop-color="#5F50C9"/>
            <stop offset="100%" stop-color="#9288C2"/>
        </linearGradient>
        <rect id="j" width="3.71" height="14.859" x="32.645" y="61.791" rx="1.855"/>
        <filter id="k" width="207.8%" height="126.9%" x="-53.9%" y="-13.5%" filterUnits="objectBoundingBox">
            <feOffset dy="4" in="SourceAlpha" result="shadowOffsetInner1"/>
            <feComposite in="shadowOffsetInner1" in2="SourceAlpha" k2="-1" k3="1" operator="arithmetic" result="shadowInnerInner1"/>
            <feColorMatrix in="shadowInnerInner1" values="0 0 0 0 0.214617994 0 0 0 0 0.141811576 0 0 0 0 0.638218976 0 0 0 1 0"/>
        </filter>
        <rect id="l" width="3.71" height="14.859" x="26.71" y="61.791" rx="1.855"/>
        <filter id="m" width="207.8%" height="126.9%" x="-53.9%" y="-13.5%" filterUnits="objectBoundingBox">
            <feOffset dy="4" in="SourceAlpha" result="shadowOffsetInner1"/>
            <feComposite in="shadowOffsetInner1" in2="SourceAlpha" k2="-1" k3="1" operator="arithmetic" result="shadowInnerInner1"/>
            <feColorMatrix in="shadowInnerInner1" values="0 0 0 0 0.214617994 0 0 0 0 0.141811576 0 0 0 0 0.638218976 0 0 0 1 0"/>
        </filter>
        <linearGradient id="n" x1="50%" x2="50%" y1="0%" y2="100%">
            <stop offset="0%" stop-color="#650085"/>
            <stop offset="100%" stop-color="#A844B8"/>
        </linearGradient>
        <linearGradient id="o" x1="50%" x2="50%" y1="0%" y2="100%">
            <stop offset="0%" stop-color="#6045E6"/>
            <stop offset="100%" stop-color="#24129D"/>
        </linearGradient>
        <rect id="p" width="3.71" height="14.859" x="32.645" y="61.791" rx="1.855"/>
        <filter id="q" width="207.8%" height="126.9%" x="-53.9%" y="-13.5%" filterUnits="objectBoundingBox">
            <feOffset dy="4" in="SourceAlpha" result="shadowOffsetInner1"/>
            <feComposite in="shadowOffsetInner1" in2="SourceAlpha" k2="-1" k3="1" operator="arithmetic" result="shadowInnerInner1"/>
            <feColorMatrix in="shadowInnerInner1" values="0 0 0 0 0.214617994 0 0 0 0 0.141811576 0 0 0 0 0.638218976 0 0 0 1 0"/>
        </filter>
        <rect id="r" width="3.71" height="14.859" x="26.71" y="61.791" rx="1.855"/>
        <filter id="s" width="207.8%" height="126.9%" x="-53.9%" y="-13.5%" filterUnits="objectBoundingBox">
            <feOffset dy="4" in="SourceAlpha" result="shadowOffsetInner1"/>
            <feComposite in="shadowOffsetInner1" in2="SourceAlpha" k2="-1" k3="1" operator="arithmetic" result="shadowInnerInner1"/>
            <feColorMatrix in="shadowInnerInner1" values="0 0 0 0 0.214617994 0 0 0 0 0.141811576 0 0 0 0 0.638218976 0 0 0 1 0"/>
        </filter>
        <linearGradient id="t" x1="50%" x2="50%" y1="0%" y2="100%">
            <stop offset="0%" stop-color="#6C55F4"/>
            <stop offset="100%" stop-color="#A391F8"/>
        </linearGradient>
        <rect id="u" width="2.968" height="31.205" rx="1.484"/>
        <filter id="v" width="268.5%" height="116%" x="-84.2%" y="-8%" filterUnits="objectBoundingBox">
            <feOffset dy="5" in="SourceAlpha" result="shadowOffsetInner1"/>
            <feComposite in="shadowOffsetInner1" in2="SourceAlpha" k2="-1" k3="1" operator="arithmetic" result="shadowInnerInner1"/>
            <feColorMatrix in="shadowInnerInner1" values="0 0 0 0 0.259607994 0 0 0 0 0.158503938 0 0 0 0 0.874320652 0 0 0 1 0"/>
        </filter>
        <rect id="w" width="2.968" height="31.205" x="26.71" rx="1.484"/>
        <filter id="x" width="268.5%" height="116%" x="-84.2%" y="-8%" filterUnits="objectBoundingBox">
            <feOffset dy="5" in="SourceAlpha" result="shadowOffsetInner1"/>
            <feComposite in="shadowOffsetInner1" in2="SourceAlpha" k2="-1" k3="1" operator="arithmetic" result="shadowInnerInner1"/>
            <feColorMatrix in="shadowInnerInner1" values="0 0 0 0 0.259607994 0 0 0 0 0.158503938 0 0 0 0 0.874320652 0 0 0 1 0"/>
        </filter>
        <rect id="y" width="2.968" height="31.205" x="8.903" rx="1.484"/>
        <filter id="z" width="268.5%" height="116%" x="-84.2%" y="-8%" filterUnits="objectBoundingBox">
            <feOffset dy="5" in="SourceAlpha" result="shadowOffsetInner1"/>
            <feComposite in="shadowOffsetInner1" in2="SourceAlpha" k2="-1" k3="1" operator="arithmetic" result="shadowInnerInner1"/>
            <feColorMatrix in="shadowInnerInner1" values="0 0 0 0 0.259607994 0 0 0 0 0.158503938 0 0 0 0 0.874320652 0 0 0 1 0"/>
        </filter>
        <rect id="A" width="2.968" height="31.205" x="17.807" rx="1.484"/>
        <filter id="B" width="268.5%" height="116%" x="-84.2%" y="-8%" filterUnits="objectBoundingBox">
            <feOffset dy="5" in="SourceAlpha" result="shadowOffsetInner1"/>
            <feComposite in="shadowOffsetInner1" in2="SourceAlpha" k2="-1" k3="1" operator="arithmetic" result="shadowInnerInner1"/>
            <feColorMatrix in="shadowInnerInner1" values="0 0 0 0 0.259607994 0 0 0 0 0.158503938 0 0 0 0 0.874320652 0 0 0 1 0"/>
        </filter>
        <rect id="C" width="2.968" height="31.205" rx="1.484"/>
        <filter id="D" width="268.5%" height="116%" x="-84.2%" y="-8%" filterUnits="objectBoundingBox">
            <feOffset dy="5" in="SourceAlpha" result="shadowOffsetInner1"/>
            <feComposite in="shadowOffsetInner1" in2="SourceAlpha" k2="-1" k3="1" operator="arithmetic" result="shadowInnerInner1"/>
            <feColorMatrix in="shadowInnerInner1" values="0 0 0 0 0.259607994 0 0 0 0 0.158503938 0 0 0 0 0.874320652 0 0 0 1 0"/>
        </filter>
        <rect id="E" width="2.968" height="31.205" x="26.71" rx="1.484"/>
        <filter id="F" width="268.5%" height="116%" x="-84.2%" y="-8%" filterUnits="objectBoundingBox">
            <feOffset dy="5" in="SourceAlpha" result="shadowOffsetInner1"/>
            <feComposite in="shadowOffsetInner1" in2="SourceAlpha" k2="-1" k3="1" operator="arithmetic" result="shadowInnerInner1"/>
            <feColorMatrix in="shadowInnerInner1" values="0 0 0 0 0.259607994 0 0 0 0 0.158503938 0 0 0 0 0.874320652 0 0 0 1 0"/>
        </filter>
        <rect id="G" width="2.968" height="31.205" x="8.903" rx="1.484"/>
        <filter id="H" width="268.5%" height="116%" x="-84.2%" y="-8%" filterUnits="objectBoundingBox">
            <feOffset dy="5" in="SourceAlpha" result="shadowOffsetInner1"/>
            <feComposite in="shadowOffsetInner1" in2="SourceAlpha" k2="-1" k3="1" operator="arithmetic" result="shadowInnerInner1"/>
            <feColorMatrix in="shadowInnerInner1" values="0 0 0 0 0.259607994 0 0 0 0 0.158503938 0 0 0 0 0.874320652 0 0 0 1 0"/>
        </filter>
        <rect id="I" width="2.968" height="31.205" x="17.807" rx="1.484"/>
        <filter id="J" width="268.5%" height="116%" x="-84.2%" y="-8%" filterUnits="objectBoundingBox">
            <feOffset dy="5" in="SourceAlpha" result="shadowOffsetInner1"/>
            <feComposite in="shadowOffsetInner1" in2="SourceAlpha" k2="-1" k3="1" operator="arithmetic" result="shadowInnerInner1"/>
            <feColorMatrix in="shadowInnerInner1" values="0 0 0 0 0.259607994 0 0 0 0 0.158503938 0 0 0 0 0.874320652 0 0 0 1 0"/>
        </filter>
        <linearGradient id="K" x1="50%" x2="50%" y1="0%" y2="99.116%">
            <stop offset="0%" stop-color="#7E70E4"/>
            <stop offset="100%" stop-color="#CFB2F8"/>
        </linearGradient>
        <rect id="L" width="2.968" height="31.205" rx="1.484"/>
        <filter id="M" width="234.8%" height="112.8%" x="-67.4%" y="-6.4%" filterUnits="objectBoundingBox">
            <feOffset dy="4" in="SourceAlpha" result="shadowOffsetInner1"/>
            <feComposite in="shadowOffsetInner1" in2="SourceAlpha" k2="-1" k3="1" operator="arithmetic" result="shadowInnerInner1"/>
            <feColorMatrix in="shadowInnerInner1" values="0 0 0 0 0.38848199 0 0 0 0 0.320740512 0 0 0 0 0.718721694 0 0 0 1 0"/>
        </filter>
        <rect id="N" width="2.968" height="31.205" x="8.903" rx="1.484"/>
        <filter id="O" width="234.8%" height="112.8%" x="-67.4%" y="-6.4%" filterUnits="objectBoundingBox">
            <feOffset dy="4" in="SourceAlpha" result="shadowOffsetInner1"/>
            <feComposite in="shadowOffsetInner1" in2="SourceAlpha" k2="-1" k3="1" operator="arithmetic" result="shadowInnerInner1"/>
            <feColorMatrix in="shadowInnerInner1" values="0 0 0 0 0.38848199 0 0 0 0 0.320740512 0 0 0 0 0.718721694 0 0 0 1 0"/>
        </filter>
        <rect id="P" width="2.968" height="31.205" x="17.807" rx="1.484"/>
        <filter id="Q" width="234.8%" height="112.8%" x="-67.4%" y="-6.4%" filterUnits="objectBoundingBox">
            <feOffset dy="4" in="SourceAlpha" result="shadowOffsetInner1"/>
            <feComposite in="shadowOffsetInner1" in2="SourceAlpha" k2="-1" k3="1" operator="arithmetic" result="shadowInnerInner1"/>
            <feColorMatrix in="shadowInnerInner1" values="0 0 0 0 0.38848199 0 0 0 0 0.320740512 0 0 0 0 0.718721694 0 0 0 1 0"/>
        </filter>
        <rect id="R" width="2.968" height="31.205" rx="1.484"/>
        <filter id="S" width="234.8%" height="112.8%" x="-67.4%" y="-6.4%" filterUnits="objectBoundingBox">
            <feOffset dy="4" in="SourceAlpha" result="shadowOffsetInner1"/>
            <feComposite in="shadowOffsetInner1" in2="SourceAlpha" k2="-1" k3="1" operator="arithmetic" result="shadowInnerInner1"/>
            <feColorMatrix in="shadowInnerInner1" values="0 0 0 0 0.38848199 0 0 0 0 0.320740512 0 0 0 0 0.718721694 0 0 0 1 0"/>
        </filter>
        <rect id="T" width="2.968" height="31.205" x="8.903" rx="1.484"/>
        <filter id="U" width="234.8%" height="112.8%" x="-67.4%" y="-6.4%" filterUnits="objectBoundingBox">
            <feOffset dy="4" in="SourceAlpha" result="shadowOffsetInner1"/>
            <feComposite in="shadowOffsetInner1" in2="SourceAlpha" k2="-1" k3="1" operator="arithmetic" result="shadowInnerInner1"/>
            <feColorMatrix in="shadowInnerInner1" values="0 0 0 0 0.38848199 0 0 0 0 0.320740512 0 0 0 0 0.718721694 0 0 0 1 0"/>
        </filter>
        <rect id="V" width="2.968" height="31.205" x="17.807" rx="1.484"/>
        <filter id="W" width="234.8%" height="112.8%" x="-67.4%" y="-6.4%" filterUnits="objectBoundingBox">
            <feOffset dy="4" in="SourceAlpha" result="shadowOffsetInner1"/>
            <feComposite in="shadowOffsetInner1" in2="SourceAlpha" k2="-1" k3="1" operator="arithmetic" result="shadowInnerInner1"/>
            <feColorMatrix in="shadowInnerInner1" values="0 0 0 0 0.38848199 0 0 0 0 0.320740512 0 0 0 0 0.718721694 0 0 0 1 0"/>
        </filter>
        <linearGradient id="X" x1="50%" x2="50%" y1="0%" y2="100%">
            <stop offset="0%" stop-color="#9383FB"/>
            <stop offset="100%" stop-color="#B697CB"/>
        </linearGradient>
        <linearGradient id="Y" x1="50%" x2="50%" y1="0%" y2="100%">
            <stop offset="0%" stop-color="#5440D0"/>
            <stop offset="100%" stop-color="#8F68FF"/>
        </linearGradient>
        <ellipse id="aa" cx="30.791" cy="153.007" rx="18.919" ry="18.946"/>
        <filter id="Z" width="203.1%" height="202.9%" x="-51.5%" y="-51.5%" filterUnits="objectBoundingBox">
            <feOffset in="SourceAlpha" result="shadowOffsetOuter1"/>
            <feGaussianBlur in="shadowOffsetOuter1" result="shadowBlurOuter1" stdDeviation="6.5"/>
            <feColorMatrix in="shadowBlurOuter1" values="0 0 0 0 0.101960784 0 0 0 0 0.925490196 0 0 0 0 0.658823529 0 0 0 1 0"/>
        </filter>
        <linearGradient id="ab" x1="50%" x2="50%" y1="0%" y2="100%">
            <stop offset="0%" stop-color="#CE70FF"/>
            <stop offset="100%" stop-color="#895FFF"/>
        </linearGradient>
        <linearGradient id="ac" x1="50%" x2="50%" y1="0%" y2="98.492%">
            <stop offset="0%" stop-color="#A946D6"/>
            <stop offset="100%" stop-color="#6848F6"/>
        </linearGradient>
        <path id="ad" d="M15.21 111.32a2.597 2.597 0 0 1 2.597 2.597v4.833h-5.194v-4.833a2.597 2.597 0 0 1 2.597-2.596z"/>
        <filter id="ae" width="157.8%" height="140.4%" x="-28.9%" y="-20.2%" filterUnits="objectBoundingBox">
            <feOffset dx="3" in="SourceAlpha" result="shadowOffsetInner1"/>
            <feComposite in="shadowOffsetInner1" in2="SourceAlpha" k2="-1" k3="1" operator="arithmetic" result="shadowInnerInner1"/>
            <feColorMatrix in="shadowInnerInner1" values="0 0 0 0 0.236204129 0 0 0 0 0.187430874 0 0 0 0 0.503396739 0 0 0 1 0"/>
        </filter>
        <path id="af" d="M24.855 111.32a2.597 2.597 0 0 1 2.597 2.597v4.833h-5.194v-4.833a2.597 2.597 0 0 1 2.597-2.596z"/>
        <filter id="ag" width="157.8%" height="140.4%" x="-28.9%" y="-20.2%" filterUnits="objectBoundingBox">
            <feOffset dx="3" in="SourceAlpha" result="shadowOffsetInner1"/>
            <feComposite in="shadowOffsetInner1" in2="SourceAlpha" k2="-1" k3="1" operator="arithmetic" result="shadowInnerInner1"/>
            <feColorMatrix in="shadowInnerInner1" values="0 0 0 0 0.236204129 0 0 0 0 0.187430874 0 0 0 0 0.503396739 0 0 0 1 0"/>
        </filter>
        <path id="ah" d="M34.5 111.32a2.597 2.597 0 0 1 2.597 2.597v4.833h-5.194v-4.833a2.597 2.597 0 0 1 2.597-2.596z"/>
        <filter id="ai" width="157.8%" height="140.4%" x="-28.9%" y="-20.2%" filterUnits="objectBoundingBox">
            <feOffset dx="3" in="SourceAlpha" result="shadowOffsetInner1"/>
            <feComposite in="shadowOffsetInner1" in2="SourceAlpha" k2="-1" k3="1" operator="arithmetic" result="shadowInnerInner1"/>
            <feColorMatrix in="shadowInnerInner1" values="0 0 0 0 0.236204129 0 0 0 0 0.187430874 0 0 0 0 0.503396739 0 0 0 1 0"/>
        </filter>
        <path id="aj" d="M44.145 111.32a2.597 2.597 0 0 1 2.597 2.597v4.833H41.55v-4.833a2.597 2.597 0 0 1 2.596-2.596z"/>
        <filter id="ak" width="157.8%" height="140.4%" x="-28.9%" y="-20.2%" filterUnits="objectBoundingBox">
            <feOffset dx="3" in="SourceAlpha" result="shadowOffsetInner1"/>
            <feComposite in="shadowOffsetInner1" in2="SourceAlpha" k2="-1" k3="1" operator="arithmetic" result="shadowInnerInner1"/>
            <feColorMatrix in="shadowInnerInner1" values="0 0 0 0 0.236204129 0 0 0 0 0.187430874 0 0 0 0 0.503396739 0 0 0 1 0"/>
        </filter>
        <linearGradient id="al" x1="50%" x2="50%" y1="0%" y2="100%">
            <stop offset="0%" stop-color="#D661D9"/>
            <stop offset="100%" stop-color="#CF89FF"/>
        </linearGradient>
        <linearGradient id="am" x1="50%" x2="50%" y1="0%" y2="100%">
            <stop offset="0%" stop-color="#992C96"/>
            <stop offset="100%" stop-color="#C674FF"/>
        </linearGradient>
        <linearGradient id="an" x1="50%" x2="50%" y1="0%" y2="100%">
            <stop offset="0%" stop-color="#AF48E1"/>
            <stop offset="100%" stop-color="#DE93FF"/>
        </linearGradient>
        <linearGradient id="ao" x1="50%" x2="50%" y1="0%" y2="100%">
            <stop offset="0%" stop-color="#9922B3"/>
            <stop offset="100%" stop-color="#AA54D4"/>
        </linearGradient>
        <linearGradient id="ap" x1="50%" x2="50%" y1="0%" y2="100%">
            <stop offset="0%" stop-color="#561D87"/>
            <stop offset="100%" stop-color="#271165"/>
        </linearGradient>
        <linearGradient id="aq" x1="50%" x2="50%" y1="0%" y2="100%">
            <stop offset="0%" stop-color="#561D87"/>
            <stop offset="100%" stop-color="#271165"/>
        </linearGradient>
        <linearGradient id="ar" x1="50%" x2="50%" y1=".752%" y2="100%">
            <stop offset="0%" stop-color="#7521AB"/>
            <stop offset="100%" stop-color="#CF55E5"/>
        </linearGradient>
        <path id="at" d="M.148 5.944h10.414l-3.448 14.86H3.596z"/>
        <filter id="as" width="388.1%" height="301.9%" x="-144%" y="-100.9%" filterUnits="objectBoundingBox">
            <feOffset in="SourceAlpha" result="shadowOffsetOuter1"/>
            <feGaussianBlur in="shadowOffsetOuter1" result="shadowBlurOuter1" stdDeviation="5"/>
            <feColorMatrix in="shadowBlurOuter1" values="0 0 0 0 0.101960784 0 0 0 0 0.925490196 0 0 0 0 0.658823529 0 0 0 1 0"/>
        </filter>
        <path id="av" d="M.148 5.944h10.414l-3.448 14.86H3.596z"/>
        <filter id="au" width="388.1%" height="301.9%" x="-144%" y="-100.9%" filterUnits="objectBoundingBox">
            <feOffset in="SourceAlpha" result="shadowOffsetOuter1"/>
            <feGaussianBlur in="shadowOffsetOuter1" result="shadowBlurOuter1" stdDeviation="5"/>
            <feColorMatrix in="shadowBlurOuter1" values="0 0 0 0 0.101960784 0 0 0 0 0.925490196 0 0 0 0 0.658823529 0 0 0 1 0"/>
        </filter>
        <path id="ax" d="M.148 5.944h10.414l-3.448 14.86H3.596z"/>
        <filter id="aw" width="388.1%" height="301.9%" x="-144%" y="-100.9%" filterUnits="objectBoundingBox">
            <feOffset in="SourceAlpha" result="shadowOffsetOuter1"/>
            <feGaussianBlur in="shadowOffsetOuter1" result="shadowBlurOuter1" stdDeviation="5"/>
            <feColorMatrix in="shadowBlurOuter1" values="0 0 0 0 0.101960784 0 0 0 0 0.925490196 0 0 0 0 0.658823529 0 0 0 1 0"/>
        </filter>
        <path id="az" d="M.148 5.944h10.414l-3.448 14.86H3.596z"/>
        <filter id="ay" width="388.1%" height="301.9%" x="-144%" y="-100.9%" filterUnits="objectBoundingBox">
            <feOffset in="SourceAlpha" result="shadowOffsetOuter1"/>
            <feGaussianBlur in="shadowOffsetOuter1" result="shadowBlurOuter1" stdDeviation="5"/>
            <feColorMatrix in="shadowBlurOuter1" values="0 0 0 0 0.101960784 0 0 0 0 0.925490196 0 0 0 0 0.658823529 0 0 0 1 0"/>
        </filter>
        <linearGradient id="aA" x1="50%" x2="50%" y1="0%" y2="100%">
            <stop offset="0%" stop-color="#211656"/>
            <stop offset="100%" stop-color="#170C44"/>
        </linearGradient>
    </defs>
    <g fill="none" fill-rule="evenodd" transform="translate(0 -1)">
        <path fill="url(#a)" d="M158.447 217.375l762.036 7.355c8.494 38.574 16.33 66.294 23.508 83.16 7.178 16.864-.658 23.888-23.508 21.069-21.08 9.34-78.368 14.925-171.862 16.754-266.497 5.211-409.889-14.528-569.244-14.528-364.82 0-40.293-76.658-51.374-106.455-7.387-19.865 2.76-22.316 30.444-7.355z" transform="translate(57.092 54.473)"/>
        <g transform="translate(57.092 54.473)">
            <mask id="e" fill="#fff">
                <use xlink:href="#b"/>
            </mask>
            <use fill="url(#c)" xlink:href="#b"/>
            <use fill="#000" filter="url(#d)" xlink:href="#b"/>
            <g stroke="#71A4FF" stroke-width="5.194" mask="url(#e)">
                <path d="M147.646 86.928C114.753 173.112 67.27 229.082 5.194 254.838M158.146 178.688C129.21 256.204 77.52 305.983 3.08 328.025M3.08 178.688c28.936 77.516 80.624 127.295 155.066 149.337M118.71 11.888c-21.247 83.8-55.433 133.85-102.557 150.15"/>
            </g>
            <g stroke="#71A4FF" stroke-width="5.194" mask="url(#e)">
                <path d="M20.032 86.928c32.893 86.184 80.377 142.154 142.453 167.91M48.968 11.888c21.248 83.8 55.434 133.85 102.557 150.15"/>
            </g>
            <path fill="url(#f)" d="M19.29-12.63h116.485v46.064H19.29z" mask="url(#e)"/>
        </g>
        <g opacity=".702">
            <path stroke="#312583" stroke-width="4.452" d="M766.793 219.051c16.262 33.071 30.11 56.78 41.547 71.129 11.436 14.348 29.367 30.511 53.793 48.49"/>
            <g fill="#312583">
                <path d="M778.293 245.798h4.452v92.871h-4.452zM793.132 271.802h4.452v66.867h-4.452zM822.81 307.465h4.451v31.948h-4.452zM807.971 291.12h4.452v47.55h-4.452zM837.648 320.838h4.452v18.574h-4.452z"/>
            </g>
        </g>
        <g opacity=".704">
            <path stroke="#2F237C" stroke-width="4.452" d="M491.162 219.051c-16.261 32.576-30.11 56.038-41.546 70.386-11.436 14.348-29.367 30.511-53.793 48.49"/>
            <g fill="#2F237C">
                <path d="M479.662 245.055h-4.452v92.871h4.452zM464.823 271.06h-4.452v66.866h4.452zM435.146 306.722h-4.452v31.948h4.452zM449.984 290.376h-4.452v47.55h4.452zM420.307 320.095h-4.452v18.574h4.452z"/>
            </g>
        </g>
        <path fill="url(#g)" d="M.324 174.105h626v14.116h-626z" transform="translate(293 164.69)"/>
        <path fill="#5244A3" d="M722.648 351.3h37.097v37.149h-37.097z"/>
        <path fill="#9086C3" d="M779.777 351.3h-20.774v37.149h20.774z"/>
        <path fill="#5244A3" d="M297.227 351.3h211v37.149h-211z"/>
        <path fill="#585FAC" d="M528.26 352.867h-20.774v35.582h20.774z"/>
        <g opacity=".602">
            <path fill="url(#h)" d="M4.452 53.619h18.549V173.98H4.452z" transform="translate(485.227 164.69)"/>
            <path fill="url(#i)" d="M22.258 53.619h18.549V173.98H22.258z" transform="translate(485.227 164.69)"/>
            <g transform="translate(485.227 164.69)">
                <use fill="#4731C7" xlink:href="#j"/>
                <use fill="#000" filter="url(#k)" xlink:href="#j"/>
            </g>
            <g transform="translate(485.227 164.69)">
                <use fill="#4731C7" xlink:href="#l"/>
                <use fill="#000" filter="url(#m)" xlink:href="#l"/>
            </g>
            <path fill="#7668D7" d="M507.485 219.051h18.549l2.332-4.457h-20.88z"/>
            <path fill="#392B90" d="M508.334 219.051h-18.549l-2.332-4.457h20.88z"/>
            <path fill="#6051C8" d="M507.485 192.305h20.774v23.032h-20.774z"/>
            <path fill="#6051C8" d="M507.485 185.618h4.452v7.43h-4.452z"/>
            <path fill="#4C3DAB" d="M503.776 185.618h4.452v7.43h-4.452z"/>
            <path fill="#43359C" d="M503.65 185.618h8.679v2.229h-8.68z"/>
            <path fill="url(#n)" d="M22.258 0l5.194 20.803H17.065zM40.065 0l5.193 20.803H34.871zM5.194 0l5.193 20.803H0z" transform="translate(485.227 164.69)"/>
            <path fill="#4C3DAB" d="M487.453 185.618h6.677v7.43h-6.677z"/>
            <path fill="#6051C8" d="M521.582 185.618h6.677v7.43h-6.677z"/>
            <path fill="#43359C" d="M487.453 185.618h6.677v2.229h-6.677z"/>
            <path fill="url(#o)" d="M28.194 27.615h8.903v10.402h-8.903z" transform="translate(485.227 164.69)"/>
            <path fill="#4C3DAB" d="M487.453 192.305h20.774v23.032h-20.774z"/>
            <path fill="#43359C" d="M521.582 185.618h6.677v2.229h-6.677z"/>
        </g>
        <g opacity=".602">
            <path fill="url(#h)" d="M4.452 53.619h18.549V173.98H4.452z" transform="translate(727.36 164.69)"/>
            <path fill="url(#i)" d="M22.258 53.619h18.549V173.98H22.258z" transform="translate(727.36 164.69)"/>
            <g transform="translate(727.36 164.69)">
                <use fill="#4731C7" xlink:href="#p"/>
                <use fill="#000" filter="url(#q)" xlink:href="#p"/>
            </g>
            <g transform="translate(727.36 164.69)">
                <use fill="#4731C7" xlink:href="#r"/>
                <use fill="#000" filter="url(#s)" xlink:href="#r"/>
            </g>
            <path fill="#7668D7" d="M749.617 219.051h18.549l2.332-4.457h-20.88z"/>
            <path fill="#392B90" d="M750.466 219.051h-18.549l-2.332-4.457h20.88z"/>
            <path fill="#6051C8" d="M749.617 192.305h20.774v23.032h-20.774z"/>
            <path fill="#6051C8" d="M749.617 185.618h4.452v7.43h-4.452z"/>
            <path fill="#4C3DAB" d="M745.908 185.618h4.452v7.43h-4.452z"/>
            <path fill="#43359C" d="M745.782 185.618h8.679v2.229h-8.679z"/>
            <path fill="url(#n)" d="M22.258 0l5.194 20.803H17.065zM40.065 0l5.193 20.803H34.871zM5.194 0l5.193 20.803H0z" transform="translate(727.36 164.69)"/>
            <path fill="#4C3DAB" d="M729.585 185.618h6.677v7.43h-6.677z"/>
            <path fill="#6051C8" d="M763.714 185.618h6.677v7.43h-6.677z"/>
            <path fill="#43359C" d="M729.585 185.618h6.677v2.229h-6.677z"/>
            <path fill="url(#o)" d="M28.194 27.615h8.903v10.402h-8.903z" transform="translate(727.36 164.69)"/>
            <path fill="#4C3DAB" d="M729.585 192.305h20.774v23.032h-20.774z"/>
            <path fill="#43359C" d="M763.714 185.618h6.677v2.229h-6.677z"/>
        </g>
        <path fill="#6150C7" d="M511.195 249.27h232.227v6.075H511.195z"/>
        <path fill="#382B83" d="M511.195 255.457h14.839v5.944h-14.839z"/>
        <g transform="translate(586.873)">
            <path fill="url(#t)" d="M5.936 193.79h48.968v194.658H5.936z"/>
            <g transform="translate(15.58 209.393)">
                <use fill="#5E45F6" xlink:href="#u"/>
                <use fill="#000" filter="url(#v)" xlink:href="#u"/>
            </g>
            <g transform="translate(15.58 209.393)">
                <use fill="#5E45F6" xlink:href="#w"/>
                <use fill="#000" filter="url(#x)" xlink:href="#w"/>
            </g>
            <g transform="translate(15.58 209.393)">
                <use fill="#5E45F6" xlink:href="#y"/>
                <use fill="#000" filter="url(#z)" xlink:href="#y"/>
            </g>
            <g transform="translate(15.58 209.393)">
                <use fill="#5E45F6" xlink:href="#A"/>
                <use fill="#000" filter="url(#B)" xlink:href="#A"/>
            </g>
            <g transform="translate(15.58 268.087)">
                <use fill="#5E45F6" xlink:href="#C"/>
                <use fill="#000" filter="url(#D)" xlink:href="#C"/>
            </g>
            <g transform="translate(15.58 268.087)">
                <use fill="#5E45F6" xlink:href="#E"/>
                <use fill="#000" filter="url(#F)" xlink:href="#E"/>
            </g>
            <g transform="translate(15.58 268.087)">
                <use fill="#5E45F6" xlink:href="#G"/>
                <use fill="#000" filter="url(#H)" xlink:href="#G"/>
            </g>
            <g transform="translate(15.58 268.087)">
                <use fill="#5E45F6" xlink:href="#I"/>
                <use fill="#000" filter="url(#J)" xlink:href="#I"/>
            </g>
            <path fill="#A3A3A3" d="M62.323 250.999h29.678v2.972H62.323z"/>
            <path fill="url(#K)" d="M54.904 193.79h37.839v194.658H54.904z"/>
            <g transform="translate(63.807 268.087)">
                <use fill="#7464C2" xlink:href="#L"/>
                <use fill="#000" filter="url(#M)" xlink:href="#L"/>
            </g>
            <g transform="translate(63.807 268.087)">
                <use fill="#7464C2" xlink:href="#N"/>
                <use fill="#000" filter="url(#O)" xlink:href="#N"/>
            </g>
            <g transform="translate(63.807 268.087)">
                <use fill="#7464C2" xlink:href="#P"/>
                <use fill="#000" filter="url(#Q)" xlink:href="#P"/>
            </g>
            <g transform="translate(63.807 208.65)">
                <use fill="#7464C2" xlink:href="#R"/>
                <use fill="#000" filter="url(#S)" xlink:href="#R"/>
            </g>
            <g transform="translate(63.807 208.65)">
                <use fill="#7464C2" xlink:href="#T"/>
                <use fill="#000" filter="url(#U)" xlink:href="#T"/>
            </g>
            <g transform="translate(63.807 208.65)">
                <use fill="#7464C2" xlink:href="#V"/>
                <use fill="#000" filter="url(#W)" xlink:href="#V"/>
            </g>
            <path fill="#6C5EC3" d="M60.84 184.583h37.838l-5.935 9.659h-37.84z"/>
            <path fill="url(#X)" d="M60.839 118.459h37.839v66.124H60.839z"/>
            <path fill="#624AF0" d="M15.581 252.485h29.678v2.972H15.581z"/>
            <path fill="url(#Y)" d="M0 118.459h60.84v66.124l-60.84.7z"/>
            <path fill="#816FC0" d="M63.807 252.485h20.774v2.972H63.807z"/>
            <use fill="#000" filter="url(#Z)" xlink:href="#aa"/>
            <use fill="#1AECA8" xlink:href="#aa"/>
            <path fill="url(#ab)" d="M42.328 103.148h51.898c.168 3.498.481 6.05.939 7.655.457 1.606 1.629 4.158 3.513 7.656H37.84c1.725-3.098 2.882-5.65 3.47-7.656.588-2.005.928-4.557 1.02-7.655z"/>
            <path fill="url(#ac)" d="M6.453 104.342l49.193-1.194c.06 3.103.319 5.457.776 7.063.458 1.605 1.93 4.354 4.417 8.248H0c3.034-3.493 4.845-6.243 5.433-8.248.588-2.006.928-3.962 1.02-5.869z"/>
            <use fill="#4D38C3" xlink:href="#ad"/>
            <use fill="#000" filter="url(#ae)" xlink:href="#ad"/>
            <use fill="#4D38C3" xlink:href="#af"/>
            <use fill="#000" filter="url(#ag)" xlink:href="#af"/>
            <use fill="#4D38C3" xlink:href="#ah"/>
            <use fill="#000" filter="url(#ai)" xlink:href="#ah"/>
            <use fill="#4D38C3" xlink:href="#aj"/>
            <use fill="#000" filter="url(#ak)" xlink:href="#aj"/>
            <rect width="2.968" height="14.859" x="29.678" y="140.005" fill="#513D9E" rx="1.484"/>
            <path fill="#513D9E" d="M30.338 152.843l.002-.002a1.483 1.483 0 0 1 2.098-.073l8.683 8.109c.599.559.632 1.497.074 2.096l-.002.002a1.483 1.483 0 0 1-2.098.073l-8.684-8.109a1.484 1.484 0 0 1-.073-2.096z"/>
            <ellipse cx="31.162" cy="153.378" fill="#D8D8D8" rx="1.484" ry="1.486"/>
            <path fill="#5341C1" d="M60.84 184.583L0 185.199l5.936 9.043h48.968z"/>
            <path fill="url(#al)" d="M37.839 67.194h36.355c-.495 8.28.866 14.794 4.08 19.544 3.216 4.75 8.699 10.618 16.45 17.604H44.756l-6.917-37.148z"/>
            <path fill="url(#am)" d="M19.286 67.194h27.169c.476 8.49 1.21 14.68 2.203 18.574.993 3.893 3.24 10.085 6.743 18.574H6.433c5.167-8.156 8.482-14.347 9.945-18.574 1.462-4.227 2.432-10.418 2.908-18.574z"/>
            <path fill="url(#an)" d="M73.823 1.812v66.125H45.625c6.638-9.389 11.76-18.097 15.363-26.126 3.604-8.028 7.882-21.361 12.835-39.999z" transform="matrix(-1 0 0 1 119.448 0)"/>
            <path fill="url(#ao)" d="M46.31 1.812v66.125H19.29c7.38-9.475 12.872-18.226 16.476-26.255 3.604-8.028 7.119-21.318 10.544-39.87z"/>
            <g fill="#A347D9" transform="translate(4.452 89.483)">
                <path d="M2.226 1.486l5.193 13.373H2.226z"/>
                <ellipse cx="2.597" cy="2.6" rx="2.597" ry="2.6"/>
            </g>
            <g fill="#9B309B" transform="translate(17.065 53.077)">
                <path d="M2.226 1.486l5.193 13.373H2.226z"/>
                <ellipse cx="2.597" cy="2.6" rx="2.597" ry="2.6"/>
            </g>
            <g fill="#D568DF" transform="matrix(-1 0 0 1 76.42 53.077)">
                <path d="M2.226 1.486l5.193 13.373H2.226z"/>
                <ellipse cx="2.597" cy="2.6" rx="2.597" ry="2.6"/>
            </g>
            <g fill="#C76EFF" transform="matrix(-1 0 0 1 96.452 89.483)">
                <path d="M2.226 1.486l5.193 13.373H2.226z"/>
                <ellipse cx="2.597" cy="2.6" rx="2.597" ry="2.6"/>
            </g>
            <g transform="matrix(-1 0 0 1 60.84 89.483)">
                <path fill="#A146D9" d="M4.452 1.486l5.193 13.373H4.452z"/>
                <path fill="#C56EFF" d="M5.194 1.486L0 14.859h5.194z"/>
                <ellipse cx="4.823" cy="2.6" fill="#A146D9" rx="2.597" ry="2.6"/>
            </g>
            <g transform="matrix(-1 0 0 1 51.32 53.077)">
                <path fill="#9B309B" d="M5.01 1.486l5.503 13.373h-5.69z"/>
                <path fill="#D568DF" d="M5.01 1.486L0 14.859h4.823z"/>
                <ellipse cx="4.823" cy="2.6" fill="#9B309B" rx="2.597" ry="2.6"/>
            </g>
            <g fill="#9B27B7" transform="matrix(-1 0 0 1 49.094 .451)">
                <ellipse cx="2.723" cy="3.218" rx="2.597" ry="2.6"/>
            </g>
        </g>
        <path fill="url(#ap)" d="M225.727 308c5.434 0 10.09 3.327 12.03 8.05a23.334 23.334 0 0 1 7.939-.506 22.971 22.971 0 0 1 15.728-6.193c10.818 0 19.893 7.444 22.36 17.477l.13-.004.316-.003c7.916 0 14.334 6.393 14.334 14.28 0 1.105-.126 2.18-.364 3.213a23.074 23.074 0 0 1 3.406-.251c10.946 0 20.108 7.62 22.446 17.834a14.409 14.409 0 0 1 3.614-.457c7.916 0 14.334 6.393 14.334 14.28S335.582 390 327.666 390c-1.846 0-3.61-.348-5.23-.98l-14.151-.001a23.073 23.073 0 0 1-6.679.981c-2.322 0-4.564-.343-6.677-.981h-24.65a23.472 23.472 0 0 1-2.074 0H236.4a23.472 23.472 0 0 1-2.074 0h-57.803a13.036 13.036 0 0 1-3.525.483c-7.178 0-12.997-5.805-12.997-12.966 0-6.35 4.575-11.633 10.615-12.75 1.119-6.025 6.415-10.59 12.78-10.59.689 0 1.365.054 2.026.157 3.35-6.72 9.904-11.571 17.668-12.565-.01-.185-.013-.37-.013-.558 0-6.603 4.947-12.053 11.346-12.862a12.884 12.884 0 0 1-1.691-6.402c0-7.16 5.818-12.966 12.996-12.966z"/>
        <path fill="url(#aq)" d="M980.175 280c12.728 0 23.046 10.268 23.046 22.934 0 1.042-.07 2.068-.205 3.073 18.087 1.228 32.375 16.198 32.375 34.484 0 2.74-.32 5.404-.927 7.96a21.504 21.504 0 0 1 2.231-.115c11.767 0 21.305 9.479 21.305 21.171 0 11.693-9.538 21.172-21.305 21.172a21.305 21.305 0 0 1-11.075-3.082 14.792 14.792 0 0 1-12.838 7.403c-5.15 0-9.686-2.618-12.333-6.588a23.015 23.015 0 0 1-14.187 4.86 23.035 23.035 0 0 1-16.957-7.404 23.038 23.038 0 0 1-11.521 6.762v.619h-4.397a23.553 23.553 0 0 1-2.076 0h-31.838a23.553 23.553 0 0 1-2.075 0h-57.86a13.08 13.08 0 0 1-3.528.482c-7.185 0-13.01-5.796-13.01-12.946 0-6.34 4.579-11.615 10.625-12.73 1.12-6.017 6.421-10.574 12.792-10.574.69 0 1.367.053 2.028.156a23.06 23.06 0 0 1 17.686-12.545 11.06 11.06 0 0 1-.013-.558c0-6.593 4.952-12.035 11.357-12.843a12.838 12.838 0 0 1-1.693-6.391c0-7.15 5.825-12.947 13.01-12.947 5.439 0 10.099 3.322 12.042 8.038a23.415 23.415 0 0 1 7.946-.505 23.02 23.02 0 0 1 11.804-5.85c2.264-8.067 8.849-14.34 17.115-16.193C960.025 287.628 969.205 280 980.175 280z"/>
        <g transform="translate(287 315)">
            <path fill="#1F0C3B" d="M3.732 20.803h3.71v53.494h-3.71z"/>
            <ellipse cx="5.586" cy="5.572" fill="url(#ar)" rx="5.565" ry="5.572"/>
            <use fill="#000" filter="url(#as)" xlink:href="#at"/>
            <use fill="#1AECA8" xlink:href="#at"/>
        </g>
        <g transform="translate(377 315)">
            <path fill="#1F0C3B" d="M3.732 20.803h3.71v53.494h-3.71z"/>
            <ellipse cx="5.586" cy="5.572" fill="url(#ar)" rx="5.565" ry="5.572"/>
            <use fill="#000" filter="url(#au)" xlink:href="#av"/>
            <use fill="#1AECA8" xlink:href="#av"/>
        </g>
        <g transform="translate(468 315)">
            <path fill="#1F0C3B" d="M3.732 20.803h3.71v53.494h-3.71z"/>
            <ellipse cx="5.586" cy="5.572" fill="url(#ar)" rx="5.565" ry="5.572"/>
            <use fill="#000" filter="url(#aw)" xlink:href="#ax"/>
            <use fill="#1AECA8" xlink:href="#ax"/>
        </g>
        <g transform="translate(559 315)">
            <path fill="#1F0C3B" d="M3.732 20.803h3.71v53.494h-3.71z"/>
            <ellipse cx="5.586" cy="5.572" fill="url(#ar)" rx="5.565" ry="5.572"/>
            <use fill="#000" filter="url(#ay)" xlink:href="#az"/>
            <use fill="#1AECA8" xlink:href="#az"/>
        </g>
        <rect width="1080" height="12.926" y="388.645" fill="url(#aA)" rx="5.499"/>
    </g>
</svg>
